G04 #@! TF.GenerationSoftware,KiCad,Pcbnew,9.0.1*
G04 #@! TF.CreationDate,2025-10-23T20:38:35-06:00*
G04 #@! TF.ProjectId,usbport,75736270-6f72-4742-9e6b-696361645f70,rev?*
G04 #@! TF.SameCoordinates,Original*
G04 #@! TF.FileFunction,Copper,L1,Top*
G04 #@! TF.FilePolarity,Positive*
%FSLAX46Y46*%
G04 Gerber Fmt 4.6, Leading zero omitted, Abs format (unit mm)*
G04 Created by KiCad (PCBNEW 9.0.1) date 2025-10-23 20:38:35*
%MOMM*%
%LPD*%
G01*
G04 APERTURE LIST*
G04 Aperture macros list*
%AMRoundRect*
0 Rectangle with rounded corners*
0 $1 Rounding radius*
0 $2 $3 $4 $5 $6 $7 $8 $9 X,Y pos of 4 corners*
0 Add a 4 corners polygon primitive as box body*
4,1,4,$2,$3,$4,$5,$6,$7,$8,$9,$2,$3,0*
0 Add four circle primitives for the rounded corners*
1,1,$1+$1,$2,$3*
1,1,$1+$1,$4,$5*
1,1,$1+$1,$6,$7*
1,1,$1+$1,$8,$9*
0 Add four rect primitives between the rounded corners*
20,1,$1+$1,$2,$3,$4,$5,0*
20,1,$1+$1,$4,$5,$6,$7,0*
20,1,$1+$1,$6,$7,$8,$9,0*
20,1,$1+$1,$8,$9,$2,$3,0*%
G04 Aperture macros list end*
G04 #@! TA.AperFunction,SMDPad,CuDef*
%ADD10RoundRect,0.166667X-0.333333X-0.733333X0.333333X-0.733333X0.333333X0.733333X-0.333333X0.733333X0*%
G04 #@! TD*
G04 #@! TA.AperFunction,ComponentPad*
%ADD11C,0.600000*%
G04 #@! TD*
G04 #@! TA.AperFunction,SMDPad,CuDef*
%ADD12RoundRect,0.100000X-0.625000X-0.900000X0.625000X-0.900000X0.625000X0.900000X-0.625000X0.900000X0*%
G04 #@! TD*
G04 #@! TA.AperFunction,SMDPad,CuDef*
%ADD13RoundRect,0.250000X-0.625000X0.375000X-0.625000X-0.375000X0.625000X-0.375000X0.625000X0.375000X0*%
G04 #@! TD*
G04 #@! TA.AperFunction,SMDPad,CuDef*
%ADD14RoundRect,0.135000X0.135000X0.185000X-0.135000X0.185000X-0.135000X-0.185000X0.135000X-0.185000X0*%
G04 #@! TD*
G04 #@! TA.AperFunction,SMDPad,CuDef*
%ADD15RoundRect,0.150000X0.200000X-0.150000X0.200000X0.150000X-0.200000X0.150000X-0.200000X-0.150000X0*%
G04 #@! TD*
G04 #@! TA.AperFunction,SMDPad,CuDef*
%ADD16RoundRect,0.135000X-0.135000X-0.185000X0.135000X-0.185000X0.135000X0.185000X-0.135000X0.185000X0*%
G04 #@! TD*
G04 #@! TA.AperFunction,SMDPad,CuDef*
%ADD17RoundRect,0.218750X-0.381250X0.218750X-0.381250X-0.218750X0.381250X-0.218750X0.381250X0.218750X0*%
G04 #@! TD*
G04 #@! TA.AperFunction,SMDPad,CuDef*
%ADD18RoundRect,0.125000X-0.000010X-0.150000X0.000010X-0.150000X0.000010X0.150000X-0.000010X0.150000X0*%
G04 #@! TD*
G04 #@! TA.AperFunction,SMDPad,CuDef*
%ADD19R,0.250000X0.550000*%
G04 #@! TD*
G04 #@! TA.AperFunction,SMDPad,CuDef*
%ADD20R,0.300000X0.550000*%
G04 #@! TD*
G04 #@! TA.AperFunction,SMDPad,CuDef*
%ADD21RoundRect,0.060000X0.240000X0.665000X-0.240000X0.665000X-0.240000X-0.665000X0.240000X-0.665000X0*%
G04 #@! TD*
G04 #@! TA.AperFunction,SMDPad,CuDef*
%ADD22RoundRect,0.060000X0.090000X0.665000X-0.090000X0.665000X-0.090000X-0.665000X0.090000X-0.665000X0*%
G04 #@! TD*
G04 #@! TA.AperFunction,ComponentPad*
%ADD23O,1.100000X2.200000*%
G04 #@! TD*
G04 #@! TA.AperFunction,ComponentPad*
%ADD24O,1.300000X1.700000*%
G04 #@! TD*
G04 #@! TA.AperFunction,ViaPad*
%ADD25C,0.600000*%
G04 #@! TD*
G04 #@! TA.AperFunction,Conductor*
%ADD26C,0.250000*%
G04 #@! TD*
G04 #@! TA.AperFunction,Conductor*
%ADD27C,0.500000*%
G04 #@! TD*
G04 APERTURE END LIST*
D10*
X90200000Y-101300000D03*
X91400000Y-101300000D03*
X92600000Y-101300000D03*
X93800000Y-101300000D03*
D11*
X89000000Y-104300000D03*
D12*
X89425000Y-105000000D03*
D11*
X89800000Y-104300000D03*
X89800000Y-105000000D03*
X89800000Y-105700000D03*
X94200000Y-104300000D03*
X94200000Y-105000000D03*
X94200000Y-105700000D03*
D12*
X94575000Y-105000000D03*
D11*
X94950000Y-104300000D03*
D13*
X87600000Y-97200000D03*
X87600000Y-100000000D03*
D14*
X96710000Y-82400000D03*
X95690000Y-82400000D03*
D15*
X89600000Y-96900000D03*
X89600000Y-98300000D03*
D16*
X95690000Y-83600000D03*
X96710000Y-83600000D03*
D17*
X87400000Y-81337500D03*
X87400000Y-83462500D03*
D18*
X91000000Y-84585000D03*
D19*
X91500000Y-84585000D03*
D20*
X92000000Y-84585000D03*
D19*
X92500000Y-84585000D03*
X93000000Y-84585000D03*
X93000000Y-83815000D03*
X92500000Y-83815000D03*
D20*
X92000000Y-83815000D03*
D19*
X91500000Y-83815000D03*
X91000000Y-83815000D03*
D21*
X95225000Y-79532500D03*
X94450000Y-79532500D03*
D22*
X93250000Y-79532500D03*
X92250000Y-79532500D03*
X91750000Y-79532500D03*
X90750000Y-79532500D03*
D21*
X88775000Y-79532500D03*
X89550000Y-79532500D03*
D22*
X90250000Y-79532500D03*
X91250000Y-79532500D03*
X92750000Y-79532500D03*
X93750000Y-79532500D03*
D23*
X96320000Y-78617500D03*
D24*
X96320000Y-74437500D03*
D23*
X87680000Y-78617500D03*
D24*
X87680000Y-74437500D03*
D25*
X92000000Y-74600000D03*
X92000000Y-85800000D03*
X90400000Y-99400000D03*
X95200000Y-81000000D03*
X89600000Y-86800000D03*
X94400000Y-86800000D03*
X88800000Y-81000000D03*
X87400000Y-84800000D03*
X90600000Y-82800000D03*
X91500000Y-82500000D03*
X93200000Y-81000000D03*
X91500000Y-77900000D03*
X92500000Y-82500000D03*
X92500000Y-77900000D03*
X89550000Y-84200000D03*
X94450000Y-84200000D03*
X96200000Y-84600000D03*
X90400000Y-77600000D03*
D26*
X90400000Y-81200000D02*
X92000000Y-81200000D01*
X90200000Y-81400000D02*
X90400000Y-81200000D01*
X92000000Y-81200000D02*
X92200000Y-81000000D01*
X90200000Y-81600000D02*
X90200000Y-81400000D01*
X93000000Y-83815000D02*
X93000000Y-83400000D01*
X90400000Y-81800000D02*
X90200000Y-81600000D01*
X92200000Y-81000000D02*
X92000000Y-80800000D01*
X93874000Y-82203168D02*
X93470832Y-81800000D01*
X93470832Y-81800000D02*
X90400000Y-81800000D01*
X93874000Y-82526000D02*
X93874000Y-82203168D01*
X91666952Y-80800000D02*
X91226000Y-80359048D01*
X93000000Y-83400000D02*
X93874000Y-82526000D01*
X92000000Y-80800000D02*
X91666952Y-80800000D01*
X91226000Y-80359048D02*
X91226000Y-80174000D01*
X91226000Y-80174000D02*
X91250000Y-80150000D01*
X91250000Y-80150000D02*
X91250000Y-79532500D01*
D27*
X88900000Y-100000000D02*
X90200000Y-101300000D01*
X87600000Y-100000000D02*
X88900000Y-100000000D01*
D26*
X92000000Y-84585000D02*
X92000000Y-85800000D01*
X92000000Y-83815000D02*
X92000000Y-84585000D01*
X91400000Y-94400000D02*
X91400000Y-101300000D01*
X93200000Y-81000000D02*
X92750000Y-80550000D01*
X91000000Y-83200000D02*
X91000000Y-83815000D01*
X92750000Y-80550000D02*
X92750000Y-79532500D01*
X91500000Y-85300000D02*
X91500000Y-84200000D01*
X91750000Y-78325000D02*
X91750000Y-79532500D01*
X89400000Y-92400000D02*
X91400000Y-94400000D01*
X91000000Y-83815000D02*
X91000000Y-85800000D01*
X91000000Y-85800000D02*
X91000000Y-88000000D01*
X90600000Y-82800000D02*
X91000000Y-83200000D01*
X91000000Y-85800000D02*
X91500000Y-85300000D01*
X91500000Y-78075000D02*
X91750000Y-78325000D01*
X91500000Y-83815000D02*
X91500000Y-84200000D01*
X91500000Y-83815000D02*
X91500000Y-82500000D01*
X91000000Y-88000000D02*
X89400000Y-89600000D01*
X89400000Y-89600000D02*
X89400000Y-92400000D01*
X91000000Y-83815000D02*
X91000000Y-84585000D01*
X91500000Y-77900000D02*
X91500000Y-78075000D01*
X91500000Y-84200000D02*
X91500000Y-84585000D01*
X92500000Y-83815000D02*
X92500000Y-84585000D01*
X93000000Y-85800000D02*
X93000000Y-88000000D01*
X92500000Y-77900000D02*
X92500000Y-78125003D01*
X93000000Y-83815000D02*
X93000000Y-85800000D01*
X93000000Y-85800000D02*
X92500000Y-85300000D01*
X94600000Y-92400000D02*
X92600000Y-94400000D01*
X94600000Y-89600000D02*
X94600000Y-92400000D01*
X93000000Y-83815000D02*
X93000000Y-84585000D01*
X92600000Y-94400000D02*
X92600000Y-101300000D01*
X92500000Y-83815000D02*
X92500000Y-82500000D01*
X92250000Y-78375003D02*
X92250000Y-79532500D01*
X93000000Y-88000000D02*
X94600000Y-89600000D01*
X92500000Y-78125003D02*
X92250000Y-78375003D01*
X92500000Y-85300000D02*
X92500000Y-84585000D01*
D27*
X89550000Y-84200000D02*
X89550000Y-85050000D01*
X87000000Y-87600000D02*
X87000000Y-96600000D01*
X87900000Y-96900000D02*
X87600000Y-97200000D01*
X94450000Y-84200000D02*
X94450000Y-79532500D01*
X87000000Y-96600000D02*
X87600000Y-97200000D01*
X89550000Y-85050000D02*
X87000000Y-87600000D01*
X89600000Y-96900000D02*
X87900000Y-96900000D01*
X89550000Y-79532500D02*
X89550000Y-84200000D01*
X87400000Y-81337500D02*
X87400000Y-78897500D01*
X87400000Y-78897500D02*
X87680000Y-78617500D01*
D26*
X97374000Y-80626000D02*
X95690000Y-82310000D01*
X95690000Y-82310000D02*
X95690000Y-82400000D01*
X93250000Y-77950000D02*
X94200000Y-77000000D01*
X94200000Y-77000000D02*
X96800000Y-77000000D01*
X93250000Y-79532500D02*
X93250000Y-77950000D01*
X97374000Y-77574000D02*
X97374000Y-80626000D01*
X96800000Y-77000000D02*
X97374000Y-77574000D01*
X96200000Y-84400000D02*
X95690000Y-83890000D01*
X90250000Y-79532500D02*
X90250000Y-77750000D01*
X95690000Y-83890000D02*
X95690000Y-83600000D01*
X90250000Y-77750000D02*
X90400000Y-77600000D01*
X96200000Y-84600000D02*
X96200000Y-84400000D01*
G04 #@! TA.AperFunction,Conductor*
G36*
X95544071Y-78364801D02*
G01*
X95568958Y-78420697D01*
X95569500Y-78431045D01*
X95569500Y-79241418D01*
X95598342Y-79386414D01*
X95634287Y-79473192D01*
X95654916Y-79522995D01*
X95737049Y-79645916D01*
X95841584Y-79750451D01*
X95964505Y-79832584D01*
X96101087Y-79889158D01*
X96246082Y-79918000D01*
X96246083Y-79918000D01*
X96393917Y-79918000D01*
X96393918Y-79918000D01*
X96538913Y-79889158D01*
X96675495Y-79832584D01*
X96798416Y-79750451D01*
X96879498Y-79669368D01*
X96934013Y-79641593D01*
X96994445Y-79651164D01*
X97037710Y-79694429D01*
X97048500Y-79739374D01*
X97048500Y-80450165D01*
X97029593Y-80508356D01*
X97019504Y-80520169D01*
X95689169Y-81850504D01*
X95634652Y-81878281D01*
X95619165Y-81879500D01*
X95515684Y-81879500D01*
X95499398Y-81881644D01*
X95466825Y-81885932D01*
X95466824Y-81885932D01*
X95359598Y-81935933D01*
X95275933Y-82019598D01*
X95225932Y-82126824D01*
X95225932Y-82126825D01*
X95219500Y-82175685D01*
X95219500Y-82624314D01*
X95225932Y-82673174D01*
X95225932Y-82673175D01*
X95275933Y-82780401D01*
X95275934Y-82780402D01*
X95275935Y-82780404D01*
X95359596Y-82864065D01*
X95359597Y-82864065D01*
X95359598Y-82864066D01*
X95458694Y-82910276D01*
X95503442Y-82952004D01*
X95515117Y-83012065D01*
X95489259Y-83067518D01*
X95458694Y-83089724D01*
X95359598Y-83135933D01*
X95275933Y-83219598D01*
X95225932Y-83326824D01*
X95225932Y-83326825D01*
X95219500Y-83375685D01*
X95219500Y-83824314D01*
X95225932Y-83873174D01*
X95225932Y-83873175D01*
X95275933Y-83980401D01*
X95275934Y-83980402D01*
X95275935Y-83980404D01*
X95359596Y-84064065D01*
X95426487Y-84095257D01*
X95454648Y-84114975D01*
X95695913Y-84356240D01*
X95723690Y-84410757D01*
X95721536Y-84451866D01*
X95699500Y-84534108D01*
X95699500Y-84665892D01*
X95708773Y-84700500D01*
X95733609Y-84793190D01*
X95799496Y-84907309D01*
X95799498Y-84907311D01*
X95799500Y-84907314D01*
X95892686Y-85000500D01*
X95892688Y-85000501D01*
X95892690Y-85000503D01*
X96006810Y-85066390D01*
X96006808Y-85066390D01*
X96006812Y-85066391D01*
X96006814Y-85066392D01*
X96134108Y-85100500D01*
X96134110Y-85100500D01*
X96265890Y-85100500D01*
X96265892Y-85100500D01*
X96393186Y-85066392D01*
X96393188Y-85066390D01*
X96393190Y-85066390D01*
X96507309Y-85000503D01*
X96507309Y-85000502D01*
X96507314Y-85000500D01*
X96600500Y-84907314D01*
X96609115Y-84892392D01*
X96666390Y-84793190D01*
X96666390Y-84793188D01*
X96666392Y-84793186D01*
X96700500Y-84665892D01*
X96700500Y-84534108D01*
X96666392Y-84406814D01*
X96666390Y-84406811D01*
X96666390Y-84406809D01*
X96600503Y-84292690D01*
X96600501Y-84292688D01*
X96600500Y-84292686D01*
X96507314Y-84199500D01*
X96406244Y-84141147D01*
X96385744Y-84125417D01*
X96186196Y-83925869D01*
X96158419Y-83871352D01*
X96158047Y-83842948D01*
X96160500Y-83824316D01*
X96160500Y-83375684D01*
X96154068Y-83326827D01*
X96141791Y-83300500D01*
X96104066Y-83219598D01*
X96104065Y-83219597D01*
X96104065Y-83219596D01*
X96020404Y-83135935D01*
X95921302Y-83089723D01*
X95876557Y-83047996D01*
X95864882Y-82987935D01*
X95890740Y-82932482D01*
X95921301Y-82910277D01*
X96020404Y-82864065D01*
X96104065Y-82780404D01*
X96154068Y-82673173D01*
X96160500Y-82624316D01*
X96160500Y-82340834D01*
X96179407Y-82282643D01*
X96189496Y-82270830D01*
X97330496Y-81129830D01*
X97385013Y-81102053D01*
X97445445Y-81111624D01*
X97488710Y-81154889D01*
X97499500Y-81199834D01*
X97499500Y-105900500D01*
X97480593Y-105958691D01*
X97431093Y-105994655D01*
X97400500Y-105999500D01*
X86599500Y-105999500D01*
X86541309Y-105980593D01*
X86505345Y-105931093D01*
X86500500Y-105900500D01*
X86500500Y-100780818D01*
X86519407Y-100722627D01*
X86568907Y-100686663D01*
X86630093Y-100686663D01*
X86658283Y-100701160D01*
X86762118Y-100777793D01*
X86890301Y-100822646D01*
X86920725Y-100825499D01*
X86920727Y-100825500D01*
X86920734Y-100825500D01*
X88279273Y-100825500D01*
X88279273Y-100825499D01*
X88309699Y-100822646D01*
X88437882Y-100777793D01*
X88547150Y-100697150D01*
X88627793Y-100587882D01*
X88633555Y-100571413D01*
X88670616Y-100522734D01*
X88729216Y-100505135D01*
X88786969Y-100525340D01*
X88797003Y-100534106D01*
X89470504Y-101207607D01*
X89498281Y-101262124D01*
X89499500Y-101277611D01*
X89499500Y-102068180D01*
X89509898Y-102139548D01*
X89563717Y-102249635D01*
X89650365Y-102336283D01*
X89760452Y-102390102D01*
X89831820Y-102400500D01*
X89831823Y-102400500D01*
X90568176Y-102400500D01*
X90568180Y-102400500D01*
X90639548Y-102390102D01*
X90645314Y-102387282D01*
X90756519Y-102332918D01*
X90817101Y-102324346D01*
X90843481Y-102332918D01*
X90960450Y-102390101D01*
X90960452Y-102390102D01*
X91031820Y-102400500D01*
X91031823Y-102400500D01*
X91768176Y-102400500D01*
X91768180Y-102400500D01*
X91839548Y-102390102D01*
X91845314Y-102387282D01*
X91956519Y-102332918D01*
X92017101Y-102324346D01*
X92043481Y-102332918D01*
X92160450Y-102390101D01*
X92160452Y-102390102D01*
X92231820Y-102400500D01*
X92231823Y-102400500D01*
X92968176Y-102400500D01*
X92968180Y-102400500D01*
X93039548Y-102390102D01*
X93149635Y-102336283D01*
X93236283Y-102249635D01*
X93290102Y-102139548D01*
X93300500Y-102068180D01*
X93300500Y-100531820D01*
X93290102Y-100460452D01*
X93236283Y-100350365D01*
X93149635Y-100263717D01*
X93039548Y-100209898D01*
X93010225Y-100205625D01*
X92955369Y-100178526D01*
X92926918Y-100124357D01*
X92925500Y-100107660D01*
X92925500Y-94575834D01*
X92944407Y-94517643D01*
X92954490Y-94505836D01*
X94860465Y-92599862D01*
X94903318Y-92525639D01*
X94925500Y-92442853D01*
X94925500Y-92357147D01*
X94925500Y-89650840D01*
X94925501Y-89650827D01*
X94925501Y-89557149D01*
X94925501Y-89557147D01*
X94903318Y-89474361D01*
X94893909Y-89458064D01*
X94886118Y-89444570D01*
X94886116Y-89444567D01*
X94881891Y-89437250D01*
X94860465Y-89400138D01*
X94799862Y-89339535D01*
X94799859Y-89339533D01*
X93354496Y-87894169D01*
X93326719Y-87839652D01*
X93325500Y-87824165D01*
X93325500Y-83575834D01*
X93344407Y-83517643D01*
X93354496Y-83505830D01*
X93830496Y-83029830D01*
X93885013Y-83002053D01*
X93945445Y-83011624D01*
X93988710Y-83054889D01*
X93999500Y-83099834D01*
X93999500Y-83952761D01*
X93986238Y-84002259D01*
X93983608Y-84006813D01*
X93983608Y-84006814D01*
X93949500Y-84134108D01*
X93949500Y-84265892D01*
X93979579Y-84378151D01*
X93983609Y-84393190D01*
X94049496Y-84507309D01*
X94049498Y-84507311D01*
X94049500Y-84507314D01*
X94142686Y-84600500D01*
X94142688Y-84600501D01*
X94142690Y-84600503D01*
X94256810Y-84666390D01*
X94256808Y-84666390D01*
X94256812Y-84666391D01*
X94256814Y-84666392D01*
X94384108Y-84700500D01*
X94384110Y-84700500D01*
X94515890Y-84700500D01*
X94515892Y-84700500D01*
X94643186Y-84666392D01*
X94643188Y-84666390D01*
X94643190Y-84666390D01*
X94757309Y-84600503D01*
X94757309Y-84600502D01*
X94757314Y-84600500D01*
X94850500Y-84507314D01*
X94885185Y-84447238D01*
X94916390Y-84393190D01*
X94916390Y-84393188D01*
X94916392Y-84393186D01*
X94950500Y-84265892D01*
X94950500Y-84134108D01*
X94916392Y-84006814D01*
X94913761Y-84002258D01*
X94900500Y-83952761D01*
X94900500Y-79473192D01*
X94877248Y-79386414D01*
X94869799Y-79358614D01*
X94863763Y-79348159D01*
X94850500Y-79298660D01*
X94850500Y-78851695D01*
X94850499Y-78851685D01*
X94841187Y-78804875D01*
X94839120Y-78799885D01*
X94834320Y-78738888D01*
X94866289Y-78686719D01*
X94922818Y-78663305D01*
X94930584Y-78663000D01*
X94965764Y-78663000D01*
X94965766Y-78663000D01*
X95112135Y-78623781D01*
X95112137Y-78623779D01*
X95112139Y-78623779D01*
X95243360Y-78548018D01*
X95243360Y-78548017D01*
X95243365Y-78548015D01*
X95350515Y-78440865D01*
X95384764Y-78381543D01*
X95430233Y-78340604D01*
X95491083Y-78334208D01*
X95544071Y-78364801D01*
G37*
G04 #@! TD.AperFunction*
G04 #@! TA.AperFunction,Conductor*
G36*
X90179593Y-83073918D02*
G01*
X90185232Y-83082602D01*
X90199500Y-83107314D01*
X90292686Y-83200500D01*
X90292688Y-83200501D01*
X90292690Y-83200503D01*
X90406810Y-83266390D01*
X90406808Y-83266390D01*
X90406812Y-83266391D01*
X90406814Y-83266392D01*
X90534108Y-83300500D01*
X90575500Y-83300500D01*
X90633691Y-83319407D01*
X90669655Y-83368907D01*
X90674500Y-83399500D01*
X90674500Y-87824165D01*
X90655593Y-87882356D01*
X90645504Y-87894169D01*
X89139531Y-89400142D01*
X89096682Y-89474360D01*
X89096681Y-89474360D01*
X89096682Y-89474361D01*
X89096682Y-89474362D01*
X89074500Y-89557147D01*
X89074500Y-92357147D01*
X89074500Y-92442853D01*
X89094062Y-92515863D01*
X89096683Y-92525643D01*
X89139531Y-92599857D01*
X89139533Y-92599859D01*
X89139535Y-92599862D01*
X91045505Y-94505832D01*
X91073281Y-94560347D01*
X91074500Y-94575834D01*
X91074500Y-100107660D01*
X91055593Y-100165851D01*
X91012394Y-100199528D01*
X91001443Y-100203925D01*
X90960452Y-100209898D01*
X90850365Y-100263717D01*
X90848891Y-100265190D01*
X90836894Y-100270009D01*
X90809800Y-100271846D01*
X90782898Y-100275653D01*
X90777853Y-100274014D01*
X90775849Y-100274150D01*
X90773248Y-100272517D01*
X90756520Y-100267082D01*
X90639548Y-100209898D01*
X90568180Y-100199500D01*
X89831820Y-100199500D01*
X89797864Y-100204447D01*
X89737555Y-100194126D01*
X89713588Y-100176485D01*
X89644763Y-100107660D01*
X89176614Y-99639511D01*
X89176611Y-99639509D01*
X89176610Y-99639508D01*
X89176609Y-99639507D01*
X89073890Y-99580202D01*
X89073886Y-99580200D01*
X89049673Y-99573712D01*
X89049673Y-99573713D01*
X88959309Y-99549500D01*
X88959307Y-99549500D01*
X88746109Y-99549500D01*
X88687918Y-99530593D01*
X88652665Y-99483198D01*
X88627792Y-99412116D01*
X88547154Y-99302855D01*
X88547152Y-99302853D01*
X88547150Y-99302850D01*
X88547146Y-99302847D01*
X88547144Y-99302845D01*
X88437883Y-99222207D01*
X88309703Y-99177355D01*
X88309694Y-99177353D01*
X88279274Y-99174500D01*
X88279266Y-99174500D01*
X86920734Y-99174500D01*
X86920725Y-99174500D01*
X86890305Y-99177353D01*
X86890296Y-99177355D01*
X86762116Y-99222207D01*
X86658288Y-99298836D01*
X86600240Y-99318178D01*
X86541910Y-99299707D01*
X86505577Y-99250477D01*
X86500500Y-99219181D01*
X86500500Y-97980818D01*
X86519407Y-97922627D01*
X86568907Y-97886663D01*
X86630093Y-97886663D01*
X86658283Y-97901160D01*
X86762118Y-97977793D01*
X86890301Y-98022646D01*
X86920725Y-98025499D01*
X86920727Y-98025500D01*
X86920734Y-98025500D01*
X88279273Y-98025500D01*
X88279273Y-98025499D01*
X88309699Y-98022646D01*
X88437882Y-97977793D01*
X88547150Y-97897150D01*
X88627793Y-97787882D01*
X88672646Y-97659699D01*
X88675499Y-97629273D01*
X88675500Y-97629273D01*
X88675500Y-97449500D01*
X88694407Y-97391309D01*
X88743907Y-97355345D01*
X88774500Y-97350500D01*
X89193732Y-97350500D01*
X89237212Y-97360559D01*
X89298607Y-97390573D01*
X89366740Y-97400500D01*
X89366743Y-97400500D01*
X89833257Y-97400500D01*
X89833260Y-97400500D01*
X89901393Y-97390573D01*
X90006483Y-97339198D01*
X90089198Y-97256483D01*
X90140573Y-97151393D01*
X90150500Y-97083260D01*
X90150500Y-96716740D01*
X90140573Y-96648607D01*
X90089198Y-96543517D01*
X90006483Y-96460802D01*
X90006481Y-96460801D01*
X89901395Y-96409427D01*
X89874139Y-96405456D01*
X89833260Y-96399500D01*
X89366740Y-96399500D01*
X89298607Y-96409427D01*
X89237212Y-96439441D01*
X89193732Y-96449500D01*
X88507440Y-96449500D01*
X88449249Y-96430593D01*
X88448652Y-96430155D01*
X88437883Y-96422207D01*
X88309703Y-96377355D01*
X88309694Y-96377353D01*
X88279274Y-96374500D01*
X88279266Y-96374500D01*
X87549500Y-96374500D01*
X87491309Y-96355593D01*
X87455345Y-96306093D01*
X87450500Y-96275500D01*
X87450500Y-87827611D01*
X87469407Y-87769420D01*
X87479496Y-87757607D01*
X88013714Y-87223389D01*
X89910490Y-85326614D01*
X89969799Y-85223886D01*
X89983069Y-85174361D01*
X90000500Y-85109309D01*
X90000500Y-84447238D01*
X90013765Y-84397735D01*
X90016392Y-84393186D01*
X90050500Y-84265892D01*
X90050500Y-84134108D01*
X90016392Y-84006814D01*
X90013761Y-84002258D01*
X90000500Y-83952761D01*
X90000500Y-83132109D01*
X90019407Y-83073918D01*
X90068907Y-83037954D01*
X90130093Y-83037954D01*
X90179593Y-83073918D01*
G37*
G04 #@! TD.AperFunction*
G04 #@! TA.AperFunction,Conductor*
G36*
X92022237Y-82737093D02*
G01*
X92024144Y-82736964D01*
X92048582Y-82752303D01*
X92073571Y-82766731D01*
X92075251Y-82769043D01*
X92075966Y-82769492D01*
X92081457Y-82776062D01*
X92099500Y-82807314D01*
X92148628Y-82856442D01*
X92151466Y-82859838D01*
X92161300Y-82884320D01*
X92173281Y-82907834D01*
X92172564Y-82912360D01*
X92174273Y-82916614D01*
X92174500Y-82923321D01*
X92174500Y-83520252D01*
X92174500Y-83772147D01*
X92174500Y-84290252D01*
X92174500Y-84542147D01*
X92174500Y-85257147D01*
X92174500Y-85342853D01*
X92194062Y-85415863D01*
X92196683Y-85425643D01*
X92239531Y-85499857D01*
X92239535Y-85499862D01*
X92645503Y-85905829D01*
X92673281Y-85960346D01*
X92674500Y-85975832D01*
X92674500Y-87957147D01*
X92674500Y-88042853D01*
X92694062Y-88115863D01*
X92696683Y-88125643D01*
X92739531Y-88199857D01*
X92739533Y-88199859D01*
X92739535Y-88199862D01*
X93689174Y-89149500D01*
X94245504Y-89705830D01*
X94273281Y-89760347D01*
X94274500Y-89775834D01*
X94274500Y-92224165D01*
X94255593Y-92282356D01*
X94245504Y-92294169D01*
X92339531Y-94200142D01*
X92296682Y-94274360D01*
X92296681Y-94274360D01*
X92296682Y-94274361D01*
X92274500Y-94357147D01*
X92274500Y-100107660D01*
X92255593Y-100165851D01*
X92212394Y-100199528D01*
X92201443Y-100203925D01*
X92160452Y-100209898D01*
X92050365Y-100263717D01*
X92048891Y-100265190D01*
X92036894Y-100270009D01*
X92009800Y-100271846D01*
X91982898Y-100275653D01*
X91977853Y-100274014D01*
X91975849Y-100274150D01*
X91973248Y-100272517D01*
X91956520Y-100267082D01*
X91839548Y-100209898D01*
X91810225Y-100205625D01*
X91755369Y-100178526D01*
X91726918Y-100124357D01*
X91725500Y-100107660D01*
X91725500Y-94357148D01*
X91725500Y-94357147D01*
X91703318Y-94274362D01*
X91703318Y-94274361D01*
X91703318Y-94274360D01*
X91660468Y-94200142D01*
X91660467Y-94200141D01*
X91660466Y-94200140D01*
X91660465Y-94200138D01*
X89754496Y-92294169D01*
X89726719Y-92239652D01*
X89725500Y-92224165D01*
X89725500Y-90878710D01*
X90149500Y-90878710D01*
X90149500Y-91121289D01*
X90181161Y-91361781D01*
X90181161Y-91361786D01*
X90243944Y-91596092D01*
X90243948Y-91596105D01*
X90336772Y-91820204D01*
X90336774Y-91820208D01*
X90336776Y-91820212D01*
X90458064Y-92030289D01*
X90458066Y-92030292D01*
X90605729Y-92222731D01*
X90605731Y-92222733D01*
X90605735Y-92222738D01*
X90777262Y-92394265D01*
X90777266Y-92394268D01*
X90777268Y-92394270D01*
X90969707Y-92541933D01*
X90969711Y-92541936D01*
X91179788Y-92663224D01*
X91403900Y-92756054D01*
X91638211Y-92818838D01*
X91878712Y-92850500D01*
X91878713Y-92850500D01*
X92121287Y-92850500D01*
X92121288Y-92850500D01*
X92361789Y-92818838D01*
X92596100Y-92756054D01*
X92820212Y-92663224D01*
X93030289Y-92541936D01*
X93222738Y-92394265D01*
X93394265Y-92222738D01*
X93541936Y-92030289D01*
X93663224Y-91820212D01*
X93756054Y-91596100D01*
X93818838Y-91361789D01*
X93850500Y-91121288D01*
X93850500Y-90878712D01*
X93818838Y-90638211D01*
X93756054Y-90403900D01*
X93663224Y-90179788D01*
X93541936Y-89969711D01*
X93394265Y-89777262D01*
X93222738Y-89605735D01*
X93222733Y-89605731D01*
X93222731Y-89605729D01*
X93030292Y-89458066D01*
X93030289Y-89458064D01*
X92820212Y-89336776D01*
X92820208Y-89336774D01*
X92820204Y-89336772D01*
X92596105Y-89243948D01*
X92596104Y-89243947D01*
X92596100Y-89243946D01*
X92361789Y-89181162D01*
X92361786Y-89181161D01*
X92361784Y-89181161D01*
X92121289Y-89149500D01*
X92121288Y-89149500D01*
X91878712Y-89149500D01*
X91878710Y-89149500D01*
X91638218Y-89181161D01*
X91638213Y-89181161D01*
X91403907Y-89243944D01*
X91403894Y-89243948D01*
X91179795Y-89336772D01*
X90969707Y-89458066D01*
X90777268Y-89605729D01*
X90605729Y-89777268D01*
X90458066Y-89969707D01*
X90336772Y-90179795D01*
X90243948Y-90403894D01*
X90243944Y-90403907D01*
X90181161Y-90638213D01*
X90181161Y-90638218D01*
X90149500Y-90878710D01*
X89725500Y-90878710D01*
X89725500Y-89775833D01*
X89744407Y-89717642D01*
X89754490Y-89705835D01*
X91199859Y-88260466D01*
X91199862Y-88260465D01*
X91260465Y-88199862D01*
X91281891Y-88162750D01*
X91286211Y-88155266D01*
X91286214Y-88155264D01*
X91295193Y-88139710D01*
X91303318Y-88125639D01*
X91325501Y-88042853D01*
X91325501Y-87957147D01*
X91325501Y-87951085D01*
X91325500Y-87951067D01*
X91325500Y-85975832D01*
X91344407Y-85917641D01*
X91354490Y-85905835D01*
X91699859Y-85560466D01*
X91699862Y-85560465D01*
X91760465Y-85499862D01*
X91781891Y-85462750D01*
X91803318Y-85425639D01*
X91825500Y-85342853D01*
X91825500Y-85257147D01*
X91825500Y-84157147D01*
X91825500Y-83772147D01*
X91825500Y-83520252D01*
X91825500Y-82923321D01*
X91844407Y-82865130D01*
X91854490Y-82853323D01*
X91900500Y-82807314D01*
X91914264Y-82783474D01*
X91915683Y-82782196D01*
X91916149Y-82780344D01*
X91938288Y-82761842D01*
X91959733Y-82742534D01*
X91961632Y-82742334D01*
X91963099Y-82741109D01*
X91991886Y-82739154D01*
X92020583Y-82736138D01*
X92022237Y-82737093D01*
G37*
G04 #@! TD.AperFunction*
G04 #@! TA.AperFunction,Conductor*
G36*
X88609593Y-78372854D02*
G01*
X88615231Y-78381537D01*
X88649485Y-78440865D01*
X88756635Y-78548015D01*
X88756637Y-78548016D01*
X88756639Y-78548018D01*
X88887861Y-78623779D01*
X88887859Y-78623779D01*
X88887863Y-78623780D01*
X88887865Y-78623781D01*
X89034234Y-78663000D01*
X89034236Y-78663000D01*
X89069416Y-78663000D01*
X89127607Y-78681907D01*
X89163571Y-78731407D01*
X89163571Y-78792593D01*
X89160880Y-78799885D01*
X89158812Y-78804875D01*
X89149500Y-78851685D01*
X89149500Y-79298660D01*
X89136237Y-79348159D01*
X89130201Y-79358612D01*
X89099500Y-79473192D01*
X89099500Y-83952761D01*
X89086238Y-84002259D01*
X89083608Y-84006813D01*
X89083608Y-84006814D01*
X89049500Y-84134108D01*
X89049500Y-84265892D01*
X89083608Y-84393186D01*
X89086234Y-84397735D01*
X89099500Y-84447238D01*
X89099500Y-84822388D01*
X89080593Y-84880579D01*
X89070504Y-84892392D01*
X86669504Y-87293393D01*
X86614987Y-87321170D01*
X86554555Y-87311599D01*
X86511290Y-87268334D01*
X86500500Y-87223389D01*
X86500500Y-81869792D01*
X86519407Y-81811601D01*
X86568907Y-81775637D01*
X86630093Y-81775637D01*
X86667360Y-81802713D01*
X86669833Y-81800241D01*
X86675340Y-81805748D01*
X86675342Y-81805751D01*
X86769249Y-81899658D01*
X86887580Y-81959951D01*
X86954130Y-81970491D01*
X86985751Y-81975500D01*
X86985754Y-81975500D01*
X87814249Y-81975500D01*
X87842803Y-81970976D01*
X87912420Y-81959951D01*
X88030751Y-81899658D01*
X88124658Y-81805751D01*
X88184951Y-81687420D01*
X88200500Y-81589246D01*
X88200500Y-81085754D01*
X88184951Y-80987580D01*
X88124658Y-80869249D01*
X88030751Y-80775342D01*
X87980744Y-80749862D01*
X87905477Y-80711511D01*
X87907005Y-80708511D01*
X87869402Y-80681185D01*
X87850500Y-80623002D01*
X87850500Y-79975360D01*
X87869407Y-79917169D01*
X87911613Y-79883897D01*
X88035495Y-79832584D01*
X88158416Y-79750451D01*
X88262951Y-79645916D01*
X88345084Y-79522995D01*
X88401658Y-79386413D01*
X88430500Y-79241418D01*
X88430500Y-78431045D01*
X88449407Y-78372854D01*
X88498907Y-78336890D01*
X88560093Y-78336890D01*
X88609593Y-78372854D01*
G37*
G04 #@! TD.AperFunction*
G04 #@! TA.AperFunction,Conductor*
G36*
X87033395Y-73519407D02*
G01*
X87069359Y-73568907D01*
X87069359Y-73630093D01*
X87045208Y-73669504D01*
X87019377Y-73695334D01*
X87019374Y-73695338D01*
X86926296Y-73834637D01*
X86862185Y-73989414D01*
X86862183Y-73989420D01*
X86829500Y-74153730D01*
X86829500Y-74721269D01*
X86862183Y-74885579D01*
X86862185Y-74885585D01*
X86926296Y-75040362D01*
X86926297Y-75040363D01*
X87019374Y-75179662D01*
X87137838Y-75298126D01*
X87277137Y-75391203D01*
X87431918Y-75455316D01*
X87596233Y-75488000D01*
X87596234Y-75488000D01*
X87763766Y-75488000D01*
X87763767Y-75488000D01*
X87928082Y-75455316D01*
X88082863Y-75391203D01*
X88222162Y-75298126D01*
X88340626Y-75179662D01*
X88433703Y-75040363D01*
X88497816Y-74885582D01*
X88530500Y-74721267D01*
X88530500Y-74153733D01*
X88497816Y-73989418D01*
X88433703Y-73834637D01*
X88340626Y-73695338D01*
X88314792Y-73669504D01*
X88287015Y-73614987D01*
X88296586Y-73554555D01*
X88339851Y-73511290D01*
X88384796Y-73500500D01*
X91934108Y-73500500D01*
X95615204Y-73500500D01*
X95673395Y-73519407D01*
X95709359Y-73568907D01*
X95709359Y-73630093D01*
X95685208Y-73669504D01*
X95659377Y-73695334D01*
X95659374Y-73695338D01*
X95566296Y-73834637D01*
X95502185Y-73989414D01*
X95502183Y-73989420D01*
X95469500Y-74153730D01*
X95469500Y-74721269D01*
X95502183Y-74885579D01*
X95502185Y-74885585D01*
X95566296Y-75040362D01*
X95566297Y-75040363D01*
X95659374Y-75179662D01*
X95777838Y-75298126D01*
X95917137Y-75391203D01*
X96071918Y-75455316D01*
X96236233Y-75488000D01*
X96236234Y-75488000D01*
X96403766Y-75488000D01*
X96403767Y-75488000D01*
X96568082Y-75455316D01*
X96722863Y-75391203D01*
X96862162Y-75298126D01*
X96980626Y-75179662D01*
X97073703Y-75040363D01*
X97137816Y-74885582D01*
X97170500Y-74721267D01*
X97170500Y-74153733D01*
X97137816Y-73989418D01*
X97073703Y-73834637D01*
X96980626Y-73695338D01*
X96954792Y-73669504D01*
X96927015Y-73614987D01*
X96936586Y-73554555D01*
X96979851Y-73511290D01*
X97024796Y-73500500D01*
X97400500Y-73500500D01*
X97458691Y-73519407D01*
X97494655Y-73568907D01*
X97499500Y-73599500D01*
X97499500Y-77000165D01*
X97480593Y-77058356D01*
X97431093Y-77094320D01*
X97369907Y-77094320D01*
X97330497Y-77070169D01*
X96999862Y-76739535D01*
X96999857Y-76739531D01*
X96925642Y-76696683D01*
X96925644Y-76696683D01*
X96893521Y-76688076D01*
X96842853Y-76674500D01*
X94242853Y-76674500D01*
X94157147Y-76674500D01*
X94106478Y-76688076D01*
X94074356Y-76696683D01*
X94000142Y-76739531D01*
X93081951Y-77657722D01*
X93027434Y-77685499D01*
X92967002Y-77675928D01*
X92926211Y-77637219D01*
X92900500Y-77592686D01*
X92807314Y-77499500D01*
X92807311Y-77499498D01*
X92807309Y-77499496D01*
X92693189Y-77433609D01*
X92693191Y-77433609D01*
X92631547Y-77417092D01*
X92565892Y-77399500D01*
X92434108Y-77399500D01*
X92368453Y-77417092D01*
X92306809Y-77433609D01*
X92192690Y-77499496D01*
X92099498Y-77592688D01*
X92085736Y-77616525D01*
X92040266Y-77657465D01*
X91979416Y-77663860D01*
X91926428Y-77633267D01*
X91914264Y-77616525D01*
X91900501Y-77592688D01*
X91900500Y-77592686D01*
X91807314Y-77499500D01*
X91807311Y-77499498D01*
X91807309Y-77499496D01*
X91693189Y-77433609D01*
X91693191Y-77433609D01*
X91631547Y-77417092D01*
X91565892Y-77399500D01*
X91434108Y-77399500D01*
X91368453Y-77417092D01*
X91306809Y-77433609D01*
X91192690Y-77499496D01*
X91099498Y-77592688D01*
X91085236Y-77617391D01*
X91039766Y-77658331D01*
X90978916Y-77664726D01*
X90925928Y-77634133D01*
X90901042Y-77578237D01*
X90900500Y-77567890D01*
X90900500Y-77534109D01*
X90894576Y-77512000D01*
X90866392Y-77406814D01*
X90866390Y-77406811D01*
X90866390Y-77406809D01*
X90800503Y-77292690D01*
X90800501Y-77292688D01*
X90800500Y-77292686D01*
X90707314Y-77199500D01*
X90707311Y-77199498D01*
X90707309Y-77199496D01*
X90593189Y-77133609D01*
X90593191Y-77133609D01*
X90543799Y-77120375D01*
X90465892Y-77099500D01*
X90334108Y-77099500D01*
X90256200Y-77120375D01*
X90206809Y-77133609D01*
X90092690Y-77199496D01*
X89999496Y-77292690D01*
X89933609Y-77406809D01*
X89926428Y-77433609D01*
X89899500Y-77534108D01*
X89899500Y-77665892D01*
X89904754Y-77685499D01*
X89921127Y-77746605D01*
X89924500Y-77772228D01*
X89924500Y-78609977D01*
X89905593Y-78668168D01*
X89856093Y-78704132D01*
X89810715Y-78706809D01*
X89810650Y-78707477D01*
X89806433Y-78707061D01*
X89806193Y-78707076D01*
X89805816Y-78707001D01*
X89805806Y-78707000D01*
X89543387Y-78707000D01*
X89485196Y-78688093D01*
X89449232Y-78638593D01*
X89449232Y-78577407D01*
X89473381Y-78537998D01*
X89570515Y-78440865D01*
X89608388Y-78375268D01*
X89646279Y-78309639D01*
X89646279Y-78309637D01*
X89646281Y-78309635D01*
X89685500Y-78163266D01*
X89685500Y-78011734D01*
X89646281Y-77865365D01*
X89646279Y-77865362D01*
X89646279Y-77865360D01*
X89570518Y-77734139D01*
X89570516Y-77734137D01*
X89570515Y-77734135D01*
X89463365Y-77626985D01*
X89463362Y-77626983D01*
X89463360Y-77626981D01*
X89332138Y-77551220D01*
X89332140Y-77551220D01*
X89268275Y-77534108D01*
X89185766Y-77512000D01*
X89034234Y-77512000D01*
X88951725Y-77534108D01*
X88887860Y-77551220D01*
X88756639Y-77626981D01*
X88649481Y-77734139D01*
X88577956Y-77858024D01*
X88532486Y-77898965D01*
X88471636Y-77905360D01*
X88418648Y-77874768D01*
X88400756Y-77846409D01*
X88360879Y-77750138D01*
X88345084Y-77712005D01*
X88262951Y-77589084D01*
X88158416Y-77484549D01*
X88035495Y-77402416D01*
X88035493Y-77402415D01*
X87898914Y-77345842D01*
X87753918Y-77317000D01*
X87606082Y-77317000D01*
X87606081Y-77317000D01*
X87461085Y-77345842D01*
X87324506Y-77402415D01*
X87201585Y-77484548D01*
X87097048Y-77589085D01*
X87014915Y-77712006D01*
X86958342Y-77848585D01*
X86941728Y-77932109D01*
X86929500Y-77993582D01*
X86929500Y-79241418D01*
X86940886Y-79298660D01*
X86947598Y-79332399D01*
X86949500Y-79351714D01*
X86949500Y-80623002D01*
X86930593Y-80681193D01*
X86892995Y-80708512D01*
X86894523Y-80711511D01*
X86769250Y-80775341D01*
X86769249Y-80775341D01*
X86769249Y-80775342D01*
X86675342Y-80869249D01*
X86675341Y-80869250D01*
X86669833Y-80874759D01*
X86667369Y-80872295D01*
X86630011Y-80899388D01*
X86568825Y-80899335D01*
X86519357Y-80863328D01*
X86500500Y-80805207D01*
X86500500Y-73599500D01*
X86519407Y-73541309D01*
X86568907Y-73505345D01*
X86599500Y-73500500D01*
X86975204Y-73500500D01*
X87033395Y-73519407D01*
G37*
G04 #@! TD.AperFunction*
M02*
