G04 #@! TF.GenerationSoftware,KiCad,Pcbnew,9.0.1*
G04 #@! TF.CreationDate,2025-10-23T20:38:35-06:00*
G04 #@! TF.ProjectId,usbport,75736270-6f72-4742-9e6b-696361645f70,rev?*
G04 #@! TF.SameCoordinates,Original*
G04 #@! TF.FileFunction,Copper,L2,Bot*
G04 #@! TF.FilePolarity,Positive*
%FSLAX46Y46*%
G04 Gerber Fmt 4.6, Leading zero omitted, Abs format (unit mm)*
G04 Created by KiCad (PCBNEW 9.0.1) date 2025-10-23 20:38:35*
%MOMM*%
%LPD*%
G01*
G04 APERTURE LIST*
G04 Aperture macros list*
%AMRoundRect*
0 Rectangle with rounded corners*
0 $1 Rounding radius*
0 $2 $3 $4 $5 $6 $7 $8 $9 X,Y pos of 4 corners*
0 Add a 4 corners polygon primitive as box body*
4,1,4,$2,$3,$4,$5,$6,$7,$8,$9,$2,$3,0*
0 Add four circle primitives for the rounded corners*
1,1,$1+$1,$2,$3*
1,1,$1+$1,$4,$5*
1,1,$1+$1,$6,$7*
1,1,$1+$1,$8,$9*
0 Add four rect primitives between the rounded corners*
20,1,$1+$1,$2,$3,$4,$5,0*
20,1,$1+$1,$4,$5,$6,$7,0*
20,1,$1+$1,$6,$7,$8,$9,0*
20,1,$1+$1,$8,$9,$2,$3,0*%
G04 Aperture macros list end*
G04 #@! TA.AperFunction,ComponentPad*
%ADD10C,0.600000*%
G04 #@! TD*
G04 #@! TA.AperFunction,SMDPad,CuDef*
%ADD11RoundRect,0.100000X-0.625000X-0.900000X0.625000X-0.900000X0.625000X0.900000X-0.625000X0.900000X0*%
G04 #@! TD*
G04 #@! TA.AperFunction,ComponentPad*
%ADD12O,1.100000X2.200000*%
G04 #@! TD*
G04 #@! TA.AperFunction,ComponentPad*
%ADD13O,1.300000X1.700000*%
G04 #@! TD*
G04 #@! TA.AperFunction,ViaPad*
%ADD14C,0.600000*%
G04 #@! TD*
G04 #@! TA.AperFunction,Conductor*
%ADD15C,0.250000*%
G04 #@! TD*
G04 #@! TA.AperFunction,Conductor*
%ADD16C,0.500000*%
G04 #@! TD*
G04 APERTURE END LIST*
D10*
X89000000Y-104300000D03*
D11*
X89425000Y-105000000D03*
D10*
X89800000Y-104300000D03*
X89800000Y-105000000D03*
X89800000Y-105700000D03*
X94200000Y-104300000D03*
X94200000Y-105000000D03*
X94200000Y-105700000D03*
D11*
X94575000Y-105000000D03*
D10*
X94950000Y-104300000D03*
D12*
X96320000Y-78617500D03*
D13*
X96320000Y-74437500D03*
D12*
X87680000Y-78617500D03*
D13*
X87680000Y-74437500D03*
D14*
X92000000Y-74600000D03*
X92000000Y-85800000D03*
X90400000Y-99400000D03*
X95200000Y-81000000D03*
X89600000Y-86800000D03*
X94400000Y-86800000D03*
X88800000Y-81000000D03*
X87400000Y-84800000D03*
X90600000Y-82800000D03*
X91500000Y-82500000D03*
X93200000Y-81000000D03*
X91500000Y-77900000D03*
X92500000Y-82500000D03*
X92500000Y-77900000D03*
X89550000Y-84200000D03*
X94450000Y-84200000D03*
X96200000Y-84600000D03*
X90400000Y-77600000D03*
D15*
X92759298Y-83126000D02*
X93200000Y-82685298D01*
X91500000Y-77900000D02*
X91500000Y-82500000D01*
X90926000Y-83126000D02*
X92759298Y-83126000D01*
X93200000Y-82685298D02*
X93200000Y-81000000D01*
X90600000Y-82800000D02*
X90926000Y-83126000D01*
X92500000Y-77900000D02*
X92500000Y-82500000D01*
D16*
X89550000Y-84200000D02*
X94450000Y-84200000D01*
D15*
X91000000Y-77000000D02*
X90400000Y-77600000D01*
X96800000Y-77000000D02*
X91000000Y-77000000D01*
X96200000Y-84600000D02*
X97374000Y-83426000D01*
X97374000Y-77574000D02*
X96800000Y-77000000D01*
X97374000Y-83426000D02*
X97374000Y-77574000D01*
G04 #@! TA.AperFunction,Conductor*
G36*
X87033395Y-73519407D02*
G01*
X87069359Y-73568907D01*
X87069359Y-73630093D01*
X87045208Y-73669504D01*
X87019377Y-73695334D01*
X87019374Y-73695338D01*
X86926296Y-73834637D01*
X86862185Y-73989414D01*
X86862183Y-73989420D01*
X86829500Y-74153730D01*
X86829500Y-74721269D01*
X86862183Y-74885579D01*
X86862185Y-74885585D01*
X86926296Y-75040362D01*
X86926297Y-75040363D01*
X87019374Y-75179662D01*
X87137838Y-75298126D01*
X87277137Y-75391203D01*
X87431918Y-75455316D01*
X87596233Y-75488000D01*
X87596234Y-75488000D01*
X87763766Y-75488000D01*
X87763767Y-75488000D01*
X87928082Y-75455316D01*
X88082863Y-75391203D01*
X88222162Y-75298126D01*
X88340626Y-75179662D01*
X88433703Y-75040363D01*
X88497816Y-74885582D01*
X88530500Y-74721267D01*
X88530500Y-74153733D01*
X88497816Y-73989418D01*
X88433703Y-73834637D01*
X88340626Y-73695338D01*
X88314792Y-73669504D01*
X88287015Y-73614987D01*
X88296586Y-73554555D01*
X88339851Y-73511290D01*
X88384796Y-73500500D01*
X91934108Y-73500500D01*
X95615204Y-73500500D01*
X95673395Y-73519407D01*
X95709359Y-73568907D01*
X95709359Y-73630093D01*
X95685208Y-73669504D01*
X95659377Y-73695334D01*
X95659374Y-73695338D01*
X95566296Y-73834637D01*
X95502185Y-73989414D01*
X95502183Y-73989420D01*
X95469500Y-74153730D01*
X95469500Y-74721269D01*
X95502183Y-74885579D01*
X95502185Y-74885585D01*
X95566296Y-75040362D01*
X95566297Y-75040363D01*
X95659374Y-75179662D01*
X95777838Y-75298126D01*
X95917137Y-75391203D01*
X96071918Y-75455316D01*
X96236233Y-75488000D01*
X96236234Y-75488000D01*
X96403766Y-75488000D01*
X96403767Y-75488000D01*
X96568082Y-75455316D01*
X96722863Y-75391203D01*
X96862162Y-75298126D01*
X96980626Y-75179662D01*
X97073703Y-75040363D01*
X97137816Y-74885582D01*
X97170500Y-74721267D01*
X97170500Y-74153733D01*
X97137816Y-73989418D01*
X97073703Y-73834637D01*
X96980626Y-73695338D01*
X96954792Y-73669504D01*
X96927015Y-73614987D01*
X96936586Y-73554555D01*
X96979851Y-73511290D01*
X97024796Y-73500500D01*
X97400500Y-73500500D01*
X97458691Y-73519407D01*
X97494655Y-73568907D01*
X97499500Y-73599500D01*
X97499500Y-77000165D01*
X97480593Y-77058356D01*
X97431093Y-77094320D01*
X97369907Y-77094320D01*
X97330497Y-77070169D01*
X96999862Y-76739535D01*
X96999857Y-76739531D01*
X96925642Y-76696683D01*
X96925644Y-76696683D01*
X96893521Y-76688076D01*
X96842853Y-76674500D01*
X91042853Y-76674500D01*
X90957147Y-76674500D01*
X90906478Y-76688076D01*
X90874356Y-76696683D01*
X90800142Y-76739531D01*
X90800137Y-76739535D01*
X90469168Y-77070504D01*
X90414652Y-77098281D01*
X90399165Y-77099500D01*
X90334108Y-77099500D01*
X90256200Y-77120375D01*
X90206809Y-77133609D01*
X90092690Y-77199496D01*
X89999496Y-77292690D01*
X89933609Y-77406809D01*
X89920672Y-77455093D01*
X89899500Y-77534108D01*
X89899500Y-77665892D01*
X89917786Y-77734136D01*
X89933609Y-77793190D01*
X89999496Y-77907309D01*
X89999498Y-77907311D01*
X89999500Y-77907314D01*
X90092686Y-78000500D01*
X90092688Y-78000501D01*
X90092690Y-78000503D01*
X90206810Y-78066390D01*
X90206808Y-78066390D01*
X90206812Y-78066391D01*
X90206814Y-78066392D01*
X90334108Y-78100500D01*
X90334110Y-78100500D01*
X90465890Y-78100500D01*
X90465892Y-78100500D01*
X90593186Y-78066392D01*
X90593188Y-78066390D01*
X90593190Y-78066390D01*
X90707309Y-78000503D01*
X90707309Y-78000502D01*
X90707314Y-78000500D01*
X90800500Y-77907314D01*
X90814763Y-77882608D01*
X90860233Y-77841668D01*
X90921083Y-77835272D01*
X90974071Y-77865865D01*
X90998958Y-77921760D01*
X90999500Y-77932109D01*
X90999500Y-77965892D01*
X91026428Y-78066390D01*
X91033609Y-78093190D01*
X91099496Y-78207309D01*
X91099498Y-78207311D01*
X91099500Y-78207314D01*
X91145505Y-78253319D01*
X91173281Y-78307834D01*
X91174500Y-78323321D01*
X91174500Y-82076678D01*
X91155593Y-82134869D01*
X91145504Y-82146681D01*
X91099500Y-82192684D01*
X91099496Y-82192690D01*
X91033609Y-82306810D01*
X91033607Y-82306814D01*
X91028572Y-82325607D01*
X90995248Y-82376921D01*
X90938127Y-82398847D01*
X90883446Y-82385719D01*
X90793189Y-82333609D01*
X90793191Y-82333609D01*
X90743799Y-82320375D01*
X90665892Y-82299500D01*
X90534108Y-82299500D01*
X90456200Y-82320375D01*
X90406809Y-82333609D01*
X90292690Y-82399496D01*
X90199496Y-82492690D01*
X90133609Y-82606809D01*
X90133608Y-82606814D01*
X90099500Y-82734108D01*
X90099500Y-82865892D01*
X90124132Y-82957821D01*
X90133609Y-82993190D01*
X90199496Y-83107309D01*
X90199498Y-83107311D01*
X90199500Y-83107314D01*
X90292686Y-83200500D01*
X90292688Y-83200501D01*
X90292690Y-83200503D01*
X90406810Y-83266390D01*
X90406808Y-83266390D01*
X90406812Y-83266391D01*
X90406814Y-83266392D01*
X90534108Y-83300500D01*
X90599165Y-83300500D01*
X90657356Y-83319407D01*
X90669168Y-83329496D01*
X90726138Y-83386465D01*
X90800358Y-83429316D01*
X90800362Y-83429318D01*
X90883144Y-83451500D01*
X90883146Y-83451501D01*
X90883147Y-83451501D01*
X90974916Y-83451501D01*
X90974932Y-83451500D01*
X92802149Y-83451500D01*
X92802151Y-83451500D01*
X92884937Y-83429318D01*
X92884939Y-83429316D01*
X92884941Y-83429316D01*
X92959155Y-83386468D01*
X92959155Y-83386467D01*
X92959160Y-83386465D01*
X93399859Y-82945764D01*
X93399862Y-82945763D01*
X93460465Y-82885160D01*
X93494910Y-82825500D01*
X93503318Y-82810937D01*
X93525501Y-82728151D01*
X93525501Y-82642445D01*
X93525501Y-82636383D01*
X93525500Y-82636365D01*
X93525500Y-81423321D01*
X93544407Y-81365130D01*
X93554490Y-81353323D01*
X93600500Y-81307314D01*
X93666392Y-81193186D01*
X93700500Y-81065892D01*
X93700500Y-80934108D01*
X93666392Y-80806814D01*
X93666390Y-80806811D01*
X93666390Y-80806809D01*
X93600503Y-80692690D01*
X93600501Y-80692688D01*
X93600500Y-80692686D01*
X93507314Y-80599500D01*
X93507311Y-80599498D01*
X93507309Y-80599496D01*
X93393189Y-80533609D01*
X93393191Y-80533609D01*
X93343799Y-80520375D01*
X93265892Y-80499500D01*
X93134108Y-80499500D01*
X93021848Y-80529579D01*
X93006810Y-80533609D01*
X92973999Y-80552553D01*
X92914151Y-80565274D01*
X92858256Y-80540387D01*
X92827663Y-80487399D01*
X92825500Y-80466816D01*
X92825500Y-78323321D01*
X92844407Y-78265130D01*
X92854490Y-78253323D01*
X92900500Y-78207314D01*
X92900503Y-78207309D01*
X92966390Y-78093190D01*
X92966390Y-78093188D01*
X92966392Y-78093186D01*
X93000500Y-77965892D01*
X93000500Y-77834108D01*
X92966392Y-77706814D01*
X92966390Y-77706811D01*
X92966390Y-77706809D01*
X92900503Y-77592690D01*
X92900501Y-77592688D01*
X92900500Y-77592686D01*
X92807314Y-77499500D01*
X92807311Y-77499498D01*
X92802725Y-77494912D01*
X92804871Y-77492765D01*
X92777281Y-77452642D01*
X92778867Y-77391477D01*
X92816102Y-77342926D01*
X92872197Y-77325500D01*
X94758282Y-77325500D01*
X94816473Y-77344407D01*
X94852437Y-77393907D01*
X94852437Y-77455093D01*
X94816473Y-77504593D01*
X94783907Y-77520125D01*
X94716954Y-77538065D01*
X94667860Y-77551220D01*
X94536639Y-77626981D01*
X94429481Y-77734139D01*
X94353720Y-77865360D01*
X94348998Y-77882983D01*
X94314500Y-78011734D01*
X94314500Y-78163266D01*
X94338629Y-78253317D01*
X94353720Y-78309639D01*
X94429481Y-78440860D01*
X94429483Y-78440862D01*
X94429485Y-78440865D01*
X94536635Y-78548015D01*
X94536637Y-78548016D01*
X94536639Y-78548018D01*
X94667861Y-78623779D01*
X94667859Y-78623779D01*
X94667863Y-78623780D01*
X94667865Y-78623781D01*
X94814234Y-78663000D01*
X94814236Y-78663000D01*
X94965764Y-78663000D01*
X94965766Y-78663000D01*
X95112135Y-78623781D01*
X95112137Y-78623779D01*
X95112139Y-78623779D01*
X95243360Y-78548018D01*
X95243360Y-78548017D01*
X95243365Y-78548015D01*
X95350515Y-78440865D01*
X95384764Y-78381543D01*
X95430233Y-78340604D01*
X95491083Y-78334208D01*
X95544071Y-78364801D01*
X95568958Y-78420697D01*
X95569500Y-78431045D01*
X95569500Y-79241418D01*
X95598342Y-79386413D01*
X95654916Y-79522995D01*
X95737049Y-79645916D01*
X95841584Y-79750451D01*
X95964505Y-79832584D01*
X96101087Y-79889158D01*
X96246082Y-79918000D01*
X96246083Y-79918000D01*
X96393917Y-79918000D01*
X96393918Y-79918000D01*
X96538913Y-79889158D01*
X96675495Y-79832584D01*
X96798416Y-79750451D01*
X96879498Y-79669368D01*
X96934013Y-79641593D01*
X96994445Y-79651164D01*
X97037710Y-79694429D01*
X97048500Y-79739374D01*
X97048500Y-83250165D01*
X97029593Y-83308356D01*
X97019504Y-83320169D01*
X96269169Y-84070504D01*
X96214652Y-84098281D01*
X96199165Y-84099500D01*
X96134108Y-84099500D01*
X96056200Y-84120375D01*
X96006809Y-84133609D01*
X95892690Y-84199496D01*
X95799496Y-84292690D01*
X95733609Y-84406809D01*
X95733608Y-84406814D01*
X95699500Y-84534108D01*
X95699500Y-84665892D01*
X95708773Y-84700500D01*
X95733609Y-84793190D01*
X95799496Y-84907309D01*
X95799498Y-84907311D01*
X95799500Y-84907314D01*
X95892686Y-85000500D01*
X95892688Y-85000501D01*
X95892690Y-85000503D01*
X96006810Y-85066390D01*
X96006808Y-85066390D01*
X96006812Y-85066391D01*
X96006814Y-85066392D01*
X96134108Y-85100500D01*
X96134110Y-85100500D01*
X96265890Y-85100500D01*
X96265892Y-85100500D01*
X96393186Y-85066392D01*
X96393188Y-85066390D01*
X96393190Y-85066390D01*
X96507309Y-85000503D01*
X96507309Y-85000502D01*
X96507314Y-85000500D01*
X96600500Y-84907314D01*
X96666392Y-84793186D01*
X96700500Y-84665892D01*
X96700500Y-84600834D01*
X96719407Y-84542643D01*
X96729496Y-84530830D01*
X97330496Y-83929830D01*
X97385013Y-83902053D01*
X97445445Y-83911624D01*
X97488710Y-83954889D01*
X97499500Y-83999834D01*
X97499500Y-105900500D01*
X97480593Y-105958691D01*
X97431093Y-105994655D01*
X97400500Y-105999500D01*
X86599500Y-105999500D01*
X86541309Y-105980593D01*
X86505345Y-105931093D01*
X86500500Y-105900500D01*
X86500500Y-90878710D01*
X90149500Y-90878710D01*
X90149500Y-91121289D01*
X90181161Y-91361781D01*
X90181161Y-91361786D01*
X90243944Y-91596092D01*
X90243948Y-91596105D01*
X90336772Y-91820204D01*
X90336774Y-91820208D01*
X90336776Y-91820212D01*
X90458064Y-92030289D01*
X90458066Y-92030292D01*
X90605729Y-92222731D01*
X90605731Y-92222733D01*
X90605735Y-92222738D01*
X90777262Y-92394265D01*
X90777266Y-92394268D01*
X90777268Y-92394270D01*
X90969707Y-92541933D01*
X90969711Y-92541936D01*
X91179788Y-92663224D01*
X91403900Y-92756054D01*
X91638211Y-92818838D01*
X91878712Y-92850500D01*
X91878713Y-92850500D01*
X92121287Y-92850500D01*
X92121288Y-92850500D01*
X92361789Y-92818838D01*
X92596100Y-92756054D01*
X92820212Y-92663224D01*
X93030289Y-92541936D01*
X93222738Y-92394265D01*
X93394265Y-92222738D01*
X93541936Y-92030289D01*
X93663224Y-91820212D01*
X93756054Y-91596100D01*
X93818838Y-91361789D01*
X93850500Y-91121288D01*
X93850500Y-90878712D01*
X93818838Y-90638211D01*
X93756054Y-90403900D01*
X93663224Y-90179788D01*
X93541936Y-89969711D01*
X93394265Y-89777262D01*
X93222738Y-89605735D01*
X93222733Y-89605731D01*
X93222731Y-89605729D01*
X93030292Y-89458066D01*
X93030289Y-89458064D01*
X92820212Y-89336776D01*
X92820208Y-89336774D01*
X92820204Y-89336772D01*
X92596105Y-89243948D01*
X92596104Y-89243947D01*
X92596100Y-89243946D01*
X92361789Y-89181162D01*
X92361786Y-89181161D01*
X92361784Y-89181161D01*
X92121289Y-89149500D01*
X92121288Y-89149500D01*
X91878712Y-89149500D01*
X91878710Y-89149500D01*
X91638218Y-89181161D01*
X91638213Y-89181161D01*
X91403907Y-89243944D01*
X91403894Y-89243948D01*
X91179795Y-89336772D01*
X90969707Y-89458066D01*
X90777268Y-89605729D01*
X90605729Y-89777268D01*
X90458066Y-89969707D01*
X90336772Y-90179795D01*
X90243948Y-90403894D01*
X90243944Y-90403907D01*
X90181161Y-90638213D01*
X90181161Y-90638218D01*
X90149500Y-90878710D01*
X86500500Y-90878710D01*
X86500500Y-84134108D01*
X89049500Y-84134108D01*
X89049500Y-84265892D01*
X89079579Y-84378151D01*
X89083609Y-84393190D01*
X89149496Y-84507309D01*
X89149498Y-84507311D01*
X89149500Y-84507314D01*
X89242686Y-84600500D01*
X89242688Y-84600501D01*
X89242690Y-84600503D01*
X89356810Y-84666390D01*
X89356808Y-84666390D01*
X89356812Y-84666391D01*
X89356814Y-84666392D01*
X89484108Y-84700500D01*
X89484110Y-84700500D01*
X89615890Y-84700500D01*
X89615892Y-84700500D01*
X89743186Y-84666392D01*
X89747741Y-84663761D01*
X89797239Y-84650500D01*
X94202761Y-84650500D01*
X94252258Y-84663761D01*
X94256814Y-84666392D01*
X94384108Y-84700500D01*
X94384110Y-84700500D01*
X94515890Y-84700500D01*
X94515892Y-84700500D01*
X94643186Y-84666392D01*
X94643188Y-84666390D01*
X94643190Y-84666390D01*
X94757309Y-84600503D01*
X94757309Y-84600502D01*
X94757314Y-84600500D01*
X94850500Y-84507314D01*
X94916392Y-84393186D01*
X94950500Y-84265892D01*
X94950500Y-84134108D01*
X94916392Y-84006814D01*
X94916390Y-84006811D01*
X94916390Y-84006809D01*
X94850503Y-83892690D01*
X94850501Y-83892688D01*
X94850500Y-83892686D01*
X94757314Y-83799500D01*
X94757311Y-83799498D01*
X94757309Y-83799496D01*
X94643189Y-83733609D01*
X94643191Y-83733609D01*
X94593799Y-83720375D01*
X94515892Y-83699500D01*
X94384108Y-83699500D01*
X94299245Y-83722238D01*
X94256813Y-83733608D01*
X94252259Y-83736238D01*
X94202761Y-83749500D01*
X89797239Y-83749500D01*
X89747741Y-83736238D01*
X89743186Y-83733608D01*
X89615892Y-83699500D01*
X89484108Y-83699500D01*
X89406200Y-83720375D01*
X89356809Y-83733609D01*
X89242690Y-83799496D01*
X89149496Y-83892690D01*
X89083609Y-84006809D01*
X89083608Y-84006814D01*
X89049500Y-84134108D01*
X86500500Y-84134108D01*
X86500500Y-77993582D01*
X86929500Y-77993582D01*
X86929500Y-79241418D01*
X86958342Y-79386413D01*
X87014916Y-79522995D01*
X87097049Y-79645916D01*
X87201584Y-79750451D01*
X87324505Y-79832584D01*
X87461087Y-79889158D01*
X87606082Y-79918000D01*
X87606083Y-79918000D01*
X87753917Y-79918000D01*
X87753918Y-79918000D01*
X87898913Y-79889158D01*
X88035495Y-79832584D01*
X88158416Y-79750451D01*
X88262951Y-79645916D01*
X88345084Y-79522995D01*
X88401658Y-79386413D01*
X88430500Y-79241418D01*
X88430500Y-78431045D01*
X88449407Y-78372854D01*
X88498907Y-78336890D01*
X88560093Y-78336890D01*
X88609593Y-78372854D01*
X88615231Y-78381537D01*
X88649485Y-78440865D01*
X88756635Y-78548015D01*
X88756637Y-78548016D01*
X88756639Y-78548018D01*
X88887861Y-78623779D01*
X88887859Y-78623779D01*
X88887863Y-78623780D01*
X88887865Y-78623781D01*
X89034234Y-78663000D01*
X89034236Y-78663000D01*
X89185764Y-78663000D01*
X89185766Y-78663000D01*
X89332135Y-78623781D01*
X89332137Y-78623779D01*
X89332139Y-78623779D01*
X89463360Y-78548018D01*
X89463360Y-78548017D01*
X89463365Y-78548015D01*
X89570515Y-78440865D01*
X89604764Y-78381545D01*
X89646279Y-78309639D01*
X89646279Y-78309637D01*
X89646281Y-78309635D01*
X89685500Y-78163266D01*
X89685500Y-78011734D01*
X89646281Y-77865365D01*
X89646279Y-77865362D01*
X89646279Y-77865360D01*
X89570518Y-77734139D01*
X89570516Y-77734137D01*
X89570515Y-77734135D01*
X89463365Y-77626985D01*
X89463362Y-77626983D01*
X89463360Y-77626981D01*
X89332138Y-77551220D01*
X89332140Y-77551220D01*
X89268275Y-77534108D01*
X89185766Y-77512000D01*
X89034234Y-77512000D01*
X88951725Y-77534108D01*
X88887860Y-77551220D01*
X88756639Y-77626981D01*
X88649481Y-77734139D01*
X88577956Y-77858024D01*
X88532486Y-77898965D01*
X88471636Y-77905360D01*
X88418648Y-77874768D01*
X88400756Y-77846409D01*
X88354251Y-77734136D01*
X88345084Y-77712005D01*
X88262951Y-77589084D01*
X88158416Y-77484549D01*
X88035495Y-77402416D01*
X88035493Y-77402415D01*
X87898914Y-77345842D01*
X87753918Y-77317000D01*
X87606082Y-77317000D01*
X87606081Y-77317000D01*
X87461085Y-77345842D01*
X87324506Y-77402415D01*
X87201585Y-77484548D01*
X87097048Y-77589085D01*
X87014915Y-77712006D01*
X86958342Y-77848585D01*
X86941728Y-77932109D01*
X86929500Y-77993582D01*
X86500500Y-77993582D01*
X86500500Y-73599500D01*
X86519407Y-73541309D01*
X86568907Y-73505345D01*
X86599500Y-73500500D01*
X86975204Y-73500500D01*
X87033395Y-73519407D01*
G37*
G04 #@! TD.AperFunction*
M02*
