M48
; DRILL file {KiCad 9.0.1} date 2025-10-23T20:39:28-0600
; FORMAT={-:-/ absolute / metric / decimal}
; #@! TF.CreationDate,2025-10-23T20:39:28-06:00
; #@! TF.GenerationSoftware,Kicad,Pcbnew,9.0.1
; #@! TF.FileFunction,Plated,1,2,PTH
FMAT,2
METRIC
; #@! TA.AperFunction,Plated,PTH,ViaDrill
T1C0.300
; #@! TA.AperFunction,Plated,PTH,ComponentDrill
T2C0.300
; #@! TA.AperFunction,Plated,PTH,ComponentDrill
T3C0.600
%
G90
G05
T1
X87.4Y-84.8
X88.8Y-81.0
X89.55Y-84.2
X89.6Y-86.8
X90.4Y-77.6
X90.4Y-99.4
X90.6Y-82.8
X91.5Y-77.9
X91.5Y-82.5
X92.0Y-74.6
X92.0Y-85.8
X92.5Y-77.9
X92.5Y-82.5
X93.2Y-81.0
X94.4Y-86.8
X94.45Y-84.2
X95.2Y-81.0
X96.2Y-84.6
T2
X89.0Y-104.3
X89.8Y-104.3
X89.8Y-105.0
X89.8Y-105.7
X94.2Y-104.3
X94.2Y-105.0
X94.2Y-105.7
X94.95Y-104.3
T3
X87.68Y-74.737G85X87.68Y-74.138
G05
X87.68Y-79.167G85X87.68Y-78.067
G05
X96.32Y-74.737G85X96.32Y-74.138
G05
X96.32Y-79.167G85X96.32Y-78.067
G05
M30
