%TF.GenerationSoftware,KiCad,Pcbnew,9.0.1*%
%TF.CreationDate,2025-10-23T20:39:28-06:00*%
%TF.ProjectId,usbport,75736270-6f72-4742-9e6b-696361645f70,rev?*%
%TF.SameCoordinates,Original*%
%TF.FileFunction,Drillmap*%
%TF.FilePolarity,Positive*%
%FSLAX45Y45*%
G04 Gerber Fmt 4.5, Leading zero omitted, Abs format (unit mm)*
G04 Created by KiCad (PCBNEW 9.0.1) date 2025-10-23 20:39:28*
%MOMM*%
%LPD*%
G01*
G04 APERTURE LIST*
%ADD10C,0.050000*%
%ADD11C,0.200000*%
%ADD12C,0.100000*%
G04 APERTURE END LIST*
D10*
X9200000Y-7300000D02*
X9800000Y-7300000D01*
X9800000Y-7300000D02*
X9800000Y-9800000D01*
X8600000Y-10650000D02*
X9800000Y-10650000D01*
X8600000Y-9800000D02*
X8600000Y-10650000D01*
X9200000Y-7300000D02*
X8600000Y-7300000D01*
X9800000Y-10650000D02*
X9800000Y-9800000D01*
X8600000Y-7300000D02*
X8600000Y-9800000D01*
D11*
D12*
X8725000Y-8465000D02*
X8755000Y-8495000D01*
X8755000Y-8465000D02*
X8725000Y-8495000D01*
X8865000Y-8085000D02*
X8895000Y-8115000D01*
X8895000Y-8085000D02*
X8865000Y-8115000D01*
X8940000Y-8405000D02*
X8970000Y-8435000D01*
X8970000Y-8405000D02*
X8940000Y-8435000D01*
X8945000Y-8665000D02*
X8975000Y-8695000D01*
X8975000Y-8665000D02*
X8945000Y-8695000D01*
X9025000Y-7745000D02*
X9055000Y-7775000D01*
X9055000Y-7745000D02*
X9025000Y-7775000D01*
X9025000Y-9925000D02*
X9055000Y-9955000D01*
X9055000Y-9925000D02*
X9025000Y-9955000D01*
X9045000Y-8265000D02*
X9075000Y-8295000D01*
X9075000Y-8265000D02*
X9045000Y-8295000D01*
X9135000Y-7775000D02*
X9165000Y-7805000D01*
X9165000Y-7775000D02*
X9135000Y-7805000D01*
X9135000Y-8235000D02*
X9165000Y-8265000D01*
X9165000Y-8235000D02*
X9135000Y-8265000D01*
X9185000Y-7445000D02*
X9215000Y-7475000D01*
X9215000Y-7445000D02*
X9185000Y-7475000D01*
X9185000Y-8565000D02*
X9215000Y-8595000D01*
X9215000Y-8565000D02*
X9185000Y-8595000D01*
X9235000Y-7775000D02*
X9265000Y-7805000D01*
X9265000Y-7775000D02*
X9235000Y-7805000D01*
X9235000Y-8235000D02*
X9265000Y-8265000D01*
X9265000Y-8235000D02*
X9235000Y-8265000D01*
X9305000Y-8085000D02*
X9335000Y-8115000D01*
X9335000Y-8085000D02*
X9305000Y-8115000D01*
X9425000Y-8665000D02*
X9455000Y-8695000D01*
X9455000Y-8665000D02*
X9425000Y-8695000D01*
X9430000Y-8405000D02*
X9460000Y-8435000D01*
X9460000Y-8405000D02*
X9430000Y-8435000D01*
X9505000Y-8085000D02*
X9535000Y-8115000D01*
X9535000Y-8085000D02*
X9505000Y-8115000D01*
X9605000Y-8445000D02*
X9635000Y-8475000D01*
X9635000Y-8445000D02*
X9605000Y-8475000D01*
X8915000Y-10430000D02*
G75*
G02*
X8885000Y-10430000I-15000J0D01*
G01*
X8885000Y-10430000D02*
G75*
G02*
X8915000Y-10430000I15000J0D01*
G01*
X8995000Y-10430000D02*
G75*
G02*
X8965000Y-10430000I-15000J0D01*
G01*
X8965000Y-10430000D02*
G75*
G02*
X8995000Y-10430000I15000J0D01*
G01*
X8995000Y-10500000D02*
G75*
G02*
X8965000Y-10500000I-15000J0D01*
G01*
X8965000Y-10500000D02*
G75*
G02*
X8995000Y-10500000I15000J0D01*
G01*
X8995000Y-10570000D02*
G75*
G02*
X8965000Y-10570000I-15000J0D01*
G01*
X8965000Y-10570000D02*
G75*
G02*
X8995000Y-10570000I15000J0D01*
G01*
X9435000Y-10430000D02*
G75*
G02*
X9405000Y-10430000I-15000J0D01*
G01*
X9405000Y-10430000D02*
G75*
G02*
X9435000Y-10430000I15000J0D01*
G01*
X9435000Y-10500000D02*
G75*
G02*
X9405000Y-10500000I-15000J0D01*
G01*
X9405000Y-10500000D02*
G75*
G02*
X9435000Y-10500000I15000J0D01*
G01*
X9435000Y-10570000D02*
G75*
G02*
X9405000Y-10570000I-15000J0D01*
G01*
X9405000Y-10570000D02*
G75*
G02*
X9435000Y-10570000I15000J0D01*
G01*
X9510000Y-10430000D02*
G75*
G02*
X9480000Y-10430000I-15000J0D01*
G01*
X9480000Y-10430000D02*
G75*
G02*
X9510000Y-10430000I15000J0D01*
G01*
X8768000Y-7413750D02*
X8768000Y-7473750D01*
X8738000Y-7443750D02*
X8798000Y-7443750D01*
X8798000Y-7473750D02*
X8798000Y-7413750D01*
X8738000Y-7413750D02*
G75*
G02*
X8798000Y-7413750I30000J0D01*
G01*
X8738000Y-7413750D02*
X8738000Y-7473750D01*
X8738000Y-7473750D02*
G75*
G03*
X8798000Y-7473750I30000J0D01*
G01*
X8768000Y-7831750D02*
X8768000Y-7891750D01*
X8738000Y-7861750D02*
X8798000Y-7861750D01*
X8798000Y-7916750D02*
X8798000Y-7806750D01*
X8738000Y-7806750D02*
G75*
G02*
X8798000Y-7806750I30000J0D01*
G01*
X8738000Y-7806750D02*
X8738000Y-7916750D01*
X8738000Y-7916750D02*
G75*
G03*
X8798000Y-7916750I30000J0D01*
G01*
X9632000Y-7413750D02*
X9632000Y-7473750D01*
X9602000Y-7443750D02*
X9662000Y-7443750D01*
X9662000Y-7473750D02*
X9662000Y-7413750D01*
X9602000Y-7413750D02*
G75*
G02*
X9662000Y-7413750I30000J0D01*
G01*
X9602000Y-7413750D02*
X9602000Y-7473750D01*
X9602000Y-7473750D02*
G75*
G03*
X9662000Y-7473750I30000J0D01*
G01*
X9632000Y-7831750D02*
X9632000Y-7891750D01*
X9602000Y-7861750D02*
X9662000Y-7861750D01*
X9662000Y-7916750D02*
X9662000Y-7806750D01*
X9602000Y-7806750D02*
G75*
G02*
X9662000Y-7806750I30000J0D01*
G01*
X9602000Y-7806750D02*
X9602000Y-7916750D01*
X9602000Y-7916750D02*
G75*
G03*
X9662000Y-7916750I30000J0D01*
G01*
D11*
X8858277Y-10963984D02*
X8858277Y-10763984D01*
X8858277Y-10763984D02*
X8905896Y-10763984D01*
X8905896Y-10763984D02*
X8934467Y-10773508D01*
X8934467Y-10773508D02*
X8953515Y-10792555D01*
X8953515Y-10792555D02*
X8963039Y-10811603D01*
X8963039Y-10811603D02*
X8972563Y-10849698D01*
X8972563Y-10849698D02*
X8972563Y-10878270D01*
X8972563Y-10878270D02*
X8963039Y-10916365D01*
X8963039Y-10916365D02*
X8953515Y-10935412D01*
X8953515Y-10935412D02*
X8934467Y-10954460D01*
X8934467Y-10954460D02*
X8905896Y-10963984D01*
X8905896Y-10963984D02*
X8858277Y-10963984D01*
X9058277Y-10963984D02*
X9058277Y-10830650D01*
X9058277Y-10868746D02*
X9067801Y-10849698D01*
X9067801Y-10849698D02*
X9077324Y-10840174D01*
X9077324Y-10840174D02*
X9096372Y-10830650D01*
X9096372Y-10830650D02*
X9115420Y-10830650D01*
X9182086Y-10963984D02*
X9182086Y-10830650D01*
X9182086Y-10763984D02*
X9172563Y-10773508D01*
X9172563Y-10773508D02*
X9182086Y-10783031D01*
X9182086Y-10783031D02*
X9191610Y-10773508D01*
X9191610Y-10773508D02*
X9182086Y-10763984D01*
X9182086Y-10763984D02*
X9182086Y-10783031D01*
X9305896Y-10963984D02*
X9286848Y-10954460D01*
X9286848Y-10954460D02*
X9277324Y-10935412D01*
X9277324Y-10935412D02*
X9277324Y-10763984D01*
X9410658Y-10963984D02*
X9391610Y-10954460D01*
X9391610Y-10954460D02*
X9382086Y-10935412D01*
X9382086Y-10935412D02*
X9382086Y-10763984D01*
X9639229Y-10963984D02*
X9639229Y-10763984D01*
X9639229Y-10763984D02*
X9705896Y-10906841D01*
X9705896Y-10906841D02*
X9772563Y-10763984D01*
X9772563Y-10763984D02*
X9772563Y-10963984D01*
X9953515Y-10963984D02*
X9953515Y-10859222D01*
X9953515Y-10859222D02*
X9943991Y-10840174D01*
X9943991Y-10840174D02*
X9924944Y-10830650D01*
X9924944Y-10830650D02*
X9886848Y-10830650D01*
X9886848Y-10830650D02*
X9867801Y-10840174D01*
X9953515Y-10954460D02*
X9934467Y-10963984D01*
X9934467Y-10963984D02*
X9886848Y-10963984D01*
X9886848Y-10963984D02*
X9867801Y-10954460D01*
X9867801Y-10954460D02*
X9858277Y-10935412D01*
X9858277Y-10935412D02*
X9858277Y-10916365D01*
X9858277Y-10916365D02*
X9867801Y-10897317D01*
X9867801Y-10897317D02*
X9886848Y-10887793D01*
X9886848Y-10887793D02*
X9934467Y-10887793D01*
X9934467Y-10887793D02*
X9953515Y-10878270D01*
X10048753Y-10830650D02*
X10048753Y-11030650D01*
X10048753Y-10840174D02*
X10067801Y-10830650D01*
X10067801Y-10830650D02*
X10105896Y-10830650D01*
X10105896Y-10830650D02*
X10124944Y-10840174D01*
X10124944Y-10840174D02*
X10134467Y-10849698D01*
X10134467Y-10849698D02*
X10143991Y-10868746D01*
X10143991Y-10868746D02*
X10143991Y-10925889D01*
X10143991Y-10925889D02*
X10134467Y-10944936D01*
X10134467Y-10944936D02*
X10124944Y-10954460D01*
X10124944Y-10954460D02*
X10105896Y-10963984D01*
X10105896Y-10963984D02*
X10067801Y-10963984D01*
X10067801Y-10963984D02*
X10048753Y-10954460D01*
X10229705Y-10944936D02*
X10239229Y-10954460D01*
X10239229Y-10954460D02*
X10229705Y-10963984D01*
X10229705Y-10963984D02*
X10220182Y-10954460D01*
X10220182Y-10954460D02*
X10229705Y-10944936D01*
X10229705Y-10944936D02*
X10229705Y-10963984D01*
X10229705Y-10840174D02*
X10239229Y-10849698D01*
X10239229Y-10849698D02*
X10229705Y-10859222D01*
X10229705Y-10859222D02*
X10220182Y-10849698D01*
X10220182Y-10849698D02*
X10229705Y-10840174D01*
X10229705Y-10840174D02*
X10229705Y-10859222D01*
D12*
X8567500Y-11277500D02*
X8597500Y-11307500D01*
X8597500Y-11277500D02*
X8567500Y-11307500D01*
D11*
X8896372Y-11183984D02*
X8915420Y-11183984D01*
X8915420Y-11183984D02*
X8934467Y-11193508D01*
X8934467Y-11193508D02*
X8943991Y-11203031D01*
X8943991Y-11203031D02*
X8953515Y-11222079D01*
X8953515Y-11222079D02*
X8963039Y-11260174D01*
X8963039Y-11260174D02*
X8963039Y-11307793D01*
X8963039Y-11307793D02*
X8953515Y-11345888D01*
X8953515Y-11345888D02*
X8943991Y-11364936D01*
X8943991Y-11364936D02*
X8934467Y-11374460D01*
X8934467Y-11374460D02*
X8915420Y-11383984D01*
X8915420Y-11383984D02*
X8896372Y-11383984D01*
X8896372Y-11383984D02*
X8877324Y-11374460D01*
X8877324Y-11374460D02*
X8867801Y-11364936D01*
X8867801Y-11364936D02*
X8858277Y-11345888D01*
X8858277Y-11345888D02*
X8848753Y-11307793D01*
X8848753Y-11307793D02*
X8848753Y-11260174D01*
X8848753Y-11260174D02*
X8858277Y-11222079D01*
X8858277Y-11222079D02*
X8867801Y-11203031D01*
X8867801Y-11203031D02*
X8877324Y-11193508D01*
X8877324Y-11193508D02*
X8896372Y-11183984D01*
X9048753Y-11364936D02*
X9058277Y-11374460D01*
X9058277Y-11374460D02*
X9048753Y-11383984D01*
X9048753Y-11383984D02*
X9039229Y-11374460D01*
X9039229Y-11374460D02*
X9048753Y-11364936D01*
X9048753Y-11364936D02*
X9048753Y-11383984D01*
X9124944Y-11183984D02*
X9248753Y-11183984D01*
X9248753Y-11183984D02*
X9182086Y-11260174D01*
X9182086Y-11260174D02*
X9210658Y-11260174D01*
X9210658Y-11260174D02*
X9229705Y-11269698D01*
X9229705Y-11269698D02*
X9239229Y-11279222D01*
X9239229Y-11279222D02*
X9248753Y-11298269D01*
X9248753Y-11298269D02*
X9248753Y-11345888D01*
X9248753Y-11345888D02*
X9239229Y-11364936D01*
X9239229Y-11364936D02*
X9229705Y-11374460D01*
X9229705Y-11374460D02*
X9210658Y-11383984D01*
X9210658Y-11383984D02*
X9153515Y-11383984D01*
X9153515Y-11383984D02*
X9134467Y-11374460D01*
X9134467Y-11374460D02*
X9124944Y-11364936D01*
X9372563Y-11183984D02*
X9391610Y-11183984D01*
X9391610Y-11183984D02*
X9410658Y-11193508D01*
X9410658Y-11193508D02*
X9420182Y-11203031D01*
X9420182Y-11203031D02*
X9429705Y-11222079D01*
X9429705Y-11222079D02*
X9439229Y-11260174D01*
X9439229Y-11260174D02*
X9439229Y-11307793D01*
X9439229Y-11307793D02*
X9429705Y-11345888D01*
X9429705Y-11345888D02*
X9420182Y-11364936D01*
X9420182Y-11364936D02*
X9410658Y-11374460D01*
X9410658Y-11374460D02*
X9391610Y-11383984D01*
X9391610Y-11383984D02*
X9372563Y-11383984D01*
X9372563Y-11383984D02*
X9353515Y-11374460D01*
X9353515Y-11374460D02*
X9343991Y-11364936D01*
X9343991Y-11364936D02*
X9334467Y-11345888D01*
X9334467Y-11345888D02*
X9324944Y-11307793D01*
X9324944Y-11307793D02*
X9324944Y-11260174D01*
X9324944Y-11260174D02*
X9334467Y-11222079D01*
X9334467Y-11222079D02*
X9343991Y-11203031D01*
X9343991Y-11203031D02*
X9353515Y-11193508D01*
X9353515Y-11193508D02*
X9372563Y-11183984D01*
X9563039Y-11183984D02*
X9582086Y-11183984D01*
X9582086Y-11183984D02*
X9601134Y-11193508D01*
X9601134Y-11193508D02*
X9610658Y-11203031D01*
X9610658Y-11203031D02*
X9620182Y-11222079D01*
X9620182Y-11222079D02*
X9629705Y-11260174D01*
X9629705Y-11260174D02*
X9629705Y-11307793D01*
X9629705Y-11307793D02*
X9620182Y-11345888D01*
X9620182Y-11345888D02*
X9610658Y-11364936D01*
X9610658Y-11364936D02*
X9601134Y-11374460D01*
X9601134Y-11374460D02*
X9582086Y-11383984D01*
X9582086Y-11383984D02*
X9563039Y-11383984D01*
X9563039Y-11383984D02*
X9543991Y-11374460D01*
X9543991Y-11374460D02*
X9534467Y-11364936D01*
X9534467Y-11364936D02*
X9524944Y-11345888D01*
X9524944Y-11345888D02*
X9515420Y-11307793D01*
X9515420Y-11307793D02*
X9515420Y-11260174D01*
X9515420Y-11260174D02*
X9524944Y-11222079D01*
X9524944Y-11222079D02*
X9534467Y-11203031D01*
X9534467Y-11203031D02*
X9543991Y-11193508D01*
X9543991Y-11193508D02*
X9563039Y-11183984D01*
X9715420Y-11383984D02*
X9715420Y-11250650D01*
X9715420Y-11269698D02*
X9724944Y-11260174D01*
X9724944Y-11260174D02*
X9743991Y-11250650D01*
X9743991Y-11250650D02*
X9772563Y-11250650D01*
X9772563Y-11250650D02*
X9791610Y-11260174D01*
X9791610Y-11260174D02*
X9801134Y-11279222D01*
X9801134Y-11279222D02*
X9801134Y-11383984D01*
X9801134Y-11279222D02*
X9810658Y-11260174D01*
X9810658Y-11260174D02*
X9829705Y-11250650D01*
X9829705Y-11250650D02*
X9858277Y-11250650D01*
X9858277Y-11250650D02*
X9877325Y-11260174D01*
X9877325Y-11260174D02*
X9886848Y-11279222D01*
X9886848Y-11279222D02*
X9886848Y-11383984D01*
X9982086Y-11383984D02*
X9982086Y-11250650D01*
X9982086Y-11269698D02*
X9991610Y-11260174D01*
X9991610Y-11260174D02*
X10010658Y-11250650D01*
X10010658Y-11250650D02*
X10039229Y-11250650D01*
X10039229Y-11250650D02*
X10058277Y-11260174D01*
X10058277Y-11260174D02*
X10067801Y-11279222D01*
X10067801Y-11279222D02*
X10067801Y-11383984D01*
X10067801Y-11279222D02*
X10077325Y-11260174D01*
X10077325Y-11260174D02*
X10096372Y-11250650D01*
X10096372Y-11250650D02*
X10124944Y-11250650D01*
X10124944Y-11250650D02*
X10143991Y-11260174D01*
X10143991Y-11260174D02*
X10153515Y-11279222D01*
X10153515Y-11279222D02*
X10153515Y-11383984D01*
X10543991Y-11174460D02*
X10372563Y-11431603D01*
X10801134Y-11183984D02*
X10820182Y-11183984D01*
X10820182Y-11183984D02*
X10839229Y-11193508D01*
X10839229Y-11193508D02*
X10848753Y-11203031D01*
X10848753Y-11203031D02*
X10858277Y-11222079D01*
X10858277Y-11222079D02*
X10867801Y-11260174D01*
X10867801Y-11260174D02*
X10867801Y-11307793D01*
X10867801Y-11307793D02*
X10858277Y-11345888D01*
X10858277Y-11345888D02*
X10848753Y-11364936D01*
X10848753Y-11364936D02*
X10839229Y-11374460D01*
X10839229Y-11374460D02*
X10820182Y-11383984D01*
X10820182Y-11383984D02*
X10801134Y-11383984D01*
X10801134Y-11383984D02*
X10782087Y-11374460D01*
X10782087Y-11374460D02*
X10772563Y-11364936D01*
X10772563Y-11364936D02*
X10763039Y-11345888D01*
X10763039Y-11345888D02*
X10753515Y-11307793D01*
X10753515Y-11307793D02*
X10753515Y-11260174D01*
X10753515Y-11260174D02*
X10763039Y-11222079D01*
X10763039Y-11222079D02*
X10772563Y-11203031D01*
X10772563Y-11203031D02*
X10782087Y-11193508D01*
X10782087Y-11193508D02*
X10801134Y-11183984D01*
X10953515Y-11364936D02*
X10963039Y-11374460D01*
X10963039Y-11374460D02*
X10953515Y-11383984D01*
X10953515Y-11383984D02*
X10943991Y-11374460D01*
X10943991Y-11374460D02*
X10953515Y-11364936D01*
X10953515Y-11364936D02*
X10953515Y-11383984D01*
X11086848Y-11183984D02*
X11105896Y-11183984D01*
X11105896Y-11183984D02*
X11124944Y-11193508D01*
X11124944Y-11193508D02*
X11134468Y-11203031D01*
X11134468Y-11203031D02*
X11143991Y-11222079D01*
X11143991Y-11222079D02*
X11153515Y-11260174D01*
X11153515Y-11260174D02*
X11153515Y-11307793D01*
X11153515Y-11307793D02*
X11143991Y-11345888D01*
X11143991Y-11345888D02*
X11134468Y-11364936D01*
X11134468Y-11364936D02*
X11124944Y-11374460D01*
X11124944Y-11374460D02*
X11105896Y-11383984D01*
X11105896Y-11383984D02*
X11086848Y-11383984D01*
X11086848Y-11383984D02*
X11067801Y-11374460D01*
X11067801Y-11374460D02*
X11058277Y-11364936D01*
X11058277Y-11364936D02*
X11048753Y-11345888D01*
X11048753Y-11345888D02*
X11039229Y-11307793D01*
X11039229Y-11307793D02*
X11039229Y-11260174D01*
X11039229Y-11260174D02*
X11048753Y-11222079D01*
X11048753Y-11222079D02*
X11058277Y-11203031D01*
X11058277Y-11203031D02*
X11067801Y-11193508D01*
X11067801Y-11193508D02*
X11086848Y-11183984D01*
X11343991Y-11383984D02*
X11229706Y-11383984D01*
X11286848Y-11383984D02*
X11286848Y-11183984D01*
X11286848Y-11183984D02*
X11267801Y-11212555D01*
X11267801Y-11212555D02*
X11248753Y-11231603D01*
X11248753Y-11231603D02*
X11229706Y-11241127D01*
X11534467Y-11383984D02*
X11420182Y-11383984D01*
X11477325Y-11383984D02*
X11477325Y-11183984D01*
X11477325Y-11183984D02*
X11458277Y-11212555D01*
X11458277Y-11212555D02*
X11439229Y-11231603D01*
X11439229Y-11231603D02*
X11420182Y-11241127D01*
X11648753Y-11269698D02*
X11629706Y-11260174D01*
X11629706Y-11260174D02*
X11620182Y-11250650D01*
X11620182Y-11250650D02*
X11610658Y-11231603D01*
X11610658Y-11231603D02*
X11610658Y-11222079D01*
X11610658Y-11222079D02*
X11620182Y-11203031D01*
X11620182Y-11203031D02*
X11629706Y-11193508D01*
X11629706Y-11193508D02*
X11648753Y-11183984D01*
X11648753Y-11183984D02*
X11686848Y-11183984D01*
X11686848Y-11183984D02*
X11705896Y-11193508D01*
X11705896Y-11193508D02*
X11715420Y-11203031D01*
X11715420Y-11203031D02*
X11724944Y-11222079D01*
X11724944Y-11222079D02*
X11724944Y-11231603D01*
X11724944Y-11231603D02*
X11715420Y-11250650D01*
X11715420Y-11250650D02*
X11705896Y-11260174D01*
X11705896Y-11260174D02*
X11686848Y-11269698D01*
X11686848Y-11269698D02*
X11648753Y-11269698D01*
X11648753Y-11269698D02*
X11629706Y-11279222D01*
X11629706Y-11279222D02*
X11620182Y-11288746D01*
X11620182Y-11288746D02*
X11610658Y-11307793D01*
X11610658Y-11307793D02*
X11610658Y-11345888D01*
X11610658Y-11345888D02*
X11620182Y-11364936D01*
X11620182Y-11364936D02*
X11629706Y-11374460D01*
X11629706Y-11374460D02*
X11648753Y-11383984D01*
X11648753Y-11383984D02*
X11686848Y-11383984D01*
X11686848Y-11383984D02*
X11705896Y-11374460D01*
X11705896Y-11374460D02*
X11715420Y-11364936D01*
X11715420Y-11364936D02*
X11724944Y-11345888D01*
X11724944Y-11345888D02*
X11724944Y-11307793D01*
X11724944Y-11307793D02*
X11715420Y-11288746D01*
X11715420Y-11288746D02*
X11705896Y-11279222D01*
X11705896Y-11279222D02*
X11686848Y-11269698D01*
X11801134Y-11183984D02*
X11801134Y-11222079D01*
X11877325Y-11183984D02*
X11877325Y-11222079D01*
X12172563Y-11460174D02*
X12163039Y-11450650D01*
X12163039Y-11450650D02*
X12143991Y-11422079D01*
X12143991Y-11422079D02*
X12134468Y-11403031D01*
X12134468Y-11403031D02*
X12124944Y-11374460D01*
X12124944Y-11374460D02*
X12115420Y-11326841D01*
X12115420Y-11326841D02*
X12115420Y-11288746D01*
X12115420Y-11288746D02*
X12124944Y-11241127D01*
X12124944Y-11241127D02*
X12134468Y-11212555D01*
X12134468Y-11212555D02*
X12143991Y-11193508D01*
X12143991Y-11193508D02*
X12163039Y-11164936D01*
X12163039Y-11164936D02*
X12172563Y-11155412D01*
X12353515Y-11383984D02*
X12239229Y-11383984D01*
X12296372Y-11383984D02*
X12296372Y-11183984D01*
X12296372Y-11183984D02*
X12277325Y-11212555D01*
X12277325Y-11212555D02*
X12258277Y-11231603D01*
X12258277Y-11231603D02*
X12239229Y-11241127D01*
X12467801Y-11269698D02*
X12448753Y-11260174D01*
X12448753Y-11260174D02*
X12439229Y-11250650D01*
X12439229Y-11250650D02*
X12429706Y-11231603D01*
X12429706Y-11231603D02*
X12429706Y-11222079D01*
X12429706Y-11222079D02*
X12439229Y-11203031D01*
X12439229Y-11203031D02*
X12448753Y-11193508D01*
X12448753Y-11193508D02*
X12467801Y-11183984D01*
X12467801Y-11183984D02*
X12505896Y-11183984D01*
X12505896Y-11183984D02*
X12524944Y-11193508D01*
X12524944Y-11193508D02*
X12534468Y-11203031D01*
X12534468Y-11203031D02*
X12543991Y-11222079D01*
X12543991Y-11222079D02*
X12543991Y-11231603D01*
X12543991Y-11231603D02*
X12534468Y-11250650D01*
X12534468Y-11250650D02*
X12524944Y-11260174D01*
X12524944Y-11260174D02*
X12505896Y-11269698D01*
X12505896Y-11269698D02*
X12467801Y-11269698D01*
X12467801Y-11269698D02*
X12448753Y-11279222D01*
X12448753Y-11279222D02*
X12439229Y-11288746D01*
X12439229Y-11288746D02*
X12429706Y-11307793D01*
X12429706Y-11307793D02*
X12429706Y-11345888D01*
X12429706Y-11345888D02*
X12439229Y-11364936D01*
X12439229Y-11364936D02*
X12448753Y-11374460D01*
X12448753Y-11374460D02*
X12467801Y-11383984D01*
X12467801Y-11383984D02*
X12505896Y-11383984D01*
X12505896Y-11383984D02*
X12524944Y-11374460D01*
X12524944Y-11374460D02*
X12534468Y-11364936D01*
X12534468Y-11364936D02*
X12543991Y-11345888D01*
X12543991Y-11345888D02*
X12543991Y-11307793D01*
X12543991Y-11307793D02*
X12534468Y-11288746D01*
X12534468Y-11288746D02*
X12524944Y-11279222D01*
X12524944Y-11279222D02*
X12505896Y-11269698D01*
X12782087Y-11383984D02*
X12782087Y-11183984D01*
X12867801Y-11383984D02*
X12867801Y-11279222D01*
X12867801Y-11279222D02*
X12858277Y-11260174D01*
X12858277Y-11260174D02*
X12839230Y-11250650D01*
X12839230Y-11250650D02*
X12810658Y-11250650D01*
X12810658Y-11250650D02*
X12791610Y-11260174D01*
X12791610Y-11260174D02*
X12782087Y-11269698D01*
X12991610Y-11383984D02*
X12972563Y-11374460D01*
X12972563Y-11374460D02*
X12963039Y-11364936D01*
X12963039Y-11364936D02*
X12953515Y-11345888D01*
X12953515Y-11345888D02*
X12953515Y-11288746D01*
X12953515Y-11288746D02*
X12963039Y-11269698D01*
X12963039Y-11269698D02*
X12972563Y-11260174D01*
X12972563Y-11260174D02*
X12991610Y-11250650D01*
X12991610Y-11250650D02*
X13020182Y-11250650D01*
X13020182Y-11250650D02*
X13039230Y-11260174D01*
X13039230Y-11260174D02*
X13048753Y-11269698D01*
X13048753Y-11269698D02*
X13058277Y-11288746D01*
X13058277Y-11288746D02*
X13058277Y-11345888D01*
X13058277Y-11345888D02*
X13048753Y-11364936D01*
X13048753Y-11364936D02*
X13039230Y-11374460D01*
X13039230Y-11374460D02*
X13020182Y-11383984D01*
X13020182Y-11383984D02*
X12991610Y-11383984D01*
X13172563Y-11383984D02*
X13153515Y-11374460D01*
X13153515Y-11374460D02*
X13143991Y-11355412D01*
X13143991Y-11355412D02*
X13143991Y-11183984D01*
X13324944Y-11374460D02*
X13305896Y-11383984D01*
X13305896Y-11383984D02*
X13267801Y-11383984D01*
X13267801Y-11383984D02*
X13248753Y-11374460D01*
X13248753Y-11374460D02*
X13239230Y-11355412D01*
X13239230Y-11355412D02*
X13239230Y-11279222D01*
X13239230Y-11279222D02*
X13248753Y-11260174D01*
X13248753Y-11260174D02*
X13267801Y-11250650D01*
X13267801Y-11250650D02*
X13305896Y-11250650D01*
X13305896Y-11250650D02*
X13324944Y-11260174D01*
X13324944Y-11260174D02*
X13334468Y-11279222D01*
X13334468Y-11279222D02*
X13334468Y-11298269D01*
X13334468Y-11298269D02*
X13239230Y-11317317D01*
X13410658Y-11374460D02*
X13429706Y-11383984D01*
X13429706Y-11383984D02*
X13467801Y-11383984D01*
X13467801Y-11383984D02*
X13486849Y-11374460D01*
X13486849Y-11374460D02*
X13496372Y-11355412D01*
X13496372Y-11355412D02*
X13496372Y-11345888D01*
X13496372Y-11345888D02*
X13486849Y-11326841D01*
X13486849Y-11326841D02*
X13467801Y-11317317D01*
X13467801Y-11317317D02*
X13439230Y-11317317D01*
X13439230Y-11317317D02*
X13420182Y-11307793D01*
X13420182Y-11307793D02*
X13410658Y-11288746D01*
X13410658Y-11288746D02*
X13410658Y-11279222D01*
X13410658Y-11279222D02*
X13420182Y-11260174D01*
X13420182Y-11260174D02*
X13439230Y-11250650D01*
X13439230Y-11250650D02*
X13467801Y-11250650D01*
X13467801Y-11250650D02*
X13486849Y-11260174D01*
X13563039Y-11460174D02*
X13572563Y-11450650D01*
X13572563Y-11450650D02*
X13591611Y-11422079D01*
X13591611Y-11422079D02*
X13601134Y-11403031D01*
X13601134Y-11403031D02*
X13610658Y-11374460D01*
X13610658Y-11374460D02*
X13620182Y-11326841D01*
X13620182Y-11326841D02*
X13620182Y-11288746D01*
X13620182Y-11288746D02*
X13610658Y-11241127D01*
X13610658Y-11241127D02*
X13601134Y-11212555D01*
X13601134Y-11212555D02*
X13591611Y-11193508D01*
X13591611Y-11193508D02*
X13572563Y-11164936D01*
X13572563Y-11164936D02*
X13563039Y-11155412D01*
D12*
X8597500Y-11556500D02*
G75*
G02*
X8567500Y-11556500I-15000J0D01*
G01*
X8567500Y-11556500D02*
G75*
G02*
X8597500Y-11556500I15000J0D01*
G01*
D11*
X8896372Y-11447984D02*
X8915420Y-11447984D01*
X8915420Y-11447984D02*
X8934467Y-11457508D01*
X8934467Y-11457508D02*
X8943991Y-11467031D01*
X8943991Y-11467031D02*
X8953515Y-11486079D01*
X8953515Y-11486079D02*
X8963039Y-11524174D01*
X8963039Y-11524174D02*
X8963039Y-11571793D01*
X8963039Y-11571793D02*
X8953515Y-11609888D01*
X8953515Y-11609888D02*
X8943991Y-11628936D01*
X8943991Y-11628936D02*
X8934467Y-11638460D01*
X8934467Y-11638460D02*
X8915420Y-11647984D01*
X8915420Y-11647984D02*
X8896372Y-11647984D01*
X8896372Y-11647984D02*
X8877324Y-11638460D01*
X8877324Y-11638460D02*
X8867801Y-11628936D01*
X8867801Y-11628936D02*
X8858277Y-11609888D01*
X8858277Y-11609888D02*
X8848753Y-11571793D01*
X8848753Y-11571793D02*
X8848753Y-11524174D01*
X8848753Y-11524174D02*
X8858277Y-11486079D01*
X8858277Y-11486079D02*
X8867801Y-11467031D01*
X8867801Y-11467031D02*
X8877324Y-11457508D01*
X8877324Y-11457508D02*
X8896372Y-11447984D01*
X9048753Y-11628936D02*
X9058277Y-11638460D01*
X9058277Y-11638460D02*
X9048753Y-11647984D01*
X9048753Y-11647984D02*
X9039229Y-11638460D01*
X9039229Y-11638460D02*
X9048753Y-11628936D01*
X9048753Y-11628936D02*
X9048753Y-11647984D01*
X9124944Y-11447984D02*
X9248753Y-11447984D01*
X9248753Y-11447984D02*
X9182086Y-11524174D01*
X9182086Y-11524174D02*
X9210658Y-11524174D01*
X9210658Y-11524174D02*
X9229705Y-11533698D01*
X9229705Y-11533698D02*
X9239229Y-11543222D01*
X9239229Y-11543222D02*
X9248753Y-11562269D01*
X9248753Y-11562269D02*
X9248753Y-11609888D01*
X9248753Y-11609888D02*
X9239229Y-11628936D01*
X9239229Y-11628936D02*
X9229705Y-11638460D01*
X9229705Y-11638460D02*
X9210658Y-11647984D01*
X9210658Y-11647984D02*
X9153515Y-11647984D01*
X9153515Y-11647984D02*
X9134467Y-11638460D01*
X9134467Y-11638460D02*
X9124944Y-11628936D01*
X9372563Y-11447984D02*
X9391610Y-11447984D01*
X9391610Y-11447984D02*
X9410658Y-11457508D01*
X9410658Y-11457508D02*
X9420182Y-11467031D01*
X9420182Y-11467031D02*
X9429705Y-11486079D01*
X9429705Y-11486079D02*
X9439229Y-11524174D01*
X9439229Y-11524174D02*
X9439229Y-11571793D01*
X9439229Y-11571793D02*
X9429705Y-11609888D01*
X9429705Y-11609888D02*
X9420182Y-11628936D01*
X9420182Y-11628936D02*
X9410658Y-11638460D01*
X9410658Y-11638460D02*
X9391610Y-11647984D01*
X9391610Y-11647984D02*
X9372563Y-11647984D01*
X9372563Y-11647984D02*
X9353515Y-11638460D01*
X9353515Y-11638460D02*
X9343991Y-11628936D01*
X9343991Y-11628936D02*
X9334467Y-11609888D01*
X9334467Y-11609888D02*
X9324944Y-11571793D01*
X9324944Y-11571793D02*
X9324944Y-11524174D01*
X9324944Y-11524174D02*
X9334467Y-11486079D01*
X9334467Y-11486079D02*
X9343991Y-11467031D01*
X9343991Y-11467031D02*
X9353515Y-11457508D01*
X9353515Y-11457508D02*
X9372563Y-11447984D01*
X9563039Y-11447984D02*
X9582086Y-11447984D01*
X9582086Y-11447984D02*
X9601134Y-11457508D01*
X9601134Y-11457508D02*
X9610658Y-11467031D01*
X9610658Y-11467031D02*
X9620182Y-11486079D01*
X9620182Y-11486079D02*
X9629705Y-11524174D01*
X9629705Y-11524174D02*
X9629705Y-11571793D01*
X9629705Y-11571793D02*
X9620182Y-11609888D01*
X9620182Y-11609888D02*
X9610658Y-11628936D01*
X9610658Y-11628936D02*
X9601134Y-11638460D01*
X9601134Y-11638460D02*
X9582086Y-11647984D01*
X9582086Y-11647984D02*
X9563039Y-11647984D01*
X9563039Y-11647984D02*
X9543991Y-11638460D01*
X9543991Y-11638460D02*
X9534467Y-11628936D01*
X9534467Y-11628936D02*
X9524944Y-11609888D01*
X9524944Y-11609888D02*
X9515420Y-11571793D01*
X9515420Y-11571793D02*
X9515420Y-11524174D01*
X9515420Y-11524174D02*
X9524944Y-11486079D01*
X9524944Y-11486079D02*
X9534467Y-11467031D01*
X9534467Y-11467031D02*
X9543991Y-11457508D01*
X9543991Y-11457508D02*
X9563039Y-11447984D01*
X9715420Y-11647984D02*
X9715420Y-11514650D01*
X9715420Y-11533698D02*
X9724944Y-11524174D01*
X9724944Y-11524174D02*
X9743991Y-11514650D01*
X9743991Y-11514650D02*
X9772563Y-11514650D01*
X9772563Y-11514650D02*
X9791610Y-11524174D01*
X9791610Y-11524174D02*
X9801134Y-11543222D01*
X9801134Y-11543222D02*
X9801134Y-11647984D01*
X9801134Y-11543222D02*
X9810658Y-11524174D01*
X9810658Y-11524174D02*
X9829705Y-11514650D01*
X9829705Y-11514650D02*
X9858277Y-11514650D01*
X9858277Y-11514650D02*
X9877325Y-11524174D01*
X9877325Y-11524174D02*
X9886848Y-11543222D01*
X9886848Y-11543222D02*
X9886848Y-11647984D01*
X9982086Y-11647984D02*
X9982086Y-11514650D01*
X9982086Y-11533698D02*
X9991610Y-11524174D01*
X9991610Y-11524174D02*
X10010658Y-11514650D01*
X10010658Y-11514650D02*
X10039229Y-11514650D01*
X10039229Y-11514650D02*
X10058277Y-11524174D01*
X10058277Y-11524174D02*
X10067801Y-11543222D01*
X10067801Y-11543222D02*
X10067801Y-11647984D01*
X10067801Y-11543222D02*
X10077325Y-11524174D01*
X10077325Y-11524174D02*
X10096372Y-11514650D01*
X10096372Y-11514650D02*
X10124944Y-11514650D01*
X10124944Y-11514650D02*
X10143991Y-11524174D01*
X10143991Y-11524174D02*
X10153515Y-11543222D01*
X10153515Y-11543222D02*
X10153515Y-11647984D01*
X10543991Y-11438460D02*
X10372563Y-11695603D01*
X10801134Y-11447984D02*
X10820182Y-11447984D01*
X10820182Y-11447984D02*
X10839229Y-11457508D01*
X10839229Y-11457508D02*
X10848753Y-11467031D01*
X10848753Y-11467031D02*
X10858277Y-11486079D01*
X10858277Y-11486079D02*
X10867801Y-11524174D01*
X10867801Y-11524174D02*
X10867801Y-11571793D01*
X10867801Y-11571793D02*
X10858277Y-11609888D01*
X10858277Y-11609888D02*
X10848753Y-11628936D01*
X10848753Y-11628936D02*
X10839229Y-11638460D01*
X10839229Y-11638460D02*
X10820182Y-11647984D01*
X10820182Y-11647984D02*
X10801134Y-11647984D01*
X10801134Y-11647984D02*
X10782087Y-11638460D01*
X10782087Y-11638460D02*
X10772563Y-11628936D01*
X10772563Y-11628936D02*
X10763039Y-11609888D01*
X10763039Y-11609888D02*
X10753515Y-11571793D01*
X10753515Y-11571793D02*
X10753515Y-11524174D01*
X10753515Y-11524174D02*
X10763039Y-11486079D01*
X10763039Y-11486079D02*
X10772563Y-11467031D01*
X10772563Y-11467031D02*
X10782087Y-11457508D01*
X10782087Y-11457508D02*
X10801134Y-11447984D01*
X10953515Y-11628936D02*
X10963039Y-11638460D01*
X10963039Y-11638460D02*
X10953515Y-11647984D01*
X10953515Y-11647984D02*
X10943991Y-11638460D01*
X10943991Y-11638460D02*
X10953515Y-11628936D01*
X10953515Y-11628936D02*
X10953515Y-11647984D01*
X11086848Y-11447984D02*
X11105896Y-11447984D01*
X11105896Y-11447984D02*
X11124944Y-11457508D01*
X11124944Y-11457508D02*
X11134468Y-11467031D01*
X11134468Y-11467031D02*
X11143991Y-11486079D01*
X11143991Y-11486079D02*
X11153515Y-11524174D01*
X11153515Y-11524174D02*
X11153515Y-11571793D01*
X11153515Y-11571793D02*
X11143991Y-11609888D01*
X11143991Y-11609888D02*
X11134468Y-11628936D01*
X11134468Y-11628936D02*
X11124944Y-11638460D01*
X11124944Y-11638460D02*
X11105896Y-11647984D01*
X11105896Y-11647984D02*
X11086848Y-11647984D01*
X11086848Y-11647984D02*
X11067801Y-11638460D01*
X11067801Y-11638460D02*
X11058277Y-11628936D01*
X11058277Y-11628936D02*
X11048753Y-11609888D01*
X11048753Y-11609888D02*
X11039229Y-11571793D01*
X11039229Y-11571793D02*
X11039229Y-11524174D01*
X11039229Y-11524174D02*
X11048753Y-11486079D01*
X11048753Y-11486079D02*
X11058277Y-11467031D01*
X11058277Y-11467031D02*
X11067801Y-11457508D01*
X11067801Y-11457508D02*
X11086848Y-11447984D01*
X11343991Y-11647984D02*
X11229706Y-11647984D01*
X11286848Y-11647984D02*
X11286848Y-11447984D01*
X11286848Y-11447984D02*
X11267801Y-11476555D01*
X11267801Y-11476555D02*
X11248753Y-11495603D01*
X11248753Y-11495603D02*
X11229706Y-11505127D01*
X11534467Y-11647984D02*
X11420182Y-11647984D01*
X11477325Y-11647984D02*
X11477325Y-11447984D01*
X11477325Y-11447984D02*
X11458277Y-11476555D01*
X11458277Y-11476555D02*
X11439229Y-11495603D01*
X11439229Y-11495603D02*
X11420182Y-11505127D01*
X11648753Y-11533698D02*
X11629706Y-11524174D01*
X11629706Y-11524174D02*
X11620182Y-11514650D01*
X11620182Y-11514650D02*
X11610658Y-11495603D01*
X11610658Y-11495603D02*
X11610658Y-11486079D01*
X11610658Y-11486079D02*
X11620182Y-11467031D01*
X11620182Y-11467031D02*
X11629706Y-11457508D01*
X11629706Y-11457508D02*
X11648753Y-11447984D01*
X11648753Y-11447984D02*
X11686848Y-11447984D01*
X11686848Y-11447984D02*
X11705896Y-11457508D01*
X11705896Y-11457508D02*
X11715420Y-11467031D01*
X11715420Y-11467031D02*
X11724944Y-11486079D01*
X11724944Y-11486079D02*
X11724944Y-11495603D01*
X11724944Y-11495603D02*
X11715420Y-11514650D01*
X11715420Y-11514650D02*
X11705896Y-11524174D01*
X11705896Y-11524174D02*
X11686848Y-11533698D01*
X11686848Y-11533698D02*
X11648753Y-11533698D01*
X11648753Y-11533698D02*
X11629706Y-11543222D01*
X11629706Y-11543222D02*
X11620182Y-11552746D01*
X11620182Y-11552746D02*
X11610658Y-11571793D01*
X11610658Y-11571793D02*
X11610658Y-11609888D01*
X11610658Y-11609888D02*
X11620182Y-11628936D01*
X11620182Y-11628936D02*
X11629706Y-11638460D01*
X11629706Y-11638460D02*
X11648753Y-11647984D01*
X11648753Y-11647984D02*
X11686848Y-11647984D01*
X11686848Y-11647984D02*
X11705896Y-11638460D01*
X11705896Y-11638460D02*
X11715420Y-11628936D01*
X11715420Y-11628936D02*
X11724944Y-11609888D01*
X11724944Y-11609888D02*
X11724944Y-11571793D01*
X11724944Y-11571793D02*
X11715420Y-11552746D01*
X11715420Y-11552746D02*
X11705896Y-11543222D01*
X11705896Y-11543222D02*
X11686848Y-11533698D01*
X11801134Y-11447984D02*
X11801134Y-11486079D01*
X11877325Y-11447984D02*
X11877325Y-11486079D01*
X12172563Y-11724174D02*
X12163039Y-11714650D01*
X12163039Y-11714650D02*
X12143991Y-11686079D01*
X12143991Y-11686079D02*
X12134468Y-11667031D01*
X12134468Y-11667031D02*
X12124944Y-11638460D01*
X12124944Y-11638460D02*
X12115420Y-11590841D01*
X12115420Y-11590841D02*
X12115420Y-11552746D01*
X12115420Y-11552746D02*
X12124944Y-11505127D01*
X12124944Y-11505127D02*
X12134468Y-11476555D01*
X12134468Y-11476555D02*
X12143991Y-11457508D01*
X12143991Y-11457508D02*
X12163039Y-11428936D01*
X12163039Y-11428936D02*
X12172563Y-11419412D01*
X12277325Y-11533698D02*
X12258277Y-11524174D01*
X12258277Y-11524174D02*
X12248753Y-11514650D01*
X12248753Y-11514650D02*
X12239229Y-11495603D01*
X12239229Y-11495603D02*
X12239229Y-11486079D01*
X12239229Y-11486079D02*
X12248753Y-11467031D01*
X12248753Y-11467031D02*
X12258277Y-11457508D01*
X12258277Y-11457508D02*
X12277325Y-11447984D01*
X12277325Y-11447984D02*
X12315420Y-11447984D01*
X12315420Y-11447984D02*
X12334468Y-11457508D01*
X12334468Y-11457508D02*
X12343991Y-11467031D01*
X12343991Y-11467031D02*
X12353515Y-11486079D01*
X12353515Y-11486079D02*
X12353515Y-11495603D01*
X12353515Y-11495603D02*
X12343991Y-11514650D01*
X12343991Y-11514650D02*
X12334468Y-11524174D01*
X12334468Y-11524174D02*
X12315420Y-11533698D01*
X12315420Y-11533698D02*
X12277325Y-11533698D01*
X12277325Y-11533698D02*
X12258277Y-11543222D01*
X12258277Y-11543222D02*
X12248753Y-11552746D01*
X12248753Y-11552746D02*
X12239229Y-11571793D01*
X12239229Y-11571793D02*
X12239229Y-11609888D01*
X12239229Y-11609888D02*
X12248753Y-11628936D01*
X12248753Y-11628936D02*
X12258277Y-11638460D01*
X12258277Y-11638460D02*
X12277325Y-11647984D01*
X12277325Y-11647984D02*
X12315420Y-11647984D01*
X12315420Y-11647984D02*
X12334468Y-11638460D01*
X12334468Y-11638460D02*
X12343991Y-11628936D01*
X12343991Y-11628936D02*
X12353515Y-11609888D01*
X12353515Y-11609888D02*
X12353515Y-11571793D01*
X12353515Y-11571793D02*
X12343991Y-11552746D01*
X12343991Y-11552746D02*
X12334468Y-11543222D01*
X12334468Y-11543222D02*
X12315420Y-11533698D01*
X12591610Y-11647984D02*
X12591610Y-11447984D01*
X12677325Y-11647984D02*
X12677325Y-11543222D01*
X12677325Y-11543222D02*
X12667801Y-11524174D01*
X12667801Y-11524174D02*
X12648753Y-11514650D01*
X12648753Y-11514650D02*
X12620182Y-11514650D01*
X12620182Y-11514650D02*
X12601134Y-11524174D01*
X12601134Y-11524174D02*
X12591610Y-11533698D01*
X12801134Y-11647984D02*
X12782087Y-11638460D01*
X12782087Y-11638460D02*
X12772563Y-11628936D01*
X12772563Y-11628936D02*
X12763039Y-11609888D01*
X12763039Y-11609888D02*
X12763039Y-11552746D01*
X12763039Y-11552746D02*
X12772563Y-11533698D01*
X12772563Y-11533698D02*
X12782087Y-11524174D01*
X12782087Y-11524174D02*
X12801134Y-11514650D01*
X12801134Y-11514650D02*
X12829706Y-11514650D01*
X12829706Y-11514650D02*
X12848753Y-11524174D01*
X12848753Y-11524174D02*
X12858277Y-11533698D01*
X12858277Y-11533698D02*
X12867801Y-11552746D01*
X12867801Y-11552746D02*
X12867801Y-11609888D01*
X12867801Y-11609888D02*
X12858277Y-11628936D01*
X12858277Y-11628936D02*
X12848753Y-11638460D01*
X12848753Y-11638460D02*
X12829706Y-11647984D01*
X12829706Y-11647984D02*
X12801134Y-11647984D01*
X12982087Y-11647984D02*
X12963039Y-11638460D01*
X12963039Y-11638460D02*
X12953515Y-11619412D01*
X12953515Y-11619412D02*
X12953515Y-11447984D01*
X13134468Y-11638460D02*
X13115420Y-11647984D01*
X13115420Y-11647984D02*
X13077325Y-11647984D01*
X13077325Y-11647984D02*
X13058277Y-11638460D01*
X13058277Y-11638460D02*
X13048753Y-11619412D01*
X13048753Y-11619412D02*
X13048753Y-11543222D01*
X13048753Y-11543222D02*
X13058277Y-11524174D01*
X13058277Y-11524174D02*
X13077325Y-11514650D01*
X13077325Y-11514650D02*
X13115420Y-11514650D01*
X13115420Y-11514650D02*
X13134468Y-11524174D01*
X13134468Y-11524174D02*
X13143991Y-11543222D01*
X13143991Y-11543222D02*
X13143991Y-11562269D01*
X13143991Y-11562269D02*
X13048753Y-11581317D01*
X13220182Y-11638460D02*
X13239230Y-11647984D01*
X13239230Y-11647984D02*
X13277325Y-11647984D01*
X13277325Y-11647984D02*
X13296372Y-11638460D01*
X13296372Y-11638460D02*
X13305896Y-11619412D01*
X13305896Y-11619412D02*
X13305896Y-11609888D01*
X13305896Y-11609888D02*
X13296372Y-11590841D01*
X13296372Y-11590841D02*
X13277325Y-11581317D01*
X13277325Y-11581317D02*
X13248753Y-11581317D01*
X13248753Y-11581317D02*
X13229706Y-11571793D01*
X13229706Y-11571793D02*
X13220182Y-11552746D01*
X13220182Y-11552746D02*
X13220182Y-11543222D01*
X13220182Y-11543222D02*
X13229706Y-11524174D01*
X13229706Y-11524174D02*
X13248753Y-11514650D01*
X13248753Y-11514650D02*
X13277325Y-11514650D01*
X13277325Y-11514650D02*
X13296372Y-11524174D01*
X13372563Y-11724174D02*
X13382087Y-11714650D01*
X13382087Y-11714650D02*
X13401134Y-11686079D01*
X13401134Y-11686079D02*
X13410658Y-11667031D01*
X13410658Y-11667031D02*
X13420182Y-11638460D01*
X13420182Y-11638460D02*
X13429706Y-11590841D01*
X13429706Y-11590841D02*
X13429706Y-11552746D01*
X13429706Y-11552746D02*
X13420182Y-11505127D01*
X13420182Y-11505127D02*
X13410658Y-11476555D01*
X13410658Y-11476555D02*
X13401134Y-11457508D01*
X13401134Y-11457508D02*
X13382087Y-11428936D01*
X13382087Y-11428936D02*
X13372563Y-11419412D01*
D12*
X8567500Y-11790500D02*
X8567500Y-11850500D01*
X8537500Y-11820500D02*
X8597500Y-11820500D01*
D11*
X8896372Y-11711984D02*
X8915420Y-11711984D01*
X8915420Y-11711984D02*
X8934467Y-11721508D01*
X8934467Y-11721508D02*
X8943991Y-11731031D01*
X8943991Y-11731031D02*
X8953515Y-11750079D01*
X8953515Y-11750079D02*
X8963039Y-11788174D01*
X8963039Y-11788174D02*
X8963039Y-11835793D01*
X8963039Y-11835793D02*
X8953515Y-11873888D01*
X8953515Y-11873888D02*
X8943991Y-11892936D01*
X8943991Y-11892936D02*
X8934467Y-11902460D01*
X8934467Y-11902460D02*
X8915420Y-11911984D01*
X8915420Y-11911984D02*
X8896372Y-11911984D01*
X8896372Y-11911984D02*
X8877324Y-11902460D01*
X8877324Y-11902460D02*
X8867801Y-11892936D01*
X8867801Y-11892936D02*
X8858277Y-11873888D01*
X8858277Y-11873888D02*
X8848753Y-11835793D01*
X8848753Y-11835793D02*
X8848753Y-11788174D01*
X8848753Y-11788174D02*
X8858277Y-11750079D01*
X8858277Y-11750079D02*
X8867801Y-11731031D01*
X8867801Y-11731031D02*
X8877324Y-11721508D01*
X8877324Y-11721508D02*
X8896372Y-11711984D01*
X9048753Y-11892936D02*
X9058277Y-11902460D01*
X9058277Y-11902460D02*
X9048753Y-11911984D01*
X9048753Y-11911984D02*
X9039229Y-11902460D01*
X9039229Y-11902460D02*
X9048753Y-11892936D01*
X9048753Y-11892936D02*
X9048753Y-11911984D01*
X9229705Y-11711984D02*
X9191610Y-11711984D01*
X9191610Y-11711984D02*
X9172563Y-11721508D01*
X9172563Y-11721508D02*
X9163039Y-11731031D01*
X9163039Y-11731031D02*
X9143991Y-11759603D01*
X9143991Y-11759603D02*
X9134467Y-11797698D01*
X9134467Y-11797698D02*
X9134467Y-11873888D01*
X9134467Y-11873888D02*
X9143991Y-11892936D01*
X9143991Y-11892936D02*
X9153515Y-11902460D01*
X9153515Y-11902460D02*
X9172563Y-11911984D01*
X9172563Y-11911984D02*
X9210658Y-11911984D01*
X9210658Y-11911984D02*
X9229705Y-11902460D01*
X9229705Y-11902460D02*
X9239229Y-11892936D01*
X9239229Y-11892936D02*
X9248753Y-11873888D01*
X9248753Y-11873888D02*
X9248753Y-11826269D01*
X9248753Y-11826269D02*
X9239229Y-11807222D01*
X9239229Y-11807222D02*
X9229705Y-11797698D01*
X9229705Y-11797698D02*
X9210658Y-11788174D01*
X9210658Y-11788174D02*
X9172563Y-11788174D01*
X9172563Y-11788174D02*
X9153515Y-11797698D01*
X9153515Y-11797698D02*
X9143991Y-11807222D01*
X9143991Y-11807222D02*
X9134467Y-11826269D01*
X9372563Y-11711984D02*
X9391610Y-11711984D01*
X9391610Y-11711984D02*
X9410658Y-11721508D01*
X9410658Y-11721508D02*
X9420182Y-11731031D01*
X9420182Y-11731031D02*
X9429705Y-11750079D01*
X9429705Y-11750079D02*
X9439229Y-11788174D01*
X9439229Y-11788174D02*
X9439229Y-11835793D01*
X9439229Y-11835793D02*
X9429705Y-11873888D01*
X9429705Y-11873888D02*
X9420182Y-11892936D01*
X9420182Y-11892936D02*
X9410658Y-11902460D01*
X9410658Y-11902460D02*
X9391610Y-11911984D01*
X9391610Y-11911984D02*
X9372563Y-11911984D01*
X9372563Y-11911984D02*
X9353515Y-11902460D01*
X9353515Y-11902460D02*
X9343991Y-11892936D01*
X9343991Y-11892936D02*
X9334467Y-11873888D01*
X9334467Y-11873888D02*
X9324944Y-11835793D01*
X9324944Y-11835793D02*
X9324944Y-11788174D01*
X9324944Y-11788174D02*
X9334467Y-11750079D01*
X9334467Y-11750079D02*
X9343991Y-11731031D01*
X9343991Y-11731031D02*
X9353515Y-11721508D01*
X9353515Y-11721508D02*
X9372563Y-11711984D01*
X9563039Y-11711984D02*
X9582086Y-11711984D01*
X9582086Y-11711984D02*
X9601134Y-11721508D01*
X9601134Y-11721508D02*
X9610658Y-11731031D01*
X9610658Y-11731031D02*
X9620182Y-11750079D01*
X9620182Y-11750079D02*
X9629705Y-11788174D01*
X9629705Y-11788174D02*
X9629705Y-11835793D01*
X9629705Y-11835793D02*
X9620182Y-11873888D01*
X9620182Y-11873888D02*
X9610658Y-11892936D01*
X9610658Y-11892936D02*
X9601134Y-11902460D01*
X9601134Y-11902460D02*
X9582086Y-11911984D01*
X9582086Y-11911984D02*
X9563039Y-11911984D01*
X9563039Y-11911984D02*
X9543991Y-11902460D01*
X9543991Y-11902460D02*
X9534467Y-11892936D01*
X9534467Y-11892936D02*
X9524944Y-11873888D01*
X9524944Y-11873888D02*
X9515420Y-11835793D01*
X9515420Y-11835793D02*
X9515420Y-11788174D01*
X9515420Y-11788174D02*
X9524944Y-11750079D01*
X9524944Y-11750079D02*
X9534467Y-11731031D01*
X9534467Y-11731031D02*
X9543991Y-11721508D01*
X9543991Y-11721508D02*
X9563039Y-11711984D01*
X9715420Y-11911984D02*
X9715420Y-11778650D01*
X9715420Y-11797698D02*
X9724944Y-11788174D01*
X9724944Y-11788174D02*
X9743991Y-11778650D01*
X9743991Y-11778650D02*
X9772563Y-11778650D01*
X9772563Y-11778650D02*
X9791610Y-11788174D01*
X9791610Y-11788174D02*
X9801134Y-11807222D01*
X9801134Y-11807222D02*
X9801134Y-11911984D01*
X9801134Y-11807222D02*
X9810658Y-11788174D01*
X9810658Y-11788174D02*
X9829705Y-11778650D01*
X9829705Y-11778650D02*
X9858277Y-11778650D01*
X9858277Y-11778650D02*
X9877325Y-11788174D01*
X9877325Y-11788174D02*
X9886848Y-11807222D01*
X9886848Y-11807222D02*
X9886848Y-11911984D01*
X9982086Y-11911984D02*
X9982086Y-11778650D01*
X9982086Y-11797698D02*
X9991610Y-11788174D01*
X9991610Y-11788174D02*
X10010658Y-11778650D01*
X10010658Y-11778650D02*
X10039229Y-11778650D01*
X10039229Y-11778650D02*
X10058277Y-11788174D01*
X10058277Y-11788174D02*
X10067801Y-11807222D01*
X10067801Y-11807222D02*
X10067801Y-11911984D01*
X10067801Y-11807222D02*
X10077325Y-11788174D01*
X10077325Y-11788174D02*
X10096372Y-11778650D01*
X10096372Y-11778650D02*
X10124944Y-11778650D01*
X10124944Y-11778650D02*
X10143991Y-11788174D01*
X10143991Y-11788174D02*
X10153515Y-11807222D01*
X10153515Y-11807222D02*
X10153515Y-11911984D01*
X10543991Y-11702460D02*
X10372563Y-11959603D01*
X10801134Y-11711984D02*
X10820182Y-11711984D01*
X10820182Y-11711984D02*
X10839229Y-11721508D01*
X10839229Y-11721508D02*
X10848753Y-11731031D01*
X10848753Y-11731031D02*
X10858277Y-11750079D01*
X10858277Y-11750079D02*
X10867801Y-11788174D01*
X10867801Y-11788174D02*
X10867801Y-11835793D01*
X10867801Y-11835793D02*
X10858277Y-11873888D01*
X10858277Y-11873888D02*
X10848753Y-11892936D01*
X10848753Y-11892936D02*
X10839229Y-11902460D01*
X10839229Y-11902460D02*
X10820182Y-11911984D01*
X10820182Y-11911984D02*
X10801134Y-11911984D01*
X10801134Y-11911984D02*
X10782087Y-11902460D01*
X10782087Y-11902460D02*
X10772563Y-11892936D01*
X10772563Y-11892936D02*
X10763039Y-11873888D01*
X10763039Y-11873888D02*
X10753515Y-11835793D01*
X10753515Y-11835793D02*
X10753515Y-11788174D01*
X10753515Y-11788174D02*
X10763039Y-11750079D01*
X10763039Y-11750079D02*
X10772563Y-11731031D01*
X10772563Y-11731031D02*
X10782087Y-11721508D01*
X10782087Y-11721508D02*
X10801134Y-11711984D01*
X10953515Y-11892936D02*
X10963039Y-11902460D01*
X10963039Y-11902460D02*
X10953515Y-11911984D01*
X10953515Y-11911984D02*
X10943991Y-11902460D01*
X10943991Y-11902460D02*
X10953515Y-11892936D01*
X10953515Y-11892936D02*
X10953515Y-11911984D01*
X11086848Y-11711984D02*
X11105896Y-11711984D01*
X11105896Y-11711984D02*
X11124944Y-11721508D01*
X11124944Y-11721508D02*
X11134468Y-11731031D01*
X11134468Y-11731031D02*
X11143991Y-11750079D01*
X11143991Y-11750079D02*
X11153515Y-11788174D01*
X11153515Y-11788174D02*
X11153515Y-11835793D01*
X11153515Y-11835793D02*
X11143991Y-11873888D01*
X11143991Y-11873888D02*
X11134468Y-11892936D01*
X11134468Y-11892936D02*
X11124944Y-11902460D01*
X11124944Y-11902460D02*
X11105896Y-11911984D01*
X11105896Y-11911984D02*
X11086848Y-11911984D01*
X11086848Y-11911984D02*
X11067801Y-11902460D01*
X11067801Y-11902460D02*
X11058277Y-11892936D01*
X11058277Y-11892936D02*
X11048753Y-11873888D01*
X11048753Y-11873888D02*
X11039229Y-11835793D01*
X11039229Y-11835793D02*
X11039229Y-11788174D01*
X11039229Y-11788174D02*
X11048753Y-11750079D01*
X11048753Y-11750079D02*
X11058277Y-11731031D01*
X11058277Y-11731031D02*
X11067801Y-11721508D01*
X11067801Y-11721508D02*
X11086848Y-11711984D01*
X11229706Y-11731031D02*
X11239229Y-11721508D01*
X11239229Y-11721508D02*
X11258277Y-11711984D01*
X11258277Y-11711984D02*
X11305896Y-11711984D01*
X11305896Y-11711984D02*
X11324944Y-11721508D01*
X11324944Y-11721508D02*
X11334467Y-11731031D01*
X11334467Y-11731031D02*
X11343991Y-11750079D01*
X11343991Y-11750079D02*
X11343991Y-11769127D01*
X11343991Y-11769127D02*
X11334467Y-11797698D01*
X11334467Y-11797698D02*
X11220182Y-11911984D01*
X11220182Y-11911984D02*
X11343991Y-11911984D01*
X11410658Y-11711984D02*
X11534467Y-11711984D01*
X11534467Y-11711984D02*
X11467801Y-11788174D01*
X11467801Y-11788174D02*
X11496372Y-11788174D01*
X11496372Y-11788174D02*
X11515420Y-11797698D01*
X11515420Y-11797698D02*
X11524944Y-11807222D01*
X11524944Y-11807222D02*
X11534467Y-11826269D01*
X11534467Y-11826269D02*
X11534467Y-11873888D01*
X11534467Y-11873888D02*
X11524944Y-11892936D01*
X11524944Y-11892936D02*
X11515420Y-11902460D01*
X11515420Y-11902460D02*
X11496372Y-11911984D01*
X11496372Y-11911984D02*
X11439229Y-11911984D01*
X11439229Y-11911984D02*
X11420182Y-11902460D01*
X11420182Y-11902460D02*
X11410658Y-11892936D01*
X11705896Y-11711984D02*
X11667801Y-11711984D01*
X11667801Y-11711984D02*
X11648753Y-11721508D01*
X11648753Y-11721508D02*
X11639229Y-11731031D01*
X11639229Y-11731031D02*
X11620182Y-11759603D01*
X11620182Y-11759603D02*
X11610658Y-11797698D01*
X11610658Y-11797698D02*
X11610658Y-11873888D01*
X11610658Y-11873888D02*
X11620182Y-11892936D01*
X11620182Y-11892936D02*
X11629706Y-11902460D01*
X11629706Y-11902460D02*
X11648753Y-11911984D01*
X11648753Y-11911984D02*
X11686848Y-11911984D01*
X11686848Y-11911984D02*
X11705896Y-11902460D01*
X11705896Y-11902460D02*
X11715420Y-11892936D01*
X11715420Y-11892936D02*
X11724944Y-11873888D01*
X11724944Y-11873888D02*
X11724944Y-11826269D01*
X11724944Y-11826269D02*
X11715420Y-11807222D01*
X11715420Y-11807222D02*
X11705896Y-11797698D01*
X11705896Y-11797698D02*
X11686848Y-11788174D01*
X11686848Y-11788174D02*
X11648753Y-11788174D01*
X11648753Y-11788174D02*
X11629706Y-11797698D01*
X11629706Y-11797698D02*
X11620182Y-11807222D01*
X11620182Y-11807222D02*
X11610658Y-11826269D01*
X11801134Y-11711984D02*
X11801134Y-11750079D01*
X11877325Y-11711984D02*
X11877325Y-11750079D01*
X12172563Y-11988174D02*
X12163039Y-11978650D01*
X12163039Y-11978650D02*
X12143991Y-11950079D01*
X12143991Y-11950079D02*
X12134468Y-11931031D01*
X12134468Y-11931031D02*
X12124944Y-11902460D01*
X12124944Y-11902460D02*
X12115420Y-11854841D01*
X12115420Y-11854841D02*
X12115420Y-11816746D01*
X12115420Y-11816746D02*
X12124944Y-11769127D01*
X12124944Y-11769127D02*
X12134468Y-11740555D01*
X12134468Y-11740555D02*
X12143991Y-11721508D01*
X12143991Y-11721508D02*
X12163039Y-11692936D01*
X12163039Y-11692936D02*
X12172563Y-11683412D01*
X12286848Y-11711984D02*
X12305896Y-11711984D01*
X12305896Y-11711984D02*
X12324944Y-11721508D01*
X12324944Y-11721508D02*
X12334468Y-11731031D01*
X12334468Y-11731031D02*
X12343991Y-11750079D01*
X12343991Y-11750079D02*
X12353515Y-11788174D01*
X12353515Y-11788174D02*
X12353515Y-11835793D01*
X12353515Y-11835793D02*
X12343991Y-11873888D01*
X12343991Y-11873888D02*
X12334468Y-11892936D01*
X12334468Y-11892936D02*
X12324944Y-11902460D01*
X12324944Y-11902460D02*
X12305896Y-11911984D01*
X12305896Y-11911984D02*
X12286848Y-11911984D01*
X12286848Y-11911984D02*
X12267801Y-11902460D01*
X12267801Y-11902460D02*
X12258277Y-11892936D01*
X12258277Y-11892936D02*
X12248753Y-11873888D01*
X12248753Y-11873888D02*
X12239229Y-11835793D01*
X12239229Y-11835793D02*
X12239229Y-11788174D01*
X12239229Y-11788174D02*
X12248753Y-11750079D01*
X12248753Y-11750079D02*
X12258277Y-11731031D01*
X12258277Y-11731031D02*
X12267801Y-11721508D01*
X12267801Y-11721508D02*
X12286848Y-11711984D01*
X12591610Y-11911984D02*
X12591610Y-11711984D01*
X12677325Y-11911984D02*
X12677325Y-11807222D01*
X12677325Y-11807222D02*
X12667801Y-11788174D01*
X12667801Y-11788174D02*
X12648753Y-11778650D01*
X12648753Y-11778650D02*
X12620182Y-11778650D01*
X12620182Y-11778650D02*
X12601134Y-11788174D01*
X12601134Y-11788174D02*
X12591610Y-11797698D01*
X12801134Y-11911984D02*
X12782087Y-11902460D01*
X12782087Y-11902460D02*
X12772563Y-11892936D01*
X12772563Y-11892936D02*
X12763039Y-11873888D01*
X12763039Y-11873888D02*
X12763039Y-11816746D01*
X12763039Y-11816746D02*
X12772563Y-11797698D01*
X12772563Y-11797698D02*
X12782087Y-11788174D01*
X12782087Y-11788174D02*
X12801134Y-11778650D01*
X12801134Y-11778650D02*
X12829706Y-11778650D01*
X12829706Y-11778650D02*
X12848753Y-11788174D01*
X12848753Y-11788174D02*
X12858277Y-11797698D01*
X12858277Y-11797698D02*
X12867801Y-11816746D01*
X12867801Y-11816746D02*
X12867801Y-11873888D01*
X12867801Y-11873888D02*
X12858277Y-11892936D01*
X12858277Y-11892936D02*
X12848753Y-11902460D01*
X12848753Y-11902460D02*
X12829706Y-11911984D01*
X12829706Y-11911984D02*
X12801134Y-11911984D01*
X12982087Y-11911984D02*
X12963039Y-11902460D01*
X12963039Y-11902460D02*
X12953515Y-11883412D01*
X12953515Y-11883412D02*
X12953515Y-11711984D01*
X13134468Y-11902460D02*
X13115420Y-11911984D01*
X13115420Y-11911984D02*
X13077325Y-11911984D01*
X13077325Y-11911984D02*
X13058277Y-11902460D01*
X13058277Y-11902460D02*
X13048753Y-11883412D01*
X13048753Y-11883412D02*
X13048753Y-11807222D01*
X13048753Y-11807222D02*
X13058277Y-11788174D01*
X13058277Y-11788174D02*
X13077325Y-11778650D01*
X13077325Y-11778650D02*
X13115420Y-11778650D01*
X13115420Y-11778650D02*
X13134468Y-11788174D01*
X13134468Y-11788174D02*
X13143991Y-11807222D01*
X13143991Y-11807222D02*
X13143991Y-11826269D01*
X13143991Y-11826269D02*
X13048753Y-11845317D01*
X13220182Y-11902460D02*
X13239230Y-11911984D01*
X13239230Y-11911984D02*
X13277325Y-11911984D01*
X13277325Y-11911984D02*
X13296372Y-11902460D01*
X13296372Y-11902460D02*
X13305896Y-11883412D01*
X13305896Y-11883412D02*
X13305896Y-11873888D01*
X13305896Y-11873888D02*
X13296372Y-11854841D01*
X13296372Y-11854841D02*
X13277325Y-11845317D01*
X13277325Y-11845317D02*
X13248753Y-11845317D01*
X13248753Y-11845317D02*
X13229706Y-11835793D01*
X13229706Y-11835793D02*
X13220182Y-11816746D01*
X13220182Y-11816746D02*
X13220182Y-11807222D01*
X13220182Y-11807222D02*
X13229706Y-11788174D01*
X13229706Y-11788174D02*
X13248753Y-11778650D01*
X13248753Y-11778650D02*
X13277325Y-11778650D01*
X13277325Y-11778650D02*
X13296372Y-11788174D01*
X13543992Y-11835793D02*
X13696373Y-11835793D01*
X13620182Y-11911984D02*
X13620182Y-11759603D01*
X14029706Y-11778650D02*
X14029706Y-11911984D01*
X13982087Y-11702460D02*
X13934468Y-11845317D01*
X13934468Y-11845317D02*
X14058277Y-11845317D01*
X14277325Y-11902460D02*
X14296373Y-11911984D01*
X14296373Y-11911984D02*
X14334468Y-11911984D01*
X14334468Y-11911984D02*
X14353515Y-11902460D01*
X14353515Y-11902460D02*
X14363039Y-11883412D01*
X14363039Y-11883412D02*
X14363039Y-11873888D01*
X14363039Y-11873888D02*
X14353515Y-11854841D01*
X14353515Y-11854841D02*
X14334468Y-11845317D01*
X14334468Y-11845317D02*
X14305896Y-11845317D01*
X14305896Y-11845317D02*
X14286849Y-11835793D01*
X14286849Y-11835793D02*
X14277325Y-11816746D01*
X14277325Y-11816746D02*
X14277325Y-11807222D01*
X14277325Y-11807222D02*
X14286849Y-11788174D01*
X14286849Y-11788174D02*
X14305896Y-11778650D01*
X14305896Y-11778650D02*
X14334468Y-11778650D01*
X14334468Y-11778650D02*
X14353515Y-11788174D01*
X14477325Y-11911984D02*
X14458277Y-11902460D01*
X14458277Y-11902460D02*
X14448754Y-11883412D01*
X14448754Y-11883412D02*
X14448754Y-11711984D01*
X14582087Y-11911984D02*
X14563039Y-11902460D01*
X14563039Y-11902460D02*
X14553515Y-11892936D01*
X14553515Y-11892936D02*
X14543992Y-11873888D01*
X14543992Y-11873888D02*
X14543992Y-11816746D01*
X14543992Y-11816746D02*
X14553515Y-11797698D01*
X14553515Y-11797698D02*
X14563039Y-11788174D01*
X14563039Y-11788174D02*
X14582087Y-11778650D01*
X14582087Y-11778650D02*
X14610658Y-11778650D01*
X14610658Y-11778650D02*
X14629706Y-11788174D01*
X14629706Y-11788174D02*
X14639230Y-11797698D01*
X14639230Y-11797698D02*
X14648754Y-11816746D01*
X14648754Y-11816746D02*
X14648754Y-11873888D01*
X14648754Y-11873888D02*
X14639230Y-11892936D01*
X14639230Y-11892936D02*
X14629706Y-11902460D01*
X14629706Y-11902460D02*
X14610658Y-11911984D01*
X14610658Y-11911984D02*
X14582087Y-11911984D01*
X14705896Y-11778650D02*
X14782087Y-11778650D01*
X14734468Y-11711984D02*
X14734468Y-11883412D01*
X14734468Y-11883412D02*
X14743992Y-11902460D01*
X14743992Y-11902460D02*
X14763039Y-11911984D01*
X14763039Y-11911984D02*
X14782087Y-11911984D01*
X14839230Y-11902460D02*
X14858277Y-11911984D01*
X14858277Y-11911984D02*
X14896373Y-11911984D01*
X14896373Y-11911984D02*
X14915420Y-11902460D01*
X14915420Y-11902460D02*
X14924944Y-11883412D01*
X14924944Y-11883412D02*
X14924944Y-11873888D01*
X14924944Y-11873888D02*
X14915420Y-11854841D01*
X14915420Y-11854841D02*
X14896373Y-11845317D01*
X14896373Y-11845317D02*
X14867801Y-11845317D01*
X14867801Y-11845317D02*
X14848754Y-11835793D01*
X14848754Y-11835793D02*
X14839230Y-11816746D01*
X14839230Y-11816746D02*
X14839230Y-11807222D01*
X14839230Y-11807222D02*
X14848754Y-11788174D01*
X14848754Y-11788174D02*
X14867801Y-11778650D01*
X14867801Y-11778650D02*
X14896373Y-11778650D01*
X14896373Y-11778650D02*
X14915420Y-11788174D01*
X14991611Y-11988174D02*
X15001135Y-11978650D01*
X15001135Y-11978650D02*
X15020182Y-11950079D01*
X15020182Y-11950079D02*
X15029706Y-11931031D01*
X15029706Y-11931031D02*
X15039230Y-11902460D01*
X15039230Y-11902460D02*
X15048754Y-11854841D01*
X15048754Y-11854841D02*
X15048754Y-11816746D01*
X15048754Y-11816746D02*
X15039230Y-11769127D01*
X15039230Y-11769127D02*
X15029706Y-11740555D01*
X15029706Y-11740555D02*
X15020182Y-11721508D01*
X15020182Y-11721508D02*
X15001135Y-11692936D01*
X15001135Y-11692936D02*
X14991611Y-11683412D01*
M02*
