M48
; DRILL file {KiCad 9.0.1} date 2025-10-08T22:03:19-0600
; FORMAT={-:-/ absolute / metric / decimal}
; #@! TF.CreationDate,2025-10-08T22:03:19-06:00
; #@! TF.GenerationSoftware,Kicad,Pcbnew,9.0.1
; #@! TF.FileFunction,Plated,1,2,PTH
FMAT,2
METRIC
; #@! TA.AperFunction,Plated,PTH,ViaDrill
T1C0.300
; #@! TA.AperFunction,Plated,PTH,ComponentDrill
T2C1.000
%
G90
G05
T1
X115.0Y-112.0
X117.75Y-123.0
X117.75Y-126.25
X118.5Y-123.75
X118.5Y-127.0
X120.5Y-81.75
X122.5Y-95.0
X126.0Y-92.75
X134.75Y-83.75
X134.75Y-90.25
X134.75Y-96.75
X134.75Y-103.25
X134.75Y-109.75
X134.75Y-116.25
X134.75Y-122.75
X136.0Y-82.5
X136.0Y-89.0
X136.0Y-95.5
X136.0Y-102.0
X136.0Y-108.5
X136.0Y-115.0
X136.0Y-121.5
X138.0Y-88.0
X138.0Y-94.5
X138.0Y-101.0
X138.0Y-107.5
X138.0Y-114.0
X138.0Y-120.5
X138.0Y-127.0
X139.0Y-81.5
X139.0Y-88.0
X139.0Y-94.5
X139.0Y-101.0
X139.0Y-107.5
X139.0Y-114.0
X139.0Y-120.5
X139.0Y-127.0
X141.0Y-82.5
X141.0Y-89.0
X141.0Y-95.5
X141.0Y-102.0
X141.0Y-108.5
X141.0Y-115.0
X141.0Y-121.5
T2
X111.76Y-78.74
X111.76Y-81.28
X111.76Y-83.82
X111.76Y-88.9
X111.76Y-93.98
X111.76Y-132.08
X111.76Y-134.62
X114.3Y-88.9
X114.3Y-93.98
X116.84Y-132.08
X116.84Y-134.62
X121.92Y-132.08
X121.92Y-134.62
X152.4Y-78.74
X152.4Y-81.28
X152.4Y-83.82
X152.4Y-86.36
X152.4Y-88.9
X152.4Y-96.52
X152.4Y-99.06
X152.4Y-101.6
X152.4Y-104.14
X152.4Y-106.68
X152.4Y-109.22
X152.4Y-111.76
X152.4Y-114.3
X152.4Y-116.84
X152.4Y-119.38
X152.4Y-121.92
X152.4Y-124.46
X152.4Y-127.0
X152.4Y-129.54
X152.4Y-132.08
X152.4Y-134.62
X154.94Y-78.74
X154.94Y-81.28
X154.94Y-83.82
X154.94Y-86.36
X154.94Y-88.9
X154.94Y-96.52
X154.94Y-99.06
X154.94Y-101.6
X154.94Y-104.14
X154.94Y-106.68
X154.94Y-109.22
X154.94Y-111.76
X154.94Y-114.3
X154.94Y-116.84
X154.94Y-119.38
X154.94Y-121.92
X154.94Y-124.46
X154.94Y-127.0
X154.94Y-129.54
X154.94Y-132.08
X154.94Y-134.62
M30
