G04 #@! TF.GenerationSoftware,KiCad,Pcbnew,9.0.1*
G04 #@! TF.CreationDate,2025-10-08T22:03:34-06:00*
G04 #@! TF.ProjectId,testbench,74657374-6265-46e6-9368-2e6b69636164,rev?*
G04 #@! TF.SameCoordinates,Original*
G04 #@! TF.FileFunction,Legend,Top*
G04 #@! TF.FilePolarity,Positive*
%FSLAX46Y46*%
G04 Gerber Fmt 4.6, Leading zero omitted, Abs format (unit mm)*
G04 Created by KiCad (PCBNEW 9.0.1) date 2025-10-08 22:03:34*
%MOMM*%
%LPD*%
G01*
G04 APERTURE LIST*
%ADD10C,0.300000*%
%ADD11C,0.175000*%
%ADD12C,0.250000*%
%ADD13C,0.200000*%
%ADD14C,0.187500*%
G04 APERTURE END LIST*
D10*
X134556500Y-135890000D02*
X136207500Y-135890000D01*
X136080500Y-133858000D02*
X138112500Y-133858000D01*
D11*
X137311000Y-134747000D02*
G75*
G02*
X137136000Y-134747000I-87500J0D01*
G01*
X137136000Y-134747000D02*
G75*
G02*
X137311000Y-134747000I87500J0D01*
G01*
D12*
X138121526Y-134747000D02*
G75*
G02*
X136325474Y-134747000I-898026J0D01*
G01*
X136325474Y-134747000D02*
G75*
G02*
X138121526Y-134747000I898026J0D01*
G01*
D10*
X138112500Y-133350000D02*
G75*
G02*
X138112500Y-133858000I0J-254000D01*
G01*
X134429500Y-133350000D02*
G75*
G02*
X134429500Y-133858000I0J-254000D01*
G01*
X132397500Y-133858000D02*
X134429500Y-133858000D01*
D11*
X133628000Y-134747000D02*
G75*
G02*
X133453000Y-134747000I-87500J0D01*
G01*
X133453000Y-134747000D02*
G75*
G02*
X133628000Y-134747000I87500J0D01*
G01*
D12*
X134438526Y-134747000D02*
G75*
G02*
X132642474Y-134747000I-898026J0D01*
G01*
X132642474Y-134747000D02*
G75*
G02*
X134438526Y-134747000I898026J0D01*
G01*
D13*
G36*
X129595321Y-130590000D02*
G01*
X129595321Y-130507934D01*
X129712801Y-130507934D01*
X129712801Y-129652107D01*
X129595321Y-129652107D01*
X129595321Y-129570041D01*
X129882245Y-129570041D01*
X130436249Y-130292451D01*
X130436249Y-129652107D01*
X130319439Y-129652107D01*
X130319439Y-129570041D01*
X130640497Y-129570041D01*
X130640497Y-129652107D01*
X130523016Y-129652107D01*
X130523016Y-130590000D01*
X130361816Y-130590000D01*
X129799569Y-129852569D01*
X129799569Y-130507934D01*
X129916378Y-130507934D01*
X129916378Y-130590000D01*
X129595321Y-130590000D01*
G37*
G36*
X130749612Y-130590000D02*
G01*
X130749612Y-130507934D01*
X130867093Y-130507934D01*
X130867093Y-129652107D01*
X130749612Y-129652107D01*
X130749612Y-129570041D01*
X131574848Y-129570041D01*
X131574848Y-129812330D01*
X131490095Y-129812330D01*
X131490095Y-129663831D01*
X131104131Y-129663831D01*
X131104131Y-129988185D01*
X131344588Y-129988185D01*
X131344588Y-129859225D01*
X131428668Y-129859225D01*
X131428668Y-130210935D01*
X131344588Y-130210935D01*
X131344588Y-130081974D01*
X131104131Y-130081974D01*
X131104131Y-130496210D01*
X131501758Y-130496210D01*
X131501758Y-130347711D01*
X131585778Y-130347711D01*
X131585778Y-130590000D01*
X130749612Y-130590000D01*
G37*
G36*
X131747283Y-130539197D02*
G01*
X131747283Y-130300816D01*
X131825136Y-130300816D01*
X131843990Y-130373793D01*
X131872467Y-130429415D01*
X131909827Y-130471175D01*
X131944166Y-130494729D01*
X131985307Y-130512270D01*
X132034576Y-130523470D01*
X132093620Y-130527473D01*
X132155801Y-130522327D01*
X132202936Y-130508444D01*
X132238394Y-130487295D01*
X132265525Y-130457234D01*
X132282269Y-130418827D01*
X132288281Y-130369448D01*
X132284147Y-130329888D01*
X132272685Y-130298725D01*
X132254453Y-130274071D01*
X132229293Y-130255003D01*
X132185305Y-130233829D01*
X132114808Y-130210690D01*
X131977482Y-130172833D01*
X131890452Y-130141096D01*
X131829323Y-130105304D01*
X131788255Y-130066282D01*
X131765678Y-130031202D01*
X131748616Y-129988238D01*
X131737585Y-129935789D01*
X131733606Y-129871926D01*
X131739851Y-129796635D01*
X131757465Y-129733466D01*
X131785510Y-129680180D01*
X131824098Y-129635132D01*
X131871506Y-129599529D01*
X131928275Y-129573209D01*
X131996268Y-129556476D01*
X132077866Y-129550502D01*
X132159182Y-129554083D01*
X132245600Y-129565157D01*
X132333087Y-129583179D01*
X132426278Y-129609120D01*
X132426278Y-129835778D01*
X132348426Y-129835778D01*
X132330165Y-129768294D01*
X132303715Y-129718066D01*
X132269841Y-129681477D01*
X132227092Y-129655602D01*
X132171176Y-129638765D01*
X132098382Y-129632568D01*
X132038609Y-129637160D01*
X131993980Y-129649432D01*
X131961057Y-129667861D01*
X131935776Y-129694485D01*
X131920232Y-129728739D01*
X131914651Y-129773068D01*
X131918668Y-129814384D01*
X131929629Y-129845981D01*
X131946707Y-129870094D01*
X131971311Y-129888528D01*
X132019584Y-129911285D01*
X132103145Y-129938970D01*
X132241142Y-129976828D01*
X132304594Y-129998737D01*
X132355341Y-130024731D01*
X132395376Y-130054355D01*
X132426278Y-130087531D01*
X132450137Y-130126093D01*
X132468057Y-130172408D01*
X132479556Y-130227960D01*
X132483675Y-130294527D01*
X132477034Y-130370773D01*
X132458403Y-130433711D01*
X132428820Y-130485925D01*
X132388054Y-130529244D01*
X132338733Y-130562211D01*
X132277121Y-130587280D01*
X132200576Y-130603608D01*
X132105893Y-130609539D01*
X132016719Y-130605201D01*
X131927595Y-130592137D01*
X131839039Y-130570468D01*
X131747283Y-130539197D01*
G37*
G36*
X133497711Y-130300816D02*
G01*
X133474404Y-130378388D01*
X133444643Y-130441667D01*
X133409015Y-130492831D01*
X133367590Y-130533579D01*
X133319068Y-130565519D01*
X133261951Y-130589189D01*
X133194639Y-130604205D01*
X133115165Y-130609539D01*
X133021744Y-130603267D01*
X132939820Y-130585338D01*
X132867651Y-130556616D01*
X132803814Y-130517323D01*
X132747274Y-130467023D01*
X132700154Y-130408090D01*
X132662978Y-130341253D01*
X132635594Y-130265380D01*
X132618415Y-130179006D01*
X132612391Y-130080387D01*
X132618423Y-129981432D01*
X132635618Y-129894838D01*
X132663011Y-129818846D01*
X132700183Y-129751975D01*
X132747274Y-129693079D01*
X132803816Y-129642758D01*
X132867659Y-129603448D01*
X132939839Y-129574714D01*
X133021781Y-129556776D01*
X133115226Y-129550502D01*
X133197117Y-129555910D01*
X133285280Y-129572789D01*
X133374467Y-129600098D01*
X133472493Y-129640383D01*
X133472493Y-129890488D01*
X133394579Y-129890488D01*
X133372528Y-129806558D01*
X133343116Y-129743411D01*
X133307445Y-129696864D01*
X133273972Y-129669157D01*
X133235664Y-129649240D01*
X133191583Y-129636893D01*
X133140444Y-129632568D01*
X133087797Y-129637266D01*
X133042752Y-129650659D01*
X133003865Y-129672291D01*
X132970119Y-129702518D01*
X132941020Y-129742477D01*
X132915371Y-129797176D01*
X132894949Y-129869006D01*
X132881206Y-129961914D01*
X132876113Y-130080387D01*
X132881211Y-130198882D01*
X132894961Y-130291717D01*
X132915383Y-130363409D01*
X132941020Y-130417930D01*
X132970093Y-130457694D01*
X133003884Y-130487813D01*
X133042901Y-130509397D01*
X133088179Y-130522776D01*
X133141177Y-130527473D01*
X133200361Y-130520862D01*
X133249726Y-130502026D01*
X133291448Y-130471175D01*
X133324661Y-130430233D01*
X133352937Y-130374635D01*
X133375467Y-130300816D01*
X133497711Y-130300816D01*
G37*
G36*
X133620931Y-130590000D02*
G01*
X133620931Y-130507934D01*
X133738412Y-130507934D01*
X133738412Y-129652107D01*
X133620931Y-129652107D01*
X133620931Y-129570041D01*
X134446167Y-129570041D01*
X134446167Y-129812330D01*
X134361414Y-129812330D01*
X134361414Y-129663831D01*
X133975450Y-129663831D01*
X133975450Y-129988185D01*
X134215907Y-129988185D01*
X134215907Y-129859225D01*
X134299987Y-129859225D01*
X134299987Y-130210935D01*
X134215907Y-130210935D01*
X134215907Y-130081974D01*
X133975450Y-130081974D01*
X133975450Y-130496210D01*
X134373077Y-130496210D01*
X134373077Y-130347711D01*
X134457096Y-130347711D01*
X134457096Y-130590000D01*
X133620931Y-130590000D01*
G37*
G36*
X135179557Y-129575669D02*
G01*
X135244482Y-129591552D01*
X135299694Y-129616729D01*
X135346751Y-129651008D01*
X135385827Y-129694398D01*
X135413707Y-129744097D01*
X135430916Y-129801354D01*
X135436938Y-129867957D01*
X135430899Y-129934893D01*
X135413634Y-129992499D01*
X135385658Y-130042555D01*
X135346446Y-130086310D01*
X135299163Y-130120937D01*
X135243900Y-130146316D01*
X135179138Y-130162295D01*
X135102936Y-130167948D01*
X134934836Y-130167948D01*
X134934836Y-130507934D01*
X135083091Y-130507934D01*
X135083091Y-130590000D01*
X134580317Y-130590000D01*
X134580317Y-130507934D01*
X134697798Y-130507934D01*
X134697798Y-130085882D01*
X134934836Y-130085882D01*
X135003834Y-130085882D01*
X135054275Y-130079074D01*
X135096022Y-130059494D01*
X135131207Y-130026592D01*
X135156707Y-129984631D01*
X135172887Y-129932621D01*
X135178712Y-129867957D01*
X135172924Y-129803729D01*
X135156863Y-129752193D01*
X135131573Y-129710725D01*
X135096606Y-129678279D01*
X135054761Y-129658879D01*
X135003834Y-129652107D01*
X134934836Y-129652107D01*
X134934836Y-130085882D01*
X134697798Y-130085882D01*
X134697798Y-129652107D01*
X134580317Y-129652107D01*
X134580317Y-129570041D01*
X135102936Y-129570041D01*
X135179557Y-129575669D01*
G37*
G36*
X135696446Y-130590000D02*
G01*
X135696446Y-130507934D01*
X135818018Y-130507934D01*
X135818018Y-129663831D01*
X135566631Y-129663831D01*
X135566631Y-129825153D01*
X135482611Y-129825153D01*
X135482611Y-129570041D01*
X136392538Y-129570041D01*
X136392538Y-129825153D01*
X136309190Y-129825153D01*
X136309190Y-129663831D01*
X136055727Y-129663831D01*
X136055727Y-130507934D01*
X136178703Y-130507934D01*
X136178703Y-130590000D01*
X135696446Y-130590000D01*
G37*
G36*
X137046028Y-129556736D02*
G01*
X137127212Y-129574522D01*
X137198368Y-129602949D01*
X137260968Y-129641761D01*
X137316081Y-129691369D01*
X137361707Y-129749351D01*
X137397914Y-129815831D01*
X137424736Y-129892057D01*
X137441651Y-129979618D01*
X137447606Y-130080387D01*
X137441647Y-130180801D01*
X137424712Y-130268134D01*
X137397843Y-130344241D01*
X137361547Y-130410697D01*
X137315776Y-130468733D01*
X137260512Y-130518355D01*
X137197850Y-130557158D01*
X137126735Y-130585560D01*
X137045715Y-130603318D01*
X136953014Y-130609539D01*
X136860009Y-130603311D01*
X136778783Y-130585539D01*
X136707546Y-130557126D01*
X136644834Y-130518327D01*
X136589581Y-130468733D01*
X136543810Y-130410697D01*
X136507514Y-130344241D01*
X136480644Y-130268134D01*
X136463710Y-130180801D01*
X136457751Y-130080387D01*
X136721472Y-130080387D01*
X136725970Y-130197298D01*
X136738126Y-130289543D01*
X136756190Y-130361282D01*
X136778808Y-130416221D01*
X136812456Y-130466304D01*
X136851910Y-130500191D01*
X136898070Y-130520441D01*
X136953075Y-130527473D01*
X137008471Y-130520468D01*
X137054776Y-130500339D01*
X137094169Y-130466755D01*
X137127587Y-130417259D01*
X137150009Y-130362836D01*
X137167982Y-130291218D01*
X137180117Y-130198522D01*
X137184617Y-130080387D01*
X137180111Y-129961832D01*
X137167967Y-129868916D01*
X137149993Y-129797228D01*
X137127587Y-129742843D01*
X137094166Y-129693316D01*
X137054771Y-129659714D01*
X137008467Y-129639576D01*
X136953075Y-129632568D01*
X136898070Y-129639599D01*
X136851910Y-129659850D01*
X136812456Y-129693737D01*
X136778808Y-129743820D01*
X136756205Y-129798750D01*
X136738139Y-129870582D01*
X136725975Y-129963060D01*
X136721472Y-130080387D01*
X136457751Y-130080387D01*
X136463721Y-129979977D01*
X136480692Y-129892603D01*
X136507629Y-129816417D01*
X136544029Y-129749849D01*
X136589947Y-129691674D01*
X136645375Y-129641896D01*
X136708158Y-129602987D01*
X136779343Y-129574521D01*
X136860373Y-129556731D01*
X136953014Y-129550502D01*
X137046028Y-129556736D01*
G37*
G36*
X138165782Y-129575201D02*
G01*
X138232324Y-129589534D01*
X138287053Y-129611769D01*
X138331948Y-129641299D01*
X138369503Y-129679917D01*
X138396415Y-129725462D01*
X138413164Y-129779323D01*
X138419082Y-129843532D01*
X138414836Y-129896206D01*
X138402816Y-129940887D01*
X138383629Y-129979005D01*
X138357227Y-130011632D01*
X138312304Y-130045989D01*
X138251426Y-130072877D01*
X138170382Y-130091072D01*
X138221455Y-130105943D01*
X138262583Y-130131495D01*
X138296548Y-130168301D01*
X138328224Y-130222597D01*
X138462069Y-130507934D01*
X138556346Y-130507934D01*
X138556346Y-130590000D01*
X138254401Y-130590000D01*
X138107550Y-130281582D01*
X138063879Y-130195625D01*
X138035437Y-130159216D01*
X138014184Y-130145043D01*
X137987291Y-130136038D01*
X137953189Y-130132777D01*
X137915575Y-130132777D01*
X137915575Y-130507934D01*
X138033789Y-130507934D01*
X138033789Y-130590000D01*
X137561057Y-130590000D01*
X137561057Y-130507934D01*
X137678538Y-130507934D01*
X137678538Y-130050711D01*
X137915575Y-130050711D01*
X137996236Y-130050711D01*
X138051355Y-130044433D01*
X138094602Y-130026961D01*
X138128738Y-129998871D01*
X138153483Y-129961606D01*
X138169388Y-129913287D01*
X138175205Y-129850737D01*
X138169371Y-129788195D01*
X138153454Y-129740152D01*
X138128738Y-129703337D01*
X138094650Y-129675605D01*
X138051405Y-129658324D01*
X137996236Y-129652107D01*
X137915575Y-129652107D01*
X137915575Y-130050711D01*
X137678538Y-130050711D01*
X137678538Y-129652107D01*
X137561057Y-129652107D01*
X137561057Y-129570041D01*
X138085019Y-129570041D01*
X138165782Y-129575201D01*
G37*
G36*
X129768183Y-132495000D02*
G01*
X129768183Y-132412934D01*
X129889755Y-132412934D01*
X129889755Y-131568831D01*
X129638368Y-131568831D01*
X129638368Y-131730153D01*
X129554349Y-131730153D01*
X129554349Y-131475041D01*
X130464275Y-131475041D01*
X130464275Y-131730153D01*
X130380928Y-131730153D01*
X130380928Y-131568831D01*
X130127465Y-131568831D01*
X130127465Y-132412934D01*
X130250441Y-132412934D01*
X130250441Y-132495000D01*
X129768183Y-132495000D01*
G37*
G36*
X130535655Y-132495000D02*
G01*
X130535655Y-132412934D01*
X130653136Y-132412934D01*
X130653136Y-131557107D01*
X130535655Y-131557107D01*
X130535655Y-131475041D01*
X131360891Y-131475041D01*
X131360891Y-131717330D01*
X131276139Y-131717330D01*
X131276139Y-131568831D01*
X130890174Y-131568831D01*
X130890174Y-131893185D01*
X131130631Y-131893185D01*
X131130631Y-131764225D01*
X131214712Y-131764225D01*
X131214712Y-132115935D01*
X131130631Y-132115935D01*
X131130631Y-131986974D01*
X130890174Y-131986974D01*
X130890174Y-132401210D01*
X131287801Y-132401210D01*
X131287801Y-132252711D01*
X131371821Y-132252711D01*
X131371821Y-132495000D01*
X130535655Y-132495000D01*
G37*
G36*
X131533326Y-132444197D02*
G01*
X131533326Y-132205816D01*
X131611179Y-132205816D01*
X131630033Y-132278793D01*
X131658510Y-132334415D01*
X131695870Y-132376175D01*
X131730210Y-132399729D01*
X131771350Y-132417270D01*
X131820620Y-132428470D01*
X131879663Y-132432473D01*
X131941845Y-132427327D01*
X131988979Y-132413444D01*
X132024438Y-132392295D01*
X132051568Y-132362234D01*
X132068313Y-132323827D01*
X132074324Y-132274448D01*
X132070191Y-132234888D01*
X132058728Y-132203725D01*
X132040497Y-132179071D01*
X132015336Y-132160003D01*
X131971348Y-132138829D01*
X131900851Y-132115690D01*
X131763525Y-132077833D01*
X131676495Y-132046096D01*
X131615366Y-132010304D01*
X131574298Y-131971282D01*
X131551722Y-131936202D01*
X131534659Y-131893238D01*
X131523628Y-131840789D01*
X131519649Y-131776926D01*
X131525895Y-131701635D01*
X131543508Y-131638466D01*
X131571553Y-131585180D01*
X131610141Y-131540132D01*
X131657549Y-131504529D01*
X131714318Y-131478209D01*
X131782311Y-131461476D01*
X131863909Y-131455502D01*
X131945225Y-131459083D01*
X132031643Y-131470157D01*
X132119131Y-131488179D01*
X132212322Y-131514120D01*
X132212322Y-131740778D01*
X132134469Y-131740778D01*
X132116209Y-131673294D01*
X132089758Y-131623066D01*
X132055884Y-131586477D01*
X132013135Y-131560602D01*
X131957219Y-131543765D01*
X131884426Y-131537568D01*
X131824652Y-131542160D01*
X131780024Y-131554432D01*
X131747100Y-131572861D01*
X131721819Y-131599485D01*
X131706275Y-131633739D01*
X131700694Y-131678068D01*
X131704711Y-131719384D01*
X131715672Y-131750981D01*
X131732751Y-131775094D01*
X131757355Y-131793528D01*
X131805627Y-131816285D01*
X131889188Y-131843970D01*
X132027185Y-131881828D01*
X132090637Y-131903737D01*
X132141384Y-131929731D01*
X132181419Y-131959355D01*
X132212322Y-131992531D01*
X132236180Y-132031093D01*
X132254100Y-132077408D01*
X132265599Y-132132960D01*
X132269719Y-132199527D01*
X132263077Y-132275773D01*
X132244446Y-132338711D01*
X132214863Y-132390925D01*
X132174098Y-132434244D01*
X132124776Y-132467211D01*
X132063164Y-132492280D01*
X131986619Y-132508608D01*
X131891936Y-132514539D01*
X131802762Y-132510201D01*
X131713639Y-132497137D01*
X131625082Y-132475468D01*
X131533326Y-132444197D01*
G37*
G36*
X132574045Y-132495000D02*
G01*
X132574045Y-132412934D01*
X132695617Y-132412934D01*
X132695617Y-131568831D01*
X132444230Y-131568831D01*
X132444230Y-131730153D01*
X132360211Y-131730153D01*
X132360211Y-131475041D01*
X133270137Y-131475041D01*
X133270137Y-131730153D01*
X133186789Y-131730153D01*
X133186789Y-131568831D01*
X132933326Y-131568831D01*
X132933326Y-132412934D01*
X133056303Y-132412934D01*
X133056303Y-132495000D01*
X132574045Y-132495000D01*
G37*
G36*
X133972078Y-131479799D02*
G01*
X134040824Y-131492791D01*
X134095285Y-131512483D01*
X134138054Y-131537934D01*
X134174077Y-131572442D01*
X134200003Y-131614370D01*
X134216272Y-131665243D01*
X134222074Y-131727344D01*
X134215213Y-131785411D01*
X134195792Y-131832680D01*
X134164005Y-131871631D01*
X134122211Y-131901095D01*
X134066084Y-131923826D01*
X133991875Y-131938614D01*
X134061118Y-131950104D01*
X134118289Y-131968042D01*
X134165277Y-131991642D01*
X134203633Y-132020558D01*
X134235597Y-132056667D01*
X134258405Y-132097880D01*
X134272476Y-132145205D01*
X134277395Y-132200076D01*
X134270267Y-132274342D01*
X134250352Y-132334513D01*
X134218663Y-132383533D01*
X134174569Y-132423314D01*
X134122747Y-132451780D01*
X134054425Y-132474284D01*
X133965642Y-132489395D01*
X133851802Y-132495000D01*
X133341517Y-132495000D01*
X133341517Y-132412934D01*
X133458998Y-132412934D01*
X133696036Y-132412934D01*
X133784207Y-132412934D01*
X133860476Y-132406215D01*
X133916697Y-132388258D01*
X133957681Y-132361032D01*
X133981268Y-132333388D01*
X133998888Y-132298558D01*
X134010273Y-132254928D01*
X134014406Y-132200382D01*
X134010278Y-132145543D01*
X133998867Y-132101303D01*
X133981147Y-132065651D01*
X133957376Y-132037044D01*
X133927586Y-132014818D01*
X133890024Y-131997999D01*
X133842954Y-131987051D01*
X133784207Y-131983066D01*
X133696036Y-131983066D01*
X133696036Y-132412934D01*
X133458998Y-132412934D01*
X133458998Y-131901001D01*
X133696036Y-131901001D01*
X133776697Y-131901001D01*
X133846214Y-131895379D01*
X133896958Y-131880474D01*
X133933440Y-131858197D01*
X133960746Y-131826250D01*
X133978034Y-131783656D01*
X133984364Y-131726978D01*
X133978103Y-131669811D01*
X133961208Y-131627949D01*
X133934844Y-131597529D01*
X133899348Y-131576719D01*
X133848353Y-131562532D01*
X133776697Y-131557107D01*
X133696036Y-131557107D01*
X133696036Y-131901001D01*
X133458998Y-131901001D01*
X133458998Y-131557107D01*
X133341517Y-131557107D01*
X133341517Y-131475041D01*
X133885996Y-131475041D01*
X133972078Y-131479799D01*
G37*
G36*
X134405439Y-132495000D02*
G01*
X134405439Y-132412934D01*
X134522920Y-132412934D01*
X134522920Y-131557107D01*
X134405439Y-131557107D01*
X134405439Y-131475041D01*
X135230675Y-131475041D01*
X135230675Y-131717330D01*
X135145922Y-131717330D01*
X135145922Y-131568831D01*
X134759958Y-131568831D01*
X134759958Y-131893185D01*
X135000415Y-131893185D01*
X135000415Y-131764225D01*
X135084495Y-131764225D01*
X135084495Y-132115935D01*
X135000415Y-132115935D01*
X135000415Y-131986974D01*
X134759958Y-131986974D01*
X134759958Y-132401210D01*
X135157585Y-132401210D01*
X135157585Y-132252711D01*
X135241605Y-132252711D01*
X135241605Y-132495000D01*
X134405439Y-132495000D01*
G37*
G36*
X135361406Y-132495000D02*
G01*
X135361406Y-132412934D01*
X135478886Y-132412934D01*
X135478886Y-131557107D01*
X135361406Y-131557107D01*
X135361406Y-131475041D01*
X135648330Y-131475041D01*
X136202334Y-132197451D01*
X136202334Y-131557107D01*
X136085525Y-131557107D01*
X136085525Y-131475041D01*
X136406582Y-131475041D01*
X136406582Y-131557107D01*
X136289101Y-131557107D01*
X136289101Y-132495000D01*
X136127901Y-132495000D01*
X135565654Y-131757569D01*
X135565654Y-132412934D01*
X135682463Y-132412934D01*
X135682463Y-132495000D01*
X135361406Y-132495000D01*
G37*
G36*
X137394849Y-132205816D02*
G01*
X137371543Y-132283388D01*
X137341782Y-132346667D01*
X137306154Y-132397831D01*
X137264729Y-132438579D01*
X137216207Y-132470519D01*
X137159090Y-132494189D01*
X137091778Y-132509205D01*
X137012304Y-132514539D01*
X136918883Y-132508267D01*
X136836958Y-132490338D01*
X136764790Y-132461616D01*
X136700953Y-132422323D01*
X136644413Y-132372023D01*
X136597293Y-132313090D01*
X136560116Y-132246253D01*
X136532733Y-132170380D01*
X136515554Y-132084006D01*
X136509530Y-131985387D01*
X136515562Y-131886432D01*
X136532757Y-131799838D01*
X136560150Y-131723846D01*
X136597322Y-131656975D01*
X136644413Y-131598079D01*
X136700955Y-131547758D01*
X136764798Y-131508448D01*
X136836978Y-131479714D01*
X136918920Y-131461776D01*
X137012365Y-131455502D01*
X137094256Y-131460910D01*
X137182419Y-131477789D01*
X137271606Y-131505098D01*
X137369631Y-131545383D01*
X137369631Y-131795488D01*
X137291718Y-131795488D01*
X137269667Y-131711558D01*
X137240255Y-131648411D01*
X137204584Y-131601864D01*
X137171111Y-131574157D01*
X137132803Y-131554240D01*
X137088722Y-131541893D01*
X137037583Y-131537568D01*
X136984935Y-131542266D01*
X136939891Y-131555659D01*
X136901004Y-131577291D01*
X136867258Y-131607518D01*
X136838159Y-131647477D01*
X136812509Y-131702176D01*
X136792088Y-131774006D01*
X136778345Y-131866914D01*
X136773251Y-131985387D01*
X136778350Y-132103882D01*
X136792100Y-132196717D01*
X136812522Y-132268409D01*
X136838159Y-132322930D01*
X136867232Y-132362694D01*
X136901023Y-132392813D01*
X136940040Y-132414397D01*
X136985317Y-132427776D01*
X137038316Y-132432473D01*
X137097500Y-132425862D01*
X137146865Y-132407026D01*
X137188586Y-132376175D01*
X137221800Y-132335233D01*
X137250076Y-132279635D01*
X137272606Y-132205816D01*
X137394849Y-132205816D01*
G37*
G36*
X137518070Y-132495000D02*
G01*
X137518070Y-132412934D01*
X137635551Y-132412934D01*
X137635551Y-131557107D01*
X137518070Y-131557107D01*
X137518070Y-131475041D01*
X137990802Y-131475041D01*
X137990802Y-131557107D01*
X137872588Y-131557107D01*
X137872588Y-131901001D01*
X138237426Y-131901001D01*
X138237426Y-131557107D01*
X138120617Y-131557107D01*
X138120617Y-131475041D01*
X138592616Y-131475041D01*
X138592616Y-131557107D01*
X138474464Y-131557107D01*
X138474464Y-132412934D01*
X138592616Y-132412934D01*
X138592616Y-132495000D01*
X138120617Y-132495000D01*
X138120617Y-132412934D01*
X138237426Y-132412934D01*
X138237426Y-131994790D01*
X137872588Y-131994790D01*
X137872588Y-132412934D01*
X137990802Y-132412934D01*
X137990802Y-132495000D01*
X137518070Y-132495000D01*
G37*
G36*
X139750430Y-131480201D02*
G01*
X139816972Y-131494534D01*
X139871700Y-131516769D01*
X139916596Y-131546299D01*
X139954150Y-131584917D01*
X139981063Y-131630462D01*
X139997812Y-131684323D01*
X140003729Y-131748532D01*
X139999483Y-131801206D01*
X139987464Y-131845887D01*
X139968277Y-131884005D01*
X139941875Y-131916632D01*
X139896952Y-131950989D01*
X139836073Y-131977877D01*
X139755029Y-131996072D01*
X139806103Y-132010943D01*
X139847231Y-132036495D01*
X139881196Y-132073301D01*
X139912871Y-132127597D01*
X140046716Y-132412934D01*
X140140994Y-132412934D01*
X140140994Y-132495000D01*
X139839049Y-132495000D01*
X139692198Y-132186582D01*
X139648527Y-132100625D01*
X139620085Y-132064216D01*
X139598832Y-132050043D01*
X139571938Y-132041038D01*
X139537836Y-132037777D01*
X139500223Y-132037777D01*
X139500223Y-132412934D01*
X139618436Y-132412934D01*
X139618436Y-132495000D01*
X139145704Y-132495000D01*
X139145704Y-132412934D01*
X139263185Y-132412934D01*
X139263185Y-131955711D01*
X139500223Y-131955711D01*
X139580884Y-131955711D01*
X139636003Y-131949433D01*
X139679250Y-131931961D01*
X139713386Y-131903871D01*
X139738130Y-131866606D01*
X139754035Y-131818287D01*
X139759853Y-131755737D01*
X139754018Y-131693195D01*
X139738101Y-131645152D01*
X139713386Y-131608337D01*
X139679298Y-131580605D01*
X139636053Y-131563324D01*
X139580884Y-131557107D01*
X139500223Y-131557107D01*
X139500223Y-131955711D01*
X139263185Y-131955711D01*
X139263185Y-131557107D01*
X139145704Y-131557107D01*
X139145704Y-131475041D01*
X139669666Y-131475041D01*
X139750430Y-131480201D01*
G37*
G36*
X140601039Y-131753294D02*
G01*
X140656998Y-131766670D01*
X140705607Y-131788050D01*
X140747999Y-131817338D01*
X140784940Y-131855022D01*
X140820828Y-131909731D01*
X140848886Y-131977970D01*
X140868224Y-132062527D01*
X140877203Y-132166737D01*
X140427735Y-132166737D01*
X140427735Y-132172049D01*
X140433051Y-132265619D01*
X140446692Y-132330617D01*
X140465959Y-132374221D01*
X140487675Y-132401109D01*
X140514601Y-132420203D01*
X140547776Y-132432122D01*
X140588935Y-132436381D01*
X140634177Y-132431412D01*
X140671649Y-132417306D01*
X140703058Y-132394310D01*
X140727694Y-132363701D01*
X140746550Y-132323762D01*
X140759050Y-132272250D01*
X140861510Y-132272250D01*
X140843746Y-132333757D01*
X140819999Y-132383715D01*
X140790745Y-132423961D01*
X140755936Y-132455860D01*
X140715594Y-132480127D01*
X140666708Y-132498462D01*
X140607622Y-132510287D01*
X140536362Y-132514539D01*
X140451990Y-132507594D01*
X140382114Y-132488122D01*
X140324016Y-132457310D01*
X140275694Y-132415132D01*
X140237920Y-132363295D01*
X140209744Y-132300308D01*
X140191687Y-132223895D01*
X140185202Y-132131200D01*
X140189457Y-132072398D01*
X140427735Y-132072398D01*
X140427735Y-132084672D01*
X140638150Y-132084672D01*
X140634664Y-131988049D01*
X140625946Y-131924145D01*
X140614214Y-131884270D01*
X140593858Y-131851626D01*
X140567205Y-131833151D01*
X140532271Y-131826751D01*
X140498551Y-131832979D01*
X140472394Y-131851083D01*
X140451976Y-131883232D01*
X140439986Y-131922260D01*
X140431209Y-131982863D01*
X140427735Y-132072398D01*
X140189457Y-132072398D01*
X140191730Y-132040989D01*
X140210031Y-131965626D01*
X140238828Y-131902541D01*
X140277770Y-131849710D01*
X140327183Y-131806475D01*
X140385454Y-131775157D01*
X140454348Y-131755539D01*
X140536301Y-131748593D01*
X140601039Y-131753294D01*
G37*
G36*
X141215846Y-132495000D02*
G01*
X140984303Y-131850198D01*
X140912557Y-131850198D01*
X140912557Y-131768133D01*
X141287592Y-131768133D01*
X141287592Y-131850198D01*
X141208335Y-131850198D01*
X141373627Y-132310169D01*
X141538307Y-131850198D01*
X141452883Y-131850198D01*
X141452883Y-131768133D01*
X141698103Y-131768133D01*
X141698103Y-131850198D01*
X141622327Y-131850198D01*
X141390724Y-132495000D01*
X141215846Y-132495000D01*
G37*
G36*
X142276653Y-132495000D02*
G01*
X142276653Y-132412934D01*
X142448845Y-132412934D01*
X142448845Y-131586233D01*
X142257541Y-131712140D01*
X142257541Y-131610169D01*
X142487740Y-131455502D01*
X142681791Y-131455502D01*
X142681791Y-132412934D01*
X142854593Y-132412934D01*
X142854593Y-132495000D01*
X142276653Y-132495000D01*
G37*
D14*
G36*
X150606719Y-88384149D02*
G01*
X150663531Y-88403844D01*
X150709745Y-88435307D01*
X150747150Y-88479384D01*
X150773390Y-88530576D01*
X150794335Y-88598851D01*
X150808494Y-88688385D01*
X150813767Y-88803982D01*
X150808460Y-88920331D01*
X150794217Y-89010375D01*
X150773157Y-89078974D01*
X150746783Y-89130352D01*
X150709218Y-89174623D01*
X150662983Y-89206175D01*
X150606329Y-89225894D01*
X150536429Y-89232934D01*
X150451005Y-89232934D01*
X150451005Y-88377107D01*
X150536429Y-88377107D01*
X150606719Y-88384149D01*
G37*
G36*
X151187866Y-89445650D02*
G01*
X147752691Y-89445650D01*
X147752691Y-88805387D01*
X147863802Y-88805387D01*
X147869856Y-88904964D01*
X147887094Y-88991848D01*
X147914515Y-89067854D01*
X147951670Y-89134511D01*
X147998685Y-89193000D01*
X148055115Y-89242778D01*
X148119179Y-89281779D01*
X148191968Y-89310370D01*
X148274971Y-89328266D01*
X148369995Y-89334539D01*
X148476891Y-89328008D01*
X148580777Y-89308527D01*
X148682531Y-89276058D01*
X148786734Y-89229026D01*
X148786734Y-88838237D01*
X148456091Y-88838237D01*
X148456091Y-88920303D01*
X148566733Y-88920303D01*
X148566733Y-89199717D01*
X148528639Y-89222719D01*
X148486133Y-89239284D01*
X148440624Y-89249094D01*
X148390511Y-89252473D01*
X148337433Y-89247797D01*
X148292246Y-89234501D01*
X148253460Y-89213094D01*
X148220017Y-89183276D01*
X148191392Y-89143968D01*
X148166265Y-89090006D01*
X148146161Y-89018455D01*
X148132575Y-88925157D01*
X148127523Y-88805387D01*
X148132802Y-88684537D01*
X148146980Y-88590770D01*
X148167939Y-88519162D01*
X148194140Y-88465401D01*
X148223702Y-88426719D01*
X148258530Y-88397117D01*
X148299262Y-88375691D01*
X148347061Y-88362297D01*
X148403517Y-88357568D01*
X148462271Y-88361875D01*
X148511090Y-88373926D01*
X148551723Y-88392858D01*
X148585539Y-88418445D01*
X148621801Y-88463139D01*
X148652848Y-88527012D01*
X148677436Y-88615488D01*
X148755288Y-88615488D01*
X148755288Y-88377107D01*
X148942195Y-88377107D01*
X149059676Y-88377107D01*
X149059676Y-89232934D01*
X148942195Y-89232934D01*
X148942195Y-89315000D01*
X149263252Y-89315000D01*
X149263252Y-89232934D01*
X149146443Y-89232934D01*
X149146443Y-88577569D01*
X149708690Y-89315000D01*
X149869890Y-89315000D01*
X149869890Y-88377107D01*
X149987371Y-88377107D01*
X150096487Y-88377107D01*
X150213968Y-88377107D01*
X150213968Y-89232934D01*
X150096487Y-89232934D01*
X150096487Y-89315000D01*
X150567875Y-89315000D01*
X150668282Y-89308958D01*
X150754298Y-89291902D01*
X150828057Y-89265019D01*
X150891360Y-89228906D01*
X150945597Y-89183536D01*
X150990808Y-89129197D01*
X151026831Y-89065684D01*
X151053672Y-88991582D01*
X151070715Y-88905068D01*
X151076755Y-88803982D01*
X151070739Y-88703507D01*
X151053757Y-88617453D01*
X151027001Y-88543684D01*
X150991074Y-88480398D01*
X150945963Y-88426200D01*
X150891898Y-88380984D01*
X150828669Y-88344964D01*
X150754863Y-88318125D01*
X150668653Y-88301082D01*
X150567875Y-88295041D01*
X150096487Y-88295041D01*
X150096487Y-88377107D01*
X149987371Y-88377107D01*
X149987371Y-88295041D01*
X149666314Y-88295041D01*
X149666314Y-88377107D01*
X149783123Y-88377107D01*
X149783123Y-89017451D01*
X149229119Y-88295041D01*
X148942195Y-88295041D01*
X148942195Y-88377107D01*
X148755288Y-88377107D01*
X148755288Y-88365383D01*
X148658256Y-88325485D01*
X148563680Y-88297789D01*
X148467657Y-88281080D01*
X148369995Y-88275502D01*
X148274971Y-88281775D01*
X148191968Y-88299671D01*
X148119179Y-88328262D01*
X148055115Y-88367263D01*
X147998685Y-88417041D01*
X147951697Y-88475517D01*
X147914546Y-88542227D01*
X147887115Y-88618365D01*
X147869864Y-88705475D01*
X147863802Y-88805387D01*
X147752691Y-88805387D01*
X147752691Y-88164391D01*
X151187866Y-88164391D01*
X151187866Y-89445650D01*
G37*
G36*
X148873298Y-85760201D02*
G01*
X148939841Y-85774534D01*
X148994569Y-85796769D01*
X149039464Y-85826299D01*
X149077019Y-85864917D01*
X149103931Y-85910462D01*
X149120680Y-85964323D01*
X149126598Y-86028532D01*
X149122352Y-86081206D01*
X149110332Y-86125887D01*
X149091146Y-86164005D01*
X149064744Y-86196632D01*
X149019820Y-86230989D01*
X148958942Y-86257877D01*
X148877898Y-86276072D01*
X148928972Y-86290943D01*
X148970099Y-86316495D01*
X149004064Y-86353301D01*
X149035740Y-86407597D01*
X149169585Y-86692934D01*
X149263863Y-86692934D01*
X149263863Y-86775000D01*
X148961917Y-86775000D01*
X148815066Y-86466582D01*
X148771395Y-86380625D01*
X148742954Y-86344216D01*
X148721701Y-86330043D01*
X148694807Y-86321038D01*
X148660705Y-86317777D01*
X148623091Y-86317777D01*
X148623091Y-86692934D01*
X148741305Y-86692934D01*
X148741305Y-86775000D01*
X148268573Y-86775000D01*
X148268573Y-86692934D01*
X148386054Y-86692934D01*
X148386054Y-86235711D01*
X148623091Y-86235711D01*
X148703753Y-86235711D01*
X148758871Y-86229433D01*
X148802118Y-86211961D01*
X148836254Y-86183871D01*
X148860999Y-86146606D01*
X148876904Y-86098287D01*
X148882722Y-86035737D01*
X148876887Y-85973195D01*
X148860970Y-85925152D01*
X148836254Y-85888337D01*
X148802166Y-85860605D01*
X148758921Y-85843324D01*
X148703753Y-85837107D01*
X148623091Y-85837107D01*
X148623091Y-86235711D01*
X148386054Y-86235711D01*
X148386054Y-85837107D01*
X148268573Y-85837107D01*
X148268573Y-85755041D01*
X148792535Y-85755041D01*
X148873298Y-85760201D01*
G37*
G36*
X149579302Y-85755041D02*
G01*
X149715895Y-85755041D01*
X149392090Y-86903960D01*
X149256169Y-86903960D01*
X149579302Y-85755041D01*
G37*
G36*
X150788487Y-86775000D02*
G01*
X150630035Y-86775000D01*
X150422367Y-86031952D01*
X150214700Y-86775000D01*
X150056186Y-86775000D01*
X149793869Y-85837107D01*
X149705087Y-85837107D01*
X149705087Y-85755041D01*
X150140206Y-85755041D01*
X150140206Y-85837107D01*
X150041837Y-85837107D01*
X150217448Y-86463956D01*
X150414857Y-85755041D01*
X150589735Y-85755041D01*
X150791235Y-86475558D01*
X150970204Y-85837107D01*
X150860905Y-85837107D01*
X150860905Y-85755041D01*
X151145082Y-85755041D01*
X151145082Y-85837107D01*
X151050804Y-85837107D01*
X150788487Y-86775000D01*
G37*
G36*
X148837982Y-83201736D02*
G01*
X148919167Y-83219522D01*
X148990322Y-83247949D01*
X149052922Y-83286761D01*
X149108035Y-83336369D01*
X149153661Y-83394351D01*
X149189868Y-83460831D01*
X149216690Y-83537057D01*
X149233605Y-83624618D01*
X149239560Y-83725387D01*
X149233601Y-83825801D01*
X149216666Y-83913134D01*
X149189797Y-83989241D01*
X149153501Y-84055697D01*
X149107730Y-84113733D01*
X149052466Y-84163355D01*
X148989804Y-84202158D01*
X148918689Y-84230560D01*
X148837669Y-84248318D01*
X148744968Y-84254539D01*
X148651963Y-84248311D01*
X148570737Y-84230539D01*
X148499500Y-84202126D01*
X148436788Y-84163327D01*
X148381535Y-84113733D01*
X148335764Y-84055697D01*
X148299468Y-83989241D01*
X148272598Y-83913134D01*
X148255664Y-83825801D01*
X148249705Y-83725387D01*
X148513426Y-83725387D01*
X148517924Y-83842298D01*
X148530080Y-83934543D01*
X148548145Y-84006282D01*
X148570762Y-84061221D01*
X148604410Y-84111304D01*
X148643864Y-84145191D01*
X148690024Y-84165441D01*
X148745029Y-84172473D01*
X148800425Y-84165468D01*
X148846730Y-84145339D01*
X148886123Y-84111755D01*
X148919541Y-84062259D01*
X148941963Y-84007836D01*
X148959936Y-83936218D01*
X148972071Y-83843522D01*
X148976571Y-83725387D01*
X148972065Y-83606832D01*
X148959921Y-83513916D01*
X148941947Y-83442228D01*
X148919541Y-83387843D01*
X148886120Y-83338316D01*
X148846725Y-83304714D01*
X148800421Y-83284576D01*
X148745029Y-83277568D01*
X148690024Y-83284599D01*
X148643864Y-83304850D01*
X148604410Y-83338737D01*
X148570762Y-83388820D01*
X148548159Y-83443750D01*
X148530093Y-83515582D01*
X148517929Y-83608060D01*
X148513426Y-83725387D01*
X148249705Y-83725387D01*
X148255675Y-83624977D01*
X148272646Y-83537603D01*
X148299583Y-83461417D01*
X148335983Y-83394849D01*
X148381901Y-83336674D01*
X148437329Y-83286896D01*
X148500112Y-83247987D01*
X148571297Y-83219521D01*
X148652327Y-83201731D01*
X148744968Y-83195502D01*
X148837982Y-83201736D01*
G37*
G36*
X149353011Y-84235000D02*
G01*
X149353011Y-84152934D01*
X149470492Y-84152934D01*
X149470492Y-83297107D01*
X149353011Y-83297107D01*
X149353011Y-83215041D01*
X150178246Y-83215041D01*
X150178246Y-83457330D01*
X150093494Y-83457330D01*
X150093494Y-83308831D01*
X149707529Y-83308831D01*
X149707529Y-83633185D01*
X149947986Y-83633185D01*
X149947986Y-83504225D01*
X150032067Y-83504225D01*
X150032067Y-83855935D01*
X149947986Y-83855935D01*
X149947986Y-83726974D01*
X149707529Y-83726974D01*
X149707529Y-84141210D01*
X150105157Y-84141210D01*
X150105157Y-83992711D01*
X150189176Y-83992711D01*
X150189176Y-84235000D01*
X149353011Y-84235000D01*
G37*
G36*
X150426458Y-84235000D02*
G01*
X150426458Y-84152934D01*
X150598649Y-84152934D01*
X150598649Y-83326233D01*
X150407346Y-83452140D01*
X150407346Y-83350169D01*
X150637545Y-83195502D01*
X150831596Y-83195502D01*
X150831596Y-84152934D01*
X151004398Y-84152934D01*
X151004398Y-84235000D01*
X150426458Y-84235000D01*
G37*
G36*
X150606719Y-80764149D02*
G01*
X150663531Y-80783844D01*
X150709745Y-80815307D01*
X150747150Y-80859384D01*
X150773390Y-80910576D01*
X150794335Y-80978851D01*
X150808494Y-81068385D01*
X150813767Y-81183982D01*
X150808460Y-81300331D01*
X150794217Y-81390375D01*
X150773157Y-81458974D01*
X150746783Y-81510352D01*
X150709218Y-81554623D01*
X150662983Y-81586175D01*
X150606329Y-81605894D01*
X150536429Y-81612934D01*
X150451005Y-81612934D01*
X150451005Y-80757107D01*
X150536429Y-80757107D01*
X150606719Y-80764149D01*
G37*
G36*
X151187866Y-81825650D02*
G01*
X147752691Y-81825650D01*
X147752691Y-81185387D01*
X147863802Y-81185387D01*
X147869856Y-81284964D01*
X147887094Y-81371848D01*
X147914515Y-81447854D01*
X147951670Y-81514511D01*
X147998685Y-81573000D01*
X148055115Y-81622778D01*
X148119179Y-81661779D01*
X148191968Y-81690370D01*
X148274971Y-81708266D01*
X148369995Y-81714539D01*
X148476891Y-81708008D01*
X148580777Y-81688527D01*
X148682531Y-81656058D01*
X148786734Y-81609026D01*
X148786734Y-81218237D01*
X148456091Y-81218237D01*
X148456091Y-81300303D01*
X148566733Y-81300303D01*
X148566733Y-81579717D01*
X148528639Y-81602719D01*
X148486133Y-81619284D01*
X148440624Y-81629094D01*
X148390511Y-81632473D01*
X148337433Y-81627797D01*
X148292246Y-81614501D01*
X148253460Y-81593094D01*
X148220017Y-81563276D01*
X148191392Y-81523968D01*
X148166265Y-81470006D01*
X148146161Y-81398455D01*
X148132575Y-81305157D01*
X148127523Y-81185387D01*
X148132802Y-81064537D01*
X148146980Y-80970770D01*
X148167939Y-80899162D01*
X148194140Y-80845401D01*
X148223702Y-80806719D01*
X148258530Y-80777117D01*
X148299262Y-80755691D01*
X148347061Y-80742297D01*
X148403517Y-80737568D01*
X148462271Y-80741875D01*
X148511090Y-80753926D01*
X148551723Y-80772858D01*
X148585539Y-80798445D01*
X148621801Y-80843139D01*
X148652848Y-80907012D01*
X148677436Y-80995488D01*
X148755288Y-80995488D01*
X148755288Y-80757107D01*
X148942195Y-80757107D01*
X149059676Y-80757107D01*
X149059676Y-81612934D01*
X148942195Y-81612934D01*
X148942195Y-81695000D01*
X149263252Y-81695000D01*
X149263252Y-81612934D01*
X149146443Y-81612934D01*
X149146443Y-80957569D01*
X149708690Y-81695000D01*
X149869890Y-81695000D01*
X149869890Y-80757107D01*
X149987371Y-80757107D01*
X150096487Y-80757107D01*
X150213968Y-80757107D01*
X150213968Y-81612934D01*
X150096487Y-81612934D01*
X150096487Y-81695000D01*
X150567875Y-81695000D01*
X150668282Y-81688958D01*
X150754298Y-81671902D01*
X150828057Y-81645019D01*
X150891360Y-81608906D01*
X150945597Y-81563536D01*
X150990808Y-81509197D01*
X151026831Y-81445684D01*
X151053672Y-81371582D01*
X151070715Y-81285068D01*
X151076755Y-81183982D01*
X151070739Y-81083507D01*
X151053757Y-80997453D01*
X151027001Y-80923684D01*
X150991074Y-80860398D01*
X150945963Y-80806200D01*
X150891898Y-80760984D01*
X150828669Y-80724964D01*
X150754863Y-80698125D01*
X150668653Y-80681082D01*
X150567875Y-80675041D01*
X150096487Y-80675041D01*
X150096487Y-80757107D01*
X149987371Y-80757107D01*
X149987371Y-80675041D01*
X149666314Y-80675041D01*
X149666314Y-80757107D01*
X149783123Y-80757107D01*
X149783123Y-81397451D01*
X149229119Y-80675041D01*
X148942195Y-80675041D01*
X148942195Y-80757107D01*
X148755288Y-80757107D01*
X148755288Y-80745383D01*
X148658256Y-80705485D01*
X148563680Y-80677789D01*
X148467657Y-80661080D01*
X148369995Y-80655502D01*
X148274971Y-80661775D01*
X148191968Y-80679671D01*
X148119179Y-80708262D01*
X148055115Y-80747263D01*
X147998685Y-80797041D01*
X147951697Y-80855517D01*
X147914546Y-80922227D01*
X147887115Y-80998365D01*
X147869864Y-81085475D01*
X147863802Y-81185387D01*
X147752691Y-81185387D01*
X147752691Y-80544391D01*
X151187866Y-80544391D01*
X151187866Y-81825650D01*
G37*
G36*
X150606719Y-78224149D02*
G01*
X150663531Y-78243844D01*
X150709745Y-78275307D01*
X150747150Y-78319384D01*
X150773390Y-78370576D01*
X150794335Y-78438851D01*
X150808494Y-78528385D01*
X150813767Y-78643982D01*
X150808460Y-78760331D01*
X150794217Y-78850375D01*
X150773157Y-78918974D01*
X150746783Y-78970352D01*
X150709218Y-79014623D01*
X150662983Y-79046175D01*
X150606329Y-79065894D01*
X150536429Y-79072934D01*
X150451005Y-79072934D01*
X150451005Y-78217107D01*
X150536429Y-78217107D01*
X150606719Y-78224149D01*
G37*
G36*
X151187866Y-79285650D02*
G01*
X147752691Y-79285650D01*
X147752691Y-78645387D01*
X147863802Y-78645387D01*
X147869856Y-78744964D01*
X147887094Y-78831848D01*
X147914515Y-78907854D01*
X147951670Y-78974511D01*
X147998685Y-79033000D01*
X148055115Y-79082778D01*
X148119179Y-79121779D01*
X148191968Y-79150370D01*
X148274971Y-79168266D01*
X148369995Y-79174539D01*
X148476891Y-79168008D01*
X148580777Y-79148527D01*
X148682531Y-79116058D01*
X148786734Y-79069026D01*
X148786734Y-78678237D01*
X148456091Y-78678237D01*
X148456091Y-78760303D01*
X148566733Y-78760303D01*
X148566733Y-79039717D01*
X148528639Y-79062719D01*
X148486133Y-79079284D01*
X148440624Y-79089094D01*
X148390511Y-79092473D01*
X148337433Y-79087797D01*
X148292246Y-79074501D01*
X148253460Y-79053094D01*
X148220017Y-79023276D01*
X148191392Y-78983968D01*
X148166265Y-78930006D01*
X148146161Y-78858455D01*
X148132575Y-78765157D01*
X148127523Y-78645387D01*
X148132802Y-78524537D01*
X148146980Y-78430770D01*
X148167939Y-78359162D01*
X148194140Y-78305401D01*
X148223702Y-78266719D01*
X148258530Y-78237117D01*
X148299262Y-78215691D01*
X148347061Y-78202297D01*
X148403517Y-78197568D01*
X148462271Y-78201875D01*
X148511090Y-78213926D01*
X148551723Y-78232858D01*
X148585539Y-78258445D01*
X148621801Y-78303139D01*
X148652848Y-78367012D01*
X148677436Y-78455488D01*
X148755288Y-78455488D01*
X148755288Y-78217107D01*
X148942195Y-78217107D01*
X149059676Y-78217107D01*
X149059676Y-79072934D01*
X148942195Y-79072934D01*
X148942195Y-79155000D01*
X149263252Y-79155000D01*
X149263252Y-79072934D01*
X149146443Y-79072934D01*
X149146443Y-78417569D01*
X149708690Y-79155000D01*
X149869890Y-79155000D01*
X149869890Y-78217107D01*
X149987371Y-78217107D01*
X150096487Y-78217107D01*
X150213968Y-78217107D01*
X150213968Y-79072934D01*
X150096487Y-79072934D01*
X150096487Y-79155000D01*
X150567875Y-79155000D01*
X150668282Y-79148958D01*
X150754298Y-79131902D01*
X150828057Y-79105019D01*
X150891360Y-79068906D01*
X150945597Y-79023536D01*
X150990808Y-78969197D01*
X151026831Y-78905684D01*
X151053672Y-78831582D01*
X151070715Y-78745068D01*
X151076755Y-78643982D01*
X151070739Y-78543507D01*
X151053757Y-78457453D01*
X151027001Y-78383684D01*
X150991074Y-78320398D01*
X150945963Y-78266200D01*
X150891898Y-78220984D01*
X150828669Y-78184964D01*
X150754863Y-78158125D01*
X150668653Y-78141082D01*
X150567875Y-78135041D01*
X150096487Y-78135041D01*
X150096487Y-78217107D01*
X149987371Y-78217107D01*
X149987371Y-78135041D01*
X149666314Y-78135041D01*
X149666314Y-78217107D01*
X149783123Y-78217107D01*
X149783123Y-78857451D01*
X149229119Y-78135041D01*
X148942195Y-78135041D01*
X148942195Y-78217107D01*
X148755288Y-78217107D01*
X148755288Y-78205383D01*
X148658256Y-78165485D01*
X148563680Y-78137789D01*
X148467657Y-78121080D01*
X148369995Y-78115502D01*
X148274971Y-78121775D01*
X148191968Y-78139671D01*
X148119179Y-78168262D01*
X148055115Y-78207263D01*
X147998685Y-78257041D01*
X147951697Y-78315517D01*
X147914546Y-78382227D01*
X147887115Y-78458365D01*
X147869864Y-78545475D01*
X147863802Y-78645387D01*
X147752691Y-78645387D01*
X147752691Y-78004391D01*
X151187866Y-78004391D01*
X151187866Y-79285650D01*
G37*
G36*
X159005490Y-78224149D02*
G01*
X159062302Y-78243844D01*
X159108516Y-78275307D01*
X159145921Y-78319384D01*
X159172161Y-78370576D01*
X159193106Y-78438851D01*
X159207265Y-78528385D01*
X159212538Y-78643982D01*
X159207231Y-78760331D01*
X159192988Y-78850375D01*
X159171928Y-78918974D01*
X159145554Y-78970352D01*
X159107989Y-79014623D01*
X159061754Y-79046175D01*
X159005100Y-79065894D01*
X158935200Y-79072934D01*
X158849776Y-79072934D01*
X158849776Y-78217107D01*
X158935200Y-78217107D01*
X159005490Y-78224149D01*
G37*
G36*
X159586637Y-79285650D02*
G01*
X156151462Y-79285650D01*
X156151462Y-78645387D01*
X156262573Y-78645387D01*
X156268627Y-78744964D01*
X156285865Y-78831848D01*
X156313286Y-78907854D01*
X156350441Y-78974511D01*
X156397456Y-79033000D01*
X156453886Y-79082778D01*
X156517950Y-79121779D01*
X156590739Y-79150370D01*
X156673742Y-79168266D01*
X156768766Y-79174539D01*
X156875662Y-79168008D01*
X156979548Y-79148527D01*
X157081302Y-79116058D01*
X157185505Y-79069026D01*
X157185505Y-78678237D01*
X156854862Y-78678237D01*
X156854862Y-78760303D01*
X156965504Y-78760303D01*
X156965504Y-79039717D01*
X156927410Y-79062719D01*
X156884904Y-79079284D01*
X156839395Y-79089094D01*
X156789282Y-79092473D01*
X156736204Y-79087797D01*
X156691017Y-79074501D01*
X156652231Y-79053094D01*
X156618788Y-79023276D01*
X156590163Y-78983968D01*
X156565036Y-78930006D01*
X156544932Y-78858455D01*
X156531346Y-78765157D01*
X156526294Y-78645387D01*
X156531573Y-78524537D01*
X156545751Y-78430770D01*
X156566710Y-78359162D01*
X156592911Y-78305401D01*
X156622473Y-78266719D01*
X156657301Y-78237117D01*
X156698033Y-78215691D01*
X156745832Y-78202297D01*
X156802288Y-78197568D01*
X156861042Y-78201875D01*
X156909861Y-78213926D01*
X156950494Y-78232858D01*
X156984310Y-78258445D01*
X157020572Y-78303139D01*
X157051619Y-78367012D01*
X157076207Y-78455488D01*
X157154059Y-78455488D01*
X157154059Y-78217107D01*
X157340966Y-78217107D01*
X157458447Y-78217107D01*
X157458447Y-79072934D01*
X157340966Y-79072934D01*
X157340966Y-79155000D01*
X157662023Y-79155000D01*
X157662023Y-79072934D01*
X157545214Y-79072934D01*
X157545214Y-78417569D01*
X158107461Y-79155000D01*
X158268661Y-79155000D01*
X158268661Y-78217107D01*
X158386142Y-78217107D01*
X158495258Y-78217107D01*
X158612739Y-78217107D01*
X158612739Y-79072934D01*
X158495258Y-79072934D01*
X158495258Y-79155000D01*
X158966646Y-79155000D01*
X159067053Y-79148958D01*
X159153069Y-79131902D01*
X159226828Y-79105019D01*
X159290131Y-79068906D01*
X159344368Y-79023536D01*
X159389579Y-78969197D01*
X159425602Y-78905684D01*
X159452443Y-78831582D01*
X159469486Y-78745068D01*
X159475526Y-78643982D01*
X159469510Y-78543507D01*
X159452528Y-78457453D01*
X159425772Y-78383684D01*
X159389845Y-78320398D01*
X159344734Y-78266200D01*
X159290669Y-78220984D01*
X159227440Y-78184964D01*
X159153634Y-78158125D01*
X159067424Y-78141082D01*
X158966646Y-78135041D01*
X158495258Y-78135041D01*
X158495258Y-78217107D01*
X158386142Y-78217107D01*
X158386142Y-78135041D01*
X158065085Y-78135041D01*
X158065085Y-78217107D01*
X158181894Y-78217107D01*
X158181894Y-78857451D01*
X157627890Y-78135041D01*
X157340966Y-78135041D01*
X157340966Y-78217107D01*
X157154059Y-78217107D01*
X157154059Y-78205383D01*
X157057027Y-78165485D01*
X156962451Y-78137789D01*
X156866428Y-78121080D01*
X156768766Y-78115502D01*
X156673742Y-78121775D01*
X156590739Y-78139671D01*
X156517950Y-78168262D01*
X156453886Y-78207263D01*
X156397456Y-78257041D01*
X156350468Y-78315517D01*
X156313317Y-78382227D01*
X156285886Y-78458365D01*
X156268635Y-78545475D01*
X156262573Y-78645387D01*
X156151462Y-78645387D01*
X156151462Y-78004391D01*
X159586637Y-78004391D01*
X159586637Y-79285650D01*
G37*
G36*
X156850850Y-80661736D02*
G01*
X156932035Y-80679522D01*
X157003190Y-80707949D01*
X157065790Y-80746761D01*
X157120903Y-80796369D01*
X157166529Y-80854351D01*
X157202736Y-80920831D01*
X157229558Y-80997057D01*
X157246473Y-81084618D01*
X157252428Y-81185387D01*
X157246469Y-81285801D01*
X157229534Y-81373134D01*
X157202665Y-81449241D01*
X157166369Y-81515697D01*
X157120598Y-81573733D01*
X157065334Y-81623355D01*
X157002672Y-81662158D01*
X156931557Y-81690560D01*
X156850537Y-81708318D01*
X156757836Y-81714539D01*
X156664831Y-81708311D01*
X156583605Y-81690539D01*
X156512368Y-81662126D01*
X156449656Y-81623327D01*
X156394403Y-81573733D01*
X156348632Y-81515697D01*
X156312336Y-81449241D01*
X156285466Y-81373134D01*
X156268532Y-81285801D01*
X156262573Y-81185387D01*
X156526294Y-81185387D01*
X156530792Y-81302298D01*
X156542948Y-81394543D01*
X156561013Y-81466282D01*
X156583630Y-81521221D01*
X156617278Y-81571304D01*
X156656732Y-81605191D01*
X156702892Y-81625441D01*
X156757897Y-81632473D01*
X156813293Y-81625468D01*
X156859598Y-81605339D01*
X156898991Y-81571755D01*
X156932409Y-81522259D01*
X156954831Y-81467836D01*
X156972804Y-81396218D01*
X156984939Y-81303522D01*
X156989439Y-81185387D01*
X156984933Y-81066832D01*
X156972789Y-80973916D01*
X156954815Y-80902228D01*
X156932409Y-80847843D01*
X156898988Y-80798316D01*
X156859593Y-80764714D01*
X156813289Y-80744576D01*
X156757897Y-80737568D01*
X156702892Y-80744599D01*
X156656732Y-80764850D01*
X156617278Y-80798737D01*
X156583630Y-80848820D01*
X156561027Y-80903750D01*
X156542961Y-80975582D01*
X156530797Y-81068060D01*
X156526294Y-81185387D01*
X156262573Y-81185387D01*
X156268543Y-81084977D01*
X156285514Y-80997603D01*
X156312451Y-80921417D01*
X156348851Y-80854849D01*
X156394769Y-80796674D01*
X156450197Y-80746896D01*
X156512980Y-80707987D01*
X156584165Y-80679521D01*
X156665195Y-80661731D01*
X156757836Y-80655502D01*
X156850850Y-80661736D01*
G37*
G36*
X157535322Y-81695000D02*
G01*
X157535322Y-81612934D01*
X157656894Y-81612934D01*
X157656894Y-80768831D01*
X157405507Y-80768831D01*
X157405507Y-80930153D01*
X157321488Y-80930153D01*
X157321488Y-80675041D01*
X158231414Y-80675041D01*
X158231414Y-80930153D01*
X158148066Y-80930153D01*
X158148066Y-80768831D01*
X157894603Y-80768831D01*
X157894603Y-81612934D01*
X158017580Y-81612934D01*
X158017580Y-81695000D01*
X157535322Y-81695000D01*
G37*
G36*
X158754830Y-80661381D02*
G01*
X158817570Y-80678199D01*
X158872485Y-80705336D01*
X158920831Y-80743015D01*
X158963349Y-80792278D01*
X158995985Y-80846624D01*
X159022773Y-80911316D01*
X159043187Y-80988020D01*
X159056345Y-81078659D01*
X159061046Y-81185387D01*
X159056342Y-81292104D01*
X159043180Y-81382693D01*
X159022763Y-81459314D01*
X158995977Y-81523903D01*
X158963349Y-81578129D01*
X158920851Y-81627242D01*
X158872516Y-81664819D01*
X158817602Y-81691891D01*
X158754851Y-81708672D01*
X158682592Y-81714539D01*
X158610039Y-81708667D01*
X158547042Y-81691875D01*
X158491926Y-81664792D01*
X158443428Y-81627217D01*
X158400797Y-81578129D01*
X158368058Y-81523886D01*
X158341188Y-81459288D01*
X158320711Y-81382666D01*
X158307511Y-81292086D01*
X158302794Y-81185387D01*
X158554181Y-81185387D01*
X158558674Y-81392616D01*
X158569069Y-81506955D01*
X158581475Y-81561582D01*
X158598870Y-81595467D01*
X158620996Y-81618095D01*
X158648335Y-81631623D01*
X158682592Y-81636381D01*
X158716880Y-81631620D01*
X158744227Y-81618089D01*
X158766341Y-81595462D01*
X158783709Y-81561582D01*
X158796143Y-81506954D01*
X158806561Y-81392616D01*
X158811064Y-81185387D01*
X158806587Y-80979723D01*
X158796189Y-80865272D01*
X158783709Y-80809863D01*
X158766266Y-80775239D01*
X158744104Y-80752204D01*
X158716779Y-80738479D01*
X158682592Y-80733660D01*
X158648339Y-80738421D01*
X158621001Y-80751957D01*
X158598873Y-80774602D01*
X158581475Y-80808520D01*
X158569075Y-80863128D01*
X158558677Y-80977629D01*
X158554181Y-81185387D01*
X158302794Y-81185387D01*
X158307509Y-81078677D01*
X158320704Y-80988046D01*
X158341178Y-80911343D01*
X158368050Y-80846641D01*
X158400797Y-80792278D01*
X158443447Y-80743040D01*
X158491957Y-80705363D01*
X158547074Y-80678215D01*
X158610060Y-80661386D01*
X158682592Y-80655502D01*
X158754830Y-80661381D01*
G37*
G36*
X156850850Y-83201736D02*
G01*
X156932035Y-83219522D01*
X157003190Y-83247949D01*
X157065790Y-83286761D01*
X157120903Y-83336369D01*
X157166529Y-83394351D01*
X157202736Y-83460831D01*
X157229558Y-83537057D01*
X157246473Y-83624618D01*
X157252428Y-83725387D01*
X157246469Y-83825801D01*
X157229534Y-83913134D01*
X157202665Y-83989241D01*
X157166369Y-84055697D01*
X157120598Y-84113733D01*
X157065334Y-84163355D01*
X157002672Y-84202158D01*
X156931557Y-84230560D01*
X156850537Y-84248318D01*
X156757836Y-84254539D01*
X156664831Y-84248311D01*
X156583605Y-84230539D01*
X156512368Y-84202126D01*
X156449656Y-84163327D01*
X156394403Y-84113733D01*
X156348632Y-84055697D01*
X156312336Y-83989241D01*
X156285466Y-83913134D01*
X156268532Y-83825801D01*
X156262573Y-83725387D01*
X156526294Y-83725387D01*
X156530792Y-83842298D01*
X156542948Y-83934543D01*
X156561013Y-84006282D01*
X156583630Y-84061221D01*
X156617278Y-84111304D01*
X156656732Y-84145191D01*
X156702892Y-84165441D01*
X156757897Y-84172473D01*
X156813293Y-84165468D01*
X156859598Y-84145339D01*
X156898991Y-84111755D01*
X156932409Y-84062259D01*
X156954831Y-84007836D01*
X156972804Y-83936218D01*
X156984939Y-83843522D01*
X156989439Y-83725387D01*
X156984933Y-83606832D01*
X156972789Y-83513916D01*
X156954815Y-83442228D01*
X156932409Y-83387843D01*
X156898988Y-83338316D01*
X156859593Y-83304714D01*
X156813289Y-83284576D01*
X156757897Y-83277568D01*
X156702892Y-83284599D01*
X156656732Y-83304850D01*
X156617278Y-83338737D01*
X156583630Y-83388820D01*
X156561027Y-83443750D01*
X156542961Y-83515582D01*
X156530797Y-83608060D01*
X156526294Y-83725387D01*
X156262573Y-83725387D01*
X156268543Y-83624977D01*
X156285514Y-83537603D01*
X156312451Y-83461417D01*
X156348851Y-83394849D01*
X156394769Y-83336674D01*
X156450197Y-83286896D01*
X156512980Y-83247987D01*
X156584165Y-83219521D01*
X156665195Y-83201731D01*
X156757836Y-83195502D01*
X156850850Y-83201736D01*
G37*
G36*
X157365879Y-84235000D02*
G01*
X157365879Y-84152934D01*
X157483360Y-84152934D01*
X157483360Y-83297107D01*
X157365879Y-83297107D01*
X157365879Y-83215041D01*
X158191114Y-83215041D01*
X158191114Y-83457330D01*
X158106362Y-83457330D01*
X158106362Y-83308831D01*
X157720397Y-83308831D01*
X157720397Y-83633185D01*
X157960854Y-83633185D01*
X157960854Y-83504225D01*
X158044935Y-83504225D01*
X158044935Y-83855935D01*
X157960854Y-83855935D01*
X157960854Y-83726974D01*
X157720397Y-83726974D01*
X157720397Y-84141210D01*
X158118025Y-84141210D01*
X158118025Y-83992711D01*
X158202044Y-83992711D01*
X158202044Y-84235000D01*
X157365879Y-84235000D01*
G37*
G36*
X158432548Y-83465146D02*
G01*
X158358726Y-83465146D01*
X158358726Y-83246304D01*
X158434025Y-83223931D01*
X158507287Y-83208203D01*
X158581097Y-83198683D01*
X158655908Y-83195502D01*
X158744055Y-83201203D01*
X158817344Y-83217106D01*
X158878247Y-83241905D01*
X158928789Y-83275003D01*
X158971307Y-83318161D01*
X159001568Y-83368403D01*
X159020277Y-83427137D01*
X159026852Y-83496470D01*
X159020727Y-83562184D01*
X159002761Y-83622173D01*
X158972875Y-83677698D01*
X158932463Y-83727593D01*
X158866379Y-83790041D01*
X158766550Y-83867780D01*
X158510401Y-84055237D01*
X158945519Y-84055237D01*
X158945519Y-83934092D01*
X159029539Y-83934092D01*
X159029539Y-84235000D01*
X158350544Y-84235000D01*
X158350544Y-84067388D01*
X158486465Y-83962302D01*
X158600443Y-83868041D01*
X158674446Y-83793531D01*
X158718374Y-83735034D01*
X158749986Y-83670301D01*
X158769405Y-83597851D01*
X158776137Y-83516010D01*
X158770403Y-83437925D01*
X158755061Y-83379233D01*
X158732051Y-83335636D01*
X158707682Y-83308645D01*
X158678886Y-83289573D01*
X158644795Y-83277806D01*
X158604007Y-83273660D01*
X158557933Y-83279374D01*
X158519845Y-83295700D01*
X158487869Y-83322752D01*
X158463599Y-83357881D01*
X158444849Y-83404394D01*
X158432548Y-83465146D01*
G37*
G36*
X156262573Y-86775000D02*
G01*
X156262573Y-86692934D01*
X156379443Y-86692934D01*
X156379443Y-85837107D01*
X156262573Y-85837107D01*
X156262573Y-85755041D01*
X156641760Y-85755041D01*
X156903344Y-86410162D01*
X157166393Y-85755041D01*
X157544787Y-85755041D01*
X157544787Y-85837107D01*
X157427306Y-85837107D01*
X157427306Y-86692934D01*
X157544787Y-86692934D01*
X157544787Y-86775000D01*
X157072787Y-86775000D01*
X157072787Y-86692934D01*
X157189596Y-86692934D01*
X157189596Y-85913799D01*
X156904748Y-86626500D01*
X156748982Y-86626500D01*
X156465478Y-85913799D01*
X156465478Y-86692934D01*
X156582287Y-86692934D01*
X156582287Y-86775000D01*
X156262573Y-86775000D01*
G37*
G36*
X157770162Y-86005146D02*
G01*
X157696339Y-86005146D01*
X157696339Y-85786304D01*
X157771638Y-85763931D01*
X157844900Y-85748203D01*
X157918710Y-85738683D01*
X157993522Y-85735502D01*
X158081668Y-85741203D01*
X158154958Y-85757106D01*
X158215860Y-85781905D01*
X158266402Y-85815003D01*
X158308920Y-85858161D01*
X158339182Y-85908403D01*
X158357890Y-85967137D01*
X158364466Y-86036470D01*
X158358341Y-86102184D01*
X158340375Y-86162173D01*
X158310488Y-86217698D01*
X158270076Y-86267593D01*
X158203993Y-86330041D01*
X158104164Y-86407780D01*
X157848014Y-86595237D01*
X158283133Y-86595237D01*
X158283133Y-86474092D01*
X158367152Y-86474092D01*
X158367152Y-86775000D01*
X157688157Y-86775000D01*
X157688157Y-86607388D01*
X157824078Y-86502302D01*
X157938057Y-86408041D01*
X158012059Y-86333531D01*
X158055987Y-86275034D01*
X158087600Y-86210301D01*
X158107018Y-86137851D01*
X158113750Y-86056010D01*
X158108017Y-85977925D01*
X158092675Y-85919233D01*
X158069665Y-85875636D01*
X158045295Y-85848645D01*
X158016500Y-85829573D01*
X157982408Y-85817806D01*
X157941620Y-85813660D01*
X157895546Y-85819374D01*
X157857458Y-85835700D01*
X157825483Y-85862752D01*
X157801212Y-85897881D01*
X157782462Y-85944394D01*
X157770162Y-86005146D01*
G37*
G36*
X159005490Y-88384149D02*
G01*
X159062302Y-88403844D01*
X159108516Y-88435307D01*
X159145921Y-88479384D01*
X159172161Y-88530576D01*
X159193106Y-88598851D01*
X159207265Y-88688385D01*
X159212538Y-88803982D01*
X159207231Y-88920331D01*
X159192988Y-89010375D01*
X159171928Y-89078974D01*
X159145554Y-89130352D01*
X159107989Y-89174623D01*
X159061754Y-89206175D01*
X159005100Y-89225894D01*
X158935200Y-89232934D01*
X158849776Y-89232934D01*
X158849776Y-88377107D01*
X158935200Y-88377107D01*
X159005490Y-88384149D01*
G37*
G36*
X159586637Y-89445650D02*
G01*
X156151462Y-89445650D01*
X156151462Y-88805387D01*
X156262573Y-88805387D01*
X156268627Y-88904964D01*
X156285865Y-88991848D01*
X156313286Y-89067854D01*
X156350441Y-89134511D01*
X156397456Y-89193000D01*
X156453886Y-89242778D01*
X156517950Y-89281779D01*
X156590739Y-89310370D01*
X156673742Y-89328266D01*
X156768766Y-89334539D01*
X156875662Y-89328008D01*
X156979548Y-89308527D01*
X157081302Y-89276058D01*
X157185505Y-89229026D01*
X157185505Y-88838237D01*
X156854862Y-88838237D01*
X156854862Y-88920303D01*
X156965504Y-88920303D01*
X156965504Y-89199717D01*
X156927410Y-89222719D01*
X156884904Y-89239284D01*
X156839395Y-89249094D01*
X156789282Y-89252473D01*
X156736204Y-89247797D01*
X156691017Y-89234501D01*
X156652231Y-89213094D01*
X156618788Y-89183276D01*
X156590163Y-89143968D01*
X156565036Y-89090006D01*
X156544932Y-89018455D01*
X156531346Y-88925157D01*
X156526294Y-88805387D01*
X156531573Y-88684537D01*
X156545751Y-88590770D01*
X156566710Y-88519162D01*
X156592911Y-88465401D01*
X156622473Y-88426719D01*
X156657301Y-88397117D01*
X156698033Y-88375691D01*
X156745832Y-88362297D01*
X156802288Y-88357568D01*
X156861042Y-88361875D01*
X156909861Y-88373926D01*
X156950494Y-88392858D01*
X156984310Y-88418445D01*
X157020572Y-88463139D01*
X157051619Y-88527012D01*
X157076207Y-88615488D01*
X157154059Y-88615488D01*
X157154059Y-88377107D01*
X157340966Y-88377107D01*
X157458447Y-88377107D01*
X157458447Y-89232934D01*
X157340966Y-89232934D01*
X157340966Y-89315000D01*
X157662023Y-89315000D01*
X157662023Y-89232934D01*
X157545214Y-89232934D01*
X157545214Y-88577569D01*
X158107461Y-89315000D01*
X158268661Y-89315000D01*
X158268661Y-88377107D01*
X158386142Y-88377107D01*
X158495258Y-88377107D01*
X158612739Y-88377107D01*
X158612739Y-89232934D01*
X158495258Y-89232934D01*
X158495258Y-89315000D01*
X158966646Y-89315000D01*
X159067053Y-89308958D01*
X159153069Y-89291902D01*
X159226828Y-89265019D01*
X159290131Y-89228906D01*
X159344368Y-89183536D01*
X159389579Y-89129197D01*
X159425602Y-89065684D01*
X159452443Y-88991582D01*
X159469486Y-88905068D01*
X159475526Y-88803982D01*
X159469510Y-88703507D01*
X159452528Y-88617453D01*
X159425772Y-88543684D01*
X159389845Y-88480398D01*
X159344734Y-88426200D01*
X159290669Y-88380984D01*
X159227440Y-88344964D01*
X159153634Y-88318125D01*
X159067424Y-88301082D01*
X158966646Y-88295041D01*
X158495258Y-88295041D01*
X158495258Y-88377107D01*
X158386142Y-88377107D01*
X158386142Y-88295041D01*
X158065085Y-88295041D01*
X158065085Y-88377107D01*
X158181894Y-88377107D01*
X158181894Y-89017451D01*
X157627890Y-88295041D01*
X157340966Y-88295041D01*
X157340966Y-88377107D01*
X157154059Y-88377107D01*
X157154059Y-88365383D01*
X157057027Y-88325485D01*
X156962451Y-88297789D01*
X156866428Y-88281080D01*
X156768766Y-88275502D01*
X156673742Y-88281775D01*
X156590739Y-88299671D01*
X156517950Y-88328262D01*
X156453886Y-88367263D01*
X156397456Y-88417041D01*
X156350468Y-88475517D01*
X156313317Y-88542227D01*
X156285886Y-88618365D01*
X156268635Y-88705475D01*
X156262573Y-88805387D01*
X156151462Y-88805387D01*
X156151462Y-88164391D01*
X159586637Y-88164391D01*
X159586637Y-89445650D01*
G37*
G36*
X150606719Y-134104149D02*
G01*
X150663531Y-134123844D01*
X150709745Y-134155307D01*
X150747150Y-134199384D01*
X150773390Y-134250576D01*
X150794335Y-134318851D01*
X150808494Y-134408385D01*
X150813767Y-134523982D01*
X150808460Y-134640331D01*
X150794217Y-134730375D01*
X150773157Y-134798974D01*
X150746783Y-134850352D01*
X150709218Y-134894623D01*
X150662983Y-134926175D01*
X150606329Y-134945894D01*
X150536429Y-134952934D01*
X150451005Y-134952934D01*
X150451005Y-134097107D01*
X150536429Y-134097107D01*
X150606719Y-134104149D01*
G37*
G36*
X151187866Y-135165650D02*
G01*
X147752691Y-135165650D01*
X147752691Y-134525387D01*
X147863802Y-134525387D01*
X147869856Y-134624964D01*
X147887094Y-134711848D01*
X147914515Y-134787854D01*
X147951670Y-134854511D01*
X147998685Y-134913000D01*
X148055115Y-134962778D01*
X148119179Y-135001779D01*
X148191968Y-135030370D01*
X148274971Y-135048266D01*
X148369995Y-135054539D01*
X148476891Y-135048008D01*
X148580777Y-135028527D01*
X148682531Y-134996058D01*
X148786734Y-134949026D01*
X148786734Y-134558237D01*
X148456091Y-134558237D01*
X148456091Y-134640303D01*
X148566733Y-134640303D01*
X148566733Y-134919717D01*
X148528639Y-134942719D01*
X148486133Y-134959284D01*
X148440624Y-134969094D01*
X148390511Y-134972473D01*
X148337433Y-134967797D01*
X148292246Y-134954501D01*
X148253460Y-134933094D01*
X148220017Y-134903276D01*
X148191392Y-134863968D01*
X148166265Y-134810006D01*
X148146161Y-134738455D01*
X148132575Y-134645157D01*
X148127523Y-134525387D01*
X148132802Y-134404537D01*
X148146980Y-134310770D01*
X148167939Y-134239162D01*
X148194140Y-134185401D01*
X148223702Y-134146719D01*
X148258530Y-134117117D01*
X148299262Y-134095691D01*
X148347061Y-134082297D01*
X148403517Y-134077568D01*
X148462271Y-134081875D01*
X148511090Y-134093926D01*
X148551723Y-134112858D01*
X148585539Y-134138445D01*
X148621801Y-134183139D01*
X148652848Y-134247012D01*
X148677436Y-134335488D01*
X148755288Y-134335488D01*
X148755288Y-134097107D01*
X148942195Y-134097107D01*
X149059676Y-134097107D01*
X149059676Y-134952934D01*
X148942195Y-134952934D01*
X148942195Y-135035000D01*
X149263252Y-135035000D01*
X149263252Y-134952934D01*
X149146443Y-134952934D01*
X149146443Y-134297569D01*
X149708690Y-135035000D01*
X149869890Y-135035000D01*
X149869890Y-134097107D01*
X149987371Y-134097107D01*
X150096487Y-134097107D01*
X150213968Y-134097107D01*
X150213968Y-134952934D01*
X150096487Y-134952934D01*
X150096487Y-135035000D01*
X150567875Y-135035000D01*
X150668282Y-135028958D01*
X150754298Y-135011902D01*
X150828057Y-134985019D01*
X150891360Y-134948906D01*
X150945597Y-134903536D01*
X150990808Y-134849197D01*
X151026831Y-134785684D01*
X151053672Y-134711582D01*
X151070715Y-134625068D01*
X151076755Y-134523982D01*
X151070739Y-134423507D01*
X151053757Y-134337453D01*
X151027001Y-134263684D01*
X150991074Y-134200398D01*
X150945963Y-134146200D01*
X150891898Y-134100984D01*
X150828669Y-134064964D01*
X150754863Y-134038125D01*
X150668653Y-134021082D01*
X150567875Y-134015041D01*
X150096487Y-134015041D01*
X150096487Y-134097107D01*
X149987371Y-134097107D01*
X149987371Y-134015041D01*
X149666314Y-134015041D01*
X149666314Y-134097107D01*
X149783123Y-134097107D01*
X149783123Y-134737451D01*
X149229119Y-134015041D01*
X148942195Y-134015041D01*
X148942195Y-134097107D01*
X148755288Y-134097107D01*
X148755288Y-134085383D01*
X148658256Y-134045485D01*
X148563680Y-134017789D01*
X148467657Y-134001080D01*
X148369995Y-133995502D01*
X148274971Y-134001775D01*
X148191968Y-134019671D01*
X148119179Y-134048262D01*
X148055115Y-134087263D01*
X147998685Y-134137041D01*
X147951697Y-134195517D01*
X147914546Y-134262227D01*
X147887115Y-134338365D01*
X147869864Y-134425475D01*
X147863802Y-134525387D01*
X147752691Y-134525387D01*
X147752691Y-133884391D01*
X151187866Y-133884391D01*
X151187866Y-135165650D01*
G37*
G36*
X148900653Y-131480201D02*
G01*
X148967196Y-131494534D01*
X149021924Y-131516769D01*
X149066819Y-131546299D01*
X149104374Y-131584917D01*
X149131286Y-131630462D01*
X149148035Y-131684323D01*
X149153953Y-131748532D01*
X149149707Y-131801206D01*
X149137687Y-131845887D01*
X149118501Y-131884005D01*
X149092099Y-131916632D01*
X149047175Y-131950989D01*
X148986297Y-131977877D01*
X148905253Y-131996072D01*
X148956327Y-132010943D01*
X148997454Y-132036495D01*
X149031419Y-132073301D01*
X149063095Y-132127597D01*
X149196940Y-132412934D01*
X149291218Y-132412934D01*
X149291218Y-132495000D01*
X148989272Y-132495000D01*
X148842421Y-132186582D01*
X148798750Y-132100625D01*
X148770309Y-132064216D01*
X148749056Y-132050043D01*
X148722162Y-132041038D01*
X148688060Y-132037777D01*
X148650446Y-132037777D01*
X148650446Y-132412934D01*
X148768660Y-132412934D01*
X148768660Y-132495000D01*
X148295928Y-132495000D01*
X148295928Y-132412934D01*
X148413409Y-132412934D01*
X148413409Y-131955711D01*
X148650446Y-131955711D01*
X148731108Y-131955711D01*
X148786226Y-131949433D01*
X148829473Y-131931961D01*
X148863609Y-131903871D01*
X148888354Y-131866606D01*
X148904259Y-131818287D01*
X148910077Y-131755737D01*
X148904242Y-131693195D01*
X148888325Y-131645152D01*
X148863609Y-131608337D01*
X148829521Y-131580605D01*
X148786276Y-131563324D01*
X148731108Y-131557107D01*
X148650446Y-131557107D01*
X148650446Y-131955711D01*
X148413409Y-131955711D01*
X148413409Y-131557107D01*
X148295928Y-131557107D01*
X148295928Y-131475041D01*
X148819890Y-131475041D01*
X148900653Y-131480201D01*
G37*
G36*
X149380549Y-132444197D02*
G01*
X149380549Y-132205816D01*
X149458402Y-132205816D01*
X149477256Y-132278793D01*
X149505733Y-132334415D01*
X149543093Y-132376175D01*
X149577433Y-132399729D01*
X149618573Y-132417270D01*
X149667843Y-132428470D01*
X149726886Y-132432473D01*
X149789068Y-132427327D01*
X149836202Y-132413444D01*
X149871661Y-132392295D01*
X149898791Y-132362234D01*
X149915536Y-132323827D01*
X149921547Y-132274448D01*
X149917414Y-132234888D01*
X149905951Y-132203725D01*
X149887720Y-132179071D01*
X149862559Y-132160003D01*
X149818571Y-132138829D01*
X149748074Y-132115690D01*
X149610748Y-132077833D01*
X149523718Y-132046096D01*
X149462589Y-132010304D01*
X149421521Y-131971282D01*
X149398944Y-131936202D01*
X149381882Y-131893238D01*
X149370851Y-131840789D01*
X149366872Y-131776926D01*
X149373118Y-131701635D01*
X149390731Y-131638466D01*
X149418776Y-131585180D01*
X149457364Y-131540132D01*
X149504772Y-131504529D01*
X149561541Y-131478209D01*
X149629534Y-131461476D01*
X149711132Y-131455502D01*
X149792448Y-131459083D01*
X149878866Y-131470157D01*
X149966354Y-131488179D01*
X150059544Y-131514120D01*
X150059544Y-131740778D01*
X149981692Y-131740778D01*
X149963431Y-131673294D01*
X149936981Y-131623066D01*
X149903107Y-131586477D01*
X149860358Y-131560602D01*
X149804442Y-131543765D01*
X149731648Y-131537568D01*
X149671875Y-131542160D01*
X149627247Y-131554432D01*
X149594323Y-131572861D01*
X149569042Y-131599485D01*
X149553498Y-131633739D01*
X149547917Y-131678068D01*
X149551934Y-131719384D01*
X149562895Y-131750981D01*
X149579974Y-131775094D01*
X149604577Y-131793528D01*
X149652850Y-131816285D01*
X149736411Y-131843970D01*
X149874408Y-131881828D01*
X149937860Y-131903737D01*
X149988607Y-131929731D01*
X150028642Y-131959355D01*
X150059544Y-131992531D01*
X150083403Y-132031093D01*
X150101323Y-132077408D01*
X150112822Y-132132960D01*
X150116942Y-132199527D01*
X150110300Y-132275773D01*
X150091669Y-132338711D01*
X150062086Y-132390925D01*
X150021320Y-132434244D01*
X149971999Y-132467211D01*
X149910387Y-132492280D01*
X149833842Y-132508608D01*
X149739159Y-132514539D01*
X149649985Y-132510201D01*
X149560862Y-132497137D01*
X149472305Y-132475468D01*
X149380549Y-132444197D01*
G37*
G36*
X150421268Y-132495000D02*
G01*
X150421268Y-132412934D01*
X150542840Y-132412934D01*
X150542840Y-131568831D01*
X150291453Y-131568831D01*
X150291453Y-131730153D01*
X150207433Y-131730153D01*
X150207433Y-131475041D01*
X151117360Y-131475041D01*
X151117360Y-131730153D01*
X151034012Y-131730153D01*
X151034012Y-131568831D01*
X150780549Y-131568831D01*
X150780549Y-132412934D01*
X150903526Y-132412934D01*
X150903526Y-132495000D01*
X150421268Y-132495000D01*
G37*
G36*
X150181117Y-129872934D02*
G01*
X150268556Y-129872934D01*
X150268556Y-129955000D01*
X149838871Y-129955000D01*
X149838871Y-129872934D01*
X149928386Y-129872934D01*
X149852549Y-129661908D01*
X149508228Y-129661908D01*
X149431047Y-129872934D01*
X149540346Y-129872934D01*
X149540346Y-129955000D01*
X149267771Y-129955000D01*
X149267771Y-129872934D01*
X149342265Y-129872934D01*
X149450285Y-129579842D01*
X149538331Y-129579842D01*
X149822507Y-129579842D01*
X149681091Y-129190642D01*
X149538331Y-129579842D01*
X149450285Y-129579842D01*
X149687929Y-128935041D01*
X149834780Y-128935041D01*
X150181117Y-129872934D01*
G37*
G36*
X150426459Y-129955000D02*
G01*
X150426459Y-129872934D01*
X150598650Y-129872934D01*
X150598650Y-129046233D01*
X150407347Y-129172140D01*
X150407347Y-129070169D01*
X150637546Y-128915502D01*
X150831597Y-128915502D01*
X150831597Y-129872934D01*
X151004398Y-129872934D01*
X151004398Y-129955000D01*
X150426459Y-129955000D01*
G37*
G36*
X150181117Y-127332934D02*
G01*
X150268556Y-127332934D01*
X150268556Y-127415000D01*
X149838871Y-127415000D01*
X149838871Y-127332934D01*
X149928386Y-127332934D01*
X149852549Y-127121908D01*
X149508228Y-127121908D01*
X149431047Y-127332934D01*
X149540346Y-127332934D01*
X149540346Y-127415000D01*
X149267771Y-127415000D01*
X149267771Y-127332934D01*
X149342265Y-127332934D01*
X149450285Y-127039842D01*
X149538331Y-127039842D01*
X149822507Y-127039842D01*
X149681091Y-126650642D01*
X149538331Y-127039842D01*
X149450285Y-127039842D01*
X149687929Y-126395041D01*
X149834780Y-126395041D01*
X150181117Y-127332934D01*
G37*
G36*
X150361612Y-126422397D02*
G01*
X150442541Y-126401671D01*
X150519027Y-126387226D01*
X150594938Y-126378395D01*
X150668320Y-126375502D01*
X150752778Y-126380380D01*
X150821724Y-126393844D01*
X150877755Y-126414525D01*
X150923065Y-126441631D01*
X150961687Y-126477972D01*
X150989054Y-126520703D01*
X151005957Y-126571086D01*
X151011909Y-126631102D01*
X151005796Y-126690841D01*
X150988537Y-126740133D01*
X150960679Y-126781189D01*
X150923121Y-126814138D01*
X150874122Y-126840117D01*
X150811080Y-126858614D01*
X150870721Y-126873287D01*
X150919379Y-126893594D01*
X150958805Y-126918980D01*
X150990354Y-126949351D01*
X151015182Y-126985457D01*
X151033591Y-127028309D01*
X151045293Y-127079200D01*
X151049461Y-127139738D01*
X151042622Y-127209210D01*
X151023223Y-127267420D01*
X150991860Y-127316675D01*
X150947673Y-127358457D01*
X150895745Y-127389556D01*
X150831100Y-127413355D01*
X150751086Y-127428895D01*
X150652567Y-127434539D01*
X150579689Y-127431186D01*
X150502968Y-127420861D01*
X150425326Y-127404082D01*
X150341767Y-127379829D01*
X150341767Y-127157079D01*
X150416262Y-127157079D01*
X150426242Y-127220169D01*
X150444815Y-127268572D01*
X150470911Y-127305396D01*
X150505800Y-127333103D01*
X150549136Y-127350257D01*
X150603413Y-127356381D01*
X150663232Y-127349418D01*
X150710406Y-127329975D01*
X150747882Y-127298557D01*
X150775011Y-127257087D01*
X150792440Y-127203540D01*
X150798807Y-127134487D01*
X150792180Y-127062358D01*
X150774054Y-127006508D01*
X150745867Y-126963333D01*
X150717467Y-126937582D01*
X150683690Y-126918927D01*
X150643450Y-126907221D01*
X150595231Y-126903066D01*
X150554259Y-126903066D01*
X150554259Y-126821001D01*
X150586316Y-126821001D01*
X150644616Y-126815119D01*
X150688701Y-126799116D01*
X150721931Y-126774167D01*
X150746012Y-126740107D01*
X150761602Y-126694625D01*
X150767361Y-126634216D01*
X150762009Y-126577385D01*
X150747398Y-126533698D01*
X150724679Y-126500188D01*
X150693357Y-126475063D01*
X150653361Y-126459336D01*
X150602069Y-126453660D01*
X150555653Y-126458905D01*
X150518051Y-126473685D01*
X150487275Y-126497684D01*
X150463833Y-126529503D01*
X150446489Y-126571291D01*
X150436045Y-126625607D01*
X150361612Y-126625607D01*
X150361612Y-126422397D01*
G37*
G36*
X150181117Y-124792934D02*
G01*
X150268556Y-124792934D01*
X150268556Y-124875000D01*
X149838871Y-124875000D01*
X149838871Y-124792934D01*
X149928386Y-124792934D01*
X149852549Y-124581908D01*
X149508228Y-124581908D01*
X149431047Y-124792934D01*
X149540346Y-124792934D01*
X149540346Y-124875000D01*
X149267771Y-124875000D01*
X149267771Y-124792934D01*
X149342265Y-124792934D01*
X149450285Y-124499842D01*
X149538331Y-124499842D01*
X149822507Y-124499842D01*
X149681091Y-124110642D01*
X149538331Y-124499842D01*
X149450285Y-124499842D01*
X149687929Y-123855041D01*
X149834780Y-123855041D01*
X150181117Y-124792934D01*
G37*
G36*
X150964098Y-123855041D02*
G01*
X150964098Y-124034804D01*
X150472254Y-124034804D01*
X150472254Y-124259202D01*
X150515581Y-124227849D01*
X150563113Y-124205408D01*
X150614097Y-124191806D01*
X150668320Y-124187212D01*
X150752397Y-124193791D01*
X150823631Y-124212390D01*
X150884282Y-124241999D01*
X150936071Y-124282588D01*
X150978190Y-124333149D01*
X151008678Y-124392039D01*
X151027723Y-124460890D01*
X151034440Y-124541913D01*
X151027644Y-124624475D01*
X151008483Y-124693757D01*
X150977990Y-124752199D01*
X150936071Y-124801605D01*
X150884503Y-124840754D01*
X150822858Y-124869648D01*
X150749131Y-124887994D01*
X150660749Y-124894539D01*
X150585914Y-124891198D01*
X150511516Y-124881167D01*
X150437014Y-124864508D01*
X150356788Y-124839829D01*
X150356788Y-124617079D01*
X150430611Y-124617079D01*
X150438644Y-124682916D01*
X150454965Y-124731615D01*
X150478055Y-124767105D01*
X150510148Y-124793644D01*
X150551854Y-124810326D01*
X150606160Y-124816381D01*
X150649901Y-124811836D01*
X150685790Y-124799021D01*
X150715508Y-124778343D01*
X150740067Y-124749092D01*
X150762507Y-124701933D01*
X150777912Y-124635446D01*
X150783786Y-124543745D01*
X150778069Y-124453408D01*
X150763040Y-124387525D01*
X150741105Y-124340474D01*
X150717028Y-124311054D01*
X150688151Y-124290400D01*
X150653555Y-124277678D01*
X150611656Y-124273185D01*
X150566610Y-124278700D01*
X150527942Y-124294678D01*
X150493828Y-124320962D01*
X150459981Y-124361235D01*
X150398493Y-124361235D01*
X150398493Y-123855041D01*
X150964098Y-123855041D01*
G37*
G36*
X150606719Y-121404149D02*
G01*
X150663531Y-121423844D01*
X150709745Y-121455307D01*
X150747150Y-121499384D01*
X150773390Y-121550576D01*
X150794335Y-121618851D01*
X150808494Y-121708385D01*
X150813767Y-121823982D01*
X150808460Y-121940331D01*
X150794217Y-122030375D01*
X150773157Y-122098974D01*
X150746783Y-122150352D01*
X150709218Y-122194623D01*
X150662983Y-122226175D01*
X150606329Y-122245894D01*
X150536429Y-122252934D01*
X150451005Y-122252934D01*
X150451005Y-121397107D01*
X150536429Y-121397107D01*
X150606719Y-121404149D01*
G37*
G36*
X151187866Y-122465650D02*
G01*
X147752691Y-122465650D01*
X147752691Y-121825387D01*
X147863802Y-121825387D01*
X147869856Y-121924964D01*
X147887094Y-122011848D01*
X147914515Y-122087854D01*
X147951670Y-122154511D01*
X147998685Y-122213000D01*
X148055115Y-122262778D01*
X148119179Y-122301779D01*
X148191968Y-122330370D01*
X148274971Y-122348266D01*
X148369995Y-122354539D01*
X148476891Y-122348008D01*
X148580777Y-122328527D01*
X148682531Y-122296058D01*
X148786734Y-122249026D01*
X148786734Y-121858237D01*
X148456091Y-121858237D01*
X148456091Y-121940303D01*
X148566733Y-121940303D01*
X148566733Y-122219717D01*
X148528639Y-122242719D01*
X148486133Y-122259284D01*
X148440624Y-122269094D01*
X148390511Y-122272473D01*
X148337433Y-122267797D01*
X148292246Y-122254501D01*
X148253460Y-122233094D01*
X148220017Y-122203276D01*
X148191392Y-122163968D01*
X148166265Y-122110006D01*
X148146161Y-122038455D01*
X148132575Y-121945157D01*
X148127523Y-121825387D01*
X148132802Y-121704537D01*
X148146980Y-121610770D01*
X148167939Y-121539162D01*
X148194140Y-121485401D01*
X148223702Y-121446719D01*
X148258530Y-121417117D01*
X148299262Y-121395691D01*
X148347061Y-121382297D01*
X148403517Y-121377568D01*
X148462271Y-121381875D01*
X148511090Y-121393926D01*
X148551723Y-121412858D01*
X148585539Y-121438445D01*
X148621801Y-121483139D01*
X148652848Y-121547012D01*
X148677436Y-121635488D01*
X148755288Y-121635488D01*
X148755288Y-121397107D01*
X148942195Y-121397107D01*
X149059676Y-121397107D01*
X149059676Y-122252934D01*
X148942195Y-122252934D01*
X148942195Y-122335000D01*
X149263252Y-122335000D01*
X149263252Y-122252934D01*
X149146443Y-122252934D01*
X149146443Y-121597569D01*
X149708690Y-122335000D01*
X149869890Y-122335000D01*
X149869890Y-121397107D01*
X149987371Y-121397107D01*
X150096487Y-121397107D01*
X150213968Y-121397107D01*
X150213968Y-122252934D01*
X150096487Y-122252934D01*
X150096487Y-122335000D01*
X150567875Y-122335000D01*
X150668282Y-122328958D01*
X150754298Y-122311902D01*
X150828057Y-122285019D01*
X150891360Y-122248906D01*
X150945597Y-122203536D01*
X150990808Y-122149197D01*
X151026831Y-122085684D01*
X151053672Y-122011582D01*
X151070715Y-121925068D01*
X151076755Y-121823982D01*
X151070739Y-121723507D01*
X151053757Y-121637453D01*
X151027001Y-121563684D01*
X150991074Y-121500398D01*
X150945963Y-121446200D01*
X150891898Y-121400984D01*
X150828669Y-121364964D01*
X150754863Y-121338125D01*
X150668653Y-121321082D01*
X150567875Y-121315041D01*
X150096487Y-121315041D01*
X150096487Y-121397107D01*
X149987371Y-121397107D01*
X149987371Y-121315041D01*
X149666314Y-121315041D01*
X149666314Y-121397107D01*
X149783123Y-121397107D01*
X149783123Y-122037451D01*
X149229119Y-121315041D01*
X148942195Y-121315041D01*
X148942195Y-121397107D01*
X148755288Y-121397107D01*
X148755288Y-121385383D01*
X148658256Y-121345485D01*
X148563680Y-121317789D01*
X148467657Y-121301080D01*
X148369995Y-121295502D01*
X148274971Y-121301775D01*
X148191968Y-121319671D01*
X148119179Y-121348262D01*
X148055115Y-121387263D01*
X147998685Y-121437041D01*
X147951697Y-121495517D01*
X147914546Y-121562227D01*
X147887115Y-121638365D01*
X147869864Y-121725475D01*
X147863802Y-121825387D01*
X147752691Y-121825387D01*
X147752691Y-121184391D01*
X151187866Y-121184391D01*
X151187866Y-122465650D01*
G37*
G36*
X150181117Y-119712934D02*
G01*
X150268556Y-119712934D01*
X150268556Y-119795000D01*
X149838871Y-119795000D01*
X149838871Y-119712934D01*
X149928386Y-119712934D01*
X149852549Y-119501908D01*
X149508228Y-119501908D01*
X149431047Y-119712934D01*
X149540346Y-119712934D01*
X149540346Y-119795000D01*
X149267771Y-119795000D01*
X149267771Y-119712934D01*
X149342265Y-119712934D01*
X149450285Y-119419842D01*
X149538331Y-119419842D01*
X149822507Y-119419842D01*
X149681091Y-119030642D01*
X149538331Y-119419842D01*
X149450285Y-119419842D01*
X149687929Y-118775041D01*
X149834780Y-118775041D01*
X150181117Y-119712934D01*
G37*
G36*
X151025586Y-118948576D02*
G01*
X150646460Y-119795000D01*
X150521469Y-119795000D01*
X150890337Y-118966528D01*
X150437389Y-118966528D01*
X150437389Y-119103304D01*
X150353369Y-119103304D01*
X150353369Y-118775041D01*
X151025586Y-118775041D01*
X151025586Y-118948576D01*
G37*
G36*
X150181117Y-117172934D02*
G01*
X150268556Y-117172934D01*
X150268556Y-117255000D01*
X149838871Y-117255000D01*
X149838871Y-117172934D01*
X149928386Y-117172934D01*
X149852549Y-116961908D01*
X149508228Y-116961908D01*
X149431047Y-117172934D01*
X149540346Y-117172934D01*
X149540346Y-117255000D01*
X149267771Y-117255000D01*
X149267771Y-117172934D01*
X149342265Y-117172934D01*
X149450285Y-116879842D01*
X149538331Y-116879842D01*
X149822507Y-116879842D01*
X149681091Y-116490642D01*
X149538331Y-116879842D01*
X149450285Y-116879842D01*
X149687929Y-116235041D01*
X149834780Y-116235041D01*
X150181117Y-117172934D01*
G37*
G36*
X150743354Y-116221102D02*
G01*
X150807783Y-116237005D01*
X150863384Y-116262391D01*
X150911544Y-116297177D01*
X150953168Y-116342020D01*
X150985582Y-116392525D01*
X151012162Y-116453031D01*
X151032427Y-116525197D01*
X151045510Y-116610968D01*
X151050194Y-116712536D01*
X151044959Y-116828655D01*
X151030370Y-116926293D01*
X151007838Y-117008034D01*
X150978386Y-117076178D01*
X150942605Y-117132695D01*
X150896374Y-117182920D01*
X150842693Y-117221905D01*
X150780526Y-117250382D01*
X150708283Y-117268242D01*
X150623929Y-117274539D01*
X150567716Y-117272192D01*
X150505044Y-117264769D01*
X150440703Y-117252856D01*
X150369123Y-117235460D01*
X150369123Y-117055697D01*
X150443556Y-117055697D01*
X150457777Y-117099936D01*
X150477326Y-117134352D01*
X150501930Y-117160722D01*
X150532227Y-117180048D01*
X150568696Y-117192100D01*
X150612938Y-117196381D01*
X150665020Y-117190696D01*
X150707274Y-117174699D01*
X150741878Y-117148833D01*
X150770047Y-117111995D01*
X150789208Y-117070154D01*
X150804827Y-117013179D01*
X150815632Y-116937248D01*
X150819934Y-116838016D01*
X150777162Y-116870114D01*
X150730114Y-116892848D01*
X150679085Y-116906434D01*
X150622525Y-116911106D01*
X150553807Y-116904949D01*
X150495398Y-116887443D01*
X150445328Y-116859237D01*
X150402218Y-116819881D01*
X150368503Y-116772409D01*
X150343527Y-116715868D01*
X150327646Y-116648492D01*
X150321984Y-116568066D01*
X150322488Y-116561350D01*
X150565860Y-116561350D01*
X150569777Y-116661260D01*
X150579589Y-116727547D01*
X150592849Y-116769139D01*
X150615384Y-116802986D01*
X150644604Y-116822321D01*
X150682669Y-116829040D01*
X150721178Y-116822294D01*
X150750601Y-116802934D01*
X150773161Y-116769139D01*
X150786421Y-116727547D01*
X150796233Y-116661260D01*
X150800150Y-116561350D01*
X150796233Y-116461440D01*
X150786421Y-116395153D01*
X150773161Y-116353560D01*
X150750601Y-116319766D01*
X150721178Y-116300405D01*
X150682669Y-116293660D01*
X150644604Y-116300379D01*
X150615384Y-116319713D01*
X150592849Y-116353560D01*
X150579589Y-116395153D01*
X150569777Y-116461440D01*
X150565860Y-116561350D01*
X150322488Y-116561350D01*
X150328341Y-116483421D01*
X150346111Y-116413356D01*
X150374026Y-116355255D01*
X150411804Y-116307093D01*
X150459289Y-116268441D01*
X150516452Y-116240003D01*
X150585264Y-116221951D01*
X150668320Y-116215502D01*
X150743354Y-116221102D01*
G37*
G36*
X149304773Y-114632934D02*
G01*
X149392212Y-114632934D01*
X149392212Y-114715000D01*
X148962527Y-114715000D01*
X148962527Y-114632934D01*
X149052042Y-114632934D01*
X148976205Y-114421908D01*
X148631884Y-114421908D01*
X148554703Y-114632934D01*
X148664002Y-114632934D01*
X148664002Y-114715000D01*
X148391427Y-114715000D01*
X148391427Y-114632934D01*
X148465921Y-114632934D01*
X148573941Y-114339842D01*
X148661987Y-114339842D01*
X148946163Y-114339842D01*
X148804747Y-113950642D01*
X148661987Y-114339842D01*
X148573941Y-114339842D01*
X148811585Y-113695041D01*
X148958436Y-113695041D01*
X149304773Y-114632934D01*
G37*
G36*
X149550115Y-114715000D02*
G01*
X149550115Y-114632934D01*
X149722306Y-114632934D01*
X149722306Y-113806233D01*
X149531003Y-113932140D01*
X149531003Y-113830169D01*
X149761202Y-113675502D01*
X149955253Y-113675502D01*
X149955253Y-114632934D01*
X150128054Y-114632934D01*
X150128054Y-114715000D01*
X149550115Y-114715000D01*
G37*
G36*
X150361612Y-113722397D02*
G01*
X150442540Y-113701671D01*
X150519026Y-113687226D01*
X150594937Y-113678395D01*
X150668320Y-113675502D01*
X150752778Y-113680380D01*
X150821724Y-113693844D01*
X150877754Y-113714525D01*
X150923065Y-113741631D01*
X150961686Y-113777972D01*
X150989053Y-113820703D01*
X151005956Y-113871086D01*
X151011908Y-113931102D01*
X151005796Y-113990841D01*
X150988537Y-114040133D01*
X150960678Y-114081189D01*
X150923121Y-114114138D01*
X150874121Y-114140117D01*
X150811079Y-114158614D01*
X150870721Y-114173287D01*
X150919379Y-114193594D01*
X150958804Y-114218980D01*
X150990354Y-114249351D01*
X151015181Y-114285457D01*
X151033590Y-114328309D01*
X151045292Y-114379200D01*
X151049460Y-114439738D01*
X151042622Y-114509210D01*
X151023222Y-114567420D01*
X150991859Y-114616675D01*
X150947672Y-114658457D01*
X150895744Y-114689556D01*
X150831099Y-114713355D01*
X150751085Y-114728895D01*
X150652566Y-114734539D01*
X150579688Y-114731186D01*
X150502967Y-114720861D01*
X150425326Y-114704082D01*
X150341767Y-114679829D01*
X150341767Y-114457079D01*
X150416261Y-114457079D01*
X150426241Y-114520169D01*
X150444814Y-114568572D01*
X150470910Y-114605396D01*
X150505799Y-114633103D01*
X150549136Y-114650257D01*
X150603412Y-114656381D01*
X150663231Y-114649418D01*
X150710406Y-114629975D01*
X150747882Y-114598557D01*
X150775011Y-114557087D01*
X150792439Y-114503540D01*
X150798806Y-114434487D01*
X150792179Y-114362358D01*
X150774053Y-114306508D01*
X150745867Y-114263333D01*
X150717466Y-114237582D01*
X150683689Y-114218927D01*
X150643449Y-114207221D01*
X150595230Y-114203066D01*
X150554258Y-114203066D01*
X150554258Y-114121001D01*
X150586315Y-114121001D01*
X150644615Y-114115119D01*
X150688700Y-114099116D01*
X150721931Y-114074167D01*
X150746011Y-114040107D01*
X150761602Y-113994625D01*
X150767360Y-113934216D01*
X150762008Y-113877385D01*
X150747398Y-113833698D01*
X150724679Y-113800188D01*
X150693356Y-113775063D01*
X150653360Y-113759336D01*
X150602069Y-113753660D01*
X150555653Y-113758905D01*
X150518050Y-113773685D01*
X150487275Y-113797684D01*
X150463833Y-113829503D01*
X150446488Y-113871291D01*
X150436045Y-113925607D01*
X150361612Y-113925607D01*
X150361612Y-113722397D01*
G37*
G36*
X149304773Y-112092934D02*
G01*
X149392212Y-112092934D01*
X149392212Y-112175000D01*
X148962527Y-112175000D01*
X148962527Y-112092934D01*
X149052042Y-112092934D01*
X148976205Y-111881908D01*
X148631884Y-111881908D01*
X148554703Y-112092934D01*
X148664002Y-112092934D01*
X148664002Y-112175000D01*
X148391427Y-112175000D01*
X148391427Y-112092934D01*
X148465921Y-112092934D01*
X148573941Y-111799842D01*
X148661987Y-111799842D01*
X148946163Y-111799842D01*
X148804747Y-111410642D01*
X148661987Y-111799842D01*
X148573941Y-111799842D01*
X148811585Y-111155041D01*
X148958436Y-111155041D01*
X149304773Y-112092934D01*
G37*
G36*
X149550115Y-112175000D02*
G01*
X149550115Y-112092934D01*
X149722306Y-112092934D01*
X149722306Y-111266233D01*
X149531003Y-111392140D01*
X149531003Y-111290169D01*
X149761202Y-111135502D01*
X149955253Y-111135502D01*
X149955253Y-112092934D01*
X150128054Y-112092934D01*
X150128054Y-112175000D01*
X149550115Y-112175000D01*
G37*
G36*
X150964098Y-111155041D02*
G01*
X150964098Y-111334804D01*
X150472254Y-111334804D01*
X150472254Y-111559202D01*
X150515580Y-111527849D01*
X150563112Y-111505408D01*
X150614097Y-111491806D01*
X150668320Y-111487212D01*
X150752396Y-111493791D01*
X150823630Y-111512390D01*
X150884281Y-111541999D01*
X150936071Y-111582588D01*
X150978189Y-111633149D01*
X151008678Y-111692039D01*
X151027723Y-111760890D01*
X151034440Y-111841913D01*
X151027644Y-111924475D01*
X151008482Y-111993757D01*
X150977989Y-112052199D01*
X150936071Y-112101605D01*
X150884502Y-112140754D01*
X150822857Y-112169648D01*
X150749130Y-112187994D01*
X150660748Y-112194539D01*
X150585913Y-112191198D01*
X150511516Y-112181167D01*
X150437013Y-112164508D01*
X150356788Y-112139829D01*
X150356788Y-111917079D01*
X150430610Y-111917079D01*
X150438643Y-111982916D01*
X150454965Y-112031615D01*
X150478054Y-112067105D01*
X150510147Y-112093644D01*
X150551853Y-112110326D01*
X150606160Y-112116381D01*
X150649901Y-112111836D01*
X150685789Y-112099021D01*
X150715508Y-112078343D01*
X150740066Y-112049092D01*
X150762506Y-112001933D01*
X150777911Y-111935446D01*
X150783785Y-111843745D01*
X150778068Y-111753408D01*
X150763039Y-111687525D01*
X150741104Y-111640474D01*
X150717027Y-111611054D01*
X150688150Y-111590400D01*
X150653554Y-111577678D01*
X150611655Y-111573185D01*
X150566610Y-111578700D01*
X150527941Y-111594678D01*
X150493827Y-111620962D01*
X150459980Y-111661235D01*
X150398492Y-111661235D01*
X150398492Y-111155041D01*
X150964098Y-111155041D01*
G37*
G36*
X150606719Y-108704149D02*
G01*
X150663531Y-108723844D01*
X150709745Y-108755307D01*
X150747150Y-108799384D01*
X150773390Y-108850576D01*
X150794335Y-108918851D01*
X150808494Y-109008385D01*
X150813767Y-109123982D01*
X150808460Y-109240331D01*
X150794217Y-109330375D01*
X150773157Y-109398974D01*
X150746783Y-109450352D01*
X150709218Y-109494623D01*
X150662983Y-109526175D01*
X150606329Y-109545894D01*
X150536429Y-109552934D01*
X150451005Y-109552934D01*
X150451005Y-108697107D01*
X150536429Y-108697107D01*
X150606719Y-108704149D01*
G37*
G36*
X151187866Y-109765650D02*
G01*
X147752691Y-109765650D01*
X147752691Y-109125387D01*
X147863802Y-109125387D01*
X147869856Y-109224964D01*
X147887094Y-109311848D01*
X147914515Y-109387854D01*
X147951670Y-109454511D01*
X147998685Y-109513000D01*
X148055115Y-109562778D01*
X148119179Y-109601779D01*
X148191968Y-109630370D01*
X148274971Y-109648266D01*
X148369995Y-109654539D01*
X148476891Y-109648008D01*
X148580777Y-109628527D01*
X148682531Y-109596058D01*
X148786734Y-109549026D01*
X148786734Y-109158237D01*
X148456091Y-109158237D01*
X148456091Y-109240303D01*
X148566733Y-109240303D01*
X148566733Y-109519717D01*
X148528639Y-109542719D01*
X148486133Y-109559284D01*
X148440624Y-109569094D01*
X148390511Y-109572473D01*
X148337433Y-109567797D01*
X148292246Y-109554501D01*
X148253460Y-109533094D01*
X148220017Y-109503276D01*
X148191392Y-109463968D01*
X148166265Y-109410006D01*
X148146161Y-109338455D01*
X148132575Y-109245157D01*
X148127523Y-109125387D01*
X148132802Y-109004537D01*
X148146980Y-108910770D01*
X148167939Y-108839162D01*
X148194140Y-108785401D01*
X148223702Y-108746719D01*
X148258530Y-108717117D01*
X148299262Y-108695691D01*
X148347061Y-108682297D01*
X148403517Y-108677568D01*
X148462271Y-108681875D01*
X148511090Y-108693926D01*
X148551723Y-108712858D01*
X148585539Y-108738445D01*
X148621801Y-108783139D01*
X148652848Y-108847012D01*
X148677436Y-108935488D01*
X148755288Y-108935488D01*
X148755288Y-108697107D01*
X148942195Y-108697107D01*
X149059676Y-108697107D01*
X149059676Y-109552934D01*
X148942195Y-109552934D01*
X148942195Y-109635000D01*
X149263252Y-109635000D01*
X149263252Y-109552934D01*
X149146443Y-109552934D01*
X149146443Y-108897569D01*
X149708690Y-109635000D01*
X149869890Y-109635000D01*
X149869890Y-108697107D01*
X149987371Y-108697107D01*
X150096487Y-108697107D01*
X150213968Y-108697107D01*
X150213968Y-109552934D01*
X150096487Y-109552934D01*
X150096487Y-109635000D01*
X150567875Y-109635000D01*
X150668282Y-109628958D01*
X150754298Y-109611902D01*
X150828057Y-109585019D01*
X150891360Y-109548906D01*
X150945597Y-109503536D01*
X150990808Y-109449197D01*
X151026831Y-109385684D01*
X151053672Y-109311582D01*
X151070715Y-109225068D01*
X151076755Y-109123982D01*
X151070739Y-109023507D01*
X151053757Y-108937453D01*
X151027001Y-108863684D01*
X150991074Y-108800398D01*
X150945963Y-108746200D01*
X150891898Y-108700984D01*
X150828669Y-108664964D01*
X150754863Y-108638125D01*
X150668653Y-108621082D01*
X150567875Y-108615041D01*
X150096487Y-108615041D01*
X150096487Y-108697107D01*
X149987371Y-108697107D01*
X149987371Y-108615041D01*
X149666314Y-108615041D01*
X149666314Y-108697107D01*
X149783123Y-108697107D01*
X149783123Y-109337451D01*
X149229119Y-108615041D01*
X148942195Y-108615041D01*
X148942195Y-108697107D01*
X148755288Y-108697107D01*
X148755288Y-108685383D01*
X148658256Y-108645485D01*
X148563680Y-108617789D01*
X148467657Y-108601080D01*
X148369995Y-108595502D01*
X148274971Y-108601775D01*
X148191968Y-108619671D01*
X148119179Y-108648262D01*
X148055115Y-108687263D01*
X147998685Y-108737041D01*
X147951697Y-108795517D01*
X147914546Y-108862227D01*
X147887115Y-108938365D01*
X147869864Y-109025475D01*
X147863802Y-109125387D01*
X147752691Y-109125387D01*
X147752691Y-108484391D01*
X151187866Y-108484391D01*
X151187866Y-109765650D01*
G37*
G36*
X149792310Y-106081082D02*
G01*
X149878519Y-106098125D01*
X149952325Y-106124964D01*
X150015554Y-106160984D01*
X150069620Y-106206200D01*
X150114730Y-106260398D01*
X150150657Y-106323684D01*
X150177414Y-106397453D01*
X150194396Y-106483507D01*
X150200412Y-106583982D01*
X150194372Y-106685068D01*
X150177329Y-106771582D01*
X150150487Y-106845684D01*
X150114464Y-106909197D01*
X150069253Y-106963536D01*
X150015016Y-107008906D01*
X149951713Y-107045019D01*
X149877954Y-107071902D01*
X149791938Y-107088958D01*
X149691532Y-107095000D01*
X149220143Y-107095000D01*
X149220143Y-107012934D01*
X149337624Y-107012934D01*
X149574661Y-107012934D01*
X149660085Y-107012934D01*
X149729986Y-107005894D01*
X149786639Y-106986175D01*
X149832874Y-106954623D01*
X149870439Y-106910352D01*
X149896813Y-106858974D01*
X149917873Y-106790375D01*
X149932117Y-106700331D01*
X149937423Y-106583982D01*
X149932150Y-106468385D01*
X149917991Y-106378851D01*
X149897047Y-106310576D01*
X149870806Y-106259384D01*
X149833401Y-106215307D01*
X149787187Y-106183844D01*
X149730375Y-106164149D01*
X149660085Y-106157107D01*
X149574661Y-106157107D01*
X149574661Y-107012934D01*
X149337624Y-107012934D01*
X149337624Y-106157107D01*
X149220143Y-106157107D01*
X149220143Y-106075041D01*
X149691532Y-106075041D01*
X149792310Y-106081082D01*
G37*
G36*
X150816021Y-106057853D02*
G01*
X150878369Y-106065272D01*
X150942441Y-106077176D01*
X151013984Y-106094581D01*
X151013984Y-106274344D01*
X150939490Y-106274344D01*
X150925652Y-106230121D01*
X150906305Y-106195732D01*
X150881727Y-106169380D01*
X150851475Y-106149993D01*
X150815234Y-106137934D01*
X150771451Y-106133660D01*
X150718621Y-106139357D01*
X150675924Y-106155350D01*
X150641119Y-106181133D01*
X150612938Y-106217740D01*
X150593831Y-106259410D01*
X150578341Y-106316156D01*
X150567754Y-106391797D01*
X150563784Y-106490682D01*
X150605969Y-106459231D01*
X150652933Y-106436887D01*
X150703948Y-106423531D01*
X150760521Y-106418935D01*
X150829975Y-106425137D01*
X150888817Y-106442743D01*
X150939076Y-106471065D01*
X150982172Y-106510526D01*
X151015950Y-106558156D01*
X151040944Y-106614715D01*
X151056815Y-106681931D01*
X151062467Y-106761974D01*
X151056081Y-106846191D01*
X151038206Y-106916094D01*
X151010070Y-106974253D01*
X150971914Y-107022643D01*
X150924089Y-107061462D01*
X150866688Y-107089994D01*
X150797772Y-107108083D01*
X150714787Y-107114539D01*
X150639733Y-107108952D01*
X150575286Y-107093088D01*
X150519672Y-107067769D01*
X150471506Y-107033084D01*
X150429878Y-106988387D01*
X150397515Y-106938019D01*
X150370958Y-106877570D01*
X150350694Y-106805358D01*
X150345109Y-106768691D01*
X150583629Y-106768691D01*
X150587545Y-106868601D01*
X150597357Y-106934888D01*
X150610617Y-106976481D01*
X150633152Y-107010328D01*
X150662372Y-107029662D01*
X150700438Y-107036381D01*
X150738946Y-107029636D01*
X150768370Y-107010275D01*
X150790930Y-106976481D01*
X150804190Y-106934888D01*
X150814002Y-106868601D01*
X150817919Y-106768691D01*
X150814002Y-106668781D01*
X150804190Y-106602494D01*
X150790930Y-106560901D01*
X150768370Y-106527107D01*
X150738946Y-106507746D01*
X150700438Y-106501001D01*
X150662372Y-106507720D01*
X150633152Y-106527054D01*
X150610617Y-106560901D01*
X150597357Y-106602494D01*
X150587545Y-106668781D01*
X150583629Y-106768691D01*
X150345109Y-106768691D01*
X150337603Y-106719410D01*
X150332913Y-106617505D01*
X150338149Y-106501382D01*
X150352739Y-106403750D01*
X150375272Y-106322024D01*
X150404723Y-106253900D01*
X150440502Y-106197407D01*
X150486728Y-106147188D01*
X150540461Y-106108191D01*
X150602749Y-106079691D01*
X150675195Y-106061809D01*
X150759850Y-106055502D01*
X150816021Y-106057853D01*
G37*
G36*
X149792310Y-103541082D02*
G01*
X149878519Y-103558125D01*
X149952325Y-103584964D01*
X150015554Y-103620984D01*
X150069620Y-103666200D01*
X150114730Y-103720398D01*
X150150657Y-103783684D01*
X150177414Y-103857453D01*
X150194396Y-103943507D01*
X150200412Y-104043982D01*
X150194372Y-104145068D01*
X150177329Y-104231582D01*
X150150487Y-104305684D01*
X150114464Y-104369197D01*
X150069253Y-104423536D01*
X150015016Y-104468906D01*
X149951713Y-104505019D01*
X149877954Y-104531902D01*
X149791938Y-104548958D01*
X149691532Y-104555000D01*
X149220143Y-104555000D01*
X149220143Y-104472934D01*
X149337624Y-104472934D01*
X149574661Y-104472934D01*
X149660085Y-104472934D01*
X149729986Y-104465894D01*
X149786639Y-104446175D01*
X149832874Y-104414623D01*
X149870439Y-104370352D01*
X149896813Y-104318974D01*
X149917873Y-104250375D01*
X149932117Y-104160331D01*
X149937423Y-104043982D01*
X149932150Y-103928385D01*
X149917991Y-103838851D01*
X149897047Y-103770576D01*
X149870806Y-103719384D01*
X149833401Y-103675307D01*
X149787187Y-103643844D01*
X149730375Y-103624149D01*
X149660085Y-103617107D01*
X149574661Y-103617107D01*
X149574661Y-104472934D01*
X149337624Y-104472934D01*
X149337624Y-103617107D01*
X149220143Y-103617107D01*
X149220143Y-103535041D01*
X149691532Y-103535041D01*
X149792310Y-103541082D01*
G37*
G36*
X150920378Y-104199382D02*
G01*
X151078159Y-104199382D01*
X151078159Y-104289263D01*
X150920378Y-104289263D01*
X150920378Y-104472934D01*
X151057032Y-104472934D01*
X151057032Y-104555000D01*
X150551511Y-104555000D01*
X150551511Y-104472934D01*
X150688103Y-104472934D01*
X150688103Y-104289263D01*
X150305558Y-104289263D01*
X150305558Y-104210312D01*
X150311598Y-104199382D01*
X150414857Y-104199382D01*
X150688103Y-104199382D01*
X150688103Y-103702592D01*
X150414857Y-104199382D01*
X150311598Y-104199382D01*
X150689508Y-103515502D01*
X150920378Y-103515502D01*
X150920378Y-104199382D01*
G37*
G36*
X149792310Y-101001082D02*
G01*
X149878519Y-101018125D01*
X149952325Y-101044964D01*
X150015554Y-101080984D01*
X150069620Y-101126200D01*
X150114730Y-101180398D01*
X150150657Y-101243684D01*
X150177414Y-101317453D01*
X150194396Y-101403507D01*
X150200412Y-101503982D01*
X150194372Y-101605068D01*
X150177329Y-101691582D01*
X150150487Y-101765684D01*
X150114464Y-101829197D01*
X150069253Y-101883536D01*
X150015016Y-101928906D01*
X149951713Y-101965019D01*
X149877954Y-101991902D01*
X149791938Y-102008958D01*
X149691532Y-102015000D01*
X149220143Y-102015000D01*
X149220143Y-101932934D01*
X149337624Y-101932934D01*
X149574661Y-101932934D01*
X149660085Y-101932934D01*
X149729986Y-101925894D01*
X149786639Y-101906175D01*
X149832874Y-101874623D01*
X149870439Y-101830352D01*
X149896813Y-101778974D01*
X149917873Y-101710375D01*
X149932117Y-101620331D01*
X149937423Y-101503982D01*
X149932150Y-101388385D01*
X149917991Y-101298851D01*
X149897047Y-101230576D01*
X149870806Y-101179384D01*
X149833401Y-101135307D01*
X149787187Y-101103844D01*
X149730375Y-101084149D01*
X149660085Y-101077107D01*
X149574661Y-101077107D01*
X149574661Y-101932934D01*
X149337624Y-101932934D01*
X149337624Y-101077107D01*
X149220143Y-101077107D01*
X149220143Y-100995041D01*
X149691532Y-100995041D01*
X149792310Y-101001082D01*
G37*
G36*
X150419681Y-101245146D02*
G01*
X150345858Y-101245146D01*
X150345858Y-101026304D01*
X150421157Y-101003931D01*
X150494419Y-100988203D01*
X150568229Y-100978683D01*
X150643041Y-100975502D01*
X150731187Y-100981203D01*
X150804477Y-100997106D01*
X150865379Y-101021905D01*
X150915921Y-101055003D01*
X150958439Y-101098161D01*
X150988701Y-101148403D01*
X151007409Y-101207137D01*
X151013984Y-101276470D01*
X151007859Y-101342184D01*
X150989894Y-101402173D01*
X150960007Y-101457698D01*
X150919595Y-101507593D01*
X150853511Y-101570041D01*
X150753683Y-101647780D01*
X150497533Y-101835237D01*
X150932652Y-101835237D01*
X150932652Y-101714092D01*
X151016671Y-101714092D01*
X151016671Y-102015000D01*
X150337676Y-102015000D01*
X150337676Y-101847388D01*
X150473597Y-101742302D01*
X150587575Y-101648041D01*
X150661578Y-101573531D01*
X150705506Y-101515034D01*
X150737119Y-101450301D01*
X150756537Y-101377851D01*
X150763269Y-101296010D01*
X150757536Y-101217925D01*
X150742194Y-101159233D01*
X150719183Y-101115636D01*
X150694814Y-101088645D01*
X150666019Y-101069573D01*
X150631927Y-101057806D01*
X150591139Y-101053660D01*
X150545065Y-101059374D01*
X150506977Y-101075700D01*
X150475002Y-101102752D01*
X150450731Y-101137881D01*
X150431981Y-101184394D01*
X150419681Y-101245146D01*
G37*
G36*
X149792310Y-98461082D02*
G01*
X149878519Y-98478125D01*
X149952325Y-98504964D01*
X150015554Y-98540984D01*
X150069620Y-98586200D01*
X150114730Y-98640398D01*
X150150657Y-98703684D01*
X150177414Y-98777453D01*
X150194396Y-98863507D01*
X150200412Y-98963982D01*
X150194372Y-99065068D01*
X150177329Y-99151582D01*
X150150487Y-99225684D01*
X150114464Y-99289197D01*
X150069253Y-99343536D01*
X150015016Y-99388906D01*
X149951713Y-99425019D01*
X149877954Y-99451902D01*
X149791938Y-99468958D01*
X149691532Y-99475000D01*
X149220143Y-99475000D01*
X149220143Y-99392934D01*
X149337624Y-99392934D01*
X149574661Y-99392934D01*
X149660085Y-99392934D01*
X149729986Y-99385894D01*
X149786639Y-99366175D01*
X149832874Y-99334623D01*
X149870439Y-99290352D01*
X149896813Y-99238974D01*
X149917873Y-99170375D01*
X149932117Y-99080331D01*
X149937423Y-98963982D01*
X149932150Y-98848385D01*
X149917991Y-98758851D01*
X149897047Y-98690576D01*
X149870806Y-98639384D01*
X149833401Y-98595307D01*
X149787187Y-98563844D01*
X149730375Y-98544149D01*
X149660085Y-98537107D01*
X149574661Y-98537107D01*
X149574661Y-99392934D01*
X149337624Y-99392934D01*
X149337624Y-98537107D01*
X149220143Y-98537107D01*
X149220143Y-98455041D01*
X149691532Y-98455041D01*
X149792310Y-98461082D01*
G37*
G36*
X150764433Y-98441381D02*
G01*
X150827173Y-98458199D01*
X150882088Y-98485336D01*
X150930434Y-98523015D01*
X150972952Y-98572278D01*
X151005588Y-98626624D01*
X151032376Y-98691316D01*
X151052789Y-98768020D01*
X151065948Y-98858659D01*
X151070649Y-98965387D01*
X151065945Y-99072104D01*
X151052782Y-99162693D01*
X151032366Y-99239314D01*
X151005580Y-99303903D01*
X150972952Y-99358129D01*
X150930453Y-99407242D01*
X150882119Y-99444819D01*
X150827205Y-99471891D01*
X150764454Y-99488672D01*
X150692195Y-99494539D01*
X150619641Y-99488667D01*
X150556645Y-99471875D01*
X150501528Y-99444792D01*
X150453030Y-99407217D01*
X150410399Y-99358129D01*
X150377660Y-99303886D01*
X150350791Y-99239288D01*
X150330314Y-99162666D01*
X150317114Y-99072086D01*
X150312397Y-98965387D01*
X150563784Y-98965387D01*
X150568276Y-99172616D01*
X150578671Y-99286955D01*
X150591078Y-99341582D01*
X150608473Y-99375467D01*
X150630598Y-99398095D01*
X150657938Y-99411623D01*
X150692195Y-99416381D01*
X150726483Y-99411620D01*
X150753829Y-99398089D01*
X150775944Y-99375462D01*
X150793311Y-99341582D01*
X150805746Y-99286954D01*
X150816164Y-99172616D01*
X150820666Y-98965387D01*
X150816189Y-98759723D01*
X150805792Y-98645272D01*
X150793311Y-98589863D01*
X150775868Y-98555239D01*
X150753707Y-98532204D01*
X150726381Y-98518479D01*
X150692195Y-98513660D01*
X150657942Y-98518421D01*
X150630604Y-98531957D01*
X150608476Y-98554602D01*
X150591078Y-98588520D01*
X150578678Y-98643128D01*
X150568280Y-98757629D01*
X150563784Y-98965387D01*
X150312397Y-98965387D01*
X150317111Y-98858677D01*
X150330307Y-98768046D01*
X150350781Y-98691343D01*
X150377653Y-98626641D01*
X150410399Y-98572278D01*
X150453050Y-98523040D01*
X150501559Y-98485363D01*
X150556677Y-98458215D01*
X150619662Y-98441386D01*
X150692195Y-98435502D01*
X150764433Y-98441381D01*
G37*
G36*
X150606719Y-96004149D02*
G01*
X150663531Y-96023844D01*
X150709745Y-96055307D01*
X150747150Y-96099384D01*
X150773390Y-96150576D01*
X150794335Y-96218851D01*
X150808494Y-96308385D01*
X150813767Y-96423982D01*
X150808460Y-96540331D01*
X150794217Y-96630375D01*
X150773157Y-96698974D01*
X150746783Y-96750352D01*
X150709218Y-96794623D01*
X150662983Y-96826175D01*
X150606329Y-96845894D01*
X150536429Y-96852934D01*
X150451005Y-96852934D01*
X150451005Y-95997107D01*
X150536429Y-95997107D01*
X150606719Y-96004149D01*
G37*
G36*
X151187866Y-97065650D02*
G01*
X147752691Y-97065650D01*
X147752691Y-96425387D01*
X147863802Y-96425387D01*
X147869856Y-96524964D01*
X147887094Y-96611848D01*
X147914515Y-96687854D01*
X147951670Y-96754511D01*
X147998685Y-96813000D01*
X148055115Y-96862778D01*
X148119179Y-96901779D01*
X148191968Y-96930370D01*
X148274971Y-96948266D01*
X148369995Y-96954539D01*
X148476891Y-96948008D01*
X148580777Y-96928527D01*
X148682531Y-96896058D01*
X148786734Y-96849026D01*
X148786734Y-96458237D01*
X148456091Y-96458237D01*
X148456091Y-96540303D01*
X148566733Y-96540303D01*
X148566733Y-96819717D01*
X148528639Y-96842719D01*
X148486133Y-96859284D01*
X148440624Y-96869094D01*
X148390511Y-96872473D01*
X148337433Y-96867797D01*
X148292246Y-96854501D01*
X148253460Y-96833094D01*
X148220017Y-96803276D01*
X148191392Y-96763968D01*
X148166265Y-96710006D01*
X148146161Y-96638455D01*
X148132575Y-96545157D01*
X148127523Y-96425387D01*
X148132802Y-96304537D01*
X148146980Y-96210770D01*
X148167939Y-96139162D01*
X148194140Y-96085401D01*
X148223702Y-96046719D01*
X148258530Y-96017117D01*
X148299262Y-95995691D01*
X148347061Y-95982297D01*
X148403517Y-95977568D01*
X148462271Y-95981875D01*
X148511090Y-95993926D01*
X148551723Y-96012858D01*
X148585539Y-96038445D01*
X148621801Y-96083139D01*
X148652848Y-96147012D01*
X148677436Y-96235488D01*
X148755288Y-96235488D01*
X148755288Y-95997107D01*
X148942195Y-95997107D01*
X149059676Y-95997107D01*
X149059676Y-96852934D01*
X148942195Y-96852934D01*
X148942195Y-96935000D01*
X149263252Y-96935000D01*
X149263252Y-96852934D01*
X149146443Y-96852934D01*
X149146443Y-96197569D01*
X149708690Y-96935000D01*
X149869890Y-96935000D01*
X149869890Y-95997107D01*
X149987371Y-95997107D01*
X150096487Y-95997107D01*
X150213968Y-95997107D01*
X150213968Y-96852934D01*
X150096487Y-96852934D01*
X150096487Y-96935000D01*
X150567875Y-96935000D01*
X150668282Y-96928958D01*
X150754298Y-96911902D01*
X150828057Y-96885019D01*
X150891360Y-96848906D01*
X150945597Y-96803536D01*
X150990808Y-96749197D01*
X151026831Y-96685684D01*
X151053672Y-96611582D01*
X151070715Y-96525068D01*
X151076755Y-96423982D01*
X151070739Y-96323507D01*
X151053757Y-96237453D01*
X151027001Y-96163684D01*
X150991074Y-96100398D01*
X150945963Y-96046200D01*
X150891898Y-96000984D01*
X150828669Y-95964964D01*
X150754863Y-95938125D01*
X150668653Y-95921082D01*
X150567875Y-95915041D01*
X150096487Y-95915041D01*
X150096487Y-95997107D01*
X149987371Y-95997107D01*
X149987371Y-95915041D01*
X149666314Y-95915041D01*
X149666314Y-95997107D01*
X149783123Y-95997107D01*
X149783123Y-96637451D01*
X149229119Y-95915041D01*
X148942195Y-95915041D01*
X148942195Y-95997107D01*
X148755288Y-95997107D01*
X148755288Y-95985383D01*
X148658256Y-95945485D01*
X148563680Y-95917789D01*
X148467657Y-95901080D01*
X148369995Y-95895502D01*
X148274971Y-95901775D01*
X148191968Y-95919671D01*
X148119179Y-95948262D01*
X148055115Y-95987263D01*
X147998685Y-96037041D01*
X147951697Y-96095517D01*
X147914546Y-96162227D01*
X147887115Y-96238365D01*
X147869864Y-96325475D01*
X147863802Y-96425387D01*
X147752691Y-96425387D01*
X147752691Y-95784391D01*
X151187866Y-95784391D01*
X151187866Y-97065650D01*
G37*
G36*
X159005490Y-96004149D02*
G01*
X159062302Y-96023844D01*
X159108516Y-96055307D01*
X159145921Y-96099384D01*
X159172161Y-96150576D01*
X159193106Y-96218851D01*
X159207265Y-96308385D01*
X159212538Y-96423982D01*
X159207231Y-96540331D01*
X159192988Y-96630375D01*
X159171928Y-96698974D01*
X159145554Y-96750352D01*
X159107989Y-96794623D01*
X159061754Y-96826175D01*
X159005100Y-96845894D01*
X158935200Y-96852934D01*
X158849776Y-96852934D01*
X158849776Y-95997107D01*
X158935200Y-95997107D01*
X159005490Y-96004149D01*
G37*
G36*
X159586637Y-97065650D02*
G01*
X156151462Y-97065650D01*
X156151462Y-96425387D01*
X156262573Y-96425387D01*
X156268627Y-96524964D01*
X156285865Y-96611848D01*
X156313286Y-96687854D01*
X156350441Y-96754511D01*
X156397456Y-96813000D01*
X156453886Y-96862778D01*
X156517950Y-96901779D01*
X156590739Y-96930370D01*
X156673742Y-96948266D01*
X156768766Y-96954539D01*
X156875662Y-96948008D01*
X156979548Y-96928527D01*
X157081302Y-96896058D01*
X157185505Y-96849026D01*
X157185505Y-96458237D01*
X156854862Y-96458237D01*
X156854862Y-96540303D01*
X156965504Y-96540303D01*
X156965504Y-96819717D01*
X156927410Y-96842719D01*
X156884904Y-96859284D01*
X156839395Y-96869094D01*
X156789282Y-96872473D01*
X156736204Y-96867797D01*
X156691017Y-96854501D01*
X156652231Y-96833094D01*
X156618788Y-96803276D01*
X156590163Y-96763968D01*
X156565036Y-96710006D01*
X156544932Y-96638455D01*
X156531346Y-96545157D01*
X156526294Y-96425387D01*
X156531573Y-96304537D01*
X156545751Y-96210770D01*
X156566710Y-96139162D01*
X156592911Y-96085401D01*
X156622473Y-96046719D01*
X156657301Y-96017117D01*
X156698033Y-95995691D01*
X156745832Y-95982297D01*
X156802288Y-95977568D01*
X156861042Y-95981875D01*
X156909861Y-95993926D01*
X156950494Y-96012858D01*
X156984310Y-96038445D01*
X157020572Y-96083139D01*
X157051619Y-96147012D01*
X157076207Y-96235488D01*
X157154059Y-96235488D01*
X157154059Y-95997107D01*
X157340966Y-95997107D01*
X157458447Y-95997107D01*
X157458447Y-96852934D01*
X157340966Y-96852934D01*
X157340966Y-96935000D01*
X157662023Y-96935000D01*
X157662023Y-96852934D01*
X157545214Y-96852934D01*
X157545214Y-96197569D01*
X158107461Y-96935000D01*
X158268661Y-96935000D01*
X158268661Y-95997107D01*
X158386142Y-95997107D01*
X158495258Y-95997107D01*
X158612739Y-95997107D01*
X158612739Y-96852934D01*
X158495258Y-96852934D01*
X158495258Y-96935000D01*
X158966646Y-96935000D01*
X159067053Y-96928958D01*
X159153069Y-96911902D01*
X159226828Y-96885019D01*
X159290131Y-96848906D01*
X159344368Y-96803536D01*
X159389579Y-96749197D01*
X159425602Y-96685684D01*
X159452443Y-96611582D01*
X159469486Y-96525068D01*
X159475526Y-96423982D01*
X159469510Y-96323507D01*
X159452528Y-96237453D01*
X159425772Y-96163684D01*
X159389845Y-96100398D01*
X159344734Y-96046200D01*
X159290669Y-96000984D01*
X159227440Y-95964964D01*
X159153634Y-95938125D01*
X159067424Y-95921082D01*
X158966646Y-95915041D01*
X158495258Y-95915041D01*
X158495258Y-95997107D01*
X158386142Y-95997107D01*
X158386142Y-95915041D01*
X158065085Y-95915041D01*
X158065085Y-95997107D01*
X158181894Y-95997107D01*
X158181894Y-96637451D01*
X157627890Y-95915041D01*
X157340966Y-95915041D01*
X157340966Y-95997107D01*
X157154059Y-95997107D01*
X157154059Y-95985383D01*
X157057027Y-95945485D01*
X156962451Y-95917789D01*
X156866428Y-95901080D01*
X156768766Y-95895502D01*
X156673742Y-95901775D01*
X156590739Y-95919671D01*
X156517950Y-95948262D01*
X156453886Y-95987263D01*
X156397456Y-96037041D01*
X156350468Y-96095517D01*
X156313317Y-96162227D01*
X156285886Y-96238365D01*
X156268635Y-96325475D01*
X156262573Y-96425387D01*
X156151462Y-96425387D01*
X156151462Y-95784391D01*
X159586637Y-95784391D01*
X159586637Y-97065650D01*
G37*
G36*
X159005490Y-98544149D02*
G01*
X159062302Y-98563844D01*
X159108516Y-98595307D01*
X159145921Y-98639384D01*
X159172161Y-98690576D01*
X159193106Y-98758851D01*
X159207265Y-98848385D01*
X159212538Y-98963982D01*
X159207231Y-99080331D01*
X159192988Y-99170375D01*
X159171928Y-99238974D01*
X159145554Y-99290352D01*
X159107989Y-99334623D01*
X159061754Y-99366175D01*
X159005100Y-99385894D01*
X158935200Y-99392934D01*
X158849776Y-99392934D01*
X158849776Y-98537107D01*
X158935200Y-98537107D01*
X159005490Y-98544149D01*
G37*
G36*
X159586637Y-99605650D02*
G01*
X156151462Y-99605650D01*
X156151462Y-98965387D01*
X156262573Y-98965387D01*
X156268627Y-99064964D01*
X156285865Y-99151848D01*
X156313286Y-99227854D01*
X156350441Y-99294511D01*
X156397456Y-99353000D01*
X156453886Y-99402778D01*
X156517950Y-99441779D01*
X156590739Y-99470370D01*
X156673742Y-99488266D01*
X156768766Y-99494539D01*
X156875662Y-99488008D01*
X156979548Y-99468527D01*
X157081302Y-99436058D01*
X157185505Y-99389026D01*
X157185505Y-98998237D01*
X156854862Y-98998237D01*
X156854862Y-99080303D01*
X156965504Y-99080303D01*
X156965504Y-99359717D01*
X156927410Y-99382719D01*
X156884904Y-99399284D01*
X156839395Y-99409094D01*
X156789282Y-99412473D01*
X156736204Y-99407797D01*
X156691017Y-99394501D01*
X156652231Y-99373094D01*
X156618788Y-99343276D01*
X156590163Y-99303968D01*
X156565036Y-99250006D01*
X156544932Y-99178455D01*
X156531346Y-99085157D01*
X156526294Y-98965387D01*
X156531573Y-98844537D01*
X156545751Y-98750770D01*
X156566710Y-98679162D01*
X156592911Y-98625401D01*
X156622473Y-98586719D01*
X156657301Y-98557117D01*
X156698033Y-98535691D01*
X156745832Y-98522297D01*
X156802288Y-98517568D01*
X156861042Y-98521875D01*
X156909861Y-98533926D01*
X156950494Y-98552858D01*
X156984310Y-98578445D01*
X157020572Y-98623139D01*
X157051619Y-98687012D01*
X157076207Y-98775488D01*
X157154059Y-98775488D01*
X157154059Y-98537107D01*
X157340966Y-98537107D01*
X157458447Y-98537107D01*
X157458447Y-99392934D01*
X157340966Y-99392934D01*
X157340966Y-99475000D01*
X157662023Y-99475000D01*
X157662023Y-99392934D01*
X157545214Y-99392934D01*
X157545214Y-98737569D01*
X158107461Y-99475000D01*
X158268661Y-99475000D01*
X158268661Y-98537107D01*
X158386142Y-98537107D01*
X158495258Y-98537107D01*
X158612739Y-98537107D01*
X158612739Y-99392934D01*
X158495258Y-99392934D01*
X158495258Y-99475000D01*
X158966646Y-99475000D01*
X159067053Y-99468958D01*
X159153069Y-99451902D01*
X159226828Y-99425019D01*
X159290131Y-99388906D01*
X159344368Y-99343536D01*
X159389579Y-99289197D01*
X159425602Y-99225684D01*
X159452443Y-99151582D01*
X159469486Y-99065068D01*
X159475526Y-98963982D01*
X159469510Y-98863507D01*
X159452528Y-98777453D01*
X159425772Y-98703684D01*
X159389845Y-98640398D01*
X159344734Y-98586200D01*
X159290669Y-98540984D01*
X159227440Y-98504964D01*
X159153634Y-98478125D01*
X159067424Y-98461082D01*
X158966646Y-98455041D01*
X158495258Y-98455041D01*
X158495258Y-98537107D01*
X158386142Y-98537107D01*
X158386142Y-98455041D01*
X158065085Y-98455041D01*
X158065085Y-98537107D01*
X158181894Y-98537107D01*
X158181894Y-99177451D01*
X157627890Y-98455041D01*
X157340966Y-98455041D01*
X157340966Y-98537107D01*
X157154059Y-98537107D01*
X157154059Y-98525383D01*
X157057027Y-98485485D01*
X156962451Y-98457789D01*
X156866428Y-98441080D01*
X156768766Y-98435502D01*
X156673742Y-98441775D01*
X156590739Y-98459671D01*
X156517950Y-98488262D01*
X156453886Y-98527263D01*
X156397456Y-98577041D01*
X156350468Y-98635517D01*
X156313317Y-98702227D01*
X156285886Y-98778365D01*
X156268635Y-98865475D01*
X156262573Y-98965387D01*
X156151462Y-98965387D01*
X156151462Y-98324391D01*
X159586637Y-98324391D01*
X159586637Y-99605650D01*
G37*
G36*
X156840907Y-101001082D02*
G01*
X156927116Y-101018125D01*
X157000922Y-101044964D01*
X157064151Y-101080984D01*
X157118217Y-101126200D01*
X157163327Y-101180398D01*
X157199254Y-101243684D01*
X157226011Y-101317453D01*
X157242993Y-101403507D01*
X157249009Y-101503982D01*
X157242969Y-101605068D01*
X157225926Y-101691582D01*
X157199084Y-101765684D01*
X157163061Y-101829197D01*
X157117850Y-101883536D01*
X157063613Y-101928906D01*
X157000310Y-101965019D01*
X156926551Y-101991902D01*
X156840535Y-102008958D01*
X156740129Y-102015000D01*
X156268740Y-102015000D01*
X156268740Y-101932934D01*
X156386221Y-101932934D01*
X156623258Y-101932934D01*
X156708682Y-101932934D01*
X156778583Y-101925894D01*
X156835236Y-101906175D01*
X156881471Y-101874623D01*
X156919036Y-101830352D01*
X156945410Y-101778974D01*
X156966470Y-101710375D01*
X156980714Y-101620331D01*
X156986020Y-101503982D01*
X156980747Y-101388385D01*
X156966588Y-101298851D01*
X156945644Y-101230576D01*
X156919403Y-101179384D01*
X156881998Y-101135307D01*
X156835784Y-101103844D01*
X156778972Y-101084149D01*
X156708682Y-101077107D01*
X156623258Y-101077107D01*
X156623258Y-101932934D01*
X156386221Y-101932934D01*
X156386221Y-101077107D01*
X156268740Y-101077107D01*
X156268740Y-100995041D01*
X156740129Y-100995041D01*
X156840907Y-101001082D01*
G37*
G36*
X157475055Y-102015000D02*
G01*
X157475055Y-101932934D01*
X157647247Y-101932934D01*
X157647247Y-101106233D01*
X157455943Y-101232140D01*
X157455943Y-101130169D01*
X157686142Y-100975502D01*
X157880193Y-100975502D01*
X157880193Y-101932934D01*
X158052995Y-101932934D01*
X158052995Y-102015000D01*
X157475055Y-102015000D01*
G37*
G36*
X156840907Y-103541082D02*
G01*
X156927116Y-103558125D01*
X157000922Y-103584964D01*
X157064151Y-103620984D01*
X157118217Y-103666200D01*
X157163327Y-103720398D01*
X157199254Y-103783684D01*
X157226011Y-103857453D01*
X157242993Y-103943507D01*
X157249009Y-104043982D01*
X157242969Y-104145068D01*
X157225926Y-104231582D01*
X157199084Y-104305684D01*
X157163061Y-104369197D01*
X157117850Y-104423536D01*
X157063613Y-104468906D01*
X157000310Y-104505019D01*
X156926551Y-104531902D01*
X156840535Y-104548958D01*
X156740129Y-104555000D01*
X156268740Y-104555000D01*
X156268740Y-104472934D01*
X156386221Y-104472934D01*
X156623258Y-104472934D01*
X156708682Y-104472934D01*
X156778583Y-104465894D01*
X156835236Y-104446175D01*
X156881471Y-104414623D01*
X156919036Y-104370352D01*
X156945410Y-104318974D01*
X156966470Y-104250375D01*
X156980714Y-104160331D01*
X156986020Y-104043982D01*
X156980747Y-103928385D01*
X156966588Y-103838851D01*
X156945644Y-103770576D01*
X156919403Y-103719384D01*
X156881998Y-103675307D01*
X156835784Y-103643844D01*
X156778972Y-103624149D01*
X156708682Y-103617107D01*
X156623258Y-103617107D01*
X156623258Y-104472934D01*
X156386221Y-104472934D01*
X156386221Y-103617107D01*
X156268740Y-103617107D01*
X156268740Y-103535041D01*
X156740129Y-103535041D01*
X156840907Y-103541082D01*
G37*
G36*
X157410209Y-103562397D02*
G01*
X157491137Y-103541671D01*
X157567623Y-103527226D01*
X157643534Y-103518395D01*
X157716917Y-103515502D01*
X157801375Y-103520380D01*
X157870321Y-103533844D01*
X157926352Y-103554525D01*
X157971662Y-103581631D01*
X158010283Y-103617972D01*
X158037651Y-103660703D01*
X158054554Y-103711086D01*
X158060505Y-103771102D01*
X158054393Y-103830841D01*
X158037134Y-103880133D01*
X158009275Y-103921189D01*
X157971718Y-103954138D01*
X157922718Y-103980117D01*
X157859677Y-103998614D01*
X157919318Y-104013287D01*
X157967976Y-104033594D01*
X158007401Y-104058980D01*
X158038951Y-104089351D01*
X158063779Y-104125457D01*
X158082187Y-104168309D01*
X158093890Y-104219200D01*
X158098058Y-104279738D01*
X158091219Y-104349210D01*
X158071819Y-104407420D01*
X158040456Y-104456675D01*
X157996270Y-104498457D01*
X157944342Y-104529556D01*
X157879696Y-104553355D01*
X157799682Y-104568895D01*
X157701163Y-104574539D01*
X157628286Y-104571186D01*
X157551564Y-104560861D01*
X157473923Y-104544082D01*
X157390364Y-104519829D01*
X157390364Y-104297079D01*
X157464858Y-104297079D01*
X157474838Y-104360169D01*
X157493411Y-104408572D01*
X157519508Y-104445396D01*
X157554397Y-104473103D01*
X157597733Y-104490257D01*
X157652009Y-104496381D01*
X157711829Y-104489418D01*
X157759003Y-104469975D01*
X157796479Y-104438557D01*
X157823608Y-104397087D01*
X157841037Y-104343540D01*
X157847404Y-104274487D01*
X157840776Y-104202358D01*
X157822650Y-104146508D01*
X157794464Y-104103333D01*
X157766064Y-104077582D01*
X157732286Y-104058927D01*
X157692046Y-104047221D01*
X157643827Y-104043066D01*
X157602855Y-104043066D01*
X157602855Y-103961001D01*
X157634912Y-103961001D01*
X157693212Y-103955119D01*
X157737298Y-103939116D01*
X157770528Y-103914167D01*
X157794609Y-103880107D01*
X157810199Y-103834625D01*
X157815957Y-103774216D01*
X157810605Y-103717385D01*
X157795995Y-103673698D01*
X157773276Y-103640188D01*
X157741954Y-103615063D01*
X157701957Y-103599336D01*
X157650666Y-103593660D01*
X157604250Y-103598905D01*
X157566647Y-103613685D01*
X157535872Y-103637684D01*
X157512430Y-103669503D01*
X157495085Y-103711291D01*
X157484642Y-103765607D01*
X157410209Y-103765607D01*
X157410209Y-103562397D01*
G37*
G36*
X156840907Y-106081082D02*
G01*
X156927116Y-106098125D01*
X157000922Y-106124964D01*
X157064151Y-106160984D01*
X157118217Y-106206200D01*
X157163327Y-106260398D01*
X157199254Y-106323684D01*
X157226011Y-106397453D01*
X157242993Y-106483507D01*
X157249009Y-106583982D01*
X157242969Y-106685068D01*
X157225926Y-106771582D01*
X157199084Y-106845684D01*
X157163061Y-106909197D01*
X157117850Y-106963536D01*
X157063613Y-107008906D01*
X157000310Y-107045019D01*
X156926551Y-107071902D01*
X156840535Y-107088958D01*
X156740129Y-107095000D01*
X156268740Y-107095000D01*
X156268740Y-107012934D01*
X156386221Y-107012934D01*
X156623258Y-107012934D01*
X156708682Y-107012934D01*
X156778583Y-107005894D01*
X156835236Y-106986175D01*
X156881471Y-106954623D01*
X156919036Y-106910352D01*
X156945410Y-106858974D01*
X156966470Y-106790375D01*
X156980714Y-106700331D01*
X156986020Y-106583982D01*
X156980747Y-106468385D01*
X156966588Y-106378851D01*
X156945644Y-106310576D01*
X156919403Y-106259384D01*
X156881998Y-106215307D01*
X156835784Y-106183844D01*
X156778972Y-106164149D01*
X156708682Y-106157107D01*
X156623258Y-106157107D01*
X156623258Y-107012934D01*
X156386221Y-107012934D01*
X156386221Y-106157107D01*
X156268740Y-106157107D01*
X156268740Y-106075041D01*
X156740129Y-106075041D01*
X156840907Y-106081082D01*
G37*
G36*
X158012695Y-106075041D02*
G01*
X158012695Y-106254804D01*
X157520851Y-106254804D01*
X157520851Y-106479202D01*
X157564178Y-106447849D01*
X157611709Y-106425408D01*
X157662694Y-106411806D01*
X157716917Y-106407212D01*
X157800994Y-106413791D01*
X157872227Y-106432390D01*
X157932879Y-106461999D01*
X157984668Y-106502588D01*
X158026787Y-106553149D01*
X158057275Y-106612039D01*
X158076320Y-106680890D01*
X158083037Y-106761913D01*
X158076241Y-106844475D01*
X158057079Y-106913757D01*
X158026586Y-106972199D01*
X157984668Y-107021605D01*
X157933100Y-107060754D01*
X157871455Y-107089648D01*
X157797727Y-107107994D01*
X157709345Y-107114539D01*
X157634511Y-107111198D01*
X157560113Y-107101167D01*
X157485610Y-107084508D01*
X157405385Y-107059829D01*
X157405385Y-106837079D01*
X157479207Y-106837079D01*
X157487241Y-106902916D01*
X157503562Y-106951615D01*
X157526652Y-106987105D01*
X157558744Y-107013644D01*
X157600451Y-107030326D01*
X157654757Y-107036381D01*
X157698498Y-107031836D01*
X157734386Y-107019021D01*
X157764105Y-106998343D01*
X157788663Y-106969092D01*
X157811104Y-106921933D01*
X157826509Y-106855446D01*
X157832383Y-106763745D01*
X157826665Y-106673408D01*
X157811637Y-106607525D01*
X157789701Y-106560474D01*
X157765625Y-106531054D01*
X157736747Y-106510400D01*
X157702152Y-106497678D01*
X157660252Y-106493185D01*
X157615207Y-106498700D01*
X157576538Y-106514678D01*
X157542425Y-106540962D01*
X157508578Y-106581235D01*
X157447090Y-106581235D01*
X157447090Y-106075041D01*
X158012695Y-106075041D01*
G37*
G36*
X159005490Y-108704149D02*
G01*
X159062302Y-108723844D01*
X159108516Y-108755307D01*
X159145921Y-108799384D01*
X159172161Y-108850576D01*
X159193106Y-108918851D01*
X159207265Y-109008385D01*
X159212538Y-109123982D01*
X159207231Y-109240331D01*
X159192988Y-109330375D01*
X159171928Y-109398974D01*
X159145554Y-109450352D01*
X159107989Y-109494623D01*
X159061754Y-109526175D01*
X159005100Y-109545894D01*
X158935200Y-109552934D01*
X158849776Y-109552934D01*
X158849776Y-108697107D01*
X158935200Y-108697107D01*
X159005490Y-108704149D01*
G37*
G36*
X159586637Y-109765650D02*
G01*
X156151462Y-109765650D01*
X156151462Y-109125387D01*
X156262573Y-109125387D01*
X156268627Y-109224964D01*
X156285865Y-109311848D01*
X156313286Y-109387854D01*
X156350441Y-109454511D01*
X156397456Y-109513000D01*
X156453886Y-109562778D01*
X156517950Y-109601779D01*
X156590739Y-109630370D01*
X156673742Y-109648266D01*
X156768766Y-109654539D01*
X156875662Y-109648008D01*
X156979548Y-109628527D01*
X157081302Y-109596058D01*
X157185505Y-109549026D01*
X157185505Y-109158237D01*
X156854862Y-109158237D01*
X156854862Y-109240303D01*
X156965504Y-109240303D01*
X156965504Y-109519717D01*
X156927410Y-109542719D01*
X156884904Y-109559284D01*
X156839395Y-109569094D01*
X156789282Y-109572473D01*
X156736204Y-109567797D01*
X156691017Y-109554501D01*
X156652231Y-109533094D01*
X156618788Y-109503276D01*
X156590163Y-109463968D01*
X156565036Y-109410006D01*
X156544932Y-109338455D01*
X156531346Y-109245157D01*
X156526294Y-109125387D01*
X156531573Y-109004537D01*
X156545751Y-108910770D01*
X156566710Y-108839162D01*
X156592911Y-108785401D01*
X156622473Y-108746719D01*
X156657301Y-108717117D01*
X156698033Y-108695691D01*
X156745832Y-108682297D01*
X156802288Y-108677568D01*
X156861042Y-108681875D01*
X156909861Y-108693926D01*
X156950494Y-108712858D01*
X156984310Y-108738445D01*
X157020572Y-108783139D01*
X157051619Y-108847012D01*
X157076207Y-108935488D01*
X157154059Y-108935488D01*
X157154059Y-108697107D01*
X157340966Y-108697107D01*
X157458447Y-108697107D01*
X157458447Y-109552934D01*
X157340966Y-109552934D01*
X157340966Y-109635000D01*
X157662023Y-109635000D01*
X157662023Y-109552934D01*
X157545214Y-109552934D01*
X157545214Y-108897569D01*
X158107461Y-109635000D01*
X158268661Y-109635000D01*
X158268661Y-108697107D01*
X158386142Y-108697107D01*
X158495258Y-108697107D01*
X158612739Y-108697107D01*
X158612739Y-109552934D01*
X158495258Y-109552934D01*
X158495258Y-109635000D01*
X158966646Y-109635000D01*
X159067053Y-109628958D01*
X159153069Y-109611902D01*
X159226828Y-109585019D01*
X159290131Y-109548906D01*
X159344368Y-109503536D01*
X159389579Y-109449197D01*
X159425602Y-109385684D01*
X159452443Y-109311582D01*
X159469486Y-109225068D01*
X159475526Y-109123982D01*
X159469510Y-109023507D01*
X159452528Y-108937453D01*
X159425772Y-108863684D01*
X159389845Y-108800398D01*
X159344734Y-108746200D01*
X159290669Y-108700984D01*
X159227440Y-108664964D01*
X159153634Y-108638125D01*
X159067424Y-108621082D01*
X158966646Y-108615041D01*
X158495258Y-108615041D01*
X158495258Y-108697107D01*
X158386142Y-108697107D01*
X158386142Y-108615041D01*
X158065085Y-108615041D01*
X158065085Y-108697107D01*
X158181894Y-108697107D01*
X158181894Y-109337451D01*
X157627890Y-108615041D01*
X157340966Y-108615041D01*
X157340966Y-108697107D01*
X157154059Y-108697107D01*
X157154059Y-108685383D01*
X157057027Y-108645485D01*
X156962451Y-108617789D01*
X156866428Y-108601080D01*
X156768766Y-108595502D01*
X156673742Y-108601775D01*
X156590739Y-108619671D01*
X156517950Y-108648262D01*
X156453886Y-108687263D01*
X156397456Y-108737041D01*
X156350468Y-108795517D01*
X156313317Y-108862227D01*
X156285886Y-108938365D01*
X156268635Y-109025475D01*
X156262573Y-109125387D01*
X156151462Y-109125387D01*
X156151462Y-108484391D01*
X159586637Y-108484391D01*
X159586637Y-109765650D01*
G37*
G36*
X156840907Y-111161082D02*
G01*
X156927116Y-111178125D01*
X157000922Y-111204964D01*
X157064151Y-111240984D01*
X157118217Y-111286200D01*
X157163327Y-111340398D01*
X157199254Y-111403684D01*
X157226011Y-111477453D01*
X157242993Y-111563507D01*
X157249009Y-111663982D01*
X157242969Y-111765068D01*
X157225926Y-111851582D01*
X157199084Y-111925684D01*
X157163061Y-111989197D01*
X157117850Y-112043536D01*
X157063613Y-112088906D01*
X157000310Y-112125019D01*
X156926551Y-112151902D01*
X156840535Y-112168958D01*
X156740129Y-112175000D01*
X156268740Y-112175000D01*
X156268740Y-112092934D01*
X156386221Y-112092934D01*
X156623258Y-112092934D01*
X156708682Y-112092934D01*
X156778583Y-112085894D01*
X156835236Y-112066175D01*
X156881471Y-112034623D01*
X156919036Y-111990352D01*
X156945410Y-111938974D01*
X156966470Y-111870375D01*
X156980714Y-111780331D01*
X156986020Y-111663982D01*
X156980747Y-111548385D01*
X156966588Y-111458851D01*
X156945644Y-111390576D01*
X156919403Y-111339384D01*
X156881998Y-111295307D01*
X156835784Y-111263844D01*
X156778972Y-111244149D01*
X156708682Y-111237107D01*
X156623258Y-111237107D01*
X156623258Y-112092934D01*
X156386221Y-112092934D01*
X156386221Y-111237107D01*
X156268740Y-111237107D01*
X156268740Y-111155041D01*
X156740129Y-111155041D01*
X156840907Y-111161082D01*
G37*
G36*
X158074183Y-111328576D02*
G01*
X157695057Y-112175000D01*
X157570066Y-112175000D01*
X157938934Y-111346528D01*
X157485985Y-111346528D01*
X157485985Y-111483304D01*
X157401966Y-111483304D01*
X157401966Y-111155041D01*
X158074183Y-111155041D01*
X158074183Y-111328576D01*
G37*
G36*
X157114431Y-114632934D02*
G01*
X157201870Y-114632934D01*
X157201870Y-114715000D01*
X156772185Y-114715000D01*
X156772185Y-114632934D01*
X156861700Y-114632934D01*
X156785863Y-114421908D01*
X156441542Y-114421908D01*
X156364361Y-114632934D01*
X156473660Y-114632934D01*
X156473660Y-114715000D01*
X156201085Y-114715000D01*
X156201085Y-114632934D01*
X156275579Y-114632934D01*
X156383599Y-114339842D01*
X156471645Y-114339842D01*
X156755821Y-114339842D01*
X156614405Y-113950642D01*
X156471645Y-114339842D01*
X156383599Y-114339842D01*
X156621243Y-113695041D01*
X156768094Y-113695041D01*
X157114431Y-114632934D01*
G37*
G36*
X157359773Y-114715000D02*
G01*
X157359773Y-114632934D01*
X157531964Y-114632934D01*
X157531964Y-113806233D01*
X157340661Y-113932140D01*
X157340661Y-113830169D01*
X157570860Y-113675502D01*
X157764911Y-113675502D01*
X157764911Y-114632934D01*
X157937712Y-114632934D01*
X157937712Y-114715000D01*
X157359773Y-114715000D01*
G37*
G36*
X158730036Y-114359382D02*
G01*
X158887817Y-114359382D01*
X158887817Y-114449263D01*
X158730036Y-114449263D01*
X158730036Y-114632934D01*
X158866690Y-114632934D01*
X158866690Y-114715000D01*
X158361168Y-114715000D01*
X158361168Y-114632934D01*
X158497761Y-114632934D01*
X158497761Y-114449263D01*
X158115216Y-114449263D01*
X158115216Y-114370312D01*
X158121256Y-114359382D01*
X158224515Y-114359382D01*
X158497761Y-114359382D01*
X158497761Y-113862592D01*
X158224515Y-114359382D01*
X158121256Y-114359382D01*
X158499166Y-113675502D01*
X158730036Y-113675502D01*
X158730036Y-114359382D01*
G37*
G36*
X157114431Y-117172934D02*
G01*
X157201870Y-117172934D01*
X157201870Y-117255000D01*
X156772185Y-117255000D01*
X156772185Y-117172934D01*
X156861700Y-117172934D01*
X156785863Y-116961908D01*
X156441542Y-116961908D01*
X156364361Y-117172934D01*
X156473660Y-117172934D01*
X156473660Y-117255000D01*
X156201085Y-117255000D01*
X156201085Y-117172934D01*
X156275579Y-117172934D01*
X156383599Y-116879842D01*
X156471645Y-116879842D01*
X156755821Y-116879842D01*
X156614405Y-116490642D01*
X156471645Y-116879842D01*
X156383599Y-116879842D01*
X156621243Y-116235041D01*
X156768094Y-116235041D01*
X157114431Y-117172934D01*
G37*
G36*
X157359773Y-117255000D02*
G01*
X157359773Y-117172934D01*
X157531964Y-117172934D01*
X157531964Y-116346233D01*
X157340661Y-116472140D01*
X157340661Y-116370169D01*
X157570860Y-116215502D01*
X157764911Y-116215502D01*
X157764911Y-117172934D01*
X157937712Y-117172934D01*
X157937712Y-117255000D01*
X157359773Y-117255000D01*
G37*
G36*
X158574091Y-116221381D02*
G01*
X158636830Y-116238199D01*
X158691746Y-116265336D01*
X158740091Y-116303015D01*
X158782609Y-116352278D01*
X158815246Y-116406624D01*
X158842033Y-116471316D01*
X158862447Y-116548020D01*
X158875605Y-116638659D01*
X158880307Y-116745387D01*
X158875603Y-116852104D01*
X158862440Y-116942693D01*
X158842023Y-117019314D01*
X158815238Y-117083903D01*
X158782609Y-117138129D01*
X158740111Y-117187242D01*
X158691777Y-117224819D01*
X158636862Y-117251891D01*
X158574112Y-117268672D01*
X158501852Y-117274539D01*
X158429299Y-117268667D01*
X158366303Y-117251875D01*
X158311186Y-117224792D01*
X158262688Y-117187217D01*
X158220057Y-117138129D01*
X158187318Y-117083886D01*
X158160448Y-117019288D01*
X158139972Y-116942666D01*
X158126771Y-116852086D01*
X158122055Y-116745387D01*
X158373442Y-116745387D01*
X158377934Y-116952616D01*
X158388329Y-117066955D01*
X158400736Y-117121582D01*
X158418130Y-117155467D01*
X158440256Y-117178095D01*
X158467595Y-117191623D01*
X158501852Y-117196381D01*
X158536141Y-117191620D01*
X158563487Y-117178089D01*
X158585601Y-117155462D01*
X158602969Y-117121582D01*
X158615403Y-117066954D01*
X158625821Y-116952616D01*
X158630324Y-116745387D01*
X158625847Y-116539723D01*
X158615449Y-116425272D01*
X158602969Y-116369863D01*
X158585526Y-116335239D01*
X158563364Y-116312204D01*
X158536039Y-116298479D01*
X158501852Y-116293660D01*
X158467600Y-116298421D01*
X158440261Y-116311957D01*
X158418134Y-116334602D01*
X158400736Y-116368520D01*
X158388335Y-116423128D01*
X158377938Y-116537629D01*
X158373442Y-116745387D01*
X158122055Y-116745387D01*
X158126769Y-116638677D01*
X158139964Y-116548046D01*
X158160438Y-116471343D01*
X158187310Y-116406641D01*
X158220057Y-116352278D01*
X158262708Y-116303040D01*
X158311217Y-116265363D01*
X158366334Y-116238215D01*
X158429320Y-116221386D01*
X158501852Y-116215502D01*
X158574091Y-116221381D01*
G37*
G36*
X157114431Y-119712934D02*
G01*
X157201870Y-119712934D01*
X157201870Y-119795000D01*
X156772185Y-119795000D01*
X156772185Y-119712934D01*
X156861700Y-119712934D01*
X156785863Y-119501908D01*
X156441542Y-119501908D01*
X156364361Y-119712934D01*
X156473660Y-119712934D01*
X156473660Y-119795000D01*
X156201085Y-119795000D01*
X156201085Y-119712934D01*
X156275579Y-119712934D01*
X156383599Y-119419842D01*
X156471645Y-119419842D01*
X156755821Y-119419842D01*
X156614405Y-119030642D01*
X156471645Y-119419842D01*
X156383599Y-119419842D01*
X156621243Y-118775041D01*
X156768094Y-118775041D01*
X157114431Y-119712934D01*
G37*
G36*
X157708563Y-118760543D02*
G01*
X157777217Y-118774446D01*
X157832822Y-118795800D01*
X157877629Y-118823829D01*
X157915298Y-118861092D01*
X157942285Y-118905464D01*
X157959108Y-118958379D01*
X157965068Y-119021971D01*
X157959358Y-119079421D01*
X157943145Y-119127635D01*
X157916891Y-119168517D01*
X157881307Y-119201926D01*
X157834021Y-119229506D01*
X157772421Y-119250826D01*
X157841951Y-119270601D01*
X157896461Y-119300592D01*
X157938750Y-119340464D01*
X157969564Y-119389872D01*
X157988889Y-119449844D01*
X157995781Y-119523096D01*
X157989291Y-119592073D01*
X157970934Y-119649717D01*
X157941424Y-119698292D01*
X157900160Y-119739312D01*
X157851113Y-119770227D01*
X157790448Y-119793732D01*
X157715760Y-119809007D01*
X157624166Y-119814539D01*
X157532621Y-119809013D01*
X157457881Y-119793747D01*
X157397091Y-119770242D01*
X157347866Y-119739312D01*
X157306426Y-119698269D01*
X157276806Y-119649684D01*
X157258389Y-119592048D01*
X157251878Y-119523096D01*
X157252935Y-119511922D01*
X157497098Y-119511922D01*
X157501239Y-119597793D01*
X157511538Y-119653611D01*
X157525430Y-119687838D01*
X157548168Y-119714147D01*
X157580005Y-119730416D01*
X157624166Y-119736381D01*
X157667885Y-119730444D01*
X157699640Y-119714195D01*
X157722534Y-119687838D01*
X157736613Y-119653586D01*
X157747041Y-119597767D01*
X157751233Y-119511922D01*
X157747033Y-119426987D01*
X157736601Y-119371977D01*
X157722534Y-119338387D01*
X157699725Y-119312659D01*
X157667983Y-119296722D01*
X157624166Y-119290882D01*
X157579425Y-119296780D01*
X157547524Y-119312760D01*
X157525064Y-119338387D01*
X157511371Y-119371926D01*
X157501197Y-119426934D01*
X157497098Y-119511922D01*
X157252935Y-119511922D01*
X157258803Y-119449865D01*
X157278225Y-119389894D01*
X157309214Y-119340464D01*
X157351704Y-119300540D01*
X157406145Y-119270562D01*
X157475239Y-119250826D01*
X157413597Y-119229504D01*
X157366293Y-119201923D01*
X157330708Y-119168517D01*
X157304489Y-119127639D01*
X157288295Y-119079425D01*
X157282816Y-119024230D01*
X157521034Y-119024230D01*
X157524399Y-119097165D01*
X157532726Y-119144108D01*
X157543871Y-119172486D01*
X157562318Y-119194326D01*
X157588203Y-119207792D01*
X157624166Y-119212725D01*
X157660125Y-119207791D01*
X157685988Y-119194324D01*
X157704399Y-119172486D01*
X157715575Y-119144104D01*
X157723924Y-119097161D01*
X157727297Y-119024230D01*
X157723880Y-118950875D01*
X157715406Y-118903463D01*
X157704033Y-118874631D01*
X157685372Y-118852291D01*
X157659579Y-118838630D01*
X157624166Y-118833660D01*
X157588273Y-118838660D01*
X157562377Y-118852344D01*
X157543871Y-118874631D01*
X157532714Y-118903436D01*
X157524391Y-118950847D01*
X157521034Y-119024230D01*
X157282816Y-119024230D01*
X157282592Y-119021971D01*
X157288552Y-118958379D01*
X157305375Y-118905464D01*
X157332362Y-118861092D01*
X157370031Y-118823829D01*
X157414830Y-118795822D01*
X157470522Y-118774466D01*
X157539392Y-118760551D01*
X157624166Y-118755502D01*
X157708563Y-118760543D01*
G37*
G36*
X159005490Y-121404149D02*
G01*
X159062302Y-121423844D01*
X159108516Y-121455307D01*
X159145921Y-121499384D01*
X159172161Y-121550576D01*
X159193106Y-121618851D01*
X159207265Y-121708385D01*
X159212538Y-121823982D01*
X159207231Y-121940331D01*
X159192988Y-122030375D01*
X159171928Y-122098974D01*
X159145554Y-122150352D01*
X159107989Y-122194623D01*
X159061754Y-122226175D01*
X159005100Y-122245894D01*
X158935200Y-122252934D01*
X158849776Y-122252934D01*
X158849776Y-121397107D01*
X158935200Y-121397107D01*
X159005490Y-121404149D01*
G37*
G36*
X159586637Y-122465650D02*
G01*
X156151462Y-122465650D01*
X156151462Y-121825387D01*
X156262573Y-121825387D01*
X156268627Y-121924964D01*
X156285865Y-122011848D01*
X156313286Y-122087854D01*
X156350441Y-122154511D01*
X156397456Y-122213000D01*
X156453886Y-122262778D01*
X156517950Y-122301779D01*
X156590739Y-122330370D01*
X156673742Y-122348266D01*
X156768766Y-122354539D01*
X156875662Y-122348008D01*
X156979548Y-122328527D01*
X157081302Y-122296058D01*
X157185505Y-122249026D01*
X157185505Y-121858237D01*
X156854862Y-121858237D01*
X156854862Y-121940303D01*
X156965504Y-121940303D01*
X156965504Y-122219717D01*
X156927410Y-122242719D01*
X156884904Y-122259284D01*
X156839395Y-122269094D01*
X156789282Y-122272473D01*
X156736204Y-122267797D01*
X156691017Y-122254501D01*
X156652231Y-122233094D01*
X156618788Y-122203276D01*
X156590163Y-122163968D01*
X156565036Y-122110006D01*
X156544932Y-122038455D01*
X156531346Y-121945157D01*
X156526294Y-121825387D01*
X156531573Y-121704537D01*
X156545751Y-121610770D01*
X156566710Y-121539162D01*
X156592911Y-121485401D01*
X156622473Y-121446719D01*
X156657301Y-121417117D01*
X156698033Y-121395691D01*
X156745832Y-121382297D01*
X156802288Y-121377568D01*
X156861042Y-121381875D01*
X156909861Y-121393926D01*
X156950494Y-121412858D01*
X156984310Y-121438445D01*
X157020572Y-121483139D01*
X157051619Y-121547012D01*
X157076207Y-121635488D01*
X157154059Y-121635488D01*
X157154059Y-121397107D01*
X157340966Y-121397107D01*
X157458447Y-121397107D01*
X157458447Y-122252934D01*
X157340966Y-122252934D01*
X157340966Y-122335000D01*
X157662023Y-122335000D01*
X157662023Y-122252934D01*
X157545214Y-122252934D01*
X157545214Y-121597569D01*
X158107461Y-122335000D01*
X158268661Y-122335000D01*
X158268661Y-121397107D01*
X158386142Y-121397107D01*
X158495258Y-121397107D01*
X158612739Y-121397107D01*
X158612739Y-122252934D01*
X158495258Y-122252934D01*
X158495258Y-122335000D01*
X158966646Y-122335000D01*
X159067053Y-122328958D01*
X159153069Y-122311902D01*
X159226828Y-122285019D01*
X159290131Y-122248906D01*
X159344368Y-122203536D01*
X159389579Y-122149197D01*
X159425602Y-122085684D01*
X159452443Y-122011582D01*
X159469486Y-121925068D01*
X159475526Y-121823982D01*
X159469510Y-121723507D01*
X159452528Y-121637453D01*
X159425772Y-121563684D01*
X159389845Y-121500398D01*
X159344734Y-121446200D01*
X159290669Y-121400984D01*
X159227440Y-121364964D01*
X159153634Y-121338125D01*
X159067424Y-121321082D01*
X158966646Y-121315041D01*
X158495258Y-121315041D01*
X158495258Y-121397107D01*
X158386142Y-121397107D01*
X158386142Y-121315041D01*
X158065085Y-121315041D01*
X158065085Y-121397107D01*
X158181894Y-121397107D01*
X158181894Y-122037451D01*
X157627890Y-121315041D01*
X157340966Y-121315041D01*
X157340966Y-121397107D01*
X157154059Y-121397107D01*
X157154059Y-121385383D01*
X157057027Y-121345485D01*
X156962451Y-121317789D01*
X156866428Y-121301080D01*
X156768766Y-121295502D01*
X156673742Y-121301775D01*
X156590739Y-121319671D01*
X156517950Y-121348262D01*
X156453886Y-121387263D01*
X156397456Y-121437041D01*
X156350468Y-121495517D01*
X156313317Y-121562227D01*
X156285886Y-121638365D01*
X156268635Y-121725475D01*
X156262573Y-121825387D01*
X156151462Y-121825387D01*
X156151462Y-121184391D01*
X159586637Y-121184391D01*
X159586637Y-122465650D01*
G37*
G36*
X157114431Y-124792934D02*
G01*
X157201870Y-124792934D01*
X157201870Y-124875000D01*
X156772185Y-124875000D01*
X156772185Y-124792934D01*
X156861700Y-124792934D01*
X156785863Y-124581908D01*
X156441542Y-124581908D01*
X156364361Y-124792934D01*
X156473660Y-124792934D01*
X156473660Y-124875000D01*
X156201085Y-124875000D01*
X156201085Y-124792934D01*
X156275579Y-124792934D01*
X156383599Y-124499842D01*
X156471645Y-124499842D01*
X156755821Y-124499842D01*
X156614405Y-124110642D01*
X156471645Y-124499842D01*
X156383599Y-124499842D01*
X156621243Y-123855041D01*
X156768094Y-123855041D01*
X157114431Y-124792934D01*
G37*
G36*
X157749336Y-123837853D02*
G01*
X157811683Y-123845272D01*
X157875755Y-123857176D01*
X157947299Y-123874581D01*
X157947299Y-124054344D01*
X157872805Y-124054344D01*
X157858967Y-124010121D01*
X157839619Y-123975732D01*
X157815041Y-123949380D01*
X157784789Y-123929993D01*
X157748549Y-123917934D01*
X157704766Y-123913660D01*
X157651936Y-123919357D01*
X157609238Y-123935350D01*
X157574433Y-123961133D01*
X157546252Y-123997740D01*
X157527146Y-124039410D01*
X157511656Y-124096156D01*
X157501068Y-124171797D01*
X157497098Y-124270682D01*
X157539283Y-124239231D01*
X157586247Y-124216887D01*
X157637262Y-124203531D01*
X157693836Y-124198935D01*
X157763290Y-124205137D01*
X157822132Y-124222743D01*
X157872390Y-124251065D01*
X157915486Y-124290526D01*
X157949265Y-124338156D01*
X157974258Y-124394715D01*
X157990129Y-124461931D01*
X157995781Y-124541974D01*
X157989395Y-124626191D01*
X157971520Y-124696094D01*
X157943385Y-124754253D01*
X157905228Y-124802643D01*
X157857403Y-124841462D01*
X157800003Y-124869994D01*
X157731086Y-124888083D01*
X157648101Y-124894539D01*
X157573048Y-124888952D01*
X157508600Y-124873088D01*
X157452987Y-124847769D01*
X157404820Y-124813084D01*
X157363192Y-124768387D01*
X157330829Y-124718019D01*
X157304272Y-124657570D01*
X157284008Y-124585358D01*
X157278423Y-124548691D01*
X157516943Y-124548691D01*
X157520860Y-124648601D01*
X157530672Y-124714888D01*
X157543932Y-124756481D01*
X157566466Y-124790328D01*
X157595686Y-124809662D01*
X157633752Y-124816381D01*
X157672261Y-124809636D01*
X157701684Y-124790275D01*
X157724244Y-124756481D01*
X157737504Y-124714888D01*
X157747316Y-124648601D01*
X157751233Y-124548691D01*
X157747316Y-124448781D01*
X157737504Y-124382494D01*
X157724244Y-124340901D01*
X157701684Y-124307107D01*
X157672261Y-124287746D01*
X157633752Y-124281001D01*
X157595686Y-124287720D01*
X157566466Y-124307054D01*
X157543932Y-124340901D01*
X157530672Y-124382494D01*
X157520860Y-124448781D01*
X157516943Y-124548691D01*
X157278423Y-124548691D01*
X157270917Y-124499410D01*
X157266228Y-124397505D01*
X157271463Y-124281382D01*
X157286053Y-124183750D01*
X157308586Y-124102024D01*
X157338037Y-124033900D01*
X157373817Y-123977407D01*
X157420043Y-123927188D01*
X157473776Y-123888191D01*
X157536063Y-123859691D01*
X157608509Y-123841809D01*
X157693164Y-123835502D01*
X157749336Y-123837853D01*
G37*
G36*
X157114431Y-127332934D02*
G01*
X157201870Y-127332934D01*
X157201870Y-127415000D01*
X156772185Y-127415000D01*
X156772185Y-127332934D01*
X156861700Y-127332934D01*
X156785863Y-127121908D01*
X156441542Y-127121908D01*
X156364361Y-127332934D01*
X156473660Y-127332934D01*
X156473660Y-127415000D01*
X156201085Y-127415000D01*
X156201085Y-127332934D01*
X156275579Y-127332934D01*
X156383599Y-127039842D01*
X156471645Y-127039842D01*
X156755821Y-127039842D01*
X156614405Y-126650642D01*
X156471645Y-127039842D01*
X156383599Y-127039842D01*
X156621243Y-126395041D01*
X156768094Y-126395041D01*
X157114431Y-127332934D01*
G37*
G36*
X157853693Y-127059382D02*
G01*
X158011474Y-127059382D01*
X158011474Y-127149263D01*
X157853693Y-127149263D01*
X157853693Y-127332934D01*
X157990347Y-127332934D01*
X157990347Y-127415000D01*
X157484825Y-127415000D01*
X157484825Y-127332934D01*
X157621418Y-127332934D01*
X157621418Y-127149263D01*
X157238872Y-127149263D01*
X157238872Y-127070312D01*
X157244912Y-127059382D01*
X157348171Y-127059382D01*
X157621418Y-127059382D01*
X157621418Y-126562592D01*
X157348171Y-127059382D01*
X157244912Y-127059382D01*
X157622822Y-126375502D01*
X157853693Y-126375502D01*
X157853693Y-127059382D01*
G37*
G36*
X157114431Y-129872934D02*
G01*
X157201870Y-129872934D01*
X157201870Y-129955000D01*
X156772185Y-129955000D01*
X156772185Y-129872934D01*
X156861700Y-129872934D01*
X156785863Y-129661908D01*
X156441542Y-129661908D01*
X156364361Y-129872934D01*
X156473660Y-129872934D01*
X156473660Y-129955000D01*
X156201085Y-129955000D01*
X156201085Y-129872934D01*
X156275579Y-129872934D01*
X156383599Y-129579842D01*
X156471645Y-129579842D01*
X156755821Y-129579842D01*
X156614405Y-129190642D01*
X156471645Y-129579842D01*
X156383599Y-129579842D01*
X156621243Y-128935041D01*
X156768094Y-128935041D01*
X157114431Y-129872934D01*
G37*
G36*
X157352995Y-129185146D02*
G01*
X157279173Y-129185146D01*
X157279173Y-128966304D01*
X157354471Y-128943931D01*
X157427733Y-128928203D01*
X157501543Y-128918683D01*
X157576355Y-128915502D01*
X157664501Y-128921203D01*
X157737791Y-128937106D01*
X157798693Y-128961905D01*
X157849235Y-128995003D01*
X157891753Y-129038161D01*
X157922015Y-129088403D01*
X157940724Y-129147137D01*
X157947299Y-129216470D01*
X157941174Y-129282184D01*
X157923208Y-129342173D01*
X157893321Y-129397698D01*
X157852909Y-129447593D01*
X157786826Y-129510041D01*
X157686997Y-129587780D01*
X157430847Y-129775237D01*
X157865966Y-129775237D01*
X157865966Y-129654092D01*
X157949986Y-129654092D01*
X157949986Y-129955000D01*
X157270990Y-129955000D01*
X157270990Y-129787388D01*
X157406912Y-129682302D01*
X157520890Y-129588041D01*
X157594892Y-129513531D01*
X157638820Y-129455034D01*
X157670433Y-129390301D01*
X157689852Y-129317851D01*
X157696584Y-129236010D01*
X157690850Y-129157925D01*
X157675508Y-129099233D01*
X157652498Y-129055636D01*
X157628128Y-129028645D01*
X157599333Y-129009573D01*
X157565242Y-128997806D01*
X157524453Y-128993660D01*
X157478379Y-128999374D01*
X157440292Y-129015700D01*
X157408316Y-129042752D01*
X157384045Y-129077881D01*
X157365295Y-129124394D01*
X157352995Y-129185146D01*
G37*
G36*
X157114431Y-132412934D02*
G01*
X157201870Y-132412934D01*
X157201870Y-132495000D01*
X156772185Y-132495000D01*
X156772185Y-132412934D01*
X156861700Y-132412934D01*
X156785863Y-132201908D01*
X156441542Y-132201908D01*
X156364361Y-132412934D01*
X156473660Y-132412934D01*
X156473660Y-132495000D01*
X156201085Y-132495000D01*
X156201085Y-132412934D01*
X156275579Y-132412934D01*
X156383599Y-132119842D01*
X156471645Y-132119842D01*
X156755821Y-132119842D01*
X156614405Y-131730642D01*
X156471645Y-132119842D01*
X156383599Y-132119842D01*
X156621243Y-131475041D01*
X156768094Y-131475041D01*
X157114431Y-132412934D01*
G37*
G36*
X157697747Y-131461381D02*
G01*
X157760487Y-131478199D01*
X157815402Y-131505336D01*
X157863748Y-131543015D01*
X157906266Y-131592278D01*
X157938902Y-131646624D01*
X157965690Y-131711316D01*
X157986104Y-131788020D01*
X157999262Y-131878659D01*
X158003963Y-131985387D01*
X157999259Y-132092104D01*
X157986097Y-132182693D01*
X157965680Y-132259314D01*
X157938894Y-132323903D01*
X157906266Y-132378129D01*
X157863767Y-132427242D01*
X157815433Y-132464819D01*
X157760519Y-132491891D01*
X157697768Y-132508672D01*
X157625509Y-132514539D01*
X157552956Y-132508667D01*
X157489959Y-132491875D01*
X157434843Y-132464792D01*
X157386345Y-132427217D01*
X157343714Y-132378129D01*
X157310975Y-132323886D01*
X157284105Y-132259288D01*
X157263628Y-132182666D01*
X157250428Y-132092086D01*
X157245711Y-131985387D01*
X157497098Y-131985387D01*
X157501591Y-132192616D01*
X157511986Y-132306955D01*
X157524392Y-132361582D01*
X157541787Y-132395467D01*
X157563913Y-132418095D01*
X157591252Y-132431623D01*
X157625509Y-132436381D01*
X157659797Y-132431620D01*
X157687144Y-132418089D01*
X157709258Y-132395462D01*
X157726625Y-132361582D01*
X157739060Y-132306954D01*
X157749478Y-132192616D01*
X157753981Y-131985387D01*
X157749504Y-131779723D01*
X157739106Y-131665272D01*
X157726625Y-131609863D01*
X157709183Y-131575239D01*
X157687021Y-131552204D01*
X157659696Y-131538479D01*
X157625509Y-131533660D01*
X157591256Y-131538421D01*
X157563918Y-131551957D01*
X157541790Y-131574602D01*
X157524392Y-131608520D01*
X157511992Y-131663128D01*
X157501594Y-131777629D01*
X157497098Y-131985387D01*
X157245711Y-131985387D01*
X157250425Y-131878677D01*
X157263621Y-131788046D01*
X157284095Y-131711343D01*
X157310967Y-131646641D01*
X157343714Y-131592278D01*
X157386364Y-131543040D01*
X157434874Y-131505363D01*
X157489991Y-131478215D01*
X157552977Y-131461386D01*
X157625509Y-131455502D01*
X157697747Y-131461381D01*
G37*
G36*
X159005490Y-134104149D02*
G01*
X159062302Y-134123844D01*
X159108516Y-134155307D01*
X159145921Y-134199384D01*
X159172161Y-134250576D01*
X159193106Y-134318851D01*
X159207265Y-134408385D01*
X159212538Y-134523982D01*
X159207231Y-134640331D01*
X159192988Y-134730375D01*
X159171928Y-134798974D01*
X159145554Y-134850352D01*
X159107989Y-134894623D01*
X159061754Y-134926175D01*
X159005100Y-134945894D01*
X158935200Y-134952934D01*
X158849776Y-134952934D01*
X158849776Y-134097107D01*
X158935200Y-134097107D01*
X159005490Y-134104149D01*
G37*
G36*
X159586637Y-135165650D02*
G01*
X156151462Y-135165650D01*
X156151462Y-134525387D01*
X156262573Y-134525387D01*
X156268627Y-134624964D01*
X156285865Y-134711848D01*
X156313286Y-134787854D01*
X156350441Y-134854511D01*
X156397456Y-134913000D01*
X156453886Y-134962778D01*
X156517950Y-135001779D01*
X156590739Y-135030370D01*
X156673742Y-135048266D01*
X156768766Y-135054539D01*
X156875662Y-135048008D01*
X156979548Y-135028527D01*
X157081302Y-134996058D01*
X157185505Y-134949026D01*
X157185505Y-134558237D01*
X156854862Y-134558237D01*
X156854862Y-134640303D01*
X156965504Y-134640303D01*
X156965504Y-134919717D01*
X156927410Y-134942719D01*
X156884904Y-134959284D01*
X156839395Y-134969094D01*
X156789282Y-134972473D01*
X156736204Y-134967797D01*
X156691017Y-134954501D01*
X156652231Y-134933094D01*
X156618788Y-134903276D01*
X156590163Y-134863968D01*
X156565036Y-134810006D01*
X156544932Y-134738455D01*
X156531346Y-134645157D01*
X156526294Y-134525387D01*
X156531573Y-134404537D01*
X156545751Y-134310770D01*
X156566710Y-134239162D01*
X156592911Y-134185401D01*
X156622473Y-134146719D01*
X156657301Y-134117117D01*
X156698033Y-134095691D01*
X156745832Y-134082297D01*
X156802288Y-134077568D01*
X156861042Y-134081875D01*
X156909861Y-134093926D01*
X156950494Y-134112858D01*
X156984310Y-134138445D01*
X157020572Y-134183139D01*
X157051619Y-134247012D01*
X157076207Y-134335488D01*
X157154059Y-134335488D01*
X157154059Y-134097107D01*
X157340966Y-134097107D01*
X157458447Y-134097107D01*
X157458447Y-134952934D01*
X157340966Y-134952934D01*
X157340966Y-135035000D01*
X157662023Y-135035000D01*
X157662023Y-134952934D01*
X157545214Y-134952934D01*
X157545214Y-134297569D01*
X158107461Y-135035000D01*
X158268661Y-135035000D01*
X158268661Y-134097107D01*
X158386142Y-134097107D01*
X158495258Y-134097107D01*
X158612739Y-134097107D01*
X158612739Y-134952934D01*
X158495258Y-134952934D01*
X158495258Y-135035000D01*
X158966646Y-135035000D01*
X159067053Y-135028958D01*
X159153069Y-135011902D01*
X159226828Y-134985019D01*
X159290131Y-134948906D01*
X159344368Y-134903536D01*
X159389579Y-134849197D01*
X159425602Y-134785684D01*
X159452443Y-134711582D01*
X159469486Y-134625068D01*
X159475526Y-134523982D01*
X159469510Y-134423507D01*
X159452528Y-134337453D01*
X159425772Y-134263684D01*
X159389845Y-134200398D01*
X159344734Y-134146200D01*
X159290669Y-134100984D01*
X159227440Y-134064964D01*
X159153634Y-134038125D01*
X159067424Y-134021082D01*
X158966646Y-134015041D01*
X158495258Y-134015041D01*
X158495258Y-134097107D01*
X158386142Y-134097107D01*
X158386142Y-134015041D01*
X158065085Y-134015041D01*
X158065085Y-134097107D01*
X158181894Y-134097107D01*
X158181894Y-134737451D01*
X157627890Y-134015041D01*
X157340966Y-134015041D01*
X157340966Y-134097107D01*
X157154059Y-134097107D01*
X157154059Y-134085383D01*
X157057027Y-134045485D01*
X156962451Y-134017789D01*
X156866428Y-134001080D01*
X156768766Y-133995502D01*
X156673742Y-134001775D01*
X156590739Y-134019671D01*
X156517950Y-134048262D01*
X156453886Y-134087263D01*
X156397456Y-134137041D01*
X156350468Y-134195517D01*
X156313317Y-134262227D01*
X156285886Y-134338365D01*
X156268635Y-134425475D01*
X156262573Y-134525387D01*
X156151462Y-134525387D01*
X156151462Y-133884391D01*
X159586637Y-133884391D01*
X159586637Y-135165650D01*
G37*
G36*
X124094431Y-132412934D02*
G01*
X124181870Y-132412934D01*
X124181870Y-132495000D01*
X123752185Y-132495000D01*
X123752185Y-132412934D01*
X123841700Y-132412934D01*
X123765863Y-132201908D01*
X123421542Y-132201908D01*
X123344361Y-132412934D01*
X123453660Y-132412934D01*
X123453660Y-132495000D01*
X123181085Y-132495000D01*
X123181085Y-132412934D01*
X123255579Y-132412934D01*
X123363599Y-132119842D01*
X123451645Y-132119842D01*
X123735821Y-132119842D01*
X123594405Y-131730642D01*
X123451645Y-132119842D01*
X123363599Y-132119842D01*
X123601243Y-131475041D01*
X123748094Y-131475041D01*
X124094431Y-132412934D01*
G37*
G36*
X124339773Y-132495000D02*
G01*
X124339773Y-132412934D01*
X124511964Y-132412934D01*
X124511964Y-131586233D01*
X124320661Y-131712140D01*
X124320661Y-131610169D01*
X124550860Y-131455502D01*
X124744911Y-131455502D01*
X124744911Y-132412934D01*
X124917712Y-132412934D01*
X124917712Y-132495000D01*
X124339773Y-132495000D01*
G37*
G36*
X125209338Y-131725146D02*
G01*
X125135516Y-131725146D01*
X125135516Y-131506304D01*
X125210815Y-131483931D01*
X125284077Y-131468203D01*
X125357887Y-131458683D01*
X125432698Y-131455502D01*
X125520845Y-131461203D01*
X125594134Y-131477106D01*
X125655037Y-131501905D01*
X125705579Y-131535003D01*
X125748097Y-131578161D01*
X125778358Y-131628403D01*
X125797067Y-131687137D01*
X125803642Y-131756470D01*
X125797517Y-131822184D01*
X125779551Y-131882173D01*
X125749665Y-131937698D01*
X125709253Y-131987593D01*
X125643169Y-132050041D01*
X125543340Y-132127780D01*
X125287191Y-132315237D01*
X125722309Y-132315237D01*
X125722309Y-132194092D01*
X125806329Y-132194092D01*
X125806329Y-132495000D01*
X125127334Y-132495000D01*
X125127334Y-132327388D01*
X125263255Y-132222302D01*
X125377233Y-132128041D01*
X125451236Y-132053531D01*
X125495163Y-131995034D01*
X125526776Y-131930301D01*
X125546195Y-131857851D01*
X125552927Y-131776010D01*
X125547193Y-131697925D01*
X125531851Y-131639233D01*
X125508841Y-131595636D01*
X125484472Y-131568645D01*
X125455676Y-131549573D01*
X125421585Y-131537806D01*
X125380797Y-131533660D01*
X125334722Y-131539374D01*
X125296635Y-131555700D01*
X125264659Y-131582752D01*
X125240388Y-131617881D01*
X125221639Y-131664394D01*
X125209338Y-131725146D01*
G37*
G36*
X124094431Y-134952934D02*
G01*
X124181870Y-134952934D01*
X124181870Y-135035000D01*
X123752185Y-135035000D01*
X123752185Y-134952934D01*
X123841700Y-134952934D01*
X123765863Y-134741908D01*
X123421542Y-134741908D01*
X123344361Y-134952934D01*
X123453660Y-134952934D01*
X123453660Y-135035000D01*
X123181085Y-135035000D01*
X123181085Y-134952934D01*
X123255579Y-134952934D01*
X123363599Y-134659842D01*
X123451645Y-134659842D01*
X123735821Y-134659842D01*
X123594405Y-134270642D01*
X123451645Y-134659842D01*
X123363599Y-134659842D01*
X123601243Y-134015041D01*
X123748094Y-134015041D01*
X124094431Y-134952934D01*
G37*
G36*
X124339773Y-135035000D02*
G01*
X124339773Y-134952934D01*
X124511964Y-134952934D01*
X124511964Y-134126233D01*
X124320661Y-134252140D01*
X124320661Y-134150169D01*
X124550860Y-133995502D01*
X124744911Y-133995502D01*
X124744911Y-134952934D01*
X124917712Y-134952934D01*
X124917712Y-135035000D01*
X124339773Y-135035000D01*
G37*
G36*
X125216116Y-135035000D02*
G01*
X125216116Y-134952934D01*
X125388307Y-134952934D01*
X125388307Y-134126233D01*
X125197004Y-134252140D01*
X125197004Y-134150169D01*
X125427203Y-133995502D01*
X125621254Y-133995502D01*
X125621254Y-134952934D01*
X125794056Y-134952934D01*
X125794056Y-135035000D01*
X125216116Y-135035000D01*
G37*
G36*
X119014431Y-134952934D02*
G01*
X119101870Y-134952934D01*
X119101870Y-135035000D01*
X118672185Y-135035000D01*
X118672185Y-134952934D01*
X118761700Y-134952934D01*
X118685863Y-134741908D01*
X118341542Y-134741908D01*
X118264361Y-134952934D01*
X118373660Y-134952934D01*
X118373660Y-135035000D01*
X118101085Y-135035000D01*
X118101085Y-134952934D01*
X118175579Y-134952934D01*
X118283599Y-134659842D01*
X118371645Y-134659842D01*
X118655821Y-134659842D01*
X118514405Y-134270642D01*
X118371645Y-134659842D01*
X118283599Y-134659842D01*
X118521243Y-134015041D01*
X118668094Y-134015041D01*
X119014431Y-134952934D01*
G37*
G36*
X119717878Y-134021082D02*
G01*
X119804088Y-134038125D01*
X119877893Y-134064964D01*
X119941122Y-134100984D01*
X119995188Y-134146200D01*
X120040299Y-134200398D01*
X120076225Y-134263684D01*
X120102982Y-134337453D01*
X120119964Y-134423507D01*
X120125980Y-134523982D01*
X120119940Y-134625068D01*
X120102897Y-134711582D01*
X120076056Y-134785684D01*
X120040033Y-134849197D01*
X119994822Y-134903536D01*
X119940585Y-134948906D01*
X119877282Y-134985019D01*
X119803523Y-135011902D01*
X119717507Y-135028958D01*
X119617100Y-135035000D01*
X119145711Y-135035000D01*
X119145711Y-134952934D01*
X119263192Y-134952934D01*
X119500230Y-134952934D01*
X119585654Y-134952934D01*
X119655554Y-134945894D01*
X119712208Y-134926175D01*
X119758443Y-134894623D01*
X119796008Y-134850352D01*
X119822382Y-134798974D01*
X119843442Y-134730375D01*
X119857685Y-134640331D01*
X119862991Y-134523982D01*
X119857718Y-134408385D01*
X119843559Y-134318851D01*
X119822615Y-134250576D01*
X119796374Y-134199384D01*
X119758970Y-134155307D01*
X119712756Y-134123844D01*
X119655943Y-134104149D01*
X119585654Y-134097107D01*
X119500230Y-134097107D01*
X119500230Y-134952934D01*
X119263192Y-134952934D01*
X119263192Y-134097107D01*
X119145711Y-134097107D01*
X119145711Y-134015041D01*
X119617100Y-134015041D01*
X119717878Y-134021082D01*
G37*
G36*
X120345249Y-134265146D02*
G01*
X120271427Y-134265146D01*
X120271427Y-134046304D01*
X120346725Y-134023931D01*
X120419987Y-134008203D01*
X120493797Y-133998683D01*
X120568609Y-133995502D01*
X120656755Y-134001203D01*
X120730045Y-134017106D01*
X120790947Y-134041905D01*
X120841489Y-134075003D01*
X120884007Y-134118161D01*
X120914269Y-134168403D01*
X120932978Y-134227137D01*
X120939553Y-134296470D01*
X120933428Y-134362184D01*
X120915462Y-134422173D01*
X120885575Y-134477698D01*
X120845163Y-134527593D01*
X120779080Y-134590041D01*
X120679251Y-134667780D01*
X120423101Y-134855237D01*
X120858220Y-134855237D01*
X120858220Y-134734092D01*
X120942240Y-134734092D01*
X120942240Y-135035000D01*
X120263244Y-135035000D01*
X120263244Y-134867388D01*
X120399166Y-134762302D01*
X120513144Y-134668041D01*
X120587146Y-134593531D01*
X120631074Y-134535034D01*
X120662687Y-134470301D01*
X120682106Y-134397851D01*
X120688838Y-134316010D01*
X120683104Y-134237925D01*
X120667762Y-134179233D01*
X120644752Y-134135636D01*
X120620383Y-134108645D01*
X120591587Y-134089573D01*
X120557496Y-134077806D01*
X120516707Y-134073660D01*
X120470633Y-134079374D01*
X120432546Y-134095700D01*
X120400570Y-134122752D01*
X120376299Y-134157881D01*
X120357549Y-134204394D01*
X120345249Y-134265146D01*
G37*
G36*
X119014431Y-132412934D02*
G01*
X119101870Y-132412934D01*
X119101870Y-132495000D01*
X118672185Y-132495000D01*
X118672185Y-132412934D01*
X118761700Y-132412934D01*
X118685863Y-132201908D01*
X118341542Y-132201908D01*
X118264361Y-132412934D01*
X118373660Y-132412934D01*
X118373660Y-132495000D01*
X118101085Y-132495000D01*
X118101085Y-132412934D01*
X118175579Y-132412934D01*
X118283599Y-132119842D01*
X118371645Y-132119842D01*
X118655821Y-132119842D01*
X118514405Y-131730642D01*
X118371645Y-132119842D01*
X118283599Y-132119842D01*
X118521243Y-131475041D01*
X118668094Y-131475041D01*
X119014431Y-132412934D01*
G37*
G36*
X119717878Y-131481082D02*
G01*
X119804088Y-131498125D01*
X119877893Y-131524964D01*
X119941122Y-131560984D01*
X119995188Y-131606200D01*
X120040299Y-131660398D01*
X120076225Y-131723684D01*
X120102982Y-131797453D01*
X120119964Y-131883507D01*
X120125980Y-131983982D01*
X120119940Y-132085068D01*
X120102897Y-132171582D01*
X120076056Y-132245684D01*
X120040033Y-132309197D01*
X119994822Y-132363536D01*
X119940585Y-132408906D01*
X119877282Y-132445019D01*
X119803523Y-132471902D01*
X119717507Y-132488958D01*
X119617100Y-132495000D01*
X119145711Y-132495000D01*
X119145711Y-132412934D01*
X119263192Y-132412934D01*
X119500230Y-132412934D01*
X119585654Y-132412934D01*
X119655554Y-132405894D01*
X119712208Y-132386175D01*
X119758443Y-132354623D01*
X119796008Y-132310352D01*
X119822382Y-132258974D01*
X119843442Y-132190375D01*
X119857685Y-132100331D01*
X119862991Y-131983982D01*
X119857718Y-131868385D01*
X119843559Y-131778851D01*
X119822615Y-131710576D01*
X119796374Y-131659384D01*
X119758970Y-131615307D01*
X119712756Y-131583844D01*
X119655943Y-131564149D01*
X119585654Y-131557107D01*
X119500230Y-131557107D01*
X119500230Y-132412934D01*
X119263192Y-132412934D01*
X119263192Y-131557107D01*
X119145711Y-131557107D01*
X119145711Y-131475041D01*
X119617100Y-131475041D01*
X119717878Y-131481082D01*
G37*
G36*
X120352027Y-132495000D02*
G01*
X120352027Y-132412934D01*
X120524218Y-132412934D01*
X120524218Y-131586233D01*
X120332915Y-131712140D01*
X120332915Y-131610169D01*
X120563114Y-131455502D01*
X120757165Y-131455502D01*
X120757165Y-132412934D01*
X120929966Y-132412934D01*
X120929966Y-132495000D01*
X120352027Y-132495000D01*
G37*
G36*
X113967892Y-134745816D02*
G01*
X113944585Y-134823388D01*
X113914825Y-134886667D01*
X113879196Y-134937831D01*
X113837772Y-134978579D01*
X113789249Y-135010519D01*
X113732132Y-135034189D01*
X113664821Y-135049205D01*
X113585347Y-135054539D01*
X113491926Y-135048267D01*
X113410001Y-135030338D01*
X113337832Y-135001616D01*
X113273996Y-134962323D01*
X113217456Y-134912023D01*
X113170335Y-134853090D01*
X113133159Y-134786253D01*
X113105776Y-134710380D01*
X113088596Y-134624006D01*
X113082573Y-134525387D01*
X113088604Y-134426432D01*
X113105799Y-134339838D01*
X113133193Y-134263846D01*
X113170365Y-134196975D01*
X113217456Y-134138079D01*
X113273998Y-134087758D01*
X113337841Y-134048448D01*
X113410021Y-134019714D01*
X113491963Y-134001776D01*
X113585408Y-133995502D01*
X113667299Y-134000910D01*
X113755462Y-134017789D01*
X113844649Y-134045098D01*
X113942674Y-134085383D01*
X113942674Y-134335488D01*
X113864760Y-134335488D01*
X113842710Y-134251558D01*
X113813298Y-134188411D01*
X113777627Y-134141864D01*
X113744153Y-134114157D01*
X113705845Y-134094240D01*
X113661765Y-134081893D01*
X113610626Y-134077568D01*
X113557978Y-134082266D01*
X113512933Y-134095659D01*
X113474046Y-134117291D01*
X113440301Y-134147518D01*
X113411202Y-134187477D01*
X113385552Y-134242176D01*
X113365131Y-134314006D01*
X113351387Y-134406914D01*
X113346294Y-134525387D01*
X113351392Y-134643882D01*
X113365142Y-134736717D01*
X113385564Y-134808409D01*
X113411202Y-134862930D01*
X113440275Y-134902694D01*
X113474065Y-134932813D01*
X113513083Y-134954397D01*
X113558360Y-134967776D01*
X113611359Y-134972473D01*
X113670543Y-134965862D01*
X113719908Y-134947026D01*
X113761629Y-134916175D01*
X113794843Y-134875233D01*
X113823119Y-134819635D01*
X113845648Y-134745816D01*
X113967892Y-134745816D01*
G37*
G36*
X114091113Y-135035000D02*
G01*
X114091113Y-134952934D01*
X114208593Y-134952934D01*
X114208593Y-134097107D01*
X114091113Y-134097107D01*
X114091113Y-134015041D01*
X114563845Y-134015041D01*
X114563845Y-134097107D01*
X114445631Y-134097107D01*
X114445631Y-134941210D01*
X114807049Y-134941210D01*
X114807049Y-134780987D01*
X114890397Y-134780987D01*
X114890397Y-135035000D01*
X114091113Y-135035000D01*
G37*
G36*
X114976249Y-135035000D02*
G01*
X114976249Y-134952934D01*
X115093729Y-134952934D01*
X115093729Y-134097107D01*
X114976249Y-134097107D01*
X114976249Y-134015041D01*
X115448981Y-134015041D01*
X115448981Y-134097107D01*
X115330767Y-134097107D01*
X115330767Y-134469944D01*
X115719480Y-134097107D01*
X115621111Y-134097107D01*
X115621111Y-134015041D01*
X115964028Y-134015041D01*
X115964028Y-134097107D01*
X115841723Y-134097107D01*
X115511812Y-134412486D01*
X115959937Y-134952934D01*
X116050795Y-134952934D01*
X116050795Y-135035000D01*
X115739263Y-135035000D01*
X115330767Y-134539736D01*
X115330767Y-134952934D01*
X115448981Y-134952934D01*
X115448981Y-135035000D01*
X114976249Y-135035000D01*
G37*
G36*
X113258183Y-132495000D02*
G01*
X113258183Y-132412934D01*
X113379755Y-132412934D01*
X113379755Y-131568831D01*
X113128368Y-131568831D01*
X113128368Y-131730153D01*
X113044349Y-131730153D01*
X113044349Y-131475041D01*
X113954275Y-131475041D01*
X113954275Y-131730153D01*
X113870928Y-131730153D01*
X113870928Y-131568831D01*
X113617465Y-131568831D01*
X113617465Y-132412934D01*
X113740441Y-132412934D01*
X113740441Y-132495000D01*
X113258183Y-132495000D01*
G37*
G36*
X114063941Y-132444197D02*
G01*
X114063941Y-132205816D01*
X114141793Y-132205816D01*
X114160647Y-132278793D01*
X114189124Y-132334415D01*
X114226484Y-132376175D01*
X114260824Y-132399729D01*
X114301964Y-132417270D01*
X114351234Y-132428470D01*
X114410277Y-132432473D01*
X114472459Y-132427327D01*
X114519593Y-132413444D01*
X114555052Y-132392295D01*
X114582182Y-132362234D01*
X114598927Y-132323827D01*
X114604938Y-132274448D01*
X114600805Y-132234888D01*
X114589342Y-132203725D01*
X114571111Y-132179071D01*
X114545950Y-132160003D01*
X114501962Y-132138829D01*
X114431465Y-132115690D01*
X114294139Y-132077833D01*
X114207109Y-132046096D01*
X114145980Y-132010304D01*
X114104912Y-131971282D01*
X114082336Y-131936202D01*
X114065273Y-131893238D01*
X114054242Y-131840789D01*
X114050263Y-131776926D01*
X114056509Y-131701635D01*
X114074122Y-131638466D01*
X114102167Y-131585180D01*
X114140755Y-131540132D01*
X114188163Y-131504529D01*
X114244932Y-131478209D01*
X114312925Y-131461476D01*
X114394523Y-131455502D01*
X114475840Y-131459083D01*
X114562257Y-131470157D01*
X114649745Y-131488179D01*
X114742936Y-131514120D01*
X114742936Y-131740778D01*
X114665083Y-131740778D01*
X114646823Y-131673294D01*
X114620372Y-131623066D01*
X114586498Y-131586477D01*
X114543749Y-131560602D01*
X114487833Y-131543765D01*
X114415040Y-131537568D01*
X114355266Y-131542160D01*
X114310638Y-131554432D01*
X114277714Y-131572861D01*
X114252434Y-131599485D01*
X114236889Y-131633739D01*
X114231308Y-131678068D01*
X114235325Y-131719384D01*
X114246286Y-131750981D01*
X114263365Y-131775094D01*
X114287969Y-131793528D01*
X114336241Y-131816285D01*
X114419802Y-131843970D01*
X114557800Y-131881828D01*
X114621251Y-131903737D01*
X114671998Y-131929731D01*
X114712033Y-131959355D01*
X114742936Y-131992531D01*
X114766794Y-132031093D01*
X114784714Y-132077408D01*
X114796213Y-132132960D01*
X114800333Y-132199527D01*
X114793691Y-132275773D01*
X114775061Y-132338711D01*
X114745477Y-132390925D01*
X114704712Y-132434244D01*
X114655390Y-132467211D01*
X114593778Y-132492280D01*
X114517233Y-132508608D01*
X114422550Y-132514539D01*
X114333376Y-132510201D01*
X114244253Y-132497137D01*
X114155696Y-132475468D01*
X114063941Y-132444197D01*
G37*
G36*
X115104659Y-132495000D02*
G01*
X115104659Y-132412934D01*
X115226231Y-132412934D01*
X115226231Y-131568831D01*
X114974844Y-131568831D01*
X114974844Y-131730153D01*
X114890825Y-131730153D01*
X114890825Y-131475041D01*
X115800751Y-131475041D01*
X115800751Y-131730153D01*
X115717404Y-131730153D01*
X115717404Y-131568831D01*
X115463941Y-131568831D01*
X115463941Y-132412934D01*
X115586917Y-132412934D01*
X115586917Y-132495000D01*
X115104659Y-132495000D01*
G37*
G36*
X112788259Y-92540000D02*
G01*
X112788259Y-92457934D01*
X112905739Y-92457934D01*
X112905739Y-91602107D01*
X112788259Y-91602107D01*
X112788259Y-91520041D01*
X113075183Y-91520041D01*
X113629187Y-92242451D01*
X113629187Y-91602107D01*
X113512377Y-91602107D01*
X113512377Y-91520041D01*
X113833435Y-91520041D01*
X113833435Y-91602107D01*
X113715954Y-91602107D01*
X113715954Y-92540000D01*
X113554754Y-92540000D01*
X112992507Y-91802569D01*
X112992507Y-92457934D01*
X113109316Y-92457934D01*
X113109316Y-92540000D01*
X112788259Y-92540000D01*
G37*
G36*
X113936383Y-92540000D02*
G01*
X113936383Y-92457934D01*
X114053253Y-92457934D01*
X114053253Y-91602107D01*
X113936383Y-91602107D01*
X113936383Y-91520041D01*
X114315570Y-91520041D01*
X114577154Y-92175162D01*
X114840204Y-91520041D01*
X115218597Y-91520041D01*
X115218597Y-91602107D01*
X115101116Y-91602107D01*
X115101116Y-92457934D01*
X115218597Y-92457934D01*
X115218597Y-92540000D01*
X114746598Y-92540000D01*
X114746598Y-92457934D01*
X114863407Y-92457934D01*
X114863407Y-91678799D01*
X114578559Y-92391500D01*
X114422793Y-92391500D01*
X114139288Y-91678799D01*
X114139288Y-92457934D01*
X114256097Y-92457934D01*
X114256097Y-92540000D01*
X113936383Y-92540000D01*
G37*
G36*
X115336688Y-92540000D02*
G01*
X115336688Y-92457934D01*
X115454169Y-92457934D01*
X115454169Y-91602107D01*
X115336688Y-91602107D01*
X115336688Y-91520041D01*
X115809420Y-91520041D01*
X115809420Y-91602107D01*
X115691207Y-91602107D01*
X115691207Y-92457934D01*
X115809420Y-92457934D01*
X115809420Y-92540000D01*
X115336688Y-92540000D01*
G37*
G36*
X110452446Y-96250000D02*
G01*
X110452446Y-96167934D01*
X110569927Y-96167934D01*
X110569927Y-95312107D01*
X110452446Y-95312107D01*
X110452446Y-95230041D01*
X110925178Y-95230041D01*
X110925178Y-95312107D01*
X110806964Y-95312107D01*
X110806964Y-96167934D01*
X110925178Y-96167934D01*
X110925178Y-96250000D01*
X110452446Y-96250000D01*
G37*
G36*
X111646285Y-95235201D02*
G01*
X111712827Y-95249534D01*
X111767556Y-95271769D01*
X111812451Y-95301299D01*
X111850006Y-95339917D01*
X111876918Y-95385462D01*
X111893667Y-95439323D01*
X111899585Y-95503532D01*
X111895339Y-95556206D01*
X111883319Y-95600887D01*
X111864132Y-95639005D01*
X111837730Y-95671632D01*
X111792807Y-95705989D01*
X111731929Y-95732877D01*
X111650884Y-95751072D01*
X111701958Y-95765943D01*
X111743086Y-95791495D01*
X111777051Y-95828301D01*
X111808726Y-95882597D01*
X111942572Y-96167934D01*
X112036849Y-96167934D01*
X112036849Y-96250000D01*
X111734904Y-96250000D01*
X111588053Y-95941582D01*
X111544382Y-95855625D01*
X111515940Y-95819216D01*
X111494687Y-95805043D01*
X111467794Y-95796038D01*
X111433692Y-95792777D01*
X111396078Y-95792777D01*
X111396078Y-96167934D01*
X111514292Y-96167934D01*
X111514292Y-96250000D01*
X111041560Y-96250000D01*
X111041560Y-96167934D01*
X111159040Y-96167934D01*
X111159040Y-95710711D01*
X111396078Y-95710711D01*
X111476739Y-95710711D01*
X111531858Y-95704433D01*
X111575105Y-95686961D01*
X111609241Y-95658871D01*
X111633986Y-95621606D01*
X111649891Y-95573287D01*
X111655708Y-95510737D01*
X111649873Y-95448195D01*
X111633957Y-95400152D01*
X111609241Y-95363337D01*
X111575153Y-95335605D01*
X111531908Y-95318324D01*
X111476739Y-95312107D01*
X111396078Y-95312107D01*
X111396078Y-95710711D01*
X111159040Y-95710711D01*
X111159040Y-95312107D01*
X111041560Y-95312107D01*
X111041560Y-95230041D01*
X111565522Y-95230041D01*
X111646285Y-95235201D01*
G37*
G36*
X112670006Y-95216736D02*
G01*
X112751191Y-95234522D01*
X112822346Y-95262949D01*
X112884946Y-95301761D01*
X112940059Y-95351369D01*
X112985689Y-95409376D01*
X113021897Y-95475871D01*
X113048717Y-95552099D01*
X113065630Y-95639648D01*
X113071584Y-95740387D01*
X113064550Y-95849377D01*
X113044641Y-95943017D01*
X113013112Y-96023661D01*
X112970468Y-96093257D01*
X112927152Y-96142745D01*
X112877490Y-96183933D01*
X112820875Y-96217327D01*
X112756395Y-96243032D01*
X112682872Y-96260746D01*
X112718785Y-96295281D01*
X112761762Y-96318387D01*
X112812326Y-96331102D01*
X112883029Y-96335973D01*
X112914475Y-96335973D01*
X112914475Y-96504012D01*
X112896706Y-96504012D01*
X112820634Y-96497270D01*
X112756378Y-96478158D01*
X112701678Y-96447470D01*
X112654925Y-96405170D01*
X112611929Y-96346974D01*
X112572901Y-96269539D01*
X112479496Y-96261791D01*
X112398260Y-96242968D01*
X112327385Y-96213970D01*
X112265388Y-96175088D01*
X112211178Y-96125985D01*
X112166307Y-96068581D01*
X112130674Y-96002723D01*
X112104262Y-95927171D01*
X112087597Y-95840344D01*
X112081729Y-95740387D01*
X112345450Y-95740387D01*
X112349948Y-95857298D01*
X112362104Y-95949543D01*
X112380169Y-96021282D01*
X112402786Y-96076221D01*
X112436434Y-96126304D01*
X112475888Y-96160191D01*
X112522048Y-96180441D01*
X112577053Y-96187473D01*
X112632449Y-96180468D01*
X112678754Y-96160339D01*
X112718147Y-96126755D01*
X112751565Y-96077259D01*
X112773987Y-96022836D01*
X112791961Y-95951218D01*
X112804095Y-95858522D01*
X112808596Y-95740387D01*
X112804089Y-95621832D01*
X112791946Y-95528916D01*
X112773971Y-95457228D01*
X112751565Y-95402843D01*
X112718144Y-95353316D01*
X112678749Y-95319714D01*
X112632445Y-95299576D01*
X112577053Y-95292568D01*
X112522048Y-95299599D01*
X112475888Y-95319850D01*
X112436434Y-95353737D01*
X112402786Y-95403820D01*
X112380183Y-95458750D01*
X112362117Y-95530582D01*
X112349953Y-95623060D01*
X112345450Y-95740387D01*
X112081729Y-95740387D01*
X112087699Y-95639977D01*
X112104671Y-95552603D01*
X112131607Y-95476417D01*
X112168007Y-95409849D01*
X112213925Y-95351674D01*
X112269353Y-95301896D01*
X112332136Y-95262987D01*
X112403321Y-95234521D01*
X112484351Y-95216731D01*
X112576992Y-95210502D01*
X112670006Y-95216736D01*
G37*
G36*
X113485652Y-86426736D02*
G01*
X113566837Y-86444522D01*
X113637992Y-86472949D01*
X113700592Y-86511761D01*
X113755705Y-86561369D01*
X113801331Y-86619351D01*
X113837538Y-86685831D01*
X113864360Y-86762057D01*
X113881275Y-86849618D01*
X113887230Y-86950387D01*
X113881271Y-87050801D01*
X113864336Y-87138134D01*
X113837467Y-87214241D01*
X113801171Y-87280697D01*
X113755400Y-87338733D01*
X113700136Y-87388355D01*
X113637474Y-87427158D01*
X113566359Y-87455560D01*
X113485339Y-87473318D01*
X113392638Y-87479539D01*
X113299633Y-87473311D01*
X113218407Y-87455539D01*
X113147170Y-87427126D01*
X113084458Y-87388327D01*
X113029205Y-87338733D01*
X112983434Y-87280697D01*
X112947138Y-87214241D01*
X112920268Y-87138134D01*
X112903334Y-87050801D01*
X112897375Y-86950387D01*
X113161096Y-86950387D01*
X113165594Y-87067298D01*
X113177750Y-87159543D01*
X113195815Y-87231282D01*
X113218432Y-87286221D01*
X113252080Y-87336304D01*
X113291534Y-87370191D01*
X113337694Y-87390441D01*
X113392699Y-87397473D01*
X113448095Y-87390468D01*
X113494400Y-87370339D01*
X113533793Y-87336755D01*
X113567211Y-87287259D01*
X113589633Y-87232836D01*
X113607606Y-87161218D01*
X113619741Y-87068522D01*
X113624241Y-86950387D01*
X113619735Y-86831832D01*
X113607591Y-86738916D01*
X113589617Y-86667228D01*
X113567211Y-86612843D01*
X113533790Y-86563316D01*
X113494395Y-86529714D01*
X113448091Y-86509576D01*
X113392699Y-86502568D01*
X113337694Y-86509599D01*
X113291534Y-86529850D01*
X113252080Y-86563737D01*
X113218432Y-86613820D01*
X113195829Y-86668750D01*
X113177763Y-86740582D01*
X113165599Y-86833060D01*
X113161096Y-86950387D01*
X112897375Y-86950387D01*
X112903345Y-86849977D01*
X112920316Y-86762603D01*
X112947253Y-86686417D01*
X112983653Y-86619849D01*
X113029571Y-86561674D01*
X113084999Y-86511896D01*
X113147782Y-86472987D01*
X113218967Y-86444521D01*
X113299997Y-86426731D01*
X113392638Y-86420502D01*
X113485652Y-86426736D01*
G37*
G36*
X114170124Y-87460000D02*
G01*
X114170124Y-87377934D01*
X114291696Y-87377934D01*
X114291696Y-86533831D01*
X114040309Y-86533831D01*
X114040309Y-86695153D01*
X113956290Y-86695153D01*
X113956290Y-86440041D01*
X114866216Y-86440041D01*
X114866216Y-86695153D01*
X114782868Y-86695153D01*
X114782868Y-86533831D01*
X114529405Y-86533831D01*
X114529405Y-87377934D01*
X114652382Y-87377934D01*
X114652382Y-87460000D01*
X114170124Y-87460000D01*
G37*
G36*
X115051658Y-87460000D02*
G01*
X115051658Y-87377934D01*
X115223849Y-87377934D01*
X115223849Y-86551233D01*
X115032546Y-86677140D01*
X115032546Y-86575169D01*
X115262745Y-86420502D01*
X115456796Y-86420502D01*
X115456796Y-87377934D01*
X115629597Y-87377934D01*
X115629597Y-87460000D01*
X115051658Y-87460000D01*
G37*
G36*
X110945652Y-90136736D02*
G01*
X111026837Y-90154522D01*
X111097992Y-90182949D01*
X111160592Y-90221761D01*
X111215705Y-90271369D01*
X111261331Y-90329351D01*
X111297538Y-90395831D01*
X111324360Y-90472057D01*
X111341275Y-90559618D01*
X111347230Y-90660387D01*
X111341271Y-90760801D01*
X111324336Y-90848134D01*
X111297467Y-90924241D01*
X111261171Y-90990697D01*
X111215400Y-91048733D01*
X111160136Y-91098355D01*
X111097474Y-91137158D01*
X111026359Y-91165560D01*
X110945339Y-91183318D01*
X110852638Y-91189539D01*
X110759633Y-91183311D01*
X110678407Y-91165539D01*
X110607170Y-91137126D01*
X110544458Y-91098327D01*
X110489205Y-91048733D01*
X110443434Y-90990697D01*
X110407138Y-90924241D01*
X110380268Y-90848134D01*
X110363334Y-90760801D01*
X110357375Y-90660387D01*
X110621096Y-90660387D01*
X110625594Y-90777298D01*
X110637750Y-90869543D01*
X110655815Y-90941282D01*
X110678432Y-90996221D01*
X110712080Y-91046304D01*
X110751534Y-91080191D01*
X110797694Y-91100441D01*
X110852699Y-91107473D01*
X110908095Y-91100468D01*
X110954400Y-91080339D01*
X110993793Y-91046755D01*
X111027211Y-90997259D01*
X111049633Y-90942836D01*
X111067606Y-90871218D01*
X111079741Y-90778522D01*
X111084241Y-90660387D01*
X111079735Y-90541832D01*
X111067591Y-90448916D01*
X111049617Y-90377228D01*
X111027211Y-90322843D01*
X110993790Y-90273316D01*
X110954395Y-90239714D01*
X110908091Y-90219576D01*
X110852699Y-90212568D01*
X110797694Y-90219599D01*
X110751534Y-90239850D01*
X110712080Y-90273737D01*
X110678432Y-90323820D01*
X110655829Y-90378750D01*
X110637763Y-90450582D01*
X110625599Y-90543060D01*
X110621096Y-90660387D01*
X110357375Y-90660387D01*
X110363345Y-90559977D01*
X110380316Y-90472603D01*
X110407253Y-90396417D01*
X110443653Y-90329849D01*
X110489571Y-90271674D01*
X110544999Y-90221896D01*
X110607782Y-90182987D01*
X110678967Y-90154521D01*
X110759997Y-90136731D01*
X110852638Y-90130502D01*
X110945652Y-90136736D01*
G37*
G36*
X111630124Y-91170000D02*
G01*
X111630124Y-91087934D01*
X111751696Y-91087934D01*
X111751696Y-90243831D01*
X111500309Y-90243831D01*
X111500309Y-90405153D01*
X111416290Y-90405153D01*
X111416290Y-90150041D01*
X112326216Y-90150041D01*
X112326216Y-90405153D01*
X112242868Y-90405153D01*
X112242868Y-90243831D01*
X111989405Y-90243831D01*
X111989405Y-91087934D01*
X112112382Y-91087934D01*
X112112382Y-91170000D01*
X111630124Y-91170000D01*
G37*
G36*
X112504880Y-90400146D02*
G01*
X112431058Y-90400146D01*
X112431058Y-90181304D01*
X112506356Y-90158931D01*
X112579618Y-90143203D01*
X112653428Y-90133683D01*
X112728240Y-90130502D01*
X112816386Y-90136203D01*
X112889676Y-90152106D01*
X112950578Y-90176905D01*
X113001120Y-90210003D01*
X113043638Y-90253161D01*
X113073900Y-90303403D01*
X113092609Y-90362137D01*
X113099184Y-90431470D01*
X113093059Y-90497184D01*
X113075093Y-90557173D01*
X113045206Y-90612698D01*
X113004794Y-90662593D01*
X112938711Y-90725041D01*
X112838882Y-90802780D01*
X112582732Y-90990237D01*
X113017851Y-90990237D01*
X113017851Y-90869092D01*
X113101871Y-90869092D01*
X113101871Y-91170000D01*
X112422875Y-91170000D01*
X112422875Y-91002388D01*
X112558797Y-90897302D01*
X112672775Y-90803041D01*
X112746777Y-90728531D01*
X112790705Y-90670034D01*
X112822318Y-90605301D01*
X112841737Y-90532851D01*
X112848469Y-90451010D01*
X112842735Y-90372925D01*
X112827393Y-90314233D01*
X112804383Y-90270636D01*
X112780014Y-90243645D01*
X112751218Y-90224573D01*
X112717127Y-90212806D01*
X112676338Y-90208660D01*
X112630264Y-90214374D01*
X112592177Y-90230700D01*
X112560201Y-90257752D01*
X112535930Y-90292881D01*
X112517180Y-90339394D01*
X112504880Y-90400146D01*
G37*
G36*
X113740441Y-83215041D02*
G01*
X113740441Y-83394804D01*
X113248597Y-83394804D01*
X113248597Y-83619202D01*
X113291924Y-83587849D01*
X113339455Y-83565408D01*
X113390440Y-83551806D01*
X113444663Y-83547212D01*
X113528740Y-83553791D01*
X113599973Y-83572390D01*
X113660625Y-83601999D01*
X113712414Y-83642588D01*
X113754533Y-83693149D01*
X113785021Y-83752039D01*
X113804066Y-83820890D01*
X113810783Y-83901913D01*
X113803987Y-83984475D01*
X113784825Y-84053757D01*
X113754332Y-84112199D01*
X113712414Y-84161605D01*
X113660846Y-84200754D01*
X113599201Y-84229648D01*
X113525473Y-84247994D01*
X113437091Y-84254539D01*
X113362257Y-84251198D01*
X113287859Y-84241167D01*
X113213356Y-84224508D01*
X113133131Y-84199829D01*
X113133131Y-83977079D01*
X113206953Y-83977079D01*
X113214987Y-84042916D01*
X113231308Y-84091615D01*
X113254398Y-84127105D01*
X113286490Y-84153644D01*
X113328197Y-84170326D01*
X113382503Y-84176381D01*
X113426244Y-84171836D01*
X113462132Y-84159021D01*
X113491851Y-84138343D01*
X113516409Y-84109092D01*
X113538850Y-84061933D01*
X113554255Y-83995446D01*
X113560129Y-83903745D01*
X113554411Y-83813408D01*
X113539383Y-83747525D01*
X113517447Y-83700474D01*
X113493371Y-83671054D01*
X113464493Y-83650400D01*
X113429898Y-83637678D01*
X113387998Y-83633185D01*
X113342953Y-83638700D01*
X113304284Y-83654678D01*
X113270171Y-83680962D01*
X113236324Y-83721235D01*
X113174836Y-83721235D01*
X113174836Y-83215041D01*
X113740441Y-83215041D01*
G37*
G36*
X114901632Y-83215041D02*
G01*
X114901632Y-83297107D01*
X114825123Y-83297107D01*
X114478787Y-84235000D01*
X114332608Y-84235000D01*
X113986271Y-83297107D01*
X113899504Y-83297107D01*
X113899504Y-83215041D01*
X114329860Y-83215041D01*
X114329860Y-83297107D01*
X114241078Y-83297107D01*
X114488374Y-83973171D01*
X114738356Y-83297107D01*
X114629057Y-83297107D01*
X114629057Y-83215041D01*
X114901632Y-83215041D01*
G37*
G36*
X113137955Y-80702397D02*
G01*
X113218883Y-80681671D01*
X113295369Y-80667226D01*
X113371280Y-80658395D01*
X113444663Y-80655502D01*
X113529121Y-80660380D01*
X113598067Y-80673844D01*
X113654098Y-80694525D01*
X113699408Y-80721631D01*
X113738029Y-80757972D01*
X113765397Y-80800703D01*
X113782300Y-80851086D01*
X113788251Y-80911102D01*
X113782139Y-80970841D01*
X113764880Y-81020133D01*
X113737021Y-81061189D01*
X113699464Y-81094138D01*
X113650464Y-81120117D01*
X113587423Y-81138614D01*
X113647064Y-81153287D01*
X113695722Y-81173594D01*
X113735147Y-81198980D01*
X113766697Y-81229351D01*
X113791524Y-81265457D01*
X113809933Y-81308309D01*
X113821636Y-81359200D01*
X113825804Y-81419738D01*
X113818965Y-81489210D01*
X113799565Y-81547420D01*
X113768202Y-81596675D01*
X113724016Y-81638457D01*
X113672088Y-81669556D01*
X113607442Y-81693355D01*
X113527428Y-81708895D01*
X113428909Y-81714539D01*
X113356032Y-81711186D01*
X113279310Y-81700861D01*
X113201669Y-81684082D01*
X113118110Y-81659829D01*
X113118110Y-81437079D01*
X113192604Y-81437079D01*
X113202584Y-81500169D01*
X113221157Y-81548572D01*
X113247254Y-81585396D01*
X113282143Y-81613103D01*
X113325479Y-81630257D01*
X113379755Y-81636381D01*
X113439575Y-81629418D01*
X113486749Y-81609975D01*
X113524225Y-81578557D01*
X113551354Y-81537087D01*
X113568783Y-81483540D01*
X113575150Y-81414487D01*
X113568522Y-81342358D01*
X113550396Y-81286508D01*
X113522210Y-81243333D01*
X113493810Y-81217582D01*
X113460032Y-81198927D01*
X113419792Y-81187221D01*
X113371573Y-81183066D01*
X113330601Y-81183066D01*
X113330601Y-81101001D01*
X113362658Y-81101001D01*
X113420958Y-81095119D01*
X113465044Y-81079116D01*
X113498274Y-81054167D01*
X113522355Y-81020107D01*
X113537945Y-80974625D01*
X113543703Y-80914216D01*
X113538351Y-80857385D01*
X113523741Y-80813698D01*
X113501022Y-80780188D01*
X113469700Y-80755063D01*
X113429703Y-80739336D01*
X113378412Y-80733660D01*
X113331996Y-80738905D01*
X113294393Y-80753685D01*
X113263618Y-80777684D01*
X113240176Y-80809503D01*
X113222831Y-80851291D01*
X113212388Y-80905607D01*
X113137955Y-80905607D01*
X113137955Y-80702397D01*
G37*
G36*
X114008131Y-81583258D02*
G01*
X114012049Y-81548878D01*
X114023481Y-81518529D01*
X114042630Y-81491240D01*
X114067636Y-81469489D01*
X114094748Y-81456932D01*
X114124940Y-81452711D01*
X114156003Y-81456981D01*
X114183418Y-81469583D01*
X114208227Y-81491240D01*
X114227196Y-81518508D01*
X114238533Y-81548859D01*
X114242421Y-81583258D01*
X114238516Y-81618146D01*
X114227163Y-81648751D01*
X114208227Y-81676071D01*
X114183422Y-81697690D01*
X114156007Y-81710274D01*
X114124940Y-81714539D01*
X114094744Y-81710323D01*
X114067632Y-81697784D01*
X114042630Y-81676071D01*
X114023514Y-81648730D01*
X114012066Y-81618126D01*
X114008131Y-81583258D01*
G37*
G36*
X114451981Y-80702397D02*
G01*
X114532910Y-80681671D01*
X114609396Y-80667226D01*
X114685307Y-80658395D01*
X114758689Y-80655502D01*
X114843147Y-80660380D01*
X114912093Y-80673844D01*
X114968124Y-80694525D01*
X115013435Y-80721631D01*
X115052056Y-80757972D01*
X115079423Y-80800703D01*
X115096326Y-80851086D01*
X115102278Y-80911102D01*
X115096166Y-80970841D01*
X115078906Y-81020133D01*
X115051048Y-81061189D01*
X115013490Y-81094138D01*
X114964491Y-81120117D01*
X114901449Y-81138614D01*
X114961091Y-81153287D01*
X115009748Y-81173594D01*
X115049174Y-81198980D01*
X115080724Y-81229351D01*
X115105551Y-81265457D01*
X115123960Y-81308309D01*
X115135662Y-81359200D01*
X115139830Y-81419738D01*
X115132992Y-81489210D01*
X115113592Y-81547420D01*
X115082229Y-81596675D01*
X115038042Y-81638457D01*
X114986114Y-81669556D01*
X114921469Y-81693355D01*
X114841455Y-81708895D01*
X114742936Y-81714539D01*
X114670058Y-81711186D01*
X114593337Y-81700861D01*
X114515696Y-81684082D01*
X114432137Y-81659829D01*
X114432137Y-81437079D01*
X114506631Y-81437079D01*
X114516611Y-81500169D01*
X114535184Y-81548572D01*
X114561280Y-81585396D01*
X114596169Y-81613103D01*
X114639506Y-81630257D01*
X114693782Y-81636381D01*
X114753601Y-81629418D01*
X114800775Y-81609975D01*
X114838251Y-81578557D01*
X114865381Y-81537087D01*
X114882809Y-81483540D01*
X114889176Y-81414487D01*
X114882549Y-81342358D01*
X114864423Y-81286508D01*
X114836236Y-81243333D01*
X114807836Y-81217582D01*
X114774059Y-81198927D01*
X114733819Y-81187221D01*
X114685600Y-81183066D01*
X114644628Y-81183066D01*
X114644628Y-81101001D01*
X114676685Y-81101001D01*
X114734985Y-81095119D01*
X114779070Y-81079116D01*
X114812301Y-81054167D01*
X114836381Y-81020107D01*
X114851972Y-80974625D01*
X114857730Y-80914216D01*
X114852378Y-80857385D01*
X114837768Y-80813698D01*
X114815048Y-80780188D01*
X114783726Y-80755063D01*
X114743730Y-80739336D01*
X114692438Y-80733660D01*
X114646022Y-80738905D01*
X114608420Y-80753685D01*
X114577644Y-80777684D01*
X114554202Y-80809503D01*
X114536858Y-80851291D01*
X114526414Y-80905607D01*
X114451981Y-80905607D01*
X114451981Y-80702397D01*
G37*
G36*
X116215659Y-80675041D02*
G01*
X116215659Y-80757107D01*
X116139150Y-80757107D01*
X115792814Y-81695000D01*
X115646634Y-81695000D01*
X115300298Y-80757107D01*
X115213531Y-80757107D01*
X115213531Y-80675041D01*
X115643886Y-80675041D01*
X115643886Y-80757107D01*
X115555104Y-80757107D01*
X115802400Y-81433171D01*
X116052383Y-80757107D01*
X115943084Y-80757107D01*
X115943084Y-80675041D01*
X116215659Y-80675041D01*
G37*
G36*
X115825490Y-78224149D02*
G01*
X115882302Y-78243844D01*
X115928516Y-78275307D01*
X115965921Y-78319384D01*
X115992161Y-78370576D01*
X116013106Y-78438851D01*
X116027265Y-78528385D01*
X116032538Y-78643982D01*
X116027231Y-78760331D01*
X116012988Y-78850375D01*
X115991928Y-78918974D01*
X115965554Y-78970352D01*
X115927989Y-79014623D01*
X115881754Y-79046175D01*
X115825100Y-79065894D01*
X115755200Y-79072934D01*
X115669776Y-79072934D01*
X115669776Y-78217107D01*
X115755200Y-78217107D01*
X115825490Y-78224149D01*
G37*
G36*
X116406637Y-79285650D02*
G01*
X112971462Y-79285650D01*
X112971462Y-78645387D01*
X113082573Y-78645387D01*
X113088627Y-78744964D01*
X113105865Y-78831848D01*
X113133286Y-78907854D01*
X113170441Y-78974511D01*
X113217456Y-79033000D01*
X113273886Y-79082778D01*
X113337950Y-79121779D01*
X113410739Y-79150370D01*
X113493742Y-79168266D01*
X113588766Y-79174539D01*
X113695662Y-79168008D01*
X113799548Y-79148527D01*
X113901302Y-79116058D01*
X114005505Y-79069026D01*
X114005505Y-78678237D01*
X113674862Y-78678237D01*
X113674862Y-78760303D01*
X113785504Y-78760303D01*
X113785504Y-79039717D01*
X113747410Y-79062719D01*
X113704904Y-79079284D01*
X113659395Y-79089094D01*
X113609282Y-79092473D01*
X113556204Y-79087797D01*
X113511017Y-79074501D01*
X113472231Y-79053094D01*
X113438788Y-79023276D01*
X113410163Y-78983968D01*
X113385036Y-78930006D01*
X113364932Y-78858455D01*
X113351346Y-78765157D01*
X113346294Y-78645387D01*
X113351573Y-78524537D01*
X113365751Y-78430770D01*
X113386710Y-78359162D01*
X113412911Y-78305401D01*
X113442473Y-78266719D01*
X113477301Y-78237117D01*
X113518033Y-78215691D01*
X113565832Y-78202297D01*
X113622288Y-78197568D01*
X113681042Y-78201875D01*
X113729861Y-78213926D01*
X113770494Y-78232858D01*
X113804310Y-78258445D01*
X113840572Y-78303139D01*
X113871619Y-78367012D01*
X113896207Y-78455488D01*
X113974059Y-78455488D01*
X113974059Y-78217107D01*
X114160966Y-78217107D01*
X114278447Y-78217107D01*
X114278447Y-79072934D01*
X114160966Y-79072934D01*
X114160966Y-79155000D01*
X114482023Y-79155000D01*
X114482023Y-79072934D01*
X114365214Y-79072934D01*
X114365214Y-78417569D01*
X114927461Y-79155000D01*
X115088661Y-79155000D01*
X115088661Y-78217107D01*
X115206142Y-78217107D01*
X115315258Y-78217107D01*
X115432739Y-78217107D01*
X115432739Y-79072934D01*
X115315258Y-79072934D01*
X115315258Y-79155000D01*
X115786646Y-79155000D01*
X115887053Y-79148958D01*
X115973069Y-79131902D01*
X116046828Y-79105019D01*
X116110131Y-79068906D01*
X116164368Y-79023536D01*
X116209579Y-78969197D01*
X116245602Y-78905684D01*
X116272443Y-78831582D01*
X116289486Y-78745068D01*
X116295526Y-78643982D01*
X116289510Y-78543507D01*
X116272528Y-78457453D01*
X116245772Y-78383684D01*
X116209845Y-78320398D01*
X116164734Y-78266200D01*
X116110669Y-78220984D01*
X116047440Y-78184964D01*
X115973634Y-78158125D01*
X115887424Y-78141082D01*
X115786646Y-78135041D01*
X115315258Y-78135041D01*
X115315258Y-78217107D01*
X115206142Y-78217107D01*
X115206142Y-78135041D01*
X114885085Y-78135041D01*
X114885085Y-78217107D01*
X115001894Y-78217107D01*
X115001894Y-78857451D01*
X114447890Y-78135041D01*
X114160966Y-78135041D01*
X114160966Y-78217107D01*
X113974059Y-78217107D01*
X113974059Y-78205383D01*
X113877027Y-78165485D01*
X113782451Y-78137789D01*
X113686428Y-78121080D01*
X113588766Y-78115502D01*
X113493742Y-78121775D01*
X113410739Y-78139671D01*
X113337950Y-78168262D01*
X113273886Y-78207263D01*
X113217456Y-78257041D01*
X113170468Y-78315517D01*
X113133317Y-78382227D01*
X113105886Y-78458365D01*
X113088635Y-78545475D01*
X113082573Y-78645387D01*
X112971462Y-78645387D01*
X112971462Y-78004391D01*
X116406637Y-78004391D01*
X116406637Y-79285650D01*
G37*
M02*
