G04 #@! TF.GenerationSoftware,KiCad,Pcbnew,9.0.1*
G04 #@! TF.CreationDate,2025-10-08T22:03:34-06:00*
G04 #@! TF.ProjectId,testbench,74657374-6265-46e6-9368-2e6b69636164,rev?*
G04 #@! TF.SameCoordinates,Original*
G04 #@! TF.FileFunction,Soldermask,Top*
G04 #@! TF.FilePolarity,Negative*
%FSLAX46Y46*%
G04 Gerber Fmt 4.6, Leading zero omitted, Abs format (unit mm)*
G04 Created by KiCad (PCBNEW 9.0.1) date 2025-10-08 22:03:34*
%MOMM*%
%LPD*%
G01*
G04 APERTURE LIST*
G04 Aperture macros list*
%AMRoundRect*
0 Rectangle with rounded corners*
0 $1 Rounding radius*
0 $2 $3 $4 $5 $6 $7 $8 $9 X,Y pos of 4 corners*
0 Add a 4 corners polygon primitive as box body*
4,1,4,$2,$3,$4,$5,$6,$7,$8,$9,$2,$3,0*
0 Add four circle primitives for the rounded corners*
1,1,$1+$1,$2,$3*
1,1,$1+$1,$4,$5*
1,1,$1+$1,$6,$7*
1,1,$1+$1,$8,$9*
0 Add four rect primitives between the rounded corners*
20,1,$1+$1,$2,$3,$4,$5,0*
20,1,$1+$1,$4,$5,$6,$7,0*
20,1,$1+$1,$6,$7,$8,$9,0*
20,1,$1+$1,$8,$9,$2,$3,0*%
G04 Aperture macros list end*
%ADD10R,1.000000X0.300000*%
%ADD11R,1.300000X2.000000*%
%ADD12R,1.700000X1.700000*%
%ADD13C,1.700000*%
%ADD14R,1.000000X1.500000*%
%ADD15RoundRect,0.062500X-0.062500X-0.350000X0.062500X-0.350000X0.062500X0.350000X-0.062500X0.350000X0*%
%ADD16RoundRect,0.062500X-0.350000X-0.062500X0.350000X-0.062500X0.350000X0.062500X-0.350000X0.062500X0*%
%ADD17RoundRect,0.140000X0.140000X0.170000X-0.140000X0.170000X-0.140000X-0.170000X0.140000X-0.170000X0*%
%ADD18RoundRect,0.140000X-0.140000X-0.170000X0.140000X-0.170000X0.140000X0.170000X-0.140000X0.170000X0*%
%ADD19RoundRect,0.500000X-0.500000X-1.400000X0.500000X-1.400000X0.500000X1.400000X-0.500000X1.400000X0*%
%ADD20RoundRect,0.375000X-0.625000X-0.375000X0.625000X-0.375000X0.625000X0.375000X-0.625000X0.375000X0*%
%ADD21RoundRect,0.250000X0.250000X0.475000X-0.250000X0.475000X-0.250000X-0.475000X0.250000X-0.475000X0*%
%ADD22RoundRect,0.250000X-0.250000X-0.475000X0.250000X-0.475000X0.250000X0.475000X-0.250000X0.475000X0*%
G04 APERTURE END LIST*
D10*
X116699999Y-101999999D03*
X116699999Y-102499998D03*
X116699999Y-103000000D03*
X116699999Y-103499999D03*
X116699999Y-104000000D03*
X116699999Y-104499999D03*
X116699999Y-104999998D03*
X116699999Y-105500000D03*
X116699999Y-105999999D03*
X116699999Y-106499998D03*
X116699999Y-106999999D03*
X116699999Y-107499998D03*
X116699999Y-108000000D03*
X116699999Y-108499999D03*
X116699999Y-108999998D03*
X116699999Y-109499999D03*
X116699999Y-109999998D03*
X116699999Y-110500000D03*
X116699999Y-110999999D03*
X116699999Y-111499998D03*
X116699999Y-112000000D03*
X116699999Y-112499998D03*
X116699999Y-113000000D03*
X116699999Y-113499999D03*
X116699999Y-113999998D03*
X116699999Y-114500000D03*
X116699999Y-114999999D03*
X116699999Y-115500000D03*
X116699999Y-115999999D03*
X116699999Y-116499998D03*
X116699999Y-117000000D03*
X116699999Y-117499999D03*
X116699999Y-118000000D03*
X116699999Y-118499999D03*
X116699999Y-118999998D03*
X116699999Y-119500000D03*
X116699999Y-119999999D03*
X116699999Y-120500000D03*
X116699999Y-120999999D03*
X116699999Y-121499998D03*
D11*
X114000000Y-99700019D03*
X114000000Y-123799981D03*
D12*
X121920000Y-132080000D03*
D13*
X121920000Y-134620000D03*
D12*
X116840000Y-132080000D03*
D13*
X116840000Y-134620000D03*
X111760000Y-134620000D03*
D12*
X111760000Y-132080000D03*
D13*
X111760000Y-93980000D03*
D12*
X114300000Y-93980000D03*
D13*
X111760000Y-88900000D03*
D12*
X114300000Y-88900000D03*
X111760000Y-83820000D03*
D13*
X111760000Y-81280000D03*
X111760000Y-78740000D03*
D12*
X152400000Y-78740000D03*
D13*
X154940000Y-78740000D03*
X152400000Y-81280000D03*
X154940000Y-81280000D03*
X152400000Y-83820000D03*
X154940000Y-83820000D03*
X152400000Y-86360000D03*
X154940000Y-86360000D03*
X152400000Y-88900000D03*
X154940000Y-88900000D03*
D12*
X154940000Y-134620000D03*
D13*
X152400000Y-134620000D03*
X154940000Y-132080000D03*
X152400000Y-132080000D03*
X154940000Y-129540000D03*
X152400000Y-129540000D03*
X154940000Y-127000000D03*
X152400000Y-127000000D03*
X154940000Y-124460000D03*
X152400000Y-124460000D03*
X154940000Y-121920000D03*
X152400000Y-121920000D03*
X154940000Y-119380000D03*
X152400000Y-119380000D03*
X154940000Y-116840000D03*
X152400000Y-116840000D03*
X154940000Y-114300000D03*
X152400000Y-114300000D03*
X154940000Y-111760000D03*
X152400000Y-111760000D03*
X154940000Y-109220000D03*
X152400000Y-109220000D03*
X154940000Y-106680000D03*
X152400000Y-106680000D03*
X154940000Y-104140000D03*
X152400000Y-104140000D03*
X154940000Y-101600000D03*
X152400000Y-101600000D03*
X154940000Y-99060000D03*
X152400000Y-99060000D03*
X154940000Y-96520000D03*
X152400000Y-96520000D03*
D14*
X138500000Y-118000000D03*
D15*
X138750000Y-116562500D03*
D16*
X139687500Y-117000000D03*
X139687500Y-117500000D03*
X139687500Y-118000000D03*
X139687500Y-118500000D03*
X139687500Y-119000000D03*
D15*
X138750000Y-119437500D03*
X138250000Y-119437500D03*
D16*
X137312500Y-119000000D03*
X137312500Y-118500000D03*
X137312500Y-118000000D03*
X137312500Y-117500000D03*
X137312500Y-117000000D03*
D15*
X138250000Y-116562500D03*
D17*
X137020000Y-115000000D03*
X137980000Y-115000000D03*
D18*
X139980000Y-115000000D03*
X139020000Y-115000000D03*
D14*
X138500000Y-92000000D03*
D15*
X138750000Y-90562500D03*
D16*
X139687500Y-91000000D03*
X139687500Y-91500000D03*
X139687500Y-92000000D03*
X139687500Y-92500000D03*
X139687500Y-93000000D03*
D15*
X138750000Y-93437500D03*
X138250000Y-93437500D03*
D16*
X137312500Y-93000000D03*
X137312500Y-92500000D03*
X137312500Y-92000000D03*
X137312500Y-91500000D03*
X137312500Y-91000000D03*
D15*
X138250000Y-90562500D03*
D17*
X137020000Y-89000000D03*
X137980000Y-89000000D03*
D18*
X139980000Y-89000000D03*
X139020000Y-89000000D03*
D19*
X126900000Y-87250000D03*
D20*
X120600000Y-89550000D03*
X120600000Y-87250000D03*
X120600000Y-84950000D03*
D21*
X122800000Y-81750000D03*
X124700000Y-81750000D03*
D22*
X124700000Y-92750000D03*
X122800000Y-92750000D03*
D17*
X137020000Y-82500000D03*
X137980000Y-82500000D03*
D14*
X138500000Y-85500000D03*
D15*
X138750000Y-84062500D03*
D16*
X139687500Y-84500000D03*
X139687500Y-85000000D03*
X139687500Y-85500000D03*
X139687500Y-86000000D03*
X139687500Y-86500000D03*
D15*
X138750000Y-86937500D03*
X138250000Y-86937500D03*
D16*
X137312500Y-86500000D03*
X137312500Y-86000000D03*
X137312500Y-85500000D03*
X137312500Y-85000000D03*
X137312500Y-84500000D03*
D15*
X138250000Y-84062500D03*
D18*
X139980000Y-82500000D03*
X139020000Y-82500000D03*
X139020000Y-121500000D03*
X139980000Y-121500000D03*
D17*
X137980000Y-121500000D03*
X137020000Y-121500000D03*
D15*
X138250000Y-123062500D03*
D16*
X137312500Y-123500000D03*
X137312500Y-124000000D03*
X137312500Y-124500000D03*
X137312500Y-125000000D03*
X137312500Y-125500000D03*
D15*
X138250000Y-125937500D03*
X138750000Y-125937500D03*
D16*
X139687500Y-125500000D03*
X139687500Y-125000000D03*
X139687500Y-124500000D03*
X139687500Y-124000000D03*
X139687500Y-123500000D03*
D15*
X138750000Y-123062500D03*
D14*
X138500000Y-124500000D03*
D15*
X138250000Y-97062500D03*
D16*
X137312500Y-97500000D03*
X137312500Y-98000000D03*
X137312500Y-98500000D03*
X137312500Y-99000000D03*
X137312500Y-99500000D03*
D15*
X138250000Y-99937500D03*
X138750000Y-99937500D03*
D16*
X139687500Y-99500000D03*
X139687500Y-99000000D03*
X139687500Y-98500000D03*
X139687500Y-98000000D03*
X139687500Y-97500000D03*
D15*
X138750000Y-97062500D03*
D14*
X138500000Y-98500000D03*
D15*
X138250000Y-103562500D03*
D16*
X137312500Y-104000000D03*
X137312500Y-104500000D03*
X137312500Y-105000000D03*
X137312500Y-105500000D03*
X137312500Y-106000000D03*
D15*
X138250000Y-106437500D03*
X138750000Y-106437500D03*
D16*
X139687500Y-106000000D03*
X139687500Y-105500000D03*
X139687500Y-105000000D03*
X139687500Y-104500000D03*
X139687500Y-104000000D03*
D15*
X138750000Y-103562500D03*
D14*
X138500000Y-105000000D03*
X138500000Y-111500000D03*
D15*
X138750000Y-110062500D03*
D16*
X139687500Y-110500000D03*
X139687500Y-111000000D03*
X139687500Y-111500000D03*
X139687500Y-112000000D03*
X139687500Y-112500000D03*
D15*
X138750000Y-112937500D03*
X138250000Y-112937500D03*
D16*
X137312500Y-112500000D03*
X137312500Y-112000000D03*
X137312500Y-111500000D03*
X137312500Y-111000000D03*
X137312500Y-110500000D03*
D15*
X138250000Y-110062500D03*
D17*
X137960000Y-108500000D03*
X137000000Y-108500000D03*
D18*
X139980000Y-108500000D03*
X139020000Y-108500000D03*
D17*
X137980000Y-102000000D03*
X137020000Y-102000000D03*
D18*
X139020000Y-102000000D03*
X139980000Y-102000000D03*
D17*
X137980000Y-95500000D03*
X137020000Y-95500000D03*
D18*
X139020000Y-95500000D03*
X139980000Y-95500000D03*
M02*
