G04 #@! TF.GenerationSoftware,KiCad,Pcbnew,9.0.1*
G04 #@! TF.CreationDate,2025-10-08T22:03:34-06:00*
G04 #@! TF.ProjectId,testbench,74657374-6265-46e6-9368-2e6b69636164,rev?*
G04 #@! TF.SameCoordinates,Original*
G04 #@! TF.FileFunction,Copper,L2,Bot*
G04 #@! TF.FilePolarity,Positive*
%FSLAX46Y46*%
G04 Gerber Fmt 4.6, Leading zero omitted, Abs format (unit mm)*
G04 Created by KiCad (PCBNEW 9.0.1) date 2025-10-08 22:03:34*
%MOMM*%
%LPD*%
G01*
G04 APERTURE LIST*
G04 #@! TA.AperFunction,ComponentPad*
%ADD10R,1.700000X1.700000*%
G04 #@! TD*
G04 #@! TA.AperFunction,ComponentPad*
%ADD11C,1.700000*%
G04 #@! TD*
G04 #@! TA.AperFunction,ViaPad*
%ADD12C,0.600000*%
G04 #@! TD*
G04 #@! TA.AperFunction,Conductor*
%ADD13C,0.600000*%
G04 #@! TD*
G04 #@! TA.AperFunction,Conductor*
%ADD14C,0.250000*%
G04 #@! TD*
G04 APERTURE END LIST*
D10*
X121920000Y-132080000D03*
D11*
X121920000Y-134620000D03*
D10*
X116840000Y-132080000D03*
D11*
X116840000Y-134620000D03*
X111760000Y-134620000D03*
D10*
X111760000Y-132080000D03*
D11*
X111760000Y-93980000D03*
D10*
X114300000Y-93980000D03*
D11*
X111760000Y-88900000D03*
D10*
X114300000Y-88900000D03*
X111760000Y-83820000D03*
D11*
X111760000Y-81280000D03*
X111760000Y-78740000D03*
D10*
X152400000Y-78740000D03*
D11*
X154940000Y-78740000D03*
X152400000Y-81280000D03*
X154940000Y-81280000D03*
X152400000Y-83820000D03*
X154940000Y-83820000D03*
X152400000Y-86360000D03*
X154940000Y-86360000D03*
X152400000Y-88900000D03*
X154940000Y-88900000D03*
D10*
X154940000Y-134620000D03*
D11*
X152400000Y-134620000D03*
X154940000Y-132080000D03*
X152400000Y-132080000D03*
X154940000Y-129540000D03*
X152400000Y-129540000D03*
X154940000Y-127000000D03*
X152400000Y-127000000D03*
X154940000Y-124460000D03*
X152400000Y-124460000D03*
X154940000Y-121920000D03*
X152400000Y-121920000D03*
X154940000Y-119380000D03*
X152400000Y-119380000D03*
X154940000Y-116840000D03*
X152400000Y-116840000D03*
X154940000Y-114300000D03*
X152400000Y-114300000D03*
X154940000Y-111760000D03*
X152400000Y-111760000D03*
X154940000Y-109220000D03*
X152400000Y-109220000D03*
X154940000Y-106680000D03*
X152400000Y-106680000D03*
X154940000Y-104140000D03*
X152400000Y-104140000D03*
X154940000Y-101600000D03*
X152400000Y-101600000D03*
X154940000Y-99060000D03*
X152400000Y-99060000D03*
X154940000Y-96520000D03*
X152400000Y-96520000D03*
D12*
X122500000Y-95000000D03*
X126000000Y-92750000D03*
X115000000Y-112000000D03*
X118500000Y-127000000D03*
X117750000Y-126250000D03*
X117750000Y-123000000D03*
X118500000Y-123750000D03*
X134750000Y-122750000D03*
X134750000Y-116250000D03*
X134750000Y-109750000D03*
X134750000Y-103250000D03*
X134750000Y-83750000D03*
X134750000Y-90250000D03*
X134750000Y-96750000D03*
X139000000Y-127000000D03*
X141000000Y-115000000D03*
X139000000Y-114000000D03*
X136000000Y-115000000D03*
X138000000Y-120500000D03*
X139000000Y-88000000D03*
X141000000Y-89000000D03*
X136000000Y-89000000D03*
X138000000Y-94500000D03*
X120500000Y-81750000D03*
X136000000Y-82500000D03*
X138000000Y-88000000D03*
X141000000Y-82500000D03*
X139000000Y-81500000D03*
X138000000Y-127000000D03*
X141000000Y-121500000D03*
X136000000Y-121500000D03*
X139000000Y-120500000D03*
X138000000Y-107500000D03*
X138000000Y-114000000D03*
X138000000Y-101000000D03*
X139000000Y-94500000D03*
X139000000Y-107500000D03*
X139000000Y-101000000D03*
X141000000Y-102000000D03*
X136000000Y-102000000D03*
X141000000Y-95500000D03*
X136000000Y-95500000D03*
X141000000Y-108500000D03*
X136000000Y-108500000D03*
D13*
X134750000Y-90250000D02*
X134750000Y-95000000D01*
X122500000Y-95000000D02*
X134750000Y-95000000D01*
D14*
X117750000Y-123000000D02*
X117750000Y-126250000D01*
X118500000Y-123750000D02*
X118500000Y-127000000D01*
D13*
X134750000Y-116250000D02*
X134750000Y-122750000D01*
X134750000Y-109750000D02*
X134750000Y-116250000D01*
X134750000Y-103250000D02*
X134750000Y-109750000D01*
X134750000Y-96750000D02*
X134750000Y-103250000D01*
X134750000Y-95000000D02*
X134750000Y-96750000D01*
X134750000Y-83750000D02*
X134750000Y-90250000D01*
X139000000Y-120500000D02*
X139000000Y-127000000D01*
X139000000Y-114000000D02*
X139000000Y-120500000D01*
X139000000Y-107500000D02*
X139000000Y-114000000D01*
X139000000Y-101000000D02*
X139000000Y-107500000D01*
X139000000Y-94500000D02*
X139000000Y-101000000D01*
X139000000Y-88000000D02*
X139000000Y-94500000D01*
X139000000Y-81500000D02*
X139000000Y-88000000D01*
G04 #@! TA.AperFunction,Conductor*
G36*
X158692863Y-76854685D02*
G01*
X158713505Y-76871319D01*
X159348681Y-77506494D01*
X159382166Y-77567817D01*
X159385000Y-77594175D01*
X159385000Y-135765824D01*
X159365315Y-135832863D01*
X159348681Y-135853505D01*
X158713505Y-136488681D01*
X158652182Y-136522166D01*
X158625824Y-136525000D01*
X110614175Y-136525000D01*
X110547136Y-136505315D01*
X110526494Y-136488681D01*
X109891319Y-135853505D01*
X109857834Y-135792182D01*
X109855000Y-135765824D01*
X109855000Y-134516530D01*
X110709500Y-134516530D01*
X110709500Y-134723469D01*
X110749868Y-134926412D01*
X110749870Y-134926420D01*
X110829058Y-135117596D01*
X110944024Y-135289657D01*
X111090342Y-135435975D01*
X111090345Y-135435977D01*
X111262402Y-135550941D01*
X111453580Y-135630130D01*
X111656530Y-135670499D01*
X111656534Y-135670500D01*
X111656535Y-135670500D01*
X111863466Y-135670500D01*
X111863467Y-135670499D01*
X112066420Y-135630130D01*
X112257598Y-135550941D01*
X112429655Y-135435977D01*
X112575977Y-135289655D01*
X112690941Y-135117598D01*
X112770130Y-134926420D01*
X112810500Y-134723465D01*
X112810500Y-134516535D01*
X112810499Y-134516530D01*
X115789500Y-134516530D01*
X115789500Y-134723469D01*
X115829868Y-134926412D01*
X115829870Y-134926420D01*
X115909058Y-135117596D01*
X116024024Y-135289657D01*
X116170342Y-135435975D01*
X116170345Y-135435977D01*
X116342402Y-135550941D01*
X116533580Y-135630130D01*
X116736530Y-135670499D01*
X116736534Y-135670500D01*
X116736535Y-135670500D01*
X116943466Y-135670500D01*
X116943467Y-135670499D01*
X117146420Y-135630130D01*
X117337598Y-135550941D01*
X117509655Y-135435977D01*
X117655977Y-135289655D01*
X117770941Y-135117598D01*
X117850130Y-134926420D01*
X117890500Y-134723465D01*
X117890500Y-134516535D01*
X117890499Y-134516530D01*
X120869500Y-134516530D01*
X120869500Y-134723469D01*
X120909868Y-134926412D01*
X120909870Y-134926420D01*
X120989058Y-135117596D01*
X121104024Y-135289657D01*
X121250342Y-135435975D01*
X121250345Y-135435977D01*
X121422402Y-135550941D01*
X121613580Y-135630130D01*
X121816530Y-135670499D01*
X121816534Y-135670500D01*
X121816535Y-135670500D01*
X122023466Y-135670500D01*
X122023467Y-135670499D01*
X122226420Y-135630130D01*
X122417598Y-135550941D01*
X122589655Y-135435977D01*
X122735977Y-135289655D01*
X122850941Y-135117598D01*
X122930130Y-134926420D01*
X122970500Y-134723465D01*
X122970500Y-134516535D01*
X122930130Y-134313580D01*
X122850941Y-134122402D01*
X122735977Y-133950345D01*
X122735975Y-133950342D01*
X122589657Y-133804024D01*
X122503626Y-133746541D01*
X122417598Y-133689059D01*
X122226420Y-133609870D01*
X122226412Y-133609868D01*
X122023469Y-133569500D01*
X122023465Y-133569500D01*
X121816535Y-133569500D01*
X121816530Y-133569500D01*
X121613587Y-133609868D01*
X121613579Y-133609870D01*
X121422403Y-133689058D01*
X121250342Y-133804024D01*
X121104024Y-133950342D01*
X120989058Y-134122403D01*
X120909870Y-134313579D01*
X120909868Y-134313587D01*
X120869500Y-134516530D01*
X117890499Y-134516530D01*
X117850130Y-134313580D01*
X117770941Y-134122402D01*
X117655977Y-133950345D01*
X117655975Y-133950342D01*
X117509657Y-133804024D01*
X117423626Y-133746541D01*
X117337598Y-133689059D01*
X117146420Y-133609870D01*
X117146412Y-133609868D01*
X116943469Y-133569500D01*
X116943465Y-133569500D01*
X116736535Y-133569500D01*
X116736530Y-133569500D01*
X116533587Y-133609868D01*
X116533579Y-133609870D01*
X116342403Y-133689058D01*
X116170342Y-133804024D01*
X116024024Y-133950342D01*
X115909058Y-134122403D01*
X115829870Y-134313579D01*
X115829868Y-134313587D01*
X115789500Y-134516530D01*
X112810499Y-134516530D01*
X112770130Y-134313580D01*
X112690941Y-134122402D01*
X112575977Y-133950345D01*
X112575975Y-133950342D01*
X112429657Y-133804024D01*
X112343626Y-133746541D01*
X112257598Y-133689059D01*
X112066420Y-133609870D01*
X112066412Y-133609868D01*
X111863469Y-133569500D01*
X111863465Y-133569500D01*
X111656535Y-133569500D01*
X111656530Y-133569500D01*
X111453587Y-133609868D01*
X111453579Y-133609870D01*
X111262403Y-133689058D01*
X111090342Y-133804024D01*
X110944024Y-133950342D01*
X110829058Y-134122403D01*
X110749870Y-134313579D01*
X110749868Y-134313587D01*
X110709500Y-134516530D01*
X109855000Y-134516530D01*
X109855000Y-131210247D01*
X110709500Y-131210247D01*
X110709500Y-132949752D01*
X110721131Y-133008229D01*
X110721132Y-133008230D01*
X110765447Y-133074552D01*
X110831769Y-133118867D01*
X110831770Y-133118868D01*
X110890247Y-133130499D01*
X110890250Y-133130500D01*
X110890252Y-133130500D01*
X112629750Y-133130500D01*
X112629751Y-133130499D01*
X112644568Y-133127552D01*
X112688229Y-133118868D01*
X112688229Y-133118867D01*
X112688231Y-133118867D01*
X112754552Y-133074552D01*
X112798867Y-133008231D01*
X112798867Y-133008229D01*
X112798868Y-133008229D01*
X112810499Y-132949752D01*
X112810500Y-132949750D01*
X112810500Y-131210249D01*
X112810499Y-131210247D01*
X115789500Y-131210247D01*
X115789500Y-132949752D01*
X115801131Y-133008229D01*
X115801132Y-133008230D01*
X115845447Y-133074552D01*
X115911769Y-133118867D01*
X115911770Y-133118868D01*
X115970247Y-133130499D01*
X115970250Y-133130500D01*
X115970252Y-133130500D01*
X117709750Y-133130500D01*
X117709751Y-133130499D01*
X117724568Y-133127552D01*
X117768229Y-133118868D01*
X117768229Y-133118867D01*
X117768231Y-133118867D01*
X117834552Y-133074552D01*
X117878867Y-133008231D01*
X117878867Y-133008229D01*
X117878868Y-133008229D01*
X117890499Y-132949752D01*
X117890500Y-132949750D01*
X117890500Y-131210249D01*
X117890499Y-131210247D01*
X120869500Y-131210247D01*
X120869500Y-132949752D01*
X120881131Y-133008229D01*
X120881132Y-133008230D01*
X120925447Y-133074552D01*
X120991769Y-133118867D01*
X120991770Y-133118868D01*
X121050247Y-133130499D01*
X121050250Y-133130500D01*
X121050252Y-133130500D01*
X122789750Y-133130500D01*
X122789751Y-133130499D01*
X122804568Y-133127552D01*
X122848229Y-133118868D01*
X122848229Y-133118867D01*
X122848231Y-133118867D01*
X122914552Y-133074552D01*
X122958867Y-133008231D01*
X122958867Y-133008229D01*
X122958868Y-133008229D01*
X122970499Y-132949752D01*
X122970500Y-132949750D01*
X122970500Y-131976530D01*
X151349500Y-131976530D01*
X151349500Y-132183469D01*
X151389868Y-132386412D01*
X151389870Y-132386420D01*
X151469058Y-132577596D01*
X151584024Y-132749657D01*
X151730342Y-132895975D01*
X151730345Y-132895977D01*
X151902402Y-133010941D01*
X152093580Y-133090130D01*
X152238052Y-133118867D01*
X152296530Y-133130499D01*
X152296534Y-133130500D01*
X152296535Y-133130500D01*
X152503466Y-133130500D01*
X152503467Y-133130499D01*
X152706420Y-133090130D01*
X152897598Y-133010941D01*
X153069655Y-132895977D01*
X153215977Y-132749655D01*
X153330941Y-132577598D01*
X153410130Y-132386420D01*
X153450500Y-132183465D01*
X153450500Y-131976535D01*
X153450499Y-131976530D01*
X153889500Y-131976530D01*
X153889500Y-132183469D01*
X153929868Y-132386412D01*
X153929870Y-132386420D01*
X154009058Y-132577596D01*
X154124024Y-132749657D01*
X154270342Y-132895975D01*
X154270345Y-132895977D01*
X154442402Y-133010941D01*
X154633580Y-133090130D01*
X154778052Y-133118867D01*
X154836530Y-133130499D01*
X154836534Y-133130500D01*
X154836535Y-133130500D01*
X155043466Y-133130500D01*
X155043467Y-133130499D01*
X155246420Y-133090130D01*
X155437598Y-133010941D01*
X155609655Y-132895977D01*
X155755977Y-132749655D01*
X155870941Y-132577598D01*
X155950130Y-132386420D01*
X155990500Y-132183465D01*
X155990500Y-131976535D01*
X155950130Y-131773580D01*
X155870941Y-131582402D01*
X155755977Y-131410345D01*
X155755975Y-131410342D01*
X155609657Y-131264024D01*
X155441655Y-131151770D01*
X155437598Y-131149059D01*
X155246420Y-131069870D01*
X155246412Y-131069868D01*
X155043469Y-131029500D01*
X155043465Y-131029500D01*
X154836535Y-131029500D01*
X154836530Y-131029500D01*
X154633587Y-131069868D01*
X154633579Y-131069870D01*
X154442403Y-131149058D01*
X154270342Y-131264024D01*
X154124024Y-131410342D01*
X154009058Y-131582403D01*
X153929870Y-131773579D01*
X153929868Y-131773587D01*
X153889500Y-131976530D01*
X153450499Y-131976530D01*
X153410130Y-131773580D01*
X153330941Y-131582402D01*
X153215977Y-131410345D01*
X153215975Y-131410342D01*
X153069657Y-131264024D01*
X152901655Y-131151770D01*
X152897598Y-131149059D01*
X152706420Y-131069870D01*
X152706412Y-131069868D01*
X152503469Y-131029500D01*
X152503465Y-131029500D01*
X152296535Y-131029500D01*
X152296530Y-131029500D01*
X152093587Y-131069868D01*
X152093579Y-131069870D01*
X151902403Y-131149058D01*
X151730342Y-131264024D01*
X151584024Y-131410342D01*
X151469058Y-131582403D01*
X151389870Y-131773579D01*
X151389868Y-131773587D01*
X151349500Y-131976530D01*
X122970500Y-131976530D01*
X122970500Y-131210249D01*
X122970499Y-131210247D01*
X122958868Y-131151770D01*
X122958867Y-131151769D01*
X122914552Y-131085447D01*
X122848230Y-131041132D01*
X122848229Y-131041131D01*
X122789752Y-131029500D01*
X122789748Y-131029500D01*
X121050252Y-131029500D01*
X121050247Y-131029500D01*
X120991770Y-131041131D01*
X120991769Y-131041132D01*
X120925447Y-131085447D01*
X120881132Y-131151769D01*
X120881131Y-131151770D01*
X120869500Y-131210247D01*
X117890499Y-131210247D01*
X117878868Y-131151770D01*
X117878867Y-131151769D01*
X117834552Y-131085447D01*
X117768230Y-131041132D01*
X117768229Y-131041131D01*
X117709752Y-131029500D01*
X117709748Y-131029500D01*
X115970252Y-131029500D01*
X115970247Y-131029500D01*
X115911770Y-131041131D01*
X115911769Y-131041132D01*
X115845447Y-131085447D01*
X115801132Y-131151769D01*
X115801131Y-131151770D01*
X115789500Y-131210247D01*
X112810499Y-131210247D01*
X112798868Y-131151770D01*
X112798867Y-131151769D01*
X112754552Y-131085447D01*
X112688230Y-131041132D01*
X112688229Y-131041131D01*
X112629752Y-131029500D01*
X112629748Y-131029500D01*
X110890252Y-131029500D01*
X110890247Y-131029500D01*
X110831770Y-131041131D01*
X110831769Y-131041132D01*
X110765447Y-131085447D01*
X110721132Y-131151769D01*
X110721131Y-131151770D01*
X110709500Y-131210247D01*
X109855000Y-131210247D01*
X109855000Y-129436530D01*
X151349500Y-129436530D01*
X151349500Y-129643469D01*
X151389868Y-129846412D01*
X151389870Y-129846420D01*
X151469058Y-130037596D01*
X151584024Y-130209657D01*
X151730342Y-130355975D01*
X151730345Y-130355977D01*
X151902402Y-130470941D01*
X152093580Y-130550130D01*
X152296530Y-130590499D01*
X152296534Y-130590500D01*
X152296535Y-130590500D01*
X152503466Y-130590500D01*
X152503467Y-130590499D01*
X152706420Y-130550130D01*
X152897598Y-130470941D01*
X153069655Y-130355977D01*
X153215977Y-130209655D01*
X153330941Y-130037598D01*
X153410130Y-129846420D01*
X153450500Y-129643465D01*
X153450500Y-129436535D01*
X153450499Y-129436530D01*
X153889500Y-129436530D01*
X153889500Y-129643469D01*
X153929868Y-129846412D01*
X153929870Y-129846420D01*
X154009058Y-130037596D01*
X154124024Y-130209657D01*
X154270342Y-130355975D01*
X154270345Y-130355977D01*
X154442402Y-130470941D01*
X154633580Y-130550130D01*
X154836530Y-130590499D01*
X154836534Y-130590500D01*
X154836535Y-130590500D01*
X155043466Y-130590500D01*
X155043467Y-130590499D01*
X155246420Y-130550130D01*
X155437598Y-130470941D01*
X155609655Y-130355977D01*
X155755977Y-130209655D01*
X155870941Y-130037598D01*
X155950130Y-129846420D01*
X155990500Y-129643465D01*
X155990500Y-129436535D01*
X155950130Y-129233580D01*
X155870941Y-129042402D01*
X155755977Y-128870345D01*
X155755975Y-128870342D01*
X155609657Y-128724024D01*
X155523626Y-128666541D01*
X155437598Y-128609059D01*
X155246420Y-128529870D01*
X155246412Y-128529868D01*
X155043469Y-128489500D01*
X155043465Y-128489500D01*
X154836535Y-128489500D01*
X154836530Y-128489500D01*
X154633587Y-128529868D01*
X154633579Y-128529870D01*
X154442403Y-128609058D01*
X154270342Y-128724024D01*
X154124024Y-128870342D01*
X154009058Y-129042403D01*
X153929870Y-129233579D01*
X153929868Y-129233587D01*
X153889500Y-129436530D01*
X153450499Y-129436530D01*
X153410130Y-129233580D01*
X153330941Y-129042402D01*
X153215977Y-128870345D01*
X153215975Y-128870342D01*
X153069657Y-128724024D01*
X152983626Y-128666541D01*
X152897598Y-128609059D01*
X152706420Y-128529870D01*
X152706412Y-128529868D01*
X152503469Y-128489500D01*
X152503465Y-128489500D01*
X152296535Y-128489500D01*
X152296530Y-128489500D01*
X152093587Y-128529868D01*
X152093579Y-128529870D01*
X151902403Y-128609058D01*
X151730342Y-128724024D01*
X151584024Y-128870342D01*
X151469058Y-129042403D01*
X151389870Y-129233579D01*
X151389868Y-129233587D01*
X151349500Y-129436530D01*
X109855000Y-129436530D01*
X109855000Y-122934108D01*
X117249500Y-122934108D01*
X117249500Y-123065892D01*
X117261117Y-123109248D01*
X117283608Y-123193187D01*
X117316121Y-123249500D01*
X117349500Y-123307314D01*
X117349502Y-123307316D01*
X117388181Y-123345995D01*
X117421666Y-123407318D01*
X117424500Y-123433676D01*
X117424500Y-125816324D01*
X117404815Y-125883363D01*
X117388181Y-125904005D01*
X117349502Y-125942683D01*
X117349500Y-125942686D01*
X117283608Y-126056812D01*
X117249500Y-126184108D01*
X117249500Y-126315891D01*
X117283608Y-126443187D01*
X117316554Y-126500250D01*
X117349500Y-126557314D01*
X117442686Y-126650500D01*
X117556814Y-126716392D01*
X117684108Y-126750500D01*
X117684110Y-126750500D01*
X117815890Y-126750500D01*
X117815892Y-126750500D01*
X117859251Y-126738882D01*
X117929097Y-126740543D01*
X117986961Y-126779705D01*
X118014466Y-126843933D01*
X118011118Y-126890749D01*
X117999500Y-126934108D01*
X117999500Y-127065891D01*
X118033608Y-127193187D01*
X118066554Y-127250250D01*
X118099500Y-127307314D01*
X118192686Y-127400500D01*
X118306814Y-127466392D01*
X118434108Y-127500500D01*
X118434110Y-127500500D01*
X118565890Y-127500500D01*
X118565892Y-127500500D01*
X118693186Y-127466392D01*
X118807314Y-127400500D01*
X118900500Y-127307314D01*
X118966392Y-127193186D01*
X119000500Y-127065892D01*
X119000500Y-126934108D01*
X118966392Y-126806814D01*
X118900500Y-126692686D01*
X118861819Y-126654005D01*
X118828334Y-126592682D01*
X118825500Y-126566324D01*
X118825500Y-124183676D01*
X118845185Y-124116637D01*
X118861819Y-124095995D01*
X118900500Y-124057314D01*
X118966392Y-123943186D01*
X119000500Y-123815892D01*
X119000500Y-123684108D01*
X118966392Y-123556814D01*
X118900500Y-123442686D01*
X118807314Y-123349500D01*
X118750250Y-123316554D01*
X118693187Y-123283608D01*
X118603045Y-123259455D01*
X118565892Y-123249500D01*
X118434108Y-123249500D01*
X118390749Y-123261118D01*
X118320899Y-123259455D01*
X118263037Y-123220292D01*
X118235533Y-123156063D01*
X118238881Y-123109252D01*
X118250500Y-123065892D01*
X118250500Y-122934108D01*
X118216392Y-122806814D01*
X118150500Y-122692686D01*
X118057314Y-122599500D01*
X118000250Y-122566554D01*
X117943187Y-122533608D01*
X117879539Y-122516554D01*
X117815892Y-122499500D01*
X117684108Y-122499500D01*
X117556812Y-122533608D01*
X117442686Y-122599500D01*
X117442683Y-122599502D01*
X117349502Y-122692683D01*
X117349500Y-122692686D01*
X117283608Y-122806812D01*
X117249500Y-122934108D01*
X109855000Y-122934108D01*
X109855000Y-93876530D01*
X110709500Y-93876530D01*
X110709500Y-94083469D01*
X110749868Y-94286412D01*
X110749870Y-94286420D01*
X110829059Y-94477598D01*
X110886541Y-94563626D01*
X110944024Y-94649657D01*
X111090342Y-94795975D01*
X111090345Y-94795977D01*
X111262402Y-94910941D01*
X111453580Y-94990130D01*
X111598052Y-95018867D01*
X111656530Y-95030499D01*
X111656534Y-95030500D01*
X111656535Y-95030500D01*
X111863466Y-95030500D01*
X111863467Y-95030499D01*
X112066420Y-94990130D01*
X112257598Y-94910941D01*
X112429655Y-94795977D01*
X112575977Y-94649655D01*
X112690941Y-94477598D01*
X112770130Y-94286420D01*
X112810500Y-94083465D01*
X112810500Y-93876535D01*
X112770130Y-93673580D01*
X112690941Y-93482402D01*
X112575977Y-93310345D01*
X112575975Y-93310342D01*
X112429657Y-93164024D01*
X112349173Y-93110247D01*
X113249500Y-93110247D01*
X113249500Y-94849752D01*
X113261131Y-94908229D01*
X113261132Y-94908230D01*
X113305447Y-94974552D01*
X113371769Y-95018867D01*
X113371770Y-95018868D01*
X113430247Y-95030499D01*
X113430250Y-95030500D01*
X113430252Y-95030500D01*
X115169750Y-95030500D01*
X115169751Y-95030499D01*
X115184568Y-95027552D01*
X115228229Y-95018868D01*
X115228229Y-95018867D01*
X115228231Y-95018867D01*
X115294552Y-94974552D01*
X115321576Y-94934108D01*
X121999500Y-94934108D01*
X121999500Y-95065891D01*
X122033608Y-95193187D01*
X122066554Y-95250250D01*
X122099500Y-95307314D01*
X122192686Y-95400500D01*
X122306814Y-95466392D01*
X122434108Y-95500500D01*
X122565892Y-95500500D01*
X134125500Y-95500500D01*
X134192539Y-95520185D01*
X134238294Y-95572989D01*
X134249500Y-95624500D01*
X134249500Y-122815891D01*
X134283608Y-122943187D01*
X134316554Y-123000250D01*
X134349500Y-123057314D01*
X134442686Y-123150500D01*
X134556814Y-123216392D01*
X134684108Y-123250500D01*
X134684110Y-123250500D01*
X134815890Y-123250500D01*
X134815892Y-123250500D01*
X134943186Y-123216392D01*
X135057314Y-123150500D01*
X135150500Y-123057314D01*
X135216392Y-122943186D01*
X135250500Y-122815892D01*
X135250500Y-122684108D01*
X135250500Y-116184108D01*
X135250500Y-109684108D01*
X135250500Y-103184108D01*
X135250500Y-96684108D01*
X135250500Y-94934108D01*
X135250500Y-90184108D01*
X135250500Y-83684108D01*
X135216392Y-83556814D01*
X135150500Y-83442686D01*
X135057314Y-83349500D01*
X135000250Y-83316554D01*
X134943187Y-83283608D01*
X134879539Y-83266554D01*
X134815892Y-83249500D01*
X134684108Y-83249500D01*
X134556812Y-83283608D01*
X134442686Y-83349500D01*
X134442683Y-83349502D01*
X134349502Y-83442683D01*
X134349500Y-83442686D01*
X134283608Y-83556812D01*
X134249500Y-83684108D01*
X134249500Y-94375500D01*
X134229815Y-94442539D01*
X134177011Y-94488294D01*
X134125500Y-94499500D01*
X122434108Y-94499500D01*
X122306812Y-94533608D01*
X122192686Y-94599500D01*
X122192683Y-94599502D01*
X122099502Y-94692683D01*
X122099500Y-94692686D01*
X122033608Y-94806812D01*
X121999500Y-94934108D01*
X115321576Y-94934108D01*
X115338867Y-94908231D01*
X115338867Y-94908229D01*
X115338868Y-94908229D01*
X115340149Y-94901790D01*
X115350499Y-94849752D01*
X115350500Y-94849750D01*
X115350500Y-93110249D01*
X115350499Y-93110247D01*
X115338868Y-93051770D01*
X115338867Y-93051769D01*
X115294552Y-92985447D01*
X115228230Y-92941132D01*
X115228229Y-92941131D01*
X115169752Y-92929500D01*
X115169748Y-92929500D01*
X113430252Y-92929500D01*
X113430247Y-92929500D01*
X113371770Y-92941131D01*
X113371769Y-92941132D01*
X113305447Y-92985447D01*
X113261132Y-93051769D01*
X113261131Y-93051770D01*
X113249500Y-93110247D01*
X112349173Y-93110247D01*
X112261655Y-93051770D01*
X112257598Y-93049059D01*
X112066420Y-92969870D01*
X112066412Y-92969868D01*
X111863469Y-92929500D01*
X111863465Y-92929500D01*
X111656535Y-92929500D01*
X111656530Y-92929500D01*
X111453587Y-92969868D01*
X111453579Y-92969870D01*
X111262403Y-93049058D01*
X111090342Y-93164024D01*
X110944024Y-93310342D01*
X110829058Y-93482403D01*
X110749870Y-93673579D01*
X110749868Y-93673587D01*
X110709500Y-93876530D01*
X109855000Y-93876530D01*
X109855000Y-88796530D01*
X110709500Y-88796530D01*
X110709500Y-89003469D01*
X110749868Y-89206412D01*
X110749870Y-89206420D01*
X110829058Y-89397596D01*
X110944024Y-89569657D01*
X111090342Y-89715975D01*
X111090345Y-89715977D01*
X111262402Y-89830941D01*
X111453580Y-89910130D01*
X111598052Y-89938867D01*
X111656530Y-89950499D01*
X111656534Y-89950500D01*
X111656535Y-89950500D01*
X111863466Y-89950500D01*
X111863467Y-89950499D01*
X112066420Y-89910130D01*
X112257598Y-89830941D01*
X112429655Y-89715977D01*
X112575977Y-89569655D01*
X112690941Y-89397598D01*
X112770130Y-89206420D01*
X112810500Y-89003465D01*
X112810500Y-88796535D01*
X112770130Y-88593580D01*
X112690941Y-88402402D01*
X112575977Y-88230345D01*
X112575975Y-88230342D01*
X112429657Y-88084024D01*
X112349173Y-88030247D01*
X113249500Y-88030247D01*
X113249500Y-89769752D01*
X113261131Y-89828229D01*
X113261132Y-89828230D01*
X113305447Y-89894552D01*
X113371769Y-89938867D01*
X113371770Y-89938868D01*
X113430247Y-89950499D01*
X113430250Y-89950500D01*
X113430252Y-89950500D01*
X115169750Y-89950500D01*
X115169751Y-89950499D01*
X115184568Y-89947552D01*
X115228229Y-89938868D01*
X115228229Y-89938867D01*
X115228231Y-89938867D01*
X115294552Y-89894552D01*
X115338867Y-89828231D01*
X115338867Y-89828229D01*
X115338868Y-89828229D01*
X115350499Y-89769752D01*
X115350500Y-89769750D01*
X115350500Y-88030249D01*
X115350499Y-88030247D01*
X115338868Y-87971770D01*
X115338867Y-87971769D01*
X115294552Y-87905447D01*
X115228230Y-87861132D01*
X115228229Y-87861131D01*
X115169752Y-87849500D01*
X115169748Y-87849500D01*
X113430252Y-87849500D01*
X113430247Y-87849500D01*
X113371770Y-87861131D01*
X113371769Y-87861132D01*
X113305447Y-87905447D01*
X113261132Y-87971769D01*
X113261131Y-87971770D01*
X113249500Y-88030247D01*
X112349173Y-88030247D01*
X112261655Y-87971770D01*
X112257598Y-87969059D01*
X112173219Y-87934108D01*
X112066420Y-87889870D01*
X112066412Y-87889868D01*
X111863469Y-87849500D01*
X111863465Y-87849500D01*
X111656535Y-87849500D01*
X111656530Y-87849500D01*
X111453587Y-87889868D01*
X111453579Y-87889870D01*
X111262403Y-87969058D01*
X111090342Y-88084024D01*
X110944024Y-88230342D01*
X110829058Y-88402403D01*
X110749870Y-88593579D01*
X110749868Y-88593587D01*
X110709500Y-88796530D01*
X109855000Y-88796530D01*
X109855000Y-82950247D01*
X110709500Y-82950247D01*
X110709500Y-84689752D01*
X110721131Y-84748229D01*
X110721132Y-84748230D01*
X110765447Y-84814552D01*
X110831769Y-84858867D01*
X110831770Y-84858868D01*
X110890247Y-84870499D01*
X110890250Y-84870500D01*
X110890252Y-84870500D01*
X112629750Y-84870500D01*
X112629751Y-84870499D01*
X112644568Y-84867552D01*
X112688229Y-84858868D01*
X112688229Y-84858867D01*
X112688231Y-84858867D01*
X112754552Y-84814552D01*
X112798867Y-84748231D01*
X112798867Y-84748229D01*
X112798868Y-84748229D01*
X112810499Y-84689752D01*
X112810500Y-84689750D01*
X112810500Y-82950249D01*
X112810499Y-82950247D01*
X112798868Y-82891770D01*
X112798867Y-82891769D01*
X112754552Y-82825447D01*
X112688230Y-82781132D01*
X112688229Y-82781131D01*
X112629752Y-82769500D01*
X112629748Y-82769500D01*
X110890252Y-82769500D01*
X110890247Y-82769500D01*
X110831770Y-82781131D01*
X110831769Y-82781132D01*
X110765447Y-82825447D01*
X110721132Y-82891769D01*
X110721131Y-82891770D01*
X110709500Y-82950247D01*
X109855000Y-82950247D01*
X109855000Y-81176530D01*
X110709500Y-81176530D01*
X110709500Y-81383469D01*
X110749868Y-81586412D01*
X110749870Y-81586420D01*
X110829058Y-81777596D01*
X110944024Y-81949657D01*
X111090342Y-82095975D01*
X111090345Y-82095977D01*
X111262402Y-82210941D01*
X111453580Y-82290130D01*
X111656530Y-82330499D01*
X111656534Y-82330500D01*
X111656535Y-82330500D01*
X111863466Y-82330500D01*
X111863467Y-82330499D01*
X112066420Y-82290130D01*
X112257598Y-82210941D01*
X112429655Y-82095977D01*
X112575977Y-81949655D01*
X112690941Y-81777598D01*
X112770130Y-81586420D01*
X112800427Y-81434108D01*
X138499500Y-81434108D01*
X138499500Y-127065891D01*
X138533608Y-127193187D01*
X138566554Y-127250250D01*
X138599500Y-127307314D01*
X138692686Y-127400500D01*
X138806814Y-127466392D01*
X138934108Y-127500500D01*
X138934110Y-127500500D01*
X139065890Y-127500500D01*
X139065892Y-127500500D01*
X139193186Y-127466392D01*
X139307314Y-127400500D01*
X139400500Y-127307314D01*
X139466392Y-127193186D01*
X139500500Y-127065892D01*
X139500500Y-126934108D01*
X139500500Y-126896530D01*
X151349500Y-126896530D01*
X151349500Y-127103469D01*
X151389868Y-127306412D01*
X151389870Y-127306420D01*
X151456132Y-127466391D01*
X151469059Y-127497598D01*
X151470998Y-127500500D01*
X151584024Y-127669657D01*
X151730342Y-127815975D01*
X151730345Y-127815977D01*
X151902402Y-127930941D01*
X152093580Y-128010130D01*
X152296530Y-128050499D01*
X152296534Y-128050500D01*
X152296535Y-128050500D01*
X152503466Y-128050500D01*
X152503467Y-128050499D01*
X152706420Y-128010130D01*
X152897598Y-127930941D01*
X153069655Y-127815977D01*
X153215977Y-127669655D01*
X153330941Y-127497598D01*
X153410130Y-127306420D01*
X153450500Y-127103465D01*
X153450500Y-126896535D01*
X153450499Y-126896530D01*
X153889500Y-126896530D01*
X153889500Y-127103469D01*
X153929868Y-127306412D01*
X153929870Y-127306420D01*
X153996132Y-127466391D01*
X154009059Y-127497598D01*
X154010998Y-127500500D01*
X154124024Y-127669657D01*
X154270342Y-127815975D01*
X154270345Y-127815977D01*
X154442402Y-127930941D01*
X154633580Y-128010130D01*
X154836530Y-128050499D01*
X154836534Y-128050500D01*
X154836535Y-128050500D01*
X155043466Y-128050500D01*
X155043467Y-128050499D01*
X155246420Y-128010130D01*
X155437598Y-127930941D01*
X155609655Y-127815977D01*
X155755977Y-127669655D01*
X155870941Y-127497598D01*
X155950130Y-127306420D01*
X155990500Y-127103465D01*
X155990500Y-126896535D01*
X155950130Y-126693580D01*
X155870941Y-126502402D01*
X155755977Y-126330345D01*
X155755975Y-126330342D01*
X155609657Y-126184024D01*
X155523626Y-126126541D01*
X155437598Y-126069059D01*
X155408031Y-126056812D01*
X155246420Y-125989870D01*
X155246412Y-125989868D01*
X155043469Y-125949500D01*
X155043465Y-125949500D01*
X154836535Y-125949500D01*
X154836530Y-125949500D01*
X154633587Y-125989868D01*
X154633579Y-125989870D01*
X154442403Y-126069058D01*
X154270342Y-126184024D01*
X154124024Y-126330342D01*
X154009058Y-126502403D01*
X153929870Y-126693579D01*
X153929868Y-126693587D01*
X153889500Y-126896530D01*
X153450499Y-126896530D01*
X153410130Y-126693580D01*
X153330941Y-126502402D01*
X153215977Y-126330345D01*
X153215975Y-126330342D01*
X153069657Y-126184024D01*
X152983626Y-126126541D01*
X152897598Y-126069059D01*
X152868031Y-126056812D01*
X152706420Y-125989870D01*
X152706412Y-125989868D01*
X152503469Y-125949500D01*
X152503465Y-125949500D01*
X152296535Y-125949500D01*
X152296530Y-125949500D01*
X152093587Y-125989868D01*
X152093579Y-125989870D01*
X151902403Y-126069058D01*
X151730342Y-126184024D01*
X151584024Y-126330342D01*
X151469058Y-126502403D01*
X151389870Y-126693579D01*
X151389868Y-126693587D01*
X151349500Y-126896530D01*
X139500500Y-126896530D01*
X139500500Y-124356530D01*
X151349500Y-124356530D01*
X151349500Y-124563469D01*
X151389868Y-124766412D01*
X151389870Y-124766420D01*
X151469058Y-124957596D01*
X151584024Y-125129657D01*
X151730342Y-125275975D01*
X151730345Y-125275977D01*
X151902402Y-125390941D01*
X152093580Y-125470130D01*
X152296530Y-125510499D01*
X152296534Y-125510500D01*
X152296535Y-125510500D01*
X152503466Y-125510500D01*
X152503467Y-125510499D01*
X152706420Y-125470130D01*
X152897598Y-125390941D01*
X153069655Y-125275977D01*
X153215977Y-125129655D01*
X153330941Y-124957598D01*
X153410130Y-124766420D01*
X153450500Y-124563465D01*
X153450500Y-124356535D01*
X153450499Y-124356530D01*
X153889500Y-124356530D01*
X153889500Y-124563469D01*
X153929868Y-124766412D01*
X153929870Y-124766420D01*
X154009058Y-124957596D01*
X154124024Y-125129657D01*
X154270342Y-125275975D01*
X154270345Y-125275977D01*
X154442402Y-125390941D01*
X154633580Y-125470130D01*
X154836530Y-125510499D01*
X154836534Y-125510500D01*
X154836535Y-125510500D01*
X155043466Y-125510500D01*
X155043467Y-125510499D01*
X155246420Y-125470130D01*
X155437598Y-125390941D01*
X155609655Y-125275977D01*
X155755977Y-125129655D01*
X155870941Y-124957598D01*
X155950130Y-124766420D01*
X155990500Y-124563465D01*
X155990500Y-124356535D01*
X155950130Y-124153580D01*
X155870941Y-123962402D01*
X155755977Y-123790345D01*
X155755975Y-123790342D01*
X155609657Y-123644024D01*
X155523626Y-123586541D01*
X155437598Y-123529059D01*
X155246420Y-123449870D01*
X155246412Y-123449868D01*
X155043469Y-123409500D01*
X155043465Y-123409500D01*
X154836535Y-123409500D01*
X154836530Y-123409500D01*
X154633587Y-123449868D01*
X154633579Y-123449870D01*
X154442403Y-123529058D01*
X154270342Y-123644024D01*
X154124024Y-123790342D01*
X154009058Y-123962403D01*
X153929870Y-124153579D01*
X153929868Y-124153587D01*
X153889500Y-124356530D01*
X153450499Y-124356530D01*
X153410130Y-124153580D01*
X153330941Y-123962402D01*
X153215977Y-123790345D01*
X153215975Y-123790342D01*
X153069657Y-123644024D01*
X152983626Y-123586541D01*
X152897598Y-123529059D01*
X152706420Y-123449870D01*
X152706412Y-123449868D01*
X152503469Y-123409500D01*
X152503465Y-123409500D01*
X152296535Y-123409500D01*
X152296530Y-123409500D01*
X152093587Y-123449868D01*
X152093579Y-123449870D01*
X151902403Y-123529058D01*
X151730342Y-123644024D01*
X151584024Y-123790342D01*
X151469058Y-123962403D01*
X151389870Y-124153579D01*
X151389868Y-124153587D01*
X151349500Y-124356530D01*
X139500500Y-124356530D01*
X139500500Y-120434108D01*
X139500500Y-119276530D01*
X151349500Y-119276530D01*
X151349500Y-119483469D01*
X151389868Y-119686412D01*
X151389870Y-119686420D01*
X151469058Y-119877596D01*
X151584024Y-120049657D01*
X151730342Y-120195975D01*
X151730345Y-120195977D01*
X151902402Y-120310941D01*
X152093580Y-120390130D01*
X152296530Y-120430499D01*
X152296534Y-120430500D01*
X152296535Y-120430500D01*
X152503466Y-120430500D01*
X152503467Y-120430499D01*
X152706420Y-120390130D01*
X152897598Y-120310941D01*
X153069655Y-120195977D01*
X153215977Y-120049655D01*
X153330941Y-119877598D01*
X153410130Y-119686420D01*
X153450500Y-119483465D01*
X153450500Y-119276535D01*
X153450499Y-119276530D01*
X153889500Y-119276530D01*
X153889500Y-119483469D01*
X153929868Y-119686412D01*
X153929870Y-119686420D01*
X154009058Y-119877596D01*
X154124024Y-120049657D01*
X154270342Y-120195975D01*
X154270345Y-120195977D01*
X154442402Y-120310941D01*
X154633580Y-120390130D01*
X154836530Y-120430499D01*
X154836534Y-120430500D01*
X154836535Y-120430500D01*
X155043466Y-120430500D01*
X155043467Y-120430499D01*
X155246420Y-120390130D01*
X155437598Y-120310941D01*
X155609655Y-120195977D01*
X155755977Y-120049655D01*
X155870941Y-119877598D01*
X155950130Y-119686420D01*
X155990500Y-119483465D01*
X155990500Y-119276535D01*
X155950130Y-119073580D01*
X155870941Y-118882402D01*
X155755977Y-118710345D01*
X155755975Y-118710342D01*
X155609657Y-118564024D01*
X155523626Y-118506541D01*
X155437598Y-118449059D01*
X155246420Y-118369870D01*
X155246412Y-118369868D01*
X155043469Y-118329500D01*
X155043465Y-118329500D01*
X154836535Y-118329500D01*
X154836530Y-118329500D01*
X154633587Y-118369868D01*
X154633579Y-118369870D01*
X154442403Y-118449058D01*
X154270342Y-118564024D01*
X154124024Y-118710342D01*
X154009058Y-118882403D01*
X153929870Y-119073579D01*
X153929868Y-119073587D01*
X153889500Y-119276530D01*
X153450499Y-119276530D01*
X153410130Y-119073580D01*
X153330941Y-118882402D01*
X153215977Y-118710345D01*
X153215975Y-118710342D01*
X153069657Y-118564024D01*
X152983626Y-118506541D01*
X152897598Y-118449059D01*
X152706420Y-118369870D01*
X152706412Y-118369868D01*
X152503469Y-118329500D01*
X152503465Y-118329500D01*
X152296535Y-118329500D01*
X152296530Y-118329500D01*
X152093587Y-118369868D01*
X152093579Y-118369870D01*
X151902403Y-118449058D01*
X151730342Y-118564024D01*
X151584024Y-118710342D01*
X151469058Y-118882403D01*
X151389870Y-119073579D01*
X151389868Y-119073587D01*
X151349500Y-119276530D01*
X139500500Y-119276530D01*
X139500500Y-116736530D01*
X151349500Y-116736530D01*
X151349500Y-116943469D01*
X151389868Y-117146412D01*
X151389870Y-117146420D01*
X151469058Y-117337596D01*
X151584024Y-117509657D01*
X151730342Y-117655975D01*
X151730345Y-117655977D01*
X151902402Y-117770941D01*
X152093580Y-117850130D01*
X152296530Y-117890499D01*
X152296534Y-117890500D01*
X152296535Y-117890500D01*
X152503466Y-117890500D01*
X152503467Y-117890499D01*
X152706420Y-117850130D01*
X152897598Y-117770941D01*
X153069655Y-117655977D01*
X153215977Y-117509655D01*
X153330941Y-117337598D01*
X153410130Y-117146420D01*
X153450500Y-116943465D01*
X153450500Y-116736535D01*
X153450499Y-116736530D01*
X153889500Y-116736530D01*
X153889500Y-116943469D01*
X153929868Y-117146412D01*
X153929870Y-117146420D01*
X154009058Y-117337596D01*
X154124024Y-117509657D01*
X154270342Y-117655975D01*
X154270345Y-117655977D01*
X154442402Y-117770941D01*
X154633580Y-117850130D01*
X154836530Y-117890499D01*
X154836534Y-117890500D01*
X154836535Y-117890500D01*
X155043466Y-117890500D01*
X155043467Y-117890499D01*
X155246420Y-117850130D01*
X155437598Y-117770941D01*
X155609655Y-117655977D01*
X155755977Y-117509655D01*
X155870941Y-117337598D01*
X155950130Y-117146420D01*
X155990500Y-116943465D01*
X155990500Y-116736535D01*
X155950130Y-116533580D01*
X155870941Y-116342402D01*
X155755977Y-116170345D01*
X155755975Y-116170342D01*
X155609657Y-116024024D01*
X155523626Y-115966541D01*
X155437598Y-115909059D01*
X155246420Y-115829870D01*
X155246412Y-115829868D01*
X155043469Y-115789500D01*
X155043465Y-115789500D01*
X154836535Y-115789500D01*
X154836530Y-115789500D01*
X154633587Y-115829868D01*
X154633579Y-115829870D01*
X154442403Y-115909058D01*
X154270342Y-116024024D01*
X154124024Y-116170342D01*
X154009058Y-116342403D01*
X153929870Y-116533579D01*
X153929868Y-116533587D01*
X153889500Y-116736530D01*
X153450499Y-116736530D01*
X153410130Y-116533580D01*
X153330941Y-116342402D01*
X153215977Y-116170345D01*
X153215975Y-116170342D01*
X153069657Y-116024024D01*
X152983626Y-115966541D01*
X152897598Y-115909059D01*
X152706420Y-115829870D01*
X152706412Y-115829868D01*
X152503469Y-115789500D01*
X152503465Y-115789500D01*
X152296535Y-115789500D01*
X152296530Y-115789500D01*
X152093587Y-115829868D01*
X152093579Y-115829870D01*
X151902403Y-115909058D01*
X151730342Y-116024024D01*
X151584024Y-116170342D01*
X151469058Y-116342403D01*
X151389870Y-116533579D01*
X151389868Y-116533587D01*
X151349500Y-116736530D01*
X139500500Y-116736530D01*
X139500500Y-114196530D01*
X151349500Y-114196530D01*
X151349500Y-114403469D01*
X151389868Y-114606412D01*
X151389870Y-114606420D01*
X151469058Y-114797596D01*
X151584024Y-114969657D01*
X151730342Y-115115975D01*
X151730345Y-115115977D01*
X151902402Y-115230941D01*
X152093580Y-115310130D01*
X152296530Y-115350499D01*
X152296534Y-115350500D01*
X152296535Y-115350500D01*
X152503466Y-115350500D01*
X152503467Y-115350499D01*
X152706420Y-115310130D01*
X152897598Y-115230941D01*
X153069655Y-115115977D01*
X153215977Y-114969655D01*
X153330941Y-114797598D01*
X153410130Y-114606420D01*
X153450500Y-114403465D01*
X153450500Y-114196535D01*
X153450499Y-114196530D01*
X153889500Y-114196530D01*
X153889500Y-114403469D01*
X153929868Y-114606412D01*
X153929870Y-114606420D01*
X154009058Y-114797596D01*
X154124024Y-114969657D01*
X154270342Y-115115975D01*
X154270345Y-115115977D01*
X154442402Y-115230941D01*
X154633580Y-115310130D01*
X154836530Y-115350499D01*
X154836534Y-115350500D01*
X154836535Y-115350500D01*
X155043466Y-115350500D01*
X155043467Y-115350499D01*
X155246420Y-115310130D01*
X155437598Y-115230941D01*
X155609655Y-115115977D01*
X155755977Y-114969655D01*
X155870941Y-114797598D01*
X155950130Y-114606420D01*
X155990500Y-114403465D01*
X155990500Y-114196535D01*
X155950130Y-113993580D01*
X155870941Y-113802402D01*
X155755977Y-113630345D01*
X155755975Y-113630342D01*
X155609657Y-113484024D01*
X155523626Y-113426541D01*
X155437598Y-113369059D01*
X155246420Y-113289870D01*
X155246412Y-113289868D01*
X155043469Y-113249500D01*
X155043465Y-113249500D01*
X154836535Y-113249500D01*
X154836530Y-113249500D01*
X154633587Y-113289868D01*
X154633579Y-113289870D01*
X154442403Y-113369058D01*
X154270342Y-113484024D01*
X154124024Y-113630342D01*
X154009058Y-113802403D01*
X153929870Y-113993579D01*
X153929868Y-113993587D01*
X153889500Y-114196530D01*
X153450499Y-114196530D01*
X153410130Y-113993580D01*
X153330941Y-113802402D01*
X153215977Y-113630345D01*
X153215975Y-113630342D01*
X153069657Y-113484024D01*
X152983626Y-113426541D01*
X152897598Y-113369059D01*
X152706420Y-113289870D01*
X152706412Y-113289868D01*
X152503469Y-113249500D01*
X152503465Y-113249500D01*
X152296535Y-113249500D01*
X152296530Y-113249500D01*
X152093587Y-113289868D01*
X152093579Y-113289870D01*
X151902403Y-113369058D01*
X151730342Y-113484024D01*
X151584024Y-113630342D01*
X151469058Y-113802403D01*
X151389870Y-113993579D01*
X151389868Y-113993587D01*
X151349500Y-114196530D01*
X139500500Y-114196530D01*
X139500500Y-113934108D01*
X139500500Y-111656530D01*
X151349500Y-111656530D01*
X151349500Y-111863469D01*
X151389868Y-112066412D01*
X151389870Y-112066420D01*
X151469058Y-112257596D01*
X151584024Y-112429657D01*
X151730342Y-112575975D01*
X151730345Y-112575977D01*
X151902402Y-112690941D01*
X152093580Y-112770130D01*
X152296530Y-112810499D01*
X152296534Y-112810500D01*
X152296535Y-112810500D01*
X152503466Y-112810500D01*
X152503467Y-112810499D01*
X152706420Y-112770130D01*
X152897598Y-112690941D01*
X153069655Y-112575977D01*
X153215977Y-112429655D01*
X153330941Y-112257598D01*
X153410130Y-112066420D01*
X153450500Y-111863465D01*
X153450500Y-111656535D01*
X153450499Y-111656530D01*
X153889500Y-111656530D01*
X153889500Y-111863469D01*
X153929868Y-112066412D01*
X153929870Y-112066420D01*
X154009058Y-112257596D01*
X154124024Y-112429657D01*
X154270342Y-112575975D01*
X154270345Y-112575977D01*
X154442402Y-112690941D01*
X154633580Y-112770130D01*
X154836530Y-112810499D01*
X154836534Y-112810500D01*
X154836535Y-112810500D01*
X155043466Y-112810500D01*
X155043467Y-112810499D01*
X155246420Y-112770130D01*
X155437598Y-112690941D01*
X155609655Y-112575977D01*
X155755977Y-112429655D01*
X155870941Y-112257598D01*
X155950130Y-112066420D01*
X155990500Y-111863465D01*
X155990500Y-111656535D01*
X155950130Y-111453580D01*
X155870941Y-111262402D01*
X155755977Y-111090345D01*
X155755975Y-111090342D01*
X155609657Y-110944024D01*
X155523626Y-110886541D01*
X155437598Y-110829059D01*
X155246420Y-110749870D01*
X155246412Y-110749868D01*
X155043469Y-110709500D01*
X155043465Y-110709500D01*
X154836535Y-110709500D01*
X154836530Y-110709500D01*
X154633587Y-110749868D01*
X154633579Y-110749870D01*
X154442403Y-110829058D01*
X154270342Y-110944024D01*
X154124024Y-111090342D01*
X154009058Y-111262403D01*
X153929870Y-111453579D01*
X153929868Y-111453587D01*
X153889500Y-111656530D01*
X153450499Y-111656530D01*
X153410130Y-111453580D01*
X153330941Y-111262402D01*
X153215977Y-111090345D01*
X153215975Y-111090342D01*
X153069657Y-110944024D01*
X152983626Y-110886541D01*
X152897598Y-110829059D01*
X152706420Y-110749870D01*
X152706412Y-110749868D01*
X152503469Y-110709500D01*
X152503465Y-110709500D01*
X152296535Y-110709500D01*
X152296530Y-110709500D01*
X152093587Y-110749868D01*
X152093579Y-110749870D01*
X151902403Y-110829058D01*
X151730342Y-110944024D01*
X151584024Y-111090342D01*
X151469058Y-111262403D01*
X151389870Y-111453579D01*
X151389868Y-111453587D01*
X151349500Y-111656530D01*
X139500500Y-111656530D01*
X139500500Y-107434108D01*
X139500500Y-106576530D01*
X151349500Y-106576530D01*
X151349500Y-106783469D01*
X151389868Y-106986412D01*
X151389870Y-106986420D01*
X151469058Y-107177596D01*
X151584024Y-107349657D01*
X151730342Y-107495975D01*
X151730345Y-107495977D01*
X151902402Y-107610941D01*
X152093580Y-107690130D01*
X152296530Y-107730499D01*
X152296534Y-107730500D01*
X152296535Y-107730500D01*
X152503466Y-107730500D01*
X152503467Y-107730499D01*
X152706420Y-107690130D01*
X152897598Y-107610941D01*
X153069655Y-107495977D01*
X153215977Y-107349655D01*
X153330941Y-107177598D01*
X153410130Y-106986420D01*
X153450500Y-106783465D01*
X153450500Y-106576535D01*
X153450499Y-106576530D01*
X153889500Y-106576530D01*
X153889500Y-106783469D01*
X153929868Y-106986412D01*
X153929870Y-106986420D01*
X154009058Y-107177596D01*
X154124024Y-107349657D01*
X154270342Y-107495975D01*
X154270345Y-107495977D01*
X154442402Y-107610941D01*
X154633580Y-107690130D01*
X154836530Y-107730499D01*
X154836534Y-107730500D01*
X154836535Y-107730500D01*
X155043466Y-107730500D01*
X155043467Y-107730499D01*
X155246420Y-107690130D01*
X155437598Y-107610941D01*
X155609655Y-107495977D01*
X155755977Y-107349655D01*
X155870941Y-107177598D01*
X155950130Y-106986420D01*
X155990500Y-106783465D01*
X155990500Y-106576535D01*
X155950130Y-106373580D01*
X155870941Y-106182402D01*
X155755977Y-106010345D01*
X155755975Y-106010342D01*
X155609657Y-105864024D01*
X155523626Y-105806541D01*
X155437598Y-105749059D01*
X155246420Y-105669870D01*
X155246412Y-105669868D01*
X155043469Y-105629500D01*
X155043465Y-105629500D01*
X154836535Y-105629500D01*
X154836530Y-105629500D01*
X154633587Y-105669868D01*
X154633579Y-105669870D01*
X154442403Y-105749058D01*
X154270342Y-105864024D01*
X154124024Y-106010342D01*
X154009058Y-106182403D01*
X153929870Y-106373579D01*
X153929868Y-106373587D01*
X153889500Y-106576530D01*
X153450499Y-106576530D01*
X153410130Y-106373580D01*
X153330941Y-106182402D01*
X153215977Y-106010345D01*
X153215975Y-106010342D01*
X153069657Y-105864024D01*
X152983626Y-105806541D01*
X152897598Y-105749059D01*
X152706420Y-105669870D01*
X152706412Y-105669868D01*
X152503469Y-105629500D01*
X152503465Y-105629500D01*
X152296535Y-105629500D01*
X152296530Y-105629500D01*
X152093587Y-105669868D01*
X152093579Y-105669870D01*
X151902403Y-105749058D01*
X151730342Y-105864024D01*
X151584024Y-106010342D01*
X151469058Y-106182403D01*
X151389870Y-106373579D01*
X151389868Y-106373587D01*
X151349500Y-106576530D01*
X139500500Y-106576530D01*
X139500500Y-104036530D01*
X151349500Y-104036530D01*
X151349500Y-104243469D01*
X151389868Y-104446412D01*
X151389870Y-104446420D01*
X151469058Y-104637596D01*
X151584024Y-104809657D01*
X151730342Y-104955975D01*
X151730345Y-104955977D01*
X151902402Y-105070941D01*
X152093580Y-105150130D01*
X152296530Y-105190499D01*
X152296534Y-105190500D01*
X152296535Y-105190500D01*
X152503466Y-105190500D01*
X152503467Y-105190499D01*
X152706420Y-105150130D01*
X152897598Y-105070941D01*
X153069655Y-104955977D01*
X153215977Y-104809655D01*
X153330941Y-104637598D01*
X153410130Y-104446420D01*
X153450500Y-104243465D01*
X153450500Y-104036535D01*
X153450499Y-104036530D01*
X153889500Y-104036530D01*
X153889500Y-104243469D01*
X153929868Y-104446412D01*
X153929870Y-104446420D01*
X154009058Y-104637596D01*
X154124024Y-104809657D01*
X154270342Y-104955975D01*
X154270345Y-104955977D01*
X154442402Y-105070941D01*
X154633580Y-105150130D01*
X154836530Y-105190499D01*
X154836534Y-105190500D01*
X154836535Y-105190500D01*
X155043466Y-105190500D01*
X155043467Y-105190499D01*
X155246420Y-105150130D01*
X155437598Y-105070941D01*
X155609655Y-104955977D01*
X155755977Y-104809655D01*
X155870941Y-104637598D01*
X155950130Y-104446420D01*
X155990500Y-104243465D01*
X155990500Y-104036535D01*
X155950130Y-103833580D01*
X155870941Y-103642402D01*
X155755977Y-103470345D01*
X155755975Y-103470342D01*
X155609657Y-103324024D01*
X155523626Y-103266541D01*
X155437598Y-103209059D01*
X155377361Y-103184108D01*
X155246420Y-103129870D01*
X155246412Y-103129868D01*
X155043469Y-103089500D01*
X155043465Y-103089500D01*
X154836535Y-103089500D01*
X154836530Y-103089500D01*
X154633587Y-103129868D01*
X154633579Y-103129870D01*
X154442403Y-103209058D01*
X154270342Y-103324024D01*
X154124024Y-103470342D01*
X154009058Y-103642403D01*
X153929870Y-103833579D01*
X153929868Y-103833587D01*
X153889500Y-104036530D01*
X153450499Y-104036530D01*
X153410130Y-103833580D01*
X153330941Y-103642402D01*
X153215977Y-103470345D01*
X153215975Y-103470342D01*
X153069657Y-103324024D01*
X152983626Y-103266541D01*
X152897598Y-103209059D01*
X152837361Y-103184108D01*
X152706420Y-103129870D01*
X152706412Y-103129868D01*
X152503469Y-103089500D01*
X152503465Y-103089500D01*
X152296535Y-103089500D01*
X152296530Y-103089500D01*
X152093587Y-103129868D01*
X152093579Y-103129870D01*
X151902403Y-103209058D01*
X151730342Y-103324024D01*
X151584024Y-103470342D01*
X151469058Y-103642403D01*
X151389870Y-103833579D01*
X151389868Y-103833587D01*
X151349500Y-104036530D01*
X139500500Y-104036530D01*
X139500500Y-101496530D01*
X151349500Y-101496530D01*
X151349500Y-101703469D01*
X151389868Y-101906412D01*
X151389870Y-101906420D01*
X151469058Y-102097596D01*
X151584024Y-102269657D01*
X151730342Y-102415975D01*
X151730345Y-102415977D01*
X151902402Y-102530941D01*
X152093580Y-102610130D01*
X152296530Y-102650499D01*
X152296534Y-102650500D01*
X152296535Y-102650500D01*
X152503466Y-102650500D01*
X152503467Y-102650499D01*
X152706420Y-102610130D01*
X152897598Y-102530941D01*
X153069655Y-102415977D01*
X153215977Y-102269655D01*
X153330941Y-102097598D01*
X153410130Y-101906420D01*
X153450500Y-101703465D01*
X153450500Y-101496535D01*
X153450499Y-101496530D01*
X153889500Y-101496530D01*
X153889500Y-101703469D01*
X153929868Y-101906412D01*
X153929870Y-101906420D01*
X154009058Y-102097596D01*
X154124024Y-102269657D01*
X154270342Y-102415975D01*
X154270345Y-102415977D01*
X154442402Y-102530941D01*
X154633580Y-102610130D01*
X154836530Y-102650499D01*
X154836534Y-102650500D01*
X154836535Y-102650500D01*
X155043466Y-102650500D01*
X155043467Y-102650499D01*
X155246420Y-102610130D01*
X155437598Y-102530941D01*
X155609655Y-102415977D01*
X155755977Y-102269655D01*
X155870941Y-102097598D01*
X155950130Y-101906420D01*
X155990500Y-101703465D01*
X155990500Y-101496535D01*
X155950130Y-101293580D01*
X155870941Y-101102402D01*
X155755977Y-100930345D01*
X155755975Y-100930342D01*
X155609657Y-100784024D01*
X155523626Y-100726541D01*
X155437598Y-100669059D01*
X155246420Y-100589870D01*
X155246412Y-100589868D01*
X155043469Y-100549500D01*
X155043465Y-100549500D01*
X154836535Y-100549500D01*
X154836530Y-100549500D01*
X154633587Y-100589868D01*
X154633579Y-100589870D01*
X154442403Y-100669058D01*
X154270342Y-100784024D01*
X154124024Y-100930342D01*
X154009058Y-101102403D01*
X153929870Y-101293579D01*
X153929868Y-101293587D01*
X153889500Y-101496530D01*
X153450499Y-101496530D01*
X153410130Y-101293580D01*
X153330941Y-101102402D01*
X153215977Y-100930345D01*
X153215975Y-100930342D01*
X153069657Y-100784024D01*
X152983626Y-100726541D01*
X152897598Y-100669059D01*
X152706420Y-100589870D01*
X152706412Y-100589868D01*
X152503469Y-100549500D01*
X152503465Y-100549500D01*
X152296535Y-100549500D01*
X152296530Y-100549500D01*
X152093587Y-100589868D01*
X152093579Y-100589870D01*
X151902403Y-100669058D01*
X151730342Y-100784024D01*
X151584024Y-100930342D01*
X151469058Y-101102403D01*
X151389870Y-101293579D01*
X151389868Y-101293587D01*
X151349500Y-101496530D01*
X139500500Y-101496530D01*
X139500500Y-100934108D01*
X139500500Y-98956530D01*
X151349500Y-98956530D01*
X151349500Y-99163469D01*
X151389868Y-99366412D01*
X151389870Y-99366420D01*
X151469058Y-99557596D01*
X151584024Y-99729657D01*
X151730342Y-99875975D01*
X151730345Y-99875977D01*
X151902402Y-99990941D01*
X152093580Y-100070130D01*
X152296530Y-100110499D01*
X152296534Y-100110500D01*
X152296535Y-100110500D01*
X152503466Y-100110500D01*
X152503467Y-100110499D01*
X152706420Y-100070130D01*
X152897598Y-99990941D01*
X153069655Y-99875977D01*
X153215977Y-99729655D01*
X153330941Y-99557598D01*
X153410130Y-99366420D01*
X153450500Y-99163465D01*
X153450500Y-98956535D01*
X153410130Y-98753580D01*
X153330941Y-98562402D01*
X153215977Y-98390345D01*
X153215975Y-98390342D01*
X153069657Y-98244024D01*
X152983626Y-98186541D01*
X152897598Y-98129059D01*
X152706420Y-98049870D01*
X152706412Y-98049868D01*
X152503469Y-98009500D01*
X152503465Y-98009500D01*
X152296535Y-98009500D01*
X152296530Y-98009500D01*
X152093587Y-98049868D01*
X152093579Y-98049870D01*
X151902403Y-98129058D01*
X151730342Y-98244024D01*
X151584024Y-98390342D01*
X151469058Y-98562403D01*
X151389870Y-98753579D01*
X151389868Y-98753587D01*
X151349500Y-98956530D01*
X139500500Y-98956530D01*
X139500500Y-94434108D01*
X139500500Y-87934108D01*
X139500500Y-86256530D01*
X151349500Y-86256530D01*
X151349500Y-86463469D01*
X151389868Y-86666412D01*
X151389870Y-86666420D01*
X151469058Y-86857596D01*
X151584024Y-87029657D01*
X151730342Y-87175975D01*
X151730345Y-87175977D01*
X151902402Y-87290941D01*
X152093580Y-87370130D01*
X152296530Y-87410499D01*
X152296534Y-87410500D01*
X152296535Y-87410500D01*
X152503466Y-87410500D01*
X152503467Y-87410499D01*
X152706420Y-87370130D01*
X152897598Y-87290941D01*
X153069655Y-87175977D01*
X153215977Y-87029655D01*
X153330941Y-86857598D01*
X153410130Y-86666420D01*
X153450500Y-86463465D01*
X153450500Y-86256535D01*
X153450499Y-86256530D01*
X153889500Y-86256530D01*
X153889500Y-86463469D01*
X153929868Y-86666412D01*
X153929870Y-86666420D01*
X154009058Y-86857596D01*
X154124024Y-87029657D01*
X154270342Y-87175975D01*
X154270345Y-87175977D01*
X154442402Y-87290941D01*
X154633580Y-87370130D01*
X154836530Y-87410499D01*
X154836534Y-87410500D01*
X154836535Y-87410500D01*
X155043466Y-87410500D01*
X155043467Y-87410499D01*
X155246420Y-87370130D01*
X155437598Y-87290941D01*
X155609655Y-87175977D01*
X155755977Y-87029655D01*
X155870941Y-86857598D01*
X155950130Y-86666420D01*
X155990500Y-86463465D01*
X155990500Y-86256535D01*
X155950130Y-86053580D01*
X155870941Y-85862402D01*
X155755977Y-85690345D01*
X155755975Y-85690342D01*
X155609657Y-85544024D01*
X155523626Y-85486541D01*
X155437598Y-85429059D01*
X155246420Y-85349870D01*
X155246412Y-85349868D01*
X155043469Y-85309500D01*
X155043465Y-85309500D01*
X154836535Y-85309500D01*
X154836530Y-85309500D01*
X154633587Y-85349868D01*
X154633579Y-85349870D01*
X154442403Y-85429058D01*
X154270342Y-85544024D01*
X154124024Y-85690342D01*
X154009058Y-85862403D01*
X153929870Y-86053579D01*
X153929868Y-86053587D01*
X153889500Y-86256530D01*
X153450499Y-86256530D01*
X153410130Y-86053580D01*
X153330941Y-85862402D01*
X153215977Y-85690345D01*
X153215975Y-85690342D01*
X153069657Y-85544024D01*
X152983626Y-85486541D01*
X152897598Y-85429059D01*
X152706420Y-85349870D01*
X152706412Y-85349868D01*
X152503469Y-85309500D01*
X152503465Y-85309500D01*
X152296535Y-85309500D01*
X152296530Y-85309500D01*
X152093587Y-85349868D01*
X152093579Y-85349870D01*
X151902403Y-85429058D01*
X151730342Y-85544024D01*
X151584024Y-85690342D01*
X151469058Y-85862403D01*
X151389870Y-86053579D01*
X151389868Y-86053587D01*
X151349500Y-86256530D01*
X139500500Y-86256530D01*
X139500500Y-83716530D01*
X151349500Y-83716530D01*
X151349500Y-83923469D01*
X151389868Y-84126412D01*
X151389870Y-84126420D01*
X151469058Y-84317596D01*
X151584024Y-84489657D01*
X151730342Y-84635975D01*
X151730345Y-84635977D01*
X151902402Y-84750941D01*
X152093580Y-84830130D01*
X152238052Y-84858867D01*
X152296530Y-84870499D01*
X152296534Y-84870500D01*
X152296535Y-84870500D01*
X152503466Y-84870500D01*
X152503467Y-84870499D01*
X152706420Y-84830130D01*
X152897598Y-84750941D01*
X153069655Y-84635977D01*
X153215977Y-84489655D01*
X153330941Y-84317598D01*
X153410130Y-84126420D01*
X153450500Y-83923465D01*
X153450500Y-83716535D01*
X153450499Y-83716530D01*
X153889500Y-83716530D01*
X153889500Y-83923469D01*
X153929868Y-84126412D01*
X153929870Y-84126420D01*
X154009058Y-84317596D01*
X154124024Y-84489657D01*
X154270342Y-84635975D01*
X154270345Y-84635977D01*
X154442402Y-84750941D01*
X154633580Y-84830130D01*
X154778052Y-84858867D01*
X154836530Y-84870499D01*
X154836534Y-84870500D01*
X154836535Y-84870500D01*
X155043466Y-84870500D01*
X155043467Y-84870499D01*
X155246420Y-84830130D01*
X155437598Y-84750941D01*
X155609655Y-84635977D01*
X155755977Y-84489655D01*
X155870941Y-84317598D01*
X155950130Y-84126420D01*
X155990500Y-83923465D01*
X155990500Y-83716535D01*
X155950130Y-83513580D01*
X155870941Y-83322402D01*
X155755977Y-83150345D01*
X155755975Y-83150342D01*
X155609657Y-83004024D01*
X155441655Y-82891770D01*
X155437598Y-82889059D01*
X155246420Y-82809870D01*
X155246412Y-82809868D01*
X155043469Y-82769500D01*
X155043465Y-82769500D01*
X154836535Y-82769500D01*
X154836530Y-82769500D01*
X154633587Y-82809868D01*
X154633579Y-82809870D01*
X154442403Y-82889058D01*
X154270342Y-83004024D01*
X154124024Y-83150342D01*
X154009058Y-83322403D01*
X153929870Y-83513579D01*
X153929868Y-83513587D01*
X153889500Y-83716530D01*
X153450499Y-83716530D01*
X153410130Y-83513580D01*
X153330941Y-83322402D01*
X153215977Y-83150345D01*
X153215975Y-83150342D01*
X153069657Y-83004024D01*
X152901655Y-82891770D01*
X152897598Y-82889059D01*
X152706420Y-82809870D01*
X152706412Y-82809868D01*
X152503469Y-82769500D01*
X152503465Y-82769500D01*
X152296535Y-82769500D01*
X152296530Y-82769500D01*
X152093587Y-82809868D01*
X152093579Y-82809870D01*
X151902403Y-82889058D01*
X151730342Y-83004024D01*
X151584024Y-83150342D01*
X151469058Y-83322403D01*
X151389870Y-83513579D01*
X151389868Y-83513587D01*
X151349500Y-83716530D01*
X139500500Y-83716530D01*
X139500500Y-81434108D01*
X139466392Y-81306814D01*
X139400500Y-81192686D01*
X139384344Y-81176530D01*
X153889500Y-81176530D01*
X153889500Y-81383469D01*
X153929868Y-81586412D01*
X153929870Y-81586420D01*
X154009058Y-81777596D01*
X154124024Y-81949657D01*
X154270342Y-82095975D01*
X154270345Y-82095977D01*
X154442402Y-82210941D01*
X154633580Y-82290130D01*
X154836530Y-82330499D01*
X154836534Y-82330500D01*
X154836535Y-82330500D01*
X155043466Y-82330500D01*
X155043467Y-82330499D01*
X155246420Y-82290130D01*
X155437598Y-82210941D01*
X155609655Y-82095977D01*
X155755977Y-81949655D01*
X155870941Y-81777598D01*
X155950130Y-81586420D01*
X155990500Y-81383465D01*
X155990500Y-81176535D01*
X155950130Y-80973580D01*
X155870941Y-80782402D01*
X155755977Y-80610345D01*
X155755975Y-80610342D01*
X155609657Y-80464024D01*
X155523626Y-80406541D01*
X155437598Y-80349059D01*
X155246420Y-80269870D01*
X155246412Y-80269868D01*
X155043469Y-80229500D01*
X155043465Y-80229500D01*
X154836535Y-80229500D01*
X154836530Y-80229500D01*
X154633587Y-80269868D01*
X154633579Y-80269870D01*
X154442403Y-80349058D01*
X154270342Y-80464024D01*
X154124024Y-80610342D01*
X154009058Y-80782403D01*
X153929870Y-80973579D01*
X153929868Y-80973587D01*
X153889500Y-81176530D01*
X139384344Y-81176530D01*
X139307314Y-81099500D01*
X139250250Y-81066554D01*
X139193187Y-81033608D01*
X139129539Y-81016554D01*
X139065892Y-80999500D01*
X138934108Y-80999500D01*
X138806812Y-81033608D01*
X138692686Y-81099500D01*
X138692683Y-81099502D01*
X138599502Y-81192683D01*
X138599500Y-81192686D01*
X138533608Y-81306812D01*
X138499500Y-81434108D01*
X112800427Y-81434108D01*
X112810500Y-81383465D01*
X112810500Y-81176535D01*
X112770130Y-80973580D01*
X112690941Y-80782402D01*
X112575977Y-80610345D01*
X112575975Y-80610342D01*
X112429657Y-80464024D01*
X112343626Y-80406541D01*
X112257598Y-80349059D01*
X112066420Y-80269870D01*
X112066412Y-80269868D01*
X111863469Y-80229500D01*
X111863465Y-80229500D01*
X111656535Y-80229500D01*
X111656530Y-80229500D01*
X111453587Y-80269868D01*
X111453579Y-80269870D01*
X111262403Y-80349058D01*
X111090342Y-80464024D01*
X110944024Y-80610342D01*
X110829058Y-80782403D01*
X110749870Y-80973579D01*
X110749868Y-80973587D01*
X110709500Y-81176530D01*
X109855000Y-81176530D01*
X109855000Y-77594175D01*
X109874685Y-77527136D01*
X109891315Y-77506497D01*
X110526494Y-76871318D01*
X110587817Y-76837834D01*
X110614175Y-76835000D01*
X158625824Y-76835000D01*
X158692863Y-76854685D01*
G37*
G04 #@! TD.AperFunction*
M02*
