%TF.GenerationSoftware,KiCad,Pcbnew,9.0.1*%
%TF.CreationDate,2025-10-08T22:03:19-06:00*%
%TF.ProjectId,testbench,74657374-6265-46e6-9368-2e6b69636164,rev?*%
%TF.SameCoordinates,Original*%
%TF.FileFunction,Drillmap*%
%TF.FilePolarity,Positive*%
%FSLAX45Y45*%
G04 Gerber Fmt 4.5, Leading zero omitted, Abs format (unit mm)*
G04 Created by KiCad (PCBNEW 9.0.1) date 2025-10-08 22:03:19*
%MOMM*%
%LPD*%
G01*
G04 APERTURE LIST*
%ADD10C,0.050000*%
%ADD11C,0.200000*%
%ADD12C,0.100000*%
G04 APERTURE END LIST*
D10*
X10922000Y-13589000D02*
X10922000Y-8382000D01*
X11049000Y-13716000D02*
X10922000Y-13589000D01*
X15875000Y-13716000D02*
X11049000Y-13716000D01*
X16002000Y-13589000D02*
X15875000Y-13716000D01*
X16002000Y-7747000D02*
X16002000Y-13589000D01*
X15875000Y-7620000D02*
X16002000Y-7747000D01*
X11049000Y-7620000D02*
X15875000Y-7620000D01*
X10922000Y-7747000D02*
X11049000Y-7620000D01*
X10922000Y-8382000D02*
X10922000Y-7747000D01*
D11*
D12*
X11485000Y-11185000D02*
X11515000Y-11215000D01*
X11515000Y-11185000D02*
X11485000Y-11215000D01*
X11760000Y-12285000D02*
X11790000Y-12315000D01*
X11790000Y-12285000D02*
X11760000Y-12315000D01*
X11760000Y-12610000D02*
X11790000Y-12640000D01*
X11790000Y-12610000D02*
X11760000Y-12640000D01*
X11835000Y-12360000D02*
X11865000Y-12390000D01*
X11865000Y-12360000D02*
X11835000Y-12390000D01*
X11835000Y-12685000D02*
X11865000Y-12715000D01*
X11865000Y-12685000D02*
X11835000Y-12715000D01*
X12035000Y-8160000D02*
X12065000Y-8190000D01*
X12065000Y-8160000D02*
X12035000Y-8190000D01*
X12235000Y-9485000D02*
X12265000Y-9515000D01*
X12265000Y-9485000D02*
X12235000Y-9515000D01*
X12585000Y-9260000D02*
X12615000Y-9290000D01*
X12615000Y-9260000D02*
X12585000Y-9290000D01*
X13460000Y-8360000D02*
X13490000Y-8390000D01*
X13490000Y-8360000D02*
X13460000Y-8390000D01*
X13460000Y-9010000D02*
X13490000Y-9040000D01*
X13490000Y-9010000D02*
X13460000Y-9040000D01*
X13460000Y-9660000D02*
X13490000Y-9690000D01*
X13490000Y-9660000D02*
X13460000Y-9690000D01*
X13460000Y-10310000D02*
X13490000Y-10340000D01*
X13490000Y-10310000D02*
X13460000Y-10340000D01*
X13460000Y-10960000D02*
X13490000Y-10990000D01*
X13490000Y-10960000D02*
X13460000Y-10990000D01*
X13460000Y-11610000D02*
X13490000Y-11640000D01*
X13490000Y-11610000D02*
X13460000Y-11640000D01*
X13460000Y-12260000D02*
X13490000Y-12290000D01*
X13490000Y-12260000D02*
X13460000Y-12290000D01*
X13585000Y-8235000D02*
X13615000Y-8265000D01*
X13615000Y-8235000D02*
X13585000Y-8265000D01*
X13585000Y-8885000D02*
X13615000Y-8915000D01*
X13615000Y-8885000D02*
X13585000Y-8915000D01*
X13585000Y-9535000D02*
X13615000Y-9565000D01*
X13615000Y-9535000D02*
X13585000Y-9565000D01*
X13585000Y-10185000D02*
X13615000Y-10215000D01*
X13615000Y-10185000D02*
X13585000Y-10215000D01*
X13585000Y-10835000D02*
X13615000Y-10865000D01*
X13615000Y-10835000D02*
X13585000Y-10865000D01*
X13585000Y-11485000D02*
X13615000Y-11515000D01*
X13615000Y-11485000D02*
X13585000Y-11515000D01*
X13585000Y-12135000D02*
X13615000Y-12165000D01*
X13615000Y-12135000D02*
X13585000Y-12165000D01*
X13785000Y-8785000D02*
X13815000Y-8815000D01*
X13815000Y-8785000D02*
X13785000Y-8815000D01*
X13785000Y-9435000D02*
X13815000Y-9465000D01*
X13815000Y-9435000D02*
X13785000Y-9465000D01*
X13785000Y-10085000D02*
X13815000Y-10115000D01*
X13815000Y-10085000D02*
X13785000Y-10115000D01*
X13785000Y-10735000D02*
X13815000Y-10765000D01*
X13815000Y-10735000D02*
X13785000Y-10765000D01*
X13785000Y-11385000D02*
X13815000Y-11415000D01*
X13815000Y-11385000D02*
X13785000Y-11415000D01*
X13785000Y-12035000D02*
X13815000Y-12065000D01*
X13815000Y-12035000D02*
X13785000Y-12065000D01*
X13785000Y-12685000D02*
X13815000Y-12715000D01*
X13815000Y-12685000D02*
X13785000Y-12715000D01*
X13885000Y-8135000D02*
X13915000Y-8165000D01*
X13915000Y-8135000D02*
X13885000Y-8165000D01*
X13885000Y-8785000D02*
X13915000Y-8815000D01*
X13915000Y-8785000D02*
X13885000Y-8815000D01*
X13885000Y-9435000D02*
X13915000Y-9465000D01*
X13915000Y-9435000D02*
X13885000Y-9465000D01*
X13885000Y-10085000D02*
X13915000Y-10115000D01*
X13915000Y-10085000D02*
X13885000Y-10115000D01*
X13885000Y-10735000D02*
X13915000Y-10765000D01*
X13915000Y-10735000D02*
X13885000Y-10765000D01*
X13885000Y-11385000D02*
X13915000Y-11415000D01*
X13915000Y-11385000D02*
X13885000Y-11415000D01*
X13885000Y-12035000D02*
X13915000Y-12065000D01*
X13915000Y-12035000D02*
X13885000Y-12065000D01*
X13885000Y-12685000D02*
X13915000Y-12715000D01*
X13915000Y-12685000D02*
X13885000Y-12715000D01*
X14085000Y-8235000D02*
X14115000Y-8265000D01*
X14115000Y-8235000D02*
X14085000Y-8265000D01*
X14085000Y-8885000D02*
X14115000Y-8915000D01*
X14115000Y-8885000D02*
X14085000Y-8915000D01*
X14085000Y-9535000D02*
X14115000Y-9565000D01*
X14115000Y-9535000D02*
X14085000Y-9565000D01*
X14085000Y-10185000D02*
X14115000Y-10215000D01*
X14115000Y-10185000D02*
X14085000Y-10215000D01*
X14085000Y-10835000D02*
X14115000Y-10865000D01*
X14115000Y-10835000D02*
X14085000Y-10865000D01*
X14085000Y-11485000D02*
X14115000Y-11515000D01*
X14115000Y-11485000D02*
X14085000Y-11515000D01*
X14085000Y-12135000D02*
X14115000Y-12165000D01*
X14115000Y-12135000D02*
X14085000Y-12165000D01*
X11226000Y-7874000D02*
G75*
G02*
X11126000Y-7874000I-50000J0D01*
G01*
X11126000Y-7874000D02*
G75*
G02*
X11226000Y-7874000I50000J0D01*
G01*
X11226000Y-8128000D02*
G75*
G02*
X11126000Y-8128000I-50000J0D01*
G01*
X11126000Y-8128000D02*
G75*
G02*
X11226000Y-8128000I50000J0D01*
G01*
X11226000Y-8382000D02*
G75*
G02*
X11126000Y-8382000I-50000J0D01*
G01*
X11126000Y-8382000D02*
G75*
G02*
X11226000Y-8382000I50000J0D01*
G01*
X11226000Y-8890000D02*
G75*
G02*
X11126000Y-8890000I-50000J0D01*
G01*
X11126000Y-8890000D02*
G75*
G02*
X11226000Y-8890000I50000J0D01*
G01*
X11226000Y-9398000D02*
G75*
G02*
X11126000Y-9398000I-50000J0D01*
G01*
X11126000Y-9398000D02*
G75*
G02*
X11226000Y-9398000I50000J0D01*
G01*
X11226000Y-13208000D02*
G75*
G02*
X11126000Y-13208000I-50000J0D01*
G01*
X11126000Y-13208000D02*
G75*
G02*
X11226000Y-13208000I50000J0D01*
G01*
X11226000Y-13462000D02*
G75*
G02*
X11126000Y-13462000I-50000J0D01*
G01*
X11126000Y-13462000D02*
G75*
G02*
X11226000Y-13462000I50000J0D01*
G01*
X11480000Y-8890000D02*
G75*
G02*
X11380000Y-8890000I-50000J0D01*
G01*
X11380000Y-8890000D02*
G75*
G02*
X11480000Y-8890000I50000J0D01*
G01*
X11480000Y-9398000D02*
G75*
G02*
X11380000Y-9398000I-50000J0D01*
G01*
X11380000Y-9398000D02*
G75*
G02*
X11480000Y-9398000I50000J0D01*
G01*
X11734000Y-13208000D02*
G75*
G02*
X11634000Y-13208000I-50000J0D01*
G01*
X11634000Y-13208000D02*
G75*
G02*
X11734000Y-13208000I50000J0D01*
G01*
X11734000Y-13462000D02*
G75*
G02*
X11634000Y-13462000I-50000J0D01*
G01*
X11634000Y-13462000D02*
G75*
G02*
X11734000Y-13462000I50000J0D01*
G01*
X12242000Y-13208000D02*
G75*
G02*
X12142000Y-13208000I-50000J0D01*
G01*
X12142000Y-13208000D02*
G75*
G02*
X12242000Y-13208000I50000J0D01*
G01*
X12242000Y-13462000D02*
G75*
G02*
X12142000Y-13462000I-50000J0D01*
G01*
X12142000Y-13462000D02*
G75*
G02*
X12242000Y-13462000I50000J0D01*
G01*
X15290000Y-7874000D02*
G75*
G02*
X15190000Y-7874000I-50000J0D01*
G01*
X15190000Y-7874000D02*
G75*
G02*
X15290000Y-7874000I50000J0D01*
G01*
X15290000Y-8128000D02*
G75*
G02*
X15190000Y-8128000I-50000J0D01*
G01*
X15190000Y-8128000D02*
G75*
G02*
X15290000Y-8128000I50000J0D01*
G01*
X15290000Y-8382000D02*
G75*
G02*
X15190000Y-8382000I-50000J0D01*
G01*
X15190000Y-8382000D02*
G75*
G02*
X15290000Y-8382000I50000J0D01*
G01*
X15290000Y-8636000D02*
G75*
G02*
X15190000Y-8636000I-50000J0D01*
G01*
X15190000Y-8636000D02*
G75*
G02*
X15290000Y-8636000I50000J0D01*
G01*
X15290000Y-8890000D02*
G75*
G02*
X15190000Y-8890000I-50000J0D01*
G01*
X15190000Y-8890000D02*
G75*
G02*
X15290000Y-8890000I50000J0D01*
G01*
X15290000Y-9652000D02*
G75*
G02*
X15190000Y-9652000I-50000J0D01*
G01*
X15190000Y-9652000D02*
G75*
G02*
X15290000Y-9652000I50000J0D01*
G01*
X15290000Y-9906000D02*
G75*
G02*
X15190000Y-9906000I-50000J0D01*
G01*
X15190000Y-9906000D02*
G75*
G02*
X15290000Y-9906000I50000J0D01*
G01*
X15290000Y-10160000D02*
G75*
G02*
X15190000Y-10160000I-50000J0D01*
G01*
X15190000Y-10160000D02*
G75*
G02*
X15290000Y-10160000I50000J0D01*
G01*
X15290000Y-10414000D02*
G75*
G02*
X15190000Y-10414000I-50000J0D01*
G01*
X15190000Y-10414000D02*
G75*
G02*
X15290000Y-10414000I50000J0D01*
G01*
X15290000Y-10668000D02*
G75*
G02*
X15190000Y-10668000I-50000J0D01*
G01*
X15190000Y-10668000D02*
G75*
G02*
X15290000Y-10668000I50000J0D01*
G01*
X15290000Y-10922000D02*
G75*
G02*
X15190000Y-10922000I-50000J0D01*
G01*
X15190000Y-10922000D02*
G75*
G02*
X15290000Y-10922000I50000J0D01*
G01*
X15290000Y-11176000D02*
G75*
G02*
X15190000Y-11176000I-50000J0D01*
G01*
X15190000Y-11176000D02*
G75*
G02*
X15290000Y-11176000I50000J0D01*
G01*
X15290000Y-11430000D02*
G75*
G02*
X15190000Y-11430000I-50000J0D01*
G01*
X15190000Y-11430000D02*
G75*
G02*
X15290000Y-11430000I50000J0D01*
G01*
X15290000Y-11684000D02*
G75*
G02*
X15190000Y-11684000I-50000J0D01*
G01*
X15190000Y-11684000D02*
G75*
G02*
X15290000Y-11684000I50000J0D01*
G01*
X15290000Y-11938000D02*
G75*
G02*
X15190000Y-11938000I-50000J0D01*
G01*
X15190000Y-11938000D02*
G75*
G02*
X15290000Y-11938000I50000J0D01*
G01*
X15290000Y-12192000D02*
G75*
G02*
X15190000Y-12192000I-50000J0D01*
G01*
X15190000Y-12192000D02*
G75*
G02*
X15290000Y-12192000I50000J0D01*
G01*
X15290000Y-12446000D02*
G75*
G02*
X15190000Y-12446000I-50000J0D01*
G01*
X15190000Y-12446000D02*
G75*
G02*
X15290000Y-12446000I50000J0D01*
G01*
X15290000Y-12700000D02*
G75*
G02*
X15190000Y-12700000I-50000J0D01*
G01*
X15190000Y-12700000D02*
G75*
G02*
X15290000Y-12700000I50000J0D01*
G01*
X15290000Y-12954000D02*
G75*
G02*
X15190000Y-12954000I-50000J0D01*
G01*
X15190000Y-12954000D02*
G75*
G02*
X15290000Y-12954000I50000J0D01*
G01*
X15290000Y-13208000D02*
G75*
G02*
X15190000Y-13208000I-50000J0D01*
G01*
X15190000Y-13208000D02*
G75*
G02*
X15290000Y-13208000I50000J0D01*
G01*
X15290000Y-13462000D02*
G75*
G02*
X15190000Y-13462000I-50000J0D01*
G01*
X15190000Y-13462000D02*
G75*
G02*
X15290000Y-13462000I50000J0D01*
G01*
X15544000Y-7874000D02*
G75*
G02*
X15444000Y-7874000I-50000J0D01*
G01*
X15444000Y-7874000D02*
G75*
G02*
X15544000Y-7874000I50000J0D01*
G01*
X15544000Y-8128000D02*
G75*
G02*
X15444000Y-8128000I-50000J0D01*
G01*
X15444000Y-8128000D02*
G75*
G02*
X15544000Y-8128000I50000J0D01*
G01*
X15544000Y-8382000D02*
G75*
G02*
X15444000Y-8382000I-50000J0D01*
G01*
X15444000Y-8382000D02*
G75*
G02*
X15544000Y-8382000I50000J0D01*
G01*
X15544000Y-8636000D02*
G75*
G02*
X15444000Y-8636000I-50000J0D01*
G01*
X15444000Y-8636000D02*
G75*
G02*
X15544000Y-8636000I50000J0D01*
G01*
X15544000Y-8890000D02*
G75*
G02*
X15444000Y-8890000I-50000J0D01*
G01*
X15444000Y-8890000D02*
G75*
G02*
X15544000Y-8890000I50000J0D01*
G01*
X15544000Y-9652000D02*
G75*
G02*
X15444000Y-9652000I-50000J0D01*
G01*
X15444000Y-9652000D02*
G75*
G02*
X15544000Y-9652000I50000J0D01*
G01*
X15544000Y-9906000D02*
G75*
G02*
X15444000Y-9906000I-50000J0D01*
G01*
X15444000Y-9906000D02*
G75*
G02*
X15544000Y-9906000I50000J0D01*
G01*
X15544000Y-10160000D02*
G75*
G02*
X15444000Y-10160000I-50000J0D01*
G01*
X15444000Y-10160000D02*
G75*
G02*
X15544000Y-10160000I50000J0D01*
G01*
X15544000Y-10414000D02*
G75*
G02*
X15444000Y-10414000I-50000J0D01*
G01*
X15444000Y-10414000D02*
G75*
G02*
X15544000Y-10414000I50000J0D01*
G01*
X15544000Y-10668000D02*
G75*
G02*
X15444000Y-10668000I-50000J0D01*
G01*
X15444000Y-10668000D02*
G75*
G02*
X15544000Y-10668000I50000J0D01*
G01*
X15544000Y-10922000D02*
G75*
G02*
X15444000Y-10922000I-50000J0D01*
G01*
X15444000Y-10922000D02*
G75*
G02*
X15544000Y-10922000I50000J0D01*
G01*
X15544000Y-11176000D02*
G75*
G02*
X15444000Y-11176000I-50000J0D01*
G01*
X15444000Y-11176000D02*
G75*
G02*
X15544000Y-11176000I50000J0D01*
G01*
X15544000Y-11430000D02*
G75*
G02*
X15444000Y-11430000I-50000J0D01*
G01*
X15444000Y-11430000D02*
G75*
G02*
X15544000Y-11430000I50000J0D01*
G01*
X15544000Y-11684000D02*
G75*
G02*
X15444000Y-11684000I-50000J0D01*
G01*
X15444000Y-11684000D02*
G75*
G02*
X15544000Y-11684000I50000J0D01*
G01*
X15544000Y-11938000D02*
G75*
G02*
X15444000Y-11938000I-50000J0D01*
G01*
X15444000Y-11938000D02*
G75*
G02*
X15544000Y-11938000I50000J0D01*
G01*
X15544000Y-12192000D02*
G75*
G02*
X15444000Y-12192000I-50000J0D01*
G01*
X15444000Y-12192000D02*
G75*
G02*
X15544000Y-12192000I50000J0D01*
G01*
X15544000Y-12446000D02*
G75*
G02*
X15444000Y-12446000I-50000J0D01*
G01*
X15444000Y-12446000D02*
G75*
G02*
X15544000Y-12446000I50000J0D01*
G01*
X15544000Y-12700000D02*
G75*
G02*
X15444000Y-12700000I-50000J0D01*
G01*
X15444000Y-12700000D02*
G75*
G02*
X15544000Y-12700000I50000J0D01*
G01*
X15544000Y-12954000D02*
G75*
G02*
X15444000Y-12954000I-50000J0D01*
G01*
X15444000Y-12954000D02*
G75*
G02*
X15544000Y-12954000I50000J0D01*
G01*
X15544000Y-13208000D02*
G75*
G02*
X15444000Y-13208000I-50000J0D01*
G01*
X15444000Y-13208000D02*
G75*
G02*
X15544000Y-13208000I50000J0D01*
G01*
X15544000Y-13462000D02*
G75*
G02*
X15444000Y-13462000I-50000J0D01*
G01*
X15444000Y-13462000D02*
G75*
G02*
X15544000Y-13462000I50000J0D01*
G01*
D11*
X11180277Y-14029984D02*
X11180277Y-13829984D01*
X11180277Y-13829984D02*
X11227896Y-13829984D01*
X11227896Y-13829984D02*
X11256467Y-13839508D01*
X11256467Y-13839508D02*
X11275515Y-13858555D01*
X11275515Y-13858555D02*
X11285039Y-13877603D01*
X11285039Y-13877603D02*
X11294562Y-13915698D01*
X11294562Y-13915698D02*
X11294562Y-13944269D01*
X11294562Y-13944269D02*
X11285039Y-13982365D01*
X11285039Y-13982365D02*
X11275515Y-14001412D01*
X11275515Y-14001412D02*
X11256467Y-14020460D01*
X11256467Y-14020460D02*
X11227896Y-14029984D01*
X11227896Y-14029984D02*
X11180277Y-14029984D01*
X11380277Y-14029984D02*
X11380277Y-13896650D01*
X11380277Y-13934746D02*
X11389801Y-13915698D01*
X11389801Y-13915698D02*
X11399324Y-13906174D01*
X11399324Y-13906174D02*
X11418372Y-13896650D01*
X11418372Y-13896650D02*
X11437420Y-13896650D01*
X11504086Y-14029984D02*
X11504086Y-13896650D01*
X11504086Y-13829984D02*
X11494562Y-13839508D01*
X11494562Y-13839508D02*
X11504086Y-13849031D01*
X11504086Y-13849031D02*
X11513610Y-13839508D01*
X11513610Y-13839508D02*
X11504086Y-13829984D01*
X11504086Y-13829984D02*
X11504086Y-13849031D01*
X11627896Y-14029984D02*
X11608848Y-14020460D01*
X11608848Y-14020460D02*
X11599324Y-14001412D01*
X11599324Y-14001412D02*
X11599324Y-13829984D01*
X11732658Y-14029984D02*
X11713610Y-14020460D01*
X11713610Y-14020460D02*
X11704086Y-14001412D01*
X11704086Y-14001412D02*
X11704086Y-13829984D01*
X11961229Y-14029984D02*
X11961229Y-13829984D01*
X11961229Y-13829984D02*
X12027896Y-13972841D01*
X12027896Y-13972841D02*
X12094562Y-13829984D01*
X12094562Y-13829984D02*
X12094562Y-14029984D01*
X12275515Y-14029984D02*
X12275515Y-13925222D01*
X12275515Y-13925222D02*
X12265991Y-13906174D01*
X12265991Y-13906174D02*
X12246943Y-13896650D01*
X12246943Y-13896650D02*
X12208848Y-13896650D01*
X12208848Y-13896650D02*
X12189801Y-13906174D01*
X12275515Y-14020460D02*
X12256467Y-14029984D01*
X12256467Y-14029984D02*
X12208848Y-14029984D01*
X12208848Y-14029984D02*
X12189801Y-14020460D01*
X12189801Y-14020460D02*
X12180277Y-14001412D01*
X12180277Y-14001412D02*
X12180277Y-13982365D01*
X12180277Y-13982365D02*
X12189801Y-13963317D01*
X12189801Y-13963317D02*
X12208848Y-13953793D01*
X12208848Y-13953793D02*
X12256467Y-13953793D01*
X12256467Y-13953793D02*
X12275515Y-13944269D01*
X12370753Y-13896650D02*
X12370753Y-14096650D01*
X12370753Y-13906174D02*
X12389801Y-13896650D01*
X12389801Y-13896650D02*
X12427896Y-13896650D01*
X12427896Y-13896650D02*
X12446943Y-13906174D01*
X12446943Y-13906174D02*
X12456467Y-13915698D01*
X12456467Y-13915698D02*
X12465991Y-13934746D01*
X12465991Y-13934746D02*
X12465991Y-13991888D01*
X12465991Y-13991888D02*
X12456467Y-14010936D01*
X12456467Y-14010936D02*
X12446943Y-14020460D01*
X12446943Y-14020460D02*
X12427896Y-14029984D01*
X12427896Y-14029984D02*
X12389801Y-14029984D01*
X12389801Y-14029984D02*
X12370753Y-14020460D01*
X12551705Y-14010936D02*
X12561229Y-14020460D01*
X12561229Y-14020460D02*
X12551705Y-14029984D01*
X12551705Y-14029984D02*
X12542182Y-14020460D01*
X12542182Y-14020460D02*
X12551705Y-14010936D01*
X12551705Y-14010936D02*
X12551705Y-14029984D01*
X12551705Y-13906174D02*
X12561229Y-13915698D01*
X12561229Y-13915698D02*
X12551705Y-13925222D01*
X12551705Y-13925222D02*
X12542182Y-13915698D01*
X12542182Y-13915698D02*
X12551705Y-13906174D01*
X12551705Y-13906174D02*
X12551705Y-13925222D01*
D12*
X10889500Y-14343500D02*
X10919500Y-14373500D01*
X10919500Y-14343500D02*
X10889500Y-14373500D01*
D11*
X11218372Y-14249984D02*
X11237420Y-14249984D01*
X11237420Y-14249984D02*
X11256467Y-14259508D01*
X11256467Y-14259508D02*
X11265991Y-14269031D01*
X11265991Y-14269031D02*
X11275515Y-14288079D01*
X11275515Y-14288079D02*
X11285039Y-14326174D01*
X11285039Y-14326174D02*
X11285039Y-14373793D01*
X11285039Y-14373793D02*
X11275515Y-14411888D01*
X11275515Y-14411888D02*
X11265991Y-14430936D01*
X11265991Y-14430936D02*
X11256467Y-14440460D01*
X11256467Y-14440460D02*
X11237420Y-14449984D01*
X11237420Y-14449984D02*
X11218372Y-14449984D01*
X11218372Y-14449984D02*
X11199324Y-14440460D01*
X11199324Y-14440460D02*
X11189801Y-14430936D01*
X11189801Y-14430936D02*
X11180277Y-14411888D01*
X11180277Y-14411888D02*
X11170753Y-14373793D01*
X11170753Y-14373793D02*
X11170753Y-14326174D01*
X11170753Y-14326174D02*
X11180277Y-14288079D01*
X11180277Y-14288079D02*
X11189801Y-14269031D01*
X11189801Y-14269031D02*
X11199324Y-14259508D01*
X11199324Y-14259508D02*
X11218372Y-14249984D01*
X11370753Y-14430936D02*
X11380277Y-14440460D01*
X11380277Y-14440460D02*
X11370753Y-14449984D01*
X11370753Y-14449984D02*
X11361229Y-14440460D01*
X11361229Y-14440460D02*
X11370753Y-14430936D01*
X11370753Y-14430936D02*
X11370753Y-14449984D01*
X11446943Y-14249984D02*
X11570753Y-14249984D01*
X11570753Y-14249984D02*
X11504086Y-14326174D01*
X11504086Y-14326174D02*
X11532658Y-14326174D01*
X11532658Y-14326174D02*
X11551705Y-14335698D01*
X11551705Y-14335698D02*
X11561229Y-14345222D01*
X11561229Y-14345222D02*
X11570753Y-14364269D01*
X11570753Y-14364269D02*
X11570753Y-14411888D01*
X11570753Y-14411888D02*
X11561229Y-14430936D01*
X11561229Y-14430936D02*
X11551705Y-14440460D01*
X11551705Y-14440460D02*
X11532658Y-14449984D01*
X11532658Y-14449984D02*
X11475515Y-14449984D01*
X11475515Y-14449984D02*
X11456467Y-14440460D01*
X11456467Y-14440460D02*
X11446943Y-14430936D01*
X11694562Y-14249984D02*
X11713610Y-14249984D01*
X11713610Y-14249984D02*
X11732658Y-14259508D01*
X11732658Y-14259508D02*
X11742182Y-14269031D01*
X11742182Y-14269031D02*
X11751705Y-14288079D01*
X11751705Y-14288079D02*
X11761229Y-14326174D01*
X11761229Y-14326174D02*
X11761229Y-14373793D01*
X11761229Y-14373793D02*
X11751705Y-14411888D01*
X11751705Y-14411888D02*
X11742182Y-14430936D01*
X11742182Y-14430936D02*
X11732658Y-14440460D01*
X11732658Y-14440460D02*
X11713610Y-14449984D01*
X11713610Y-14449984D02*
X11694562Y-14449984D01*
X11694562Y-14449984D02*
X11675515Y-14440460D01*
X11675515Y-14440460D02*
X11665991Y-14430936D01*
X11665991Y-14430936D02*
X11656467Y-14411888D01*
X11656467Y-14411888D02*
X11646943Y-14373793D01*
X11646943Y-14373793D02*
X11646943Y-14326174D01*
X11646943Y-14326174D02*
X11656467Y-14288079D01*
X11656467Y-14288079D02*
X11665991Y-14269031D01*
X11665991Y-14269031D02*
X11675515Y-14259508D01*
X11675515Y-14259508D02*
X11694562Y-14249984D01*
X11885039Y-14249984D02*
X11904086Y-14249984D01*
X11904086Y-14249984D02*
X11923134Y-14259508D01*
X11923134Y-14259508D02*
X11932658Y-14269031D01*
X11932658Y-14269031D02*
X11942182Y-14288079D01*
X11942182Y-14288079D02*
X11951705Y-14326174D01*
X11951705Y-14326174D02*
X11951705Y-14373793D01*
X11951705Y-14373793D02*
X11942182Y-14411888D01*
X11942182Y-14411888D02*
X11932658Y-14430936D01*
X11932658Y-14430936D02*
X11923134Y-14440460D01*
X11923134Y-14440460D02*
X11904086Y-14449984D01*
X11904086Y-14449984D02*
X11885039Y-14449984D01*
X11885039Y-14449984D02*
X11865991Y-14440460D01*
X11865991Y-14440460D02*
X11856467Y-14430936D01*
X11856467Y-14430936D02*
X11846943Y-14411888D01*
X11846943Y-14411888D02*
X11837420Y-14373793D01*
X11837420Y-14373793D02*
X11837420Y-14326174D01*
X11837420Y-14326174D02*
X11846943Y-14288079D01*
X11846943Y-14288079D02*
X11856467Y-14269031D01*
X11856467Y-14269031D02*
X11865991Y-14259508D01*
X11865991Y-14259508D02*
X11885039Y-14249984D01*
X12037420Y-14449984D02*
X12037420Y-14316650D01*
X12037420Y-14335698D02*
X12046943Y-14326174D01*
X12046943Y-14326174D02*
X12065991Y-14316650D01*
X12065991Y-14316650D02*
X12094563Y-14316650D01*
X12094563Y-14316650D02*
X12113610Y-14326174D01*
X12113610Y-14326174D02*
X12123134Y-14345222D01*
X12123134Y-14345222D02*
X12123134Y-14449984D01*
X12123134Y-14345222D02*
X12132658Y-14326174D01*
X12132658Y-14326174D02*
X12151705Y-14316650D01*
X12151705Y-14316650D02*
X12180277Y-14316650D01*
X12180277Y-14316650D02*
X12199324Y-14326174D01*
X12199324Y-14326174D02*
X12208848Y-14345222D01*
X12208848Y-14345222D02*
X12208848Y-14449984D01*
X12304086Y-14449984D02*
X12304086Y-14316650D01*
X12304086Y-14335698D02*
X12313610Y-14326174D01*
X12313610Y-14326174D02*
X12332658Y-14316650D01*
X12332658Y-14316650D02*
X12361229Y-14316650D01*
X12361229Y-14316650D02*
X12380277Y-14326174D01*
X12380277Y-14326174D02*
X12389801Y-14345222D01*
X12389801Y-14345222D02*
X12389801Y-14449984D01*
X12389801Y-14345222D02*
X12399324Y-14326174D01*
X12399324Y-14326174D02*
X12418372Y-14316650D01*
X12418372Y-14316650D02*
X12446943Y-14316650D01*
X12446943Y-14316650D02*
X12465991Y-14326174D01*
X12465991Y-14326174D02*
X12475515Y-14345222D01*
X12475515Y-14345222D02*
X12475515Y-14449984D01*
X12865991Y-14240460D02*
X12694563Y-14497603D01*
X13123134Y-14249984D02*
X13142182Y-14249984D01*
X13142182Y-14249984D02*
X13161229Y-14259508D01*
X13161229Y-14259508D02*
X13170753Y-14269031D01*
X13170753Y-14269031D02*
X13180277Y-14288079D01*
X13180277Y-14288079D02*
X13189801Y-14326174D01*
X13189801Y-14326174D02*
X13189801Y-14373793D01*
X13189801Y-14373793D02*
X13180277Y-14411888D01*
X13180277Y-14411888D02*
X13170753Y-14430936D01*
X13170753Y-14430936D02*
X13161229Y-14440460D01*
X13161229Y-14440460D02*
X13142182Y-14449984D01*
X13142182Y-14449984D02*
X13123134Y-14449984D01*
X13123134Y-14449984D02*
X13104086Y-14440460D01*
X13104086Y-14440460D02*
X13094563Y-14430936D01*
X13094563Y-14430936D02*
X13085039Y-14411888D01*
X13085039Y-14411888D02*
X13075515Y-14373793D01*
X13075515Y-14373793D02*
X13075515Y-14326174D01*
X13075515Y-14326174D02*
X13085039Y-14288079D01*
X13085039Y-14288079D02*
X13094563Y-14269031D01*
X13094563Y-14269031D02*
X13104086Y-14259508D01*
X13104086Y-14259508D02*
X13123134Y-14249984D01*
X13275515Y-14430936D02*
X13285039Y-14440460D01*
X13285039Y-14440460D02*
X13275515Y-14449984D01*
X13275515Y-14449984D02*
X13265991Y-14440460D01*
X13265991Y-14440460D02*
X13275515Y-14430936D01*
X13275515Y-14430936D02*
X13275515Y-14449984D01*
X13408848Y-14249984D02*
X13427896Y-14249984D01*
X13427896Y-14249984D02*
X13446944Y-14259508D01*
X13446944Y-14259508D02*
X13456467Y-14269031D01*
X13456467Y-14269031D02*
X13465991Y-14288079D01*
X13465991Y-14288079D02*
X13475515Y-14326174D01*
X13475515Y-14326174D02*
X13475515Y-14373793D01*
X13475515Y-14373793D02*
X13465991Y-14411888D01*
X13465991Y-14411888D02*
X13456467Y-14430936D01*
X13456467Y-14430936D02*
X13446944Y-14440460D01*
X13446944Y-14440460D02*
X13427896Y-14449984D01*
X13427896Y-14449984D02*
X13408848Y-14449984D01*
X13408848Y-14449984D02*
X13389801Y-14440460D01*
X13389801Y-14440460D02*
X13380277Y-14430936D01*
X13380277Y-14430936D02*
X13370753Y-14411888D01*
X13370753Y-14411888D02*
X13361229Y-14373793D01*
X13361229Y-14373793D02*
X13361229Y-14326174D01*
X13361229Y-14326174D02*
X13370753Y-14288079D01*
X13370753Y-14288079D02*
X13380277Y-14269031D01*
X13380277Y-14269031D02*
X13389801Y-14259508D01*
X13389801Y-14259508D02*
X13408848Y-14249984D01*
X13665991Y-14449984D02*
X13551706Y-14449984D01*
X13608848Y-14449984D02*
X13608848Y-14249984D01*
X13608848Y-14249984D02*
X13589801Y-14278555D01*
X13589801Y-14278555D02*
X13570753Y-14297603D01*
X13570753Y-14297603D02*
X13551706Y-14307127D01*
X13856467Y-14449984D02*
X13742182Y-14449984D01*
X13799325Y-14449984D02*
X13799325Y-14249984D01*
X13799325Y-14249984D02*
X13780277Y-14278555D01*
X13780277Y-14278555D02*
X13761229Y-14297603D01*
X13761229Y-14297603D02*
X13742182Y-14307127D01*
X13970753Y-14335698D02*
X13951706Y-14326174D01*
X13951706Y-14326174D02*
X13942182Y-14316650D01*
X13942182Y-14316650D02*
X13932658Y-14297603D01*
X13932658Y-14297603D02*
X13932658Y-14288079D01*
X13932658Y-14288079D02*
X13942182Y-14269031D01*
X13942182Y-14269031D02*
X13951706Y-14259508D01*
X13951706Y-14259508D02*
X13970753Y-14249984D01*
X13970753Y-14249984D02*
X14008848Y-14249984D01*
X14008848Y-14249984D02*
X14027896Y-14259508D01*
X14027896Y-14259508D02*
X14037420Y-14269031D01*
X14037420Y-14269031D02*
X14046944Y-14288079D01*
X14046944Y-14288079D02*
X14046944Y-14297603D01*
X14046944Y-14297603D02*
X14037420Y-14316650D01*
X14037420Y-14316650D02*
X14027896Y-14326174D01*
X14027896Y-14326174D02*
X14008848Y-14335698D01*
X14008848Y-14335698D02*
X13970753Y-14335698D01*
X13970753Y-14335698D02*
X13951706Y-14345222D01*
X13951706Y-14345222D02*
X13942182Y-14354746D01*
X13942182Y-14354746D02*
X13932658Y-14373793D01*
X13932658Y-14373793D02*
X13932658Y-14411888D01*
X13932658Y-14411888D02*
X13942182Y-14430936D01*
X13942182Y-14430936D02*
X13951706Y-14440460D01*
X13951706Y-14440460D02*
X13970753Y-14449984D01*
X13970753Y-14449984D02*
X14008848Y-14449984D01*
X14008848Y-14449984D02*
X14027896Y-14440460D01*
X14027896Y-14440460D02*
X14037420Y-14430936D01*
X14037420Y-14430936D02*
X14046944Y-14411888D01*
X14046944Y-14411888D02*
X14046944Y-14373793D01*
X14046944Y-14373793D02*
X14037420Y-14354746D01*
X14037420Y-14354746D02*
X14027896Y-14345222D01*
X14027896Y-14345222D02*
X14008848Y-14335698D01*
X14123134Y-14249984D02*
X14123134Y-14288079D01*
X14199325Y-14249984D02*
X14199325Y-14288079D01*
X14494563Y-14526174D02*
X14485039Y-14516650D01*
X14485039Y-14516650D02*
X14465991Y-14488079D01*
X14465991Y-14488079D02*
X14456468Y-14469031D01*
X14456468Y-14469031D02*
X14446944Y-14440460D01*
X14446944Y-14440460D02*
X14437420Y-14392841D01*
X14437420Y-14392841D02*
X14437420Y-14354746D01*
X14437420Y-14354746D02*
X14446944Y-14307127D01*
X14446944Y-14307127D02*
X14456468Y-14278555D01*
X14456468Y-14278555D02*
X14465991Y-14259508D01*
X14465991Y-14259508D02*
X14485039Y-14230936D01*
X14485039Y-14230936D02*
X14494563Y-14221412D01*
X14656468Y-14316650D02*
X14656468Y-14449984D01*
X14608848Y-14240460D02*
X14561229Y-14383317D01*
X14561229Y-14383317D02*
X14685039Y-14383317D01*
X14846944Y-14316650D02*
X14846944Y-14449984D01*
X14799325Y-14240460D02*
X14751706Y-14383317D01*
X14751706Y-14383317D02*
X14875515Y-14383317D01*
X15104087Y-14449984D02*
X15104087Y-14249984D01*
X15189801Y-14449984D02*
X15189801Y-14345222D01*
X15189801Y-14345222D02*
X15180277Y-14326174D01*
X15180277Y-14326174D02*
X15161230Y-14316650D01*
X15161230Y-14316650D02*
X15132658Y-14316650D01*
X15132658Y-14316650D02*
X15113610Y-14326174D01*
X15113610Y-14326174D02*
X15104087Y-14335698D01*
X15313610Y-14449984D02*
X15294563Y-14440460D01*
X15294563Y-14440460D02*
X15285039Y-14430936D01*
X15285039Y-14430936D02*
X15275515Y-14411888D01*
X15275515Y-14411888D02*
X15275515Y-14354746D01*
X15275515Y-14354746D02*
X15285039Y-14335698D01*
X15285039Y-14335698D02*
X15294563Y-14326174D01*
X15294563Y-14326174D02*
X15313610Y-14316650D01*
X15313610Y-14316650D02*
X15342182Y-14316650D01*
X15342182Y-14316650D02*
X15361230Y-14326174D01*
X15361230Y-14326174D02*
X15370753Y-14335698D01*
X15370753Y-14335698D02*
X15380277Y-14354746D01*
X15380277Y-14354746D02*
X15380277Y-14411888D01*
X15380277Y-14411888D02*
X15370753Y-14430936D01*
X15370753Y-14430936D02*
X15361230Y-14440460D01*
X15361230Y-14440460D02*
X15342182Y-14449984D01*
X15342182Y-14449984D02*
X15313610Y-14449984D01*
X15494563Y-14449984D02*
X15475515Y-14440460D01*
X15475515Y-14440460D02*
X15465991Y-14421412D01*
X15465991Y-14421412D02*
X15465991Y-14249984D01*
X15646944Y-14440460D02*
X15627896Y-14449984D01*
X15627896Y-14449984D02*
X15589801Y-14449984D01*
X15589801Y-14449984D02*
X15570753Y-14440460D01*
X15570753Y-14440460D02*
X15561230Y-14421412D01*
X15561230Y-14421412D02*
X15561230Y-14345222D01*
X15561230Y-14345222D02*
X15570753Y-14326174D01*
X15570753Y-14326174D02*
X15589801Y-14316650D01*
X15589801Y-14316650D02*
X15627896Y-14316650D01*
X15627896Y-14316650D02*
X15646944Y-14326174D01*
X15646944Y-14326174D02*
X15656468Y-14345222D01*
X15656468Y-14345222D02*
X15656468Y-14364269D01*
X15656468Y-14364269D02*
X15561230Y-14383317D01*
X15732658Y-14440460D02*
X15751706Y-14449984D01*
X15751706Y-14449984D02*
X15789801Y-14449984D01*
X15789801Y-14449984D02*
X15808849Y-14440460D01*
X15808849Y-14440460D02*
X15818372Y-14421412D01*
X15818372Y-14421412D02*
X15818372Y-14411888D01*
X15818372Y-14411888D02*
X15808849Y-14392841D01*
X15808849Y-14392841D02*
X15789801Y-14383317D01*
X15789801Y-14383317D02*
X15761230Y-14383317D01*
X15761230Y-14383317D02*
X15742182Y-14373793D01*
X15742182Y-14373793D02*
X15732658Y-14354746D01*
X15732658Y-14354746D02*
X15732658Y-14345222D01*
X15732658Y-14345222D02*
X15742182Y-14326174D01*
X15742182Y-14326174D02*
X15761230Y-14316650D01*
X15761230Y-14316650D02*
X15789801Y-14316650D01*
X15789801Y-14316650D02*
X15808849Y-14326174D01*
X15885039Y-14526174D02*
X15894563Y-14516650D01*
X15894563Y-14516650D02*
X15913611Y-14488079D01*
X15913611Y-14488079D02*
X15923134Y-14469031D01*
X15923134Y-14469031D02*
X15932658Y-14440460D01*
X15932658Y-14440460D02*
X15942182Y-14392841D01*
X15942182Y-14392841D02*
X15942182Y-14354746D01*
X15942182Y-14354746D02*
X15932658Y-14307127D01*
X15932658Y-14307127D02*
X15923134Y-14278555D01*
X15923134Y-14278555D02*
X15913611Y-14259508D01*
X15913611Y-14259508D02*
X15894563Y-14230936D01*
X15894563Y-14230936D02*
X15885039Y-14221412D01*
D12*
X10919500Y-14622500D02*
G75*
G02*
X10819500Y-14622500I-50000J0D01*
G01*
X10819500Y-14622500D02*
G75*
G02*
X10919500Y-14622500I50000J0D01*
G01*
D11*
X11285039Y-14713984D02*
X11170753Y-14713984D01*
X11227896Y-14713984D02*
X11227896Y-14513984D01*
X11227896Y-14513984D02*
X11208848Y-14542555D01*
X11208848Y-14542555D02*
X11189801Y-14561603D01*
X11189801Y-14561603D02*
X11170753Y-14571127D01*
X11370753Y-14694936D02*
X11380277Y-14704460D01*
X11380277Y-14704460D02*
X11370753Y-14713984D01*
X11370753Y-14713984D02*
X11361229Y-14704460D01*
X11361229Y-14704460D02*
X11370753Y-14694936D01*
X11370753Y-14694936D02*
X11370753Y-14713984D01*
X11504086Y-14513984D02*
X11523134Y-14513984D01*
X11523134Y-14513984D02*
X11542182Y-14523508D01*
X11542182Y-14523508D02*
X11551705Y-14533031D01*
X11551705Y-14533031D02*
X11561229Y-14552079D01*
X11561229Y-14552079D02*
X11570753Y-14590174D01*
X11570753Y-14590174D02*
X11570753Y-14637793D01*
X11570753Y-14637793D02*
X11561229Y-14675888D01*
X11561229Y-14675888D02*
X11551705Y-14694936D01*
X11551705Y-14694936D02*
X11542182Y-14704460D01*
X11542182Y-14704460D02*
X11523134Y-14713984D01*
X11523134Y-14713984D02*
X11504086Y-14713984D01*
X11504086Y-14713984D02*
X11485039Y-14704460D01*
X11485039Y-14704460D02*
X11475515Y-14694936D01*
X11475515Y-14694936D02*
X11465991Y-14675888D01*
X11465991Y-14675888D02*
X11456467Y-14637793D01*
X11456467Y-14637793D02*
X11456467Y-14590174D01*
X11456467Y-14590174D02*
X11465991Y-14552079D01*
X11465991Y-14552079D02*
X11475515Y-14533031D01*
X11475515Y-14533031D02*
X11485039Y-14523508D01*
X11485039Y-14523508D02*
X11504086Y-14513984D01*
X11694562Y-14513984D02*
X11713610Y-14513984D01*
X11713610Y-14513984D02*
X11732658Y-14523508D01*
X11732658Y-14523508D02*
X11742182Y-14533031D01*
X11742182Y-14533031D02*
X11751705Y-14552079D01*
X11751705Y-14552079D02*
X11761229Y-14590174D01*
X11761229Y-14590174D02*
X11761229Y-14637793D01*
X11761229Y-14637793D02*
X11751705Y-14675888D01*
X11751705Y-14675888D02*
X11742182Y-14694936D01*
X11742182Y-14694936D02*
X11732658Y-14704460D01*
X11732658Y-14704460D02*
X11713610Y-14713984D01*
X11713610Y-14713984D02*
X11694562Y-14713984D01*
X11694562Y-14713984D02*
X11675515Y-14704460D01*
X11675515Y-14704460D02*
X11665991Y-14694936D01*
X11665991Y-14694936D02*
X11656467Y-14675888D01*
X11656467Y-14675888D02*
X11646943Y-14637793D01*
X11646943Y-14637793D02*
X11646943Y-14590174D01*
X11646943Y-14590174D02*
X11656467Y-14552079D01*
X11656467Y-14552079D02*
X11665991Y-14533031D01*
X11665991Y-14533031D02*
X11675515Y-14523508D01*
X11675515Y-14523508D02*
X11694562Y-14513984D01*
X11885039Y-14513984D02*
X11904086Y-14513984D01*
X11904086Y-14513984D02*
X11923134Y-14523508D01*
X11923134Y-14523508D02*
X11932658Y-14533031D01*
X11932658Y-14533031D02*
X11942182Y-14552079D01*
X11942182Y-14552079D02*
X11951705Y-14590174D01*
X11951705Y-14590174D02*
X11951705Y-14637793D01*
X11951705Y-14637793D02*
X11942182Y-14675888D01*
X11942182Y-14675888D02*
X11932658Y-14694936D01*
X11932658Y-14694936D02*
X11923134Y-14704460D01*
X11923134Y-14704460D02*
X11904086Y-14713984D01*
X11904086Y-14713984D02*
X11885039Y-14713984D01*
X11885039Y-14713984D02*
X11865991Y-14704460D01*
X11865991Y-14704460D02*
X11856467Y-14694936D01*
X11856467Y-14694936D02*
X11846943Y-14675888D01*
X11846943Y-14675888D02*
X11837420Y-14637793D01*
X11837420Y-14637793D02*
X11837420Y-14590174D01*
X11837420Y-14590174D02*
X11846943Y-14552079D01*
X11846943Y-14552079D02*
X11856467Y-14533031D01*
X11856467Y-14533031D02*
X11865991Y-14523508D01*
X11865991Y-14523508D02*
X11885039Y-14513984D01*
X12037420Y-14713984D02*
X12037420Y-14580650D01*
X12037420Y-14599698D02*
X12046943Y-14590174D01*
X12046943Y-14590174D02*
X12065991Y-14580650D01*
X12065991Y-14580650D02*
X12094563Y-14580650D01*
X12094563Y-14580650D02*
X12113610Y-14590174D01*
X12113610Y-14590174D02*
X12123134Y-14609222D01*
X12123134Y-14609222D02*
X12123134Y-14713984D01*
X12123134Y-14609222D02*
X12132658Y-14590174D01*
X12132658Y-14590174D02*
X12151705Y-14580650D01*
X12151705Y-14580650D02*
X12180277Y-14580650D01*
X12180277Y-14580650D02*
X12199324Y-14590174D01*
X12199324Y-14590174D02*
X12208848Y-14609222D01*
X12208848Y-14609222D02*
X12208848Y-14713984D01*
X12304086Y-14713984D02*
X12304086Y-14580650D01*
X12304086Y-14599698D02*
X12313610Y-14590174D01*
X12313610Y-14590174D02*
X12332658Y-14580650D01*
X12332658Y-14580650D02*
X12361229Y-14580650D01*
X12361229Y-14580650D02*
X12380277Y-14590174D01*
X12380277Y-14590174D02*
X12389801Y-14609222D01*
X12389801Y-14609222D02*
X12389801Y-14713984D01*
X12389801Y-14609222D02*
X12399324Y-14590174D01*
X12399324Y-14590174D02*
X12418372Y-14580650D01*
X12418372Y-14580650D02*
X12446943Y-14580650D01*
X12446943Y-14580650D02*
X12465991Y-14590174D01*
X12465991Y-14590174D02*
X12475515Y-14609222D01*
X12475515Y-14609222D02*
X12475515Y-14713984D01*
X12865991Y-14504460D02*
X12694563Y-14761603D01*
X13123134Y-14513984D02*
X13142182Y-14513984D01*
X13142182Y-14513984D02*
X13161229Y-14523508D01*
X13161229Y-14523508D02*
X13170753Y-14533031D01*
X13170753Y-14533031D02*
X13180277Y-14552079D01*
X13180277Y-14552079D02*
X13189801Y-14590174D01*
X13189801Y-14590174D02*
X13189801Y-14637793D01*
X13189801Y-14637793D02*
X13180277Y-14675888D01*
X13180277Y-14675888D02*
X13170753Y-14694936D01*
X13170753Y-14694936D02*
X13161229Y-14704460D01*
X13161229Y-14704460D02*
X13142182Y-14713984D01*
X13142182Y-14713984D02*
X13123134Y-14713984D01*
X13123134Y-14713984D02*
X13104086Y-14704460D01*
X13104086Y-14704460D02*
X13094563Y-14694936D01*
X13094563Y-14694936D02*
X13085039Y-14675888D01*
X13085039Y-14675888D02*
X13075515Y-14637793D01*
X13075515Y-14637793D02*
X13075515Y-14590174D01*
X13075515Y-14590174D02*
X13085039Y-14552079D01*
X13085039Y-14552079D02*
X13094563Y-14533031D01*
X13094563Y-14533031D02*
X13104086Y-14523508D01*
X13104086Y-14523508D02*
X13123134Y-14513984D01*
X13275515Y-14694936D02*
X13285039Y-14704460D01*
X13285039Y-14704460D02*
X13275515Y-14713984D01*
X13275515Y-14713984D02*
X13265991Y-14704460D01*
X13265991Y-14704460D02*
X13275515Y-14694936D01*
X13275515Y-14694936D02*
X13275515Y-14713984D01*
X13408848Y-14513984D02*
X13427896Y-14513984D01*
X13427896Y-14513984D02*
X13446944Y-14523508D01*
X13446944Y-14523508D02*
X13456467Y-14533031D01*
X13456467Y-14533031D02*
X13465991Y-14552079D01*
X13465991Y-14552079D02*
X13475515Y-14590174D01*
X13475515Y-14590174D02*
X13475515Y-14637793D01*
X13475515Y-14637793D02*
X13465991Y-14675888D01*
X13465991Y-14675888D02*
X13456467Y-14694936D01*
X13456467Y-14694936D02*
X13446944Y-14704460D01*
X13446944Y-14704460D02*
X13427896Y-14713984D01*
X13427896Y-14713984D02*
X13408848Y-14713984D01*
X13408848Y-14713984D02*
X13389801Y-14704460D01*
X13389801Y-14704460D02*
X13380277Y-14694936D01*
X13380277Y-14694936D02*
X13370753Y-14675888D01*
X13370753Y-14675888D02*
X13361229Y-14637793D01*
X13361229Y-14637793D02*
X13361229Y-14590174D01*
X13361229Y-14590174D02*
X13370753Y-14552079D01*
X13370753Y-14552079D02*
X13380277Y-14533031D01*
X13380277Y-14533031D02*
X13389801Y-14523508D01*
X13389801Y-14523508D02*
X13408848Y-14513984D01*
X13542182Y-14513984D02*
X13665991Y-14513984D01*
X13665991Y-14513984D02*
X13599325Y-14590174D01*
X13599325Y-14590174D02*
X13627896Y-14590174D01*
X13627896Y-14590174D02*
X13646944Y-14599698D01*
X13646944Y-14599698D02*
X13656467Y-14609222D01*
X13656467Y-14609222D02*
X13665991Y-14628269D01*
X13665991Y-14628269D02*
X13665991Y-14675888D01*
X13665991Y-14675888D02*
X13656467Y-14694936D01*
X13656467Y-14694936D02*
X13646944Y-14704460D01*
X13646944Y-14704460D02*
X13627896Y-14713984D01*
X13627896Y-14713984D02*
X13570753Y-14713984D01*
X13570753Y-14713984D02*
X13551706Y-14704460D01*
X13551706Y-14704460D02*
X13542182Y-14694936D01*
X13761229Y-14713984D02*
X13799325Y-14713984D01*
X13799325Y-14713984D02*
X13818372Y-14704460D01*
X13818372Y-14704460D02*
X13827896Y-14694936D01*
X13827896Y-14694936D02*
X13846944Y-14666365D01*
X13846944Y-14666365D02*
X13856467Y-14628269D01*
X13856467Y-14628269D02*
X13856467Y-14552079D01*
X13856467Y-14552079D02*
X13846944Y-14533031D01*
X13846944Y-14533031D02*
X13837420Y-14523508D01*
X13837420Y-14523508D02*
X13818372Y-14513984D01*
X13818372Y-14513984D02*
X13780277Y-14513984D01*
X13780277Y-14513984D02*
X13761229Y-14523508D01*
X13761229Y-14523508D02*
X13751706Y-14533031D01*
X13751706Y-14533031D02*
X13742182Y-14552079D01*
X13742182Y-14552079D02*
X13742182Y-14599698D01*
X13742182Y-14599698D02*
X13751706Y-14618746D01*
X13751706Y-14618746D02*
X13761229Y-14628269D01*
X13761229Y-14628269D02*
X13780277Y-14637793D01*
X13780277Y-14637793D02*
X13818372Y-14637793D01*
X13818372Y-14637793D02*
X13837420Y-14628269D01*
X13837420Y-14628269D02*
X13846944Y-14618746D01*
X13846944Y-14618746D02*
X13856467Y-14599698D01*
X14027896Y-14580650D02*
X14027896Y-14713984D01*
X13980277Y-14504460D02*
X13932658Y-14647317D01*
X13932658Y-14647317D02*
X14056467Y-14647317D01*
X14123134Y-14513984D02*
X14123134Y-14552079D01*
X14199325Y-14513984D02*
X14199325Y-14552079D01*
X14494563Y-14790174D02*
X14485039Y-14780650D01*
X14485039Y-14780650D02*
X14465991Y-14752079D01*
X14465991Y-14752079D02*
X14456468Y-14733031D01*
X14456468Y-14733031D02*
X14446944Y-14704460D01*
X14446944Y-14704460D02*
X14437420Y-14656841D01*
X14437420Y-14656841D02*
X14437420Y-14618746D01*
X14437420Y-14618746D02*
X14446944Y-14571127D01*
X14446944Y-14571127D02*
X14456468Y-14542555D01*
X14456468Y-14542555D02*
X14465991Y-14523508D01*
X14465991Y-14523508D02*
X14485039Y-14494936D01*
X14485039Y-14494936D02*
X14494563Y-14485412D01*
X14665991Y-14513984D02*
X14570753Y-14513984D01*
X14570753Y-14513984D02*
X14561229Y-14609222D01*
X14561229Y-14609222D02*
X14570753Y-14599698D01*
X14570753Y-14599698D02*
X14589801Y-14590174D01*
X14589801Y-14590174D02*
X14637420Y-14590174D01*
X14637420Y-14590174D02*
X14656468Y-14599698D01*
X14656468Y-14599698D02*
X14665991Y-14609222D01*
X14665991Y-14609222D02*
X14675515Y-14628269D01*
X14675515Y-14628269D02*
X14675515Y-14675888D01*
X14675515Y-14675888D02*
X14665991Y-14694936D01*
X14665991Y-14694936D02*
X14656468Y-14704460D01*
X14656468Y-14704460D02*
X14637420Y-14713984D01*
X14637420Y-14713984D02*
X14589801Y-14713984D01*
X14589801Y-14713984D02*
X14570753Y-14704460D01*
X14570753Y-14704460D02*
X14561229Y-14694936D01*
X14856468Y-14513984D02*
X14761229Y-14513984D01*
X14761229Y-14513984D02*
X14751706Y-14609222D01*
X14751706Y-14609222D02*
X14761229Y-14599698D01*
X14761229Y-14599698D02*
X14780277Y-14590174D01*
X14780277Y-14590174D02*
X14827896Y-14590174D01*
X14827896Y-14590174D02*
X14846944Y-14599698D01*
X14846944Y-14599698D02*
X14856468Y-14609222D01*
X14856468Y-14609222D02*
X14865991Y-14628269D01*
X14865991Y-14628269D02*
X14865991Y-14675888D01*
X14865991Y-14675888D02*
X14856468Y-14694936D01*
X14856468Y-14694936D02*
X14846944Y-14704460D01*
X14846944Y-14704460D02*
X14827896Y-14713984D01*
X14827896Y-14713984D02*
X14780277Y-14713984D01*
X14780277Y-14713984D02*
X14761229Y-14704460D01*
X14761229Y-14704460D02*
X14751706Y-14694936D01*
X15104087Y-14713984D02*
X15104087Y-14513984D01*
X15189801Y-14713984D02*
X15189801Y-14609222D01*
X15189801Y-14609222D02*
X15180277Y-14590174D01*
X15180277Y-14590174D02*
X15161230Y-14580650D01*
X15161230Y-14580650D02*
X15132658Y-14580650D01*
X15132658Y-14580650D02*
X15113610Y-14590174D01*
X15113610Y-14590174D02*
X15104087Y-14599698D01*
X15313610Y-14713984D02*
X15294563Y-14704460D01*
X15294563Y-14704460D02*
X15285039Y-14694936D01*
X15285039Y-14694936D02*
X15275515Y-14675888D01*
X15275515Y-14675888D02*
X15275515Y-14618746D01*
X15275515Y-14618746D02*
X15285039Y-14599698D01*
X15285039Y-14599698D02*
X15294563Y-14590174D01*
X15294563Y-14590174D02*
X15313610Y-14580650D01*
X15313610Y-14580650D02*
X15342182Y-14580650D01*
X15342182Y-14580650D02*
X15361230Y-14590174D01*
X15361230Y-14590174D02*
X15370753Y-14599698D01*
X15370753Y-14599698D02*
X15380277Y-14618746D01*
X15380277Y-14618746D02*
X15380277Y-14675888D01*
X15380277Y-14675888D02*
X15370753Y-14694936D01*
X15370753Y-14694936D02*
X15361230Y-14704460D01*
X15361230Y-14704460D02*
X15342182Y-14713984D01*
X15342182Y-14713984D02*
X15313610Y-14713984D01*
X15494563Y-14713984D02*
X15475515Y-14704460D01*
X15475515Y-14704460D02*
X15465991Y-14685412D01*
X15465991Y-14685412D02*
X15465991Y-14513984D01*
X15646944Y-14704460D02*
X15627896Y-14713984D01*
X15627896Y-14713984D02*
X15589801Y-14713984D01*
X15589801Y-14713984D02*
X15570753Y-14704460D01*
X15570753Y-14704460D02*
X15561230Y-14685412D01*
X15561230Y-14685412D02*
X15561230Y-14609222D01*
X15561230Y-14609222D02*
X15570753Y-14590174D01*
X15570753Y-14590174D02*
X15589801Y-14580650D01*
X15589801Y-14580650D02*
X15627896Y-14580650D01*
X15627896Y-14580650D02*
X15646944Y-14590174D01*
X15646944Y-14590174D02*
X15656468Y-14609222D01*
X15656468Y-14609222D02*
X15656468Y-14628269D01*
X15656468Y-14628269D02*
X15561230Y-14647317D01*
X15732658Y-14704460D02*
X15751706Y-14713984D01*
X15751706Y-14713984D02*
X15789801Y-14713984D01*
X15789801Y-14713984D02*
X15808849Y-14704460D01*
X15808849Y-14704460D02*
X15818372Y-14685412D01*
X15818372Y-14685412D02*
X15818372Y-14675888D01*
X15818372Y-14675888D02*
X15808849Y-14656841D01*
X15808849Y-14656841D02*
X15789801Y-14647317D01*
X15789801Y-14647317D02*
X15761230Y-14647317D01*
X15761230Y-14647317D02*
X15742182Y-14637793D01*
X15742182Y-14637793D02*
X15732658Y-14618746D01*
X15732658Y-14618746D02*
X15732658Y-14609222D01*
X15732658Y-14609222D02*
X15742182Y-14590174D01*
X15742182Y-14590174D02*
X15761230Y-14580650D01*
X15761230Y-14580650D02*
X15789801Y-14580650D01*
X15789801Y-14580650D02*
X15808849Y-14590174D01*
X15885039Y-14790174D02*
X15894563Y-14780650D01*
X15894563Y-14780650D02*
X15913611Y-14752079D01*
X15913611Y-14752079D02*
X15923134Y-14733031D01*
X15923134Y-14733031D02*
X15932658Y-14704460D01*
X15932658Y-14704460D02*
X15942182Y-14656841D01*
X15942182Y-14656841D02*
X15942182Y-14618746D01*
X15942182Y-14618746D02*
X15932658Y-14571127D01*
X15932658Y-14571127D02*
X15923134Y-14542555D01*
X15923134Y-14542555D02*
X15913611Y-14523508D01*
X15913611Y-14523508D02*
X15894563Y-14494936D01*
X15894563Y-14494936D02*
X15885039Y-14485412D01*
M02*
