%TF.GenerationSoftware,KiCad,Pcbnew,9.0.1*%
%TF.CreationDate,2025-10-13T15:59:10-06:00*%
%TF.ProjectId,inconsole,696e636f-6e73-46f6-9c65-2e6b69636164,rev?*%
%TF.SameCoordinates,Original*%
%TF.FileFunction,Legend,Top*%
%TF.FilePolarity,Positive*%
%FSLAX46Y46*%
G04 Gerber Fmt 4.6, Leading zero omitted, Abs format (unit mm)*
G04 Created by KiCad (PCBNEW 9.0.1) date 2025-10-13 15:59:10*
%MOMM*%
%LPD*%
G01*
G04 APERTURE LIST*
G04 Aperture macros list*
%AMRoundRect*
0 Rectangle with rounded corners*
0 $1 Rounding radius*
0 $2 $3 $4 $5 $6 $7 $8 $9 X,Y pos of 4 corners*
0 Add a 4 corners polygon primitive as box body*
4,1,4,$2,$3,$4,$5,$6,$7,$8,$9,$2,$3,0*
0 Add four circle primitives for the rounded corners*
1,1,$1+$1,$2,$3*
1,1,$1+$1,$4,$5*
1,1,$1+$1,$6,$7*
1,1,$1+$1,$8,$9*
0 Add four rect primitives between the rounded corners*
20,1,$1+$1,$2,$3,$4,$5,0*
20,1,$1+$1,$4,$5,$6,$7,0*
20,1,$1+$1,$6,$7,$8,$9,0*
20,1,$1+$1,$8,$9,$2,$3,0*%
G04 Aperture macros list end*
%ADD10C,0.250000*%
%ADD11C,0.100000*%
%ADD12C,0.332843*%
%ADD13C,0.120000*%
%ADD14C,0.120711*%
%ADD15C,0.191421*%
%ADD16C,0.528353*%
%ADD17R,1.050000X2.000000*%
%ADD18R,0.560000X0.620000*%
%ADD19R,1.200000X1.400000*%
%ADD20RoundRect,0.250000X0.475000X-0.250000X0.475000X0.250000X-0.475000X0.250000X-0.475000X-0.250000X0*%
%ADD21R,1.000000X0.300000*%
%ADD22R,1.300000X2.000000*%
%ADD23R,0.620000X0.560000*%
%ADD24RoundRect,0.250000X-0.475000X0.250000X-0.475000X-0.250000X0.475000X-0.250000X0.475000X0.250000X0*%
%ADD25R,0.203200X0.863600*%
%ADD26R,0.863600X0.203200*%
%ADD27R,1.700000X0.700000*%
%ADD28RoundRect,0.100000X-0.400000X0.250000X-0.400000X-0.250000X0.400000X-0.250000X0.400000X0.250000X0*%
%ADD29RoundRect,0.125000X-0.475000X0.250000X-0.475000X-0.250000X0.475000X-0.250000X0.475000X0.250000X0*%
%ADD30C,0.600000*%
%ADD31R,0.200000X0.875000*%
%ADD32R,0.875000X0.200000*%
%ADD33R,3.400000X3.400000*%
%ADD34R,1.700000X1.700000*%
%ADD35RoundRect,0.375000X-0.625000X-0.375000X0.625000X-0.375000X0.625000X0.375000X-0.625000X0.375000X0*%
%ADD36RoundRect,0.500000X-0.500000X-1.400000X0.500000X-1.400000X0.500000X1.400000X-0.500000X1.400000X0*%
%ADD37RoundRect,0.135000X0.135000X0.185000X-0.135000X0.185000X-0.135000X-0.185000X0.135000X-0.185000X0*%
%ADD38RoundRect,0.150000X0.625000X-0.150000X0.625000X0.150000X-0.625000X0.150000X-0.625000X-0.150000X0*%
%ADD39RoundRect,0.250000X0.650000X-0.350000X0.650000X0.350000X-0.650000X0.350000X-0.650000X-0.350000X0*%
%ADD40C,1.600000*%
G04 APERTURE END LIST*
D10*
X80255000Y-125220000D02*
G75*
G02*
X80005000Y-125220000I-125000J0D01*
G01*
X80005000Y-125220000D02*
G75*
G02*
X80255000Y-125220000I125000J0D01*
G01*
D11*
X73660000Y-114300000D02*
X72390000Y-115570000D01*
X124530000Y-125920000D02*
G75*
G02*
X124530000Y-125120000I0J400000D01*
G01*
X73660000Y-129540000D02*
X74930000Y-129540000D01*
X122930000Y-125120000D02*
G75*
G02*
X123530000Y-124520000I600000J0D01*
G01*
X123930000Y-127520000D02*
X124730000Y-127520000D01*
X124530000Y-125920000D02*
X125930000Y-125920000D01*
X127000000Y-114300000D02*
X125730000Y-114300000D01*
X128270000Y-128270000D02*
X128270000Y-115570000D01*
D10*
X90655000Y-125720000D02*
G75*
G02*
X90405000Y-125720000I-125000J0D01*
G01*
X90405000Y-125720000D02*
G75*
G02*
X90655000Y-125720000I125000J0D01*
G01*
D11*
X127000000Y-129540000D02*
X128270000Y-128270000D01*
X122930000Y-125120000D02*
X122930000Y-128520000D01*
X89130000Y-127720000D02*
X88730000Y-128120000D01*
X91130000Y-128120000D02*
X90730000Y-127720000D01*
X73660000Y-114300000D02*
X74930000Y-114300000D01*
X90330000Y-128120000D02*
X89930000Y-127720000D01*
X89930000Y-126520000D02*
X90330000Y-126520000D01*
X88730000Y-125720000D02*
X88730000Y-128120000D01*
X123530000Y-124520000D02*
X124929999Y-124520000D01*
X125730000Y-129540000D02*
X127000000Y-129540000D01*
X123930000Y-128520000D02*
X123930000Y-127520000D01*
D12*
X81096421Y-124020000D02*
G75*
G02*
X80763579Y-124020000I-166421J0D01*
G01*
X80763579Y-124020000D02*
G75*
G02*
X81096421Y-124020000I166421J0D01*
G01*
D10*
X89855000Y-125720000D02*
G75*
G02*
X89605000Y-125720000I-125000J0D01*
G01*
X89605000Y-125720000D02*
G75*
G02*
X89855000Y-125720000I125000J0D01*
G01*
D11*
X122530000Y-127720000D02*
G75*
G02*
X122330000Y-127520000I0J200000D01*
G01*
X124964315Y-124520000D02*
G75*
G02*
X125564300Y-125119999I-15J-600000D01*
G01*
D12*
X79496421Y-124020000D02*
G75*
G02*
X79163579Y-124020000I-166421J0D01*
G01*
X79163579Y-124020000D02*
G75*
G02*
X79496421Y-124020000I166421J0D01*
G01*
D11*
X125930000Y-125120000D02*
G75*
G02*
X125930000Y-125920000I0J-400000D01*
G01*
X122930000Y-128520000D02*
X123930000Y-128520000D01*
X88730000Y-125720000D02*
G75*
G02*
X91130000Y-125720000I1200000J0D01*
G01*
X80130000Y-125620000D02*
G75*
G02*
X79730000Y-125620000I-200000J0D01*
G01*
X125530000Y-125920000D02*
X125530000Y-128520000D01*
X122930000Y-125520000D02*
X122530000Y-125520000D01*
X122930000Y-127720000D02*
X122530000Y-127720000D01*
X72390000Y-128270000D02*
X73660000Y-129540000D01*
X90730000Y-127720000D02*
X90330000Y-128120000D01*
X125530000Y-128520000D02*
X124530000Y-128520000D01*
X91130000Y-125720000D02*
X91130000Y-128120000D01*
X89930000Y-127720000D02*
X89530000Y-128120000D01*
X80530000Y-125620000D02*
G75*
G02*
X80130000Y-125620000I-200000J0D01*
G01*
X124530000Y-125120000D02*
X125930000Y-125120000D01*
X122330000Y-125720000D02*
X122330000Y-127520000D01*
X79930000Y-124820000D02*
G75*
G02*
X79530000Y-124820000I-200000J0D01*
G01*
X79530000Y-124820000D02*
G75*
G02*
X79930000Y-124820000I200000J0D01*
G01*
X81400000Y-125220000D02*
G75*
G02*
X78860000Y-125220000I-1270000J0D01*
G01*
X78860000Y-125220000D02*
G75*
G02*
X81400000Y-125220000I1270000J0D01*
G01*
X122330000Y-125720000D02*
G75*
G02*
X122530000Y-125520000I200000J0D01*
G01*
X72390000Y-115570000D02*
X72390000Y-128270000D01*
X89530000Y-128120000D02*
X89130000Y-127720000D01*
X128270000Y-115570000D02*
X127000000Y-114300000D01*
X124530000Y-128520000D02*
X124530000Y-127520000D01*
X80130000Y-125420000D02*
X80130000Y-125620000D01*
X80730000Y-124820000D02*
G75*
G02*
X80330000Y-124820000I-200000J0D01*
G01*
X80330000Y-124820000D02*
G75*
G02*
X80730000Y-124820000I200000J0D01*
G01*
X71484895Y-126472381D02*
X70951561Y-126472381D01*
X70684895Y-126472381D02*
X70722990Y-126510477D01*
X70722990Y-126510477D02*
X70761085Y-126472381D01*
X70761085Y-126472381D02*
X70722990Y-126434286D01*
X70722990Y-126434286D02*
X70684895Y-126472381D01*
X70684895Y-126472381D02*
X70761085Y-126472381D01*
X70951561Y-126091429D02*
X71484895Y-126091429D01*
X71027752Y-126091429D02*
X70989657Y-126053334D01*
X70989657Y-126053334D02*
X70951561Y-125977144D01*
X70951561Y-125977144D02*
X70951561Y-125862858D01*
X70951561Y-125862858D02*
X70989657Y-125786667D01*
X70989657Y-125786667D02*
X71065847Y-125748572D01*
X71065847Y-125748572D02*
X71484895Y-125748572D01*
X71446800Y-125024762D02*
X71484895Y-125100953D01*
X71484895Y-125100953D02*
X71484895Y-125253334D01*
X71484895Y-125253334D02*
X71446800Y-125329524D01*
X71446800Y-125329524D02*
X71408704Y-125367619D01*
X71408704Y-125367619D02*
X71332514Y-125405715D01*
X71332514Y-125405715D02*
X71103942Y-125405715D01*
X71103942Y-125405715D02*
X71027752Y-125367619D01*
X71027752Y-125367619D02*
X70989657Y-125329524D01*
X70989657Y-125329524D02*
X70951561Y-125253334D01*
X70951561Y-125253334D02*
X70951561Y-125100953D01*
X70951561Y-125100953D02*
X70989657Y-125024762D01*
X71484895Y-124567620D02*
X71446800Y-124643810D01*
X71446800Y-124643810D02*
X71408704Y-124681905D01*
X71408704Y-124681905D02*
X71332514Y-124720001D01*
X71332514Y-124720001D02*
X71103942Y-124720001D01*
X71103942Y-124720001D02*
X71027752Y-124681905D01*
X71027752Y-124681905D02*
X70989657Y-124643810D01*
X70989657Y-124643810D02*
X70951561Y-124567620D01*
X70951561Y-124567620D02*
X70951561Y-124453334D01*
X70951561Y-124453334D02*
X70989657Y-124377143D01*
X70989657Y-124377143D02*
X71027752Y-124339048D01*
X71027752Y-124339048D02*
X71103942Y-124300953D01*
X71103942Y-124300953D02*
X71332514Y-124300953D01*
X71332514Y-124300953D02*
X71408704Y-124339048D01*
X71408704Y-124339048D02*
X71446800Y-124377143D01*
X71446800Y-124377143D02*
X71484895Y-124453334D01*
X71484895Y-124453334D02*
X71484895Y-124567620D01*
X70951561Y-123958095D02*
X71484895Y-123958095D01*
X71027752Y-123958095D02*
X70989657Y-123920000D01*
X70989657Y-123920000D02*
X70951561Y-123843810D01*
X70951561Y-123843810D02*
X70951561Y-123729524D01*
X70951561Y-123729524D02*
X70989657Y-123653333D01*
X70989657Y-123653333D02*
X71065847Y-123615238D01*
X71065847Y-123615238D02*
X71484895Y-123615238D01*
X71446800Y-123272381D02*
X71484895Y-123196190D01*
X71484895Y-123196190D02*
X71484895Y-123043809D01*
X71484895Y-123043809D02*
X71446800Y-122967619D01*
X71446800Y-122967619D02*
X71370609Y-122929523D01*
X71370609Y-122929523D02*
X71332514Y-122929523D01*
X71332514Y-122929523D02*
X71256323Y-122967619D01*
X71256323Y-122967619D02*
X71218228Y-123043809D01*
X71218228Y-123043809D02*
X71218228Y-123158095D01*
X71218228Y-123158095D02*
X71180133Y-123234285D01*
X71180133Y-123234285D02*
X71103942Y-123272381D01*
X71103942Y-123272381D02*
X71065847Y-123272381D01*
X71065847Y-123272381D02*
X70989657Y-123234285D01*
X70989657Y-123234285D02*
X70951561Y-123158095D01*
X70951561Y-123158095D02*
X70951561Y-123043809D01*
X70951561Y-123043809D02*
X70989657Y-122967619D01*
X71484895Y-122472381D02*
X71446800Y-122548571D01*
X71446800Y-122548571D02*
X71408704Y-122586666D01*
X71408704Y-122586666D02*
X71332514Y-122624762D01*
X71332514Y-122624762D02*
X71103942Y-122624762D01*
X71103942Y-122624762D02*
X71027752Y-122586666D01*
X71027752Y-122586666D02*
X70989657Y-122548571D01*
X70989657Y-122548571D02*
X70951561Y-122472381D01*
X70951561Y-122472381D02*
X70951561Y-122358095D01*
X70951561Y-122358095D02*
X70989657Y-122281904D01*
X70989657Y-122281904D02*
X71027752Y-122243809D01*
X71027752Y-122243809D02*
X71103942Y-122205714D01*
X71103942Y-122205714D02*
X71332514Y-122205714D01*
X71332514Y-122205714D02*
X71408704Y-122243809D01*
X71408704Y-122243809D02*
X71446800Y-122281904D01*
X71446800Y-122281904D02*
X71484895Y-122358095D01*
X71484895Y-122358095D02*
X71484895Y-122472381D01*
X71484895Y-121748571D02*
X71446800Y-121824761D01*
X71446800Y-121824761D02*
X71370609Y-121862856D01*
X71370609Y-121862856D02*
X70684895Y-121862856D01*
X71446800Y-121139046D02*
X71484895Y-121215237D01*
X71484895Y-121215237D02*
X71484895Y-121367618D01*
X71484895Y-121367618D02*
X71446800Y-121443808D01*
X71446800Y-121443808D02*
X71370609Y-121481904D01*
X71370609Y-121481904D02*
X71065847Y-121481904D01*
X71065847Y-121481904D02*
X70989657Y-121443808D01*
X70989657Y-121443808D02*
X70951561Y-121367618D01*
X70951561Y-121367618D02*
X70951561Y-121215237D01*
X70951561Y-121215237D02*
X70989657Y-121139046D01*
X70989657Y-121139046D02*
X71065847Y-121100951D01*
X71065847Y-121100951D02*
X71142038Y-121100951D01*
X71142038Y-121100951D02*
X71218228Y-121481904D01*
X71484895Y-120148570D02*
X70951561Y-120148570D01*
X71103942Y-120148570D02*
X71027752Y-120110475D01*
X71027752Y-120110475D02*
X70989657Y-120072380D01*
X70989657Y-120072380D02*
X70951561Y-119996189D01*
X70951561Y-119996189D02*
X70951561Y-119919999D01*
X71446800Y-119348570D02*
X71484895Y-119424761D01*
X71484895Y-119424761D02*
X71484895Y-119577142D01*
X71484895Y-119577142D02*
X71446800Y-119653332D01*
X71446800Y-119653332D02*
X71370609Y-119691428D01*
X71370609Y-119691428D02*
X71065847Y-119691428D01*
X71065847Y-119691428D02*
X70989657Y-119653332D01*
X70989657Y-119653332D02*
X70951561Y-119577142D01*
X70951561Y-119577142D02*
X70951561Y-119424761D01*
X70951561Y-119424761D02*
X70989657Y-119348570D01*
X70989657Y-119348570D02*
X71065847Y-119310475D01*
X71065847Y-119310475D02*
X71142038Y-119310475D01*
X71142038Y-119310475D02*
X71218228Y-119691428D01*
X70951561Y-119043809D02*
X71484895Y-118853333D01*
X71484895Y-118853333D02*
X70951561Y-118662856D01*
X70684895Y-117596189D02*
X70684895Y-117519999D01*
X70684895Y-117519999D02*
X70722990Y-117443808D01*
X70722990Y-117443808D02*
X70761085Y-117405713D01*
X70761085Y-117405713D02*
X70837276Y-117367618D01*
X70837276Y-117367618D02*
X70989657Y-117329523D01*
X70989657Y-117329523D02*
X71180133Y-117329523D01*
X71180133Y-117329523D02*
X71332514Y-117367618D01*
X71332514Y-117367618D02*
X71408704Y-117405713D01*
X71408704Y-117405713D02*
X71446800Y-117443808D01*
X71446800Y-117443808D02*
X71484895Y-117519999D01*
X71484895Y-117519999D02*
X71484895Y-117596189D01*
X71484895Y-117596189D02*
X71446800Y-117672380D01*
X71446800Y-117672380D02*
X71408704Y-117710475D01*
X71408704Y-117710475D02*
X71332514Y-117748570D01*
X71332514Y-117748570D02*
X71180133Y-117786666D01*
X71180133Y-117786666D02*
X70989657Y-117786666D01*
X70989657Y-117786666D02*
X70837276Y-117748570D01*
X70837276Y-117748570D02*
X70761085Y-117710475D01*
X70761085Y-117710475D02*
X70722990Y-117672380D01*
X70722990Y-117672380D02*
X70684895Y-117596189D01*
X131489524Y-115016895D02*
X131222857Y-114635942D01*
X131032381Y-115016895D02*
X131032381Y-114216895D01*
X131032381Y-114216895D02*
X131337143Y-114216895D01*
X131337143Y-114216895D02*
X131413333Y-114254990D01*
X131413333Y-114254990D02*
X131451428Y-114293085D01*
X131451428Y-114293085D02*
X131489524Y-114369276D01*
X131489524Y-114369276D02*
X131489524Y-114483561D01*
X131489524Y-114483561D02*
X131451428Y-114559752D01*
X131451428Y-114559752D02*
X131413333Y-114597847D01*
X131413333Y-114597847D02*
X131337143Y-114635942D01*
X131337143Y-114635942D02*
X131032381Y-114635942D01*
X131832381Y-114216895D02*
X131832381Y-114864514D01*
X131832381Y-114864514D02*
X131870476Y-114940704D01*
X131870476Y-114940704D02*
X131908571Y-114978800D01*
X131908571Y-114978800D02*
X131984762Y-115016895D01*
X131984762Y-115016895D02*
X132137143Y-115016895D01*
X132137143Y-115016895D02*
X132213333Y-114978800D01*
X132213333Y-114978800D02*
X132251428Y-114940704D01*
X132251428Y-114940704D02*
X132289524Y-114864514D01*
X132289524Y-114864514D02*
X132289524Y-114216895D01*
X132670476Y-115016895D02*
X132670476Y-114216895D01*
X132670476Y-114216895D02*
X133127619Y-115016895D01*
X133127619Y-115016895D02*
X133127619Y-114216895D01*
X141630476Y-135024990D02*
X141554286Y-134986895D01*
X141554286Y-134986895D02*
X141440000Y-134986895D01*
X141440000Y-134986895D02*
X141325714Y-135024990D01*
X141325714Y-135024990D02*
X141249524Y-135101180D01*
X141249524Y-135101180D02*
X141211429Y-135177371D01*
X141211429Y-135177371D02*
X141173333Y-135329752D01*
X141173333Y-135329752D02*
X141173333Y-135444038D01*
X141173333Y-135444038D02*
X141211429Y-135596419D01*
X141211429Y-135596419D02*
X141249524Y-135672609D01*
X141249524Y-135672609D02*
X141325714Y-135748800D01*
X141325714Y-135748800D02*
X141440000Y-135786895D01*
X141440000Y-135786895D02*
X141516191Y-135786895D01*
X141516191Y-135786895D02*
X141630476Y-135748800D01*
X141630476Y-135748800D02*
X141668572Y-135710704D01*
X141668572Y-135710704D02*
X141668572Y-135444038D01*
X141668572Y-135444038D02*
X141516191Y-135444038D01*
X142011429Y-135786895D02*
X142011429Y-134986895D01*
X142011429Y-134986895D02*
X142468572Y-135786895D01*
X142468572Y-135786895D02*
X142468572Y-134986895D01*
X142849524Y-135786895D02*
X142849524Y-134986895D01*
X142849524Y-134986895D02*
X143040000Y-134986895D01*
X143040000Y-134986895D02*
X143154286Y-135024990D01*
X143154286Y-135024990D02*
X143230476Y-135101180D01*
X143230476Y-135101180D02*
X143268571Y-135177371D01*
X143268571Y-135177371D02*
X143306667Y-135329752D01*
X143306667Y-135329752D02*
X143306667Y-135444038D01*
X143306667Y-135444038D02*
X143268571Y-135596419D01*
X143268571Y-135596419D02*
X143230476Y-135672609D01*
X143230476Y-135672609D02*
X143154286Y-135748800D01*
X143154286Y-135748800D02*
X143040000Y-135786895D01*
X143040000Y-135786895D02*
X142849524Y-135786895D01*
X129907618Y-124797847D02*
X130021904Y-124835942D01*
X130021904Y-124835942D02*
X130059999Y-124874038D01*
X130059999Y-124874038D02*
X130098095Y-124950228D01*
X130098095Y-124950228D02*
X130098095Y-125064514D01*
X130098095Y-125064514D02*
X130059999Y-125140704D01*
X130059999Y-125140704D02*
X130021904Y-125178800D01*
X130021904Y-125178800D02*
X129945714Y-125216895D01*
X129945714Y-125216895D02*
X129640952Y-125216895D01*
X129640952Y-125216895D02*
X129640952Y-124416895D01*
X129640952Y-124416895D02*
X129907618Y-124416895D01*
X129907618Y-124416895D02*
X129983809Y-124454990D01*
X129983809Y-124454990D02*
X130021904Y-124493085D01*
X130021904Y-124493085D02*
X130059999Y-124569276D01*
X130059999Y-124569276D02*
X130059999Y-124645466D01*
X130059999Y-124645466D02*
X130021904Y-124721657D01*
X130021904Y-124721657D02*
X129983809Y-124759752D01*
X129983809Y-124759752D02*
X129907618Y-124797847D01*
X129907618Y-124797847D02*
X129640952Y-124797847D01*
X130593333Y-124416895D02*
X130745714Y-124416895D01*
X130745714Y-124416895D02*
X130821904Y-124454990D01*
X130821904Y-124454990D02*
X130898095Y-124531180D01*
X130898095Y-124531180D02*
X130936190Y-124683561D01*
X130936190Y-124683561D02*
X130936190Y-124950228D01*
X130936190Y-124950228D02*
X130898095Y-125102609D01*
X130898095Y-125102609D02*
X130821904Y-125178800D01*
X130821904Y-125178800D02*
X130745714Y-125216895D01*
X130745714Y-125216895D02*
X130593333Y-125216895D01*
X130593333Y-125216895D02*
X130517142Y-125178800D01*
X130517142Y-125178800D02*
X130440952Y-125102609D01*
X130440952Y-125102609D02*
X130402856Y-124950228D01*
X130402856Y-124950228D02*
X130402856Y-124683561D01*
X130402856Y-124683561D02*
X130440952Y-124531180D01*
X130440952Y-124531180D02*
X130517142Y-124454990D01*
X130517142Y-124454990D02*
X130593333Y-124416895D01*
X131431428Y-124416895D02*
X131583809Y-124416895D01*
X131583809Y-124416895D02*
X131659999Y-124454990D01*
X131659999Y-124454990D02*
X131736190Y-124531180D01*
X131736190Y-124531180D02*
X131774285Y-124683561D01*
X131774285Y-124683561D02*
X131774285Y-124950228D01*
X131774285Y-124950228D02*
X131736190Y-125102609D01*
X131736190Y-125102609D02*
X131659999Y-125178800D01*
X131659999Y-125178800D02*
X131583809Y-125216895D01*
X131583809Y-125216895D02*
X131431428Y-125216895D01*
X131431428Y-125216895D02*
X131355237Y-125178800D01*
X131355237Y-125178800D02*
X131279047Y-125102609D01*
X131279047Y-125102609D02*
X131240951Y-124950228D01*
X131240951Y-124950228D02*
X131240951Y-124683561D01*
X131240951Y-124683561D02*
X131279047Y-124531180D01*
X131279047Y-124531180D02*
X131355237Y-124454990D01*
X131355237Y-124454990D02*
X131431428Y-124416895D01*
X132002856Y-124416895D02*
X132459999Y-124416895D01*
X132231427Y-125216895D02*
X132231427Y-124416895D01*
X132688570Y-125178800D02*
X132802856Y-125216895D01*
X132802856Y-125216895D02*
X132993332Y-125216895D01*
X132993332Y-125216895D02*
X133069523Y-125178800D01*
X133069523Y-125178800D02*
X133107618Y-125140704D01*
X133107618Y-125140704D02*
X133145713Y-125064514D01*
X133145713Y-125064514D02*
X133145713Y-124988323D01*
X133145713Y-124988323D02*
X133107618Y-124912133D01*
X133107618Y-124912133D02*
X133069523Y-124874038D01*
X133069523Y-124874038D02*
X132993332Y-124835942D01*
X132993332Y-124835942D02*
X132840951Y-124797847D01*
X132840951Y-124797847D02*
X132764761Y-124759752D01*
X132764761Y-124759752D02*
X132726666Y-124721657D01*
X132726666Y-124721657D02*
X132688570Y-124645466D01*
X132688570Y-124645466D02*
X132688570Y-124569276D01*
X132688570Y-124569276D02*
X132726666Y-124493085D01*
X132726666Y-124493085D02*
X132764761Y-124454990D01*
X132764761Y-124454990D02*
X132840951Y-124416895D01*
X132840951Y-124416895D02*
X133031428Y-124416895D01*
X133031428Y-124416895D02*
X133145713Y-124454990D01*
X133488571Y-124797847D02*
X133755237Y-124797847D01*
X133869523Y-125216895D02*
X133488571Y-125216895D01*
X133488571Y-125216895D02*
X133488571Y-124416895D01*
X133488571Y-124416895D02*
X133869523Y-124416895D01*
X134593333Y-125216895D02*
X134212381Y-125216895D01*
X134212381Y-125216895D02*
X134212381Y-124416895D01*
D13*
%TO.C,Y1*%
X114520000Y-124520000D02*
X117820000Y-124520000D01*
X117820000Y-124520000D02*
X117820000Y-120520000D01*
%TO.C,C1*%
X79095000Y-118931252D02*
X79095000Y-118408748D01*
X80565000Y-118931252D02*
X80565000Y-118408748D01*
%TO.C,C19*%
X90095000Y-120658748D02*
X90095000Y-121181252D01*
X91565000Y-120658748D02*
X91565000Y-121181252D01*
%TO.C,U2*%
D14*
X76190355Y-117132500D02*
G75*
G02*
X76069645Y-117132500I-60355J0D01*
G01*
X76069645Y-117132500D02*
G75*
G02*
X76190355Y-117132500I60355J0D01*
G01*
%TO.C,U5*%
X84190356Y-128294700D02*
G75*
G02*
X84069646Y-128294700I-60355J0D01*
G01*
X84069646Y-128294700D02*
G75*
G02*
X84190356Y-128294700I60355J0D01*
G01*
%TO.C,L1*%
D15*
X96315710Y-121320000D02*
G75*
G02*
X96124290Y-121320000I-95710J0D01*
G01*
X96124290Y-121320000D02*
G75*
G02*
X96315710Y-121320000I95710J0D01*
G01*
%TO.C,U6*%
D14*
X111390355Y-128220000D02*
G75*
G02*
X111269645Y-128220000I-60355J0D01*
G01*
X111269645Y-128220000D02*
G75*
G02*
X111390355Y-128220000I60355J0D01*
G01*
%TO.C,U7*%
X120190355Y-115720000D02*
G75*
G02*
X120069645Y-115720000I-60355J0D01*
G01*
X120069645Y-115720000D02*
G75*
G02*
X120190355Y-115720000I60355J0D01*
G01*
D13*
%TO.C,J1*%
X73080000Y-122920000D02*
X73080000Y-122420000D01*
X73080000Y-126920000D02*
X73080000Y-127420000D01*
X73080000Y-126920000D02*
X73780000Y-126370000D01*
X73780000Y-123470000D02*
X73080000Y-122920000D01*
X73780000Y-126370000D02*
X73780000Y-123470000D01*
X77180000Y-122520000D02*
X77180000Y-121620000D01*
X77180000Y-128220000D02*
X77180000Y-127320000D01*
X77580000Y-121620000D02*
X74180000Y-121620000D01*
X77580000Y-121620000D02*
X77580000Y-122520000D01*
X77580000Y-127320000D02*
X77580000Y-128220000D01*
X77580000Y-128220000D02*
X74180000Y-128220000D01*
X76762842Y-123120000D02*
G75*
G02*
X76480000Y-123120000I-141421J0D01*
G01*
X76480000Y-123120000D02*
G75*
G02*
X76762842Y-123120000I141421J0D01*
G01*
%TO.C,U8*%
X99105000Y-117895000D02*
X99930000Y-117895000D01*
X99105000Y-118720000D02*
X99105000Y-117895000D01*
X107155000Y-117895000D02*
X106330000Y-117895000D01*
X107155000Y-118720000D02*
X107155000Y-117895000D01*
X107155000Y-125120000D02*
X107155000Y-125945000D01*
X107155000Y-125945000D02*
X106330000Y-125945000D01*
D16*
X99431776Y-125842752D02*
G75*
G02*
X98903424Y-125842752I-264176J0D01*
G01*
X98903424Y-125842752D02*
G75*
G02*
X99431776Y-125842752I264176J0D01*
G01*
%TO.C,U9*%
D14*
X92390355Y-115545300D02*
G75*
G02*
X92269645Y-115545300I-60355J0D01*
G01*
X92269645Y-115545300D02*
G75*
G02*
X92390355Y-115545300I60355J0D01*
G01*
D13*
%TO.C,U11*%
X83480000Y-115510000D02*
X87240000Y-115510000D01*
X83480000Y-122330000D02*
X87240000Y-122330000D01*
X87240000Y-115510000D02*
X87240000Y-116770000D01*
X87240000Y-122330000D02*
X87240000Y-121070000D01*
X82200000Y-115610000D02*
X81960000Y-115280000D01*
X82440000Y-115280000D01*
X82200000Y-115610000D01*
G36*
X82200000Y-115610000D02*
G01*
X81960000Y-115280000D01*
X82440000Y-115280000D01*
X82200000Y-115610000D01*
G37*
%TO.C,U3*%
D14*
X112990355Y-115520000D02*
G75*
G02*
X112869645Y-115520000I-60355J0D01*
G01*
X112869645Y-115520000D02*
G75*
G02*
X112990355Y-115520000I60355J0D01*
G01*
D13*
%TO.C,J4*%
X123545000Y-119310000D02*
X123545000Y-120360000D01*
X126045000Y-119310000D02*
X123545000Y-119310000D01*
X128015000Y-123360000D02*
X128015000Y-120480000D01*
%TO.C,U4*%
D14*
X118990355Y-128320000D02*
G75*
G02*
X118869645Y-128320000I-60355J0D01*
G01*
X118869645Y-128320000D02*
G75*
G02*
X118990355Y-128320000I60355J0D01*
G01*
%TD*%
%LPC*%
D17*
%TO.C,SW2*%
X129855000Y-116840000D03*
X134305000Y-116840000D03*
%TD*%
%TO.C,SW1*%
X129855000Y-127000000D03*
X134305000Y-127000000D03*
%TD*%
D18*
%TO.C,R7*%
X94650000Y-123120000D03*
X95610000Y-123120000D03*
%TD*%
%TO.C,R2*%
X111050000Y-122320000D03*
X112010000Y-122320000D03*
%TD*%
D19*
%TO.C,Y1*%
X117020000Y-123620000D03*
X117020000Y-121420000D03*
X115320000Y-121420000D03*
X115320000Y-123620000D03*
%TD*%
D20*
%TO.C,C1*%
X79830000Y-119620000D03*
X79830000Y-117720000D03*
%TD*%
D21*
%TO.C,J2*%
X146140000Y-131670001D03*
X146140000Y-131170002D03*
X146140000Y-130670000D03*
X146140000Y-130170001D03*
X146140000Y-129670000D03*
X146140000Y-129170001D03*
X146140000Y-128670002D03*
X146140000Y-128170000D03*
X146140000Y-127670001D03*
X146140000Y-127170002D03*
X146140000Y-126670001D03*
X146140000Y-126170002D03*
X146140000Y-125670000D03*
X146140000Y-125170001D03*
X146140000Y-124670002D03*
X146140000Y-124170001D03*
X146140000Y-123670002D03*
X146140000Y-123170000D03*
X146140000Y-122670001D03*
X146140000Y-122170002D03*
X146140000Y-121670000D03*
X146140000Y-121170002D03*
X146140000Y-120670000D03*
X146140000Y-120170001D03*
X146140000Y-119670002D03*
X146140000Y-119170000D03*
X146140000Y-118670001D03*
X146140000Y-118170000D03*
X146140000Y-117670001D03*
X146140000Y-117170002D03*
X146140000Y-116670000D03*
X146140000Y-116170001D03*
X146140000Y-115670000D03*
X146140000Y-115170001D03*
X146140000Y-114670002D03*
X146140000Y-114170000D03*
X146140000Y-113670001D03*
X146140000Y-113170000D03*
X146140000Y-112670001D03*
X146140000Y-112170002D03*
D22*
X148839999Y-133969981D03*
X148839999Y-109870019D03*
%TD*%
D23*
%TO.C,C10*%
X77530000Y-118100000D03*
X77530000Y-117140000D03*
%TD*%
D24*
%TO.C,C19*%
X90830000Y-119970000D03*
X90830000Y-121870000D03*
%TD*%
D25*
%TO.C,U2*%
X76130001Y-117957800D03*
X75729999Y-117957800D03*
X75330000Y-117957800D03*
X74930001Y-117957800D03*
X74529999Y-117957800D03*
D26*
X74402900Y-118732500D03*
D25*
X74529999Y-119507200D03*
X74930001Y-119507200D03*
X75330000Y-119507200D03*
X75729999Y-119507200D03*
X76130001Y-119507200D03*
D26*
X76257100Y-118732500D03*
%TD*%
D23*
%TO.C,C21*%
X113370000Y-121800000D03*
X113370000Y-120840000D03*
%TD*%
%TO.C,C3*%
X121530000Y-116800000D03*
X121530000Y-115840000D03*
%TD*%
%TO.C,C17*%
X102930000Y-116650000D03*
X102930000Y-115690000D03*
%TD*%
D25*
%TO.C,U5*%
X84130000Y-127469400D03*
X84530002Y-127469400D03*
X84930001Y-127469400D03*
X85330000Y-127469400D03*
X85730002Y-127469400D03*
D26*
X85857101Y-126694700D03*
D25*
X85730002Y-125920000D03*
X85330000Y-125920000D03*
X84930001Y-125920000D03*
X84530002Y-125920000D03*
X84130000Y-125920000D03*
D26*
X84002901Y-126694700D03*
%TD*%
D27*
%TO.C,L1*%
X95620000Y-120620000D03*
X95620000Y-119220000D03*
%TD*%
D25*
%TO.C,U6*%
X111329999Y-127394700D03*
X111730001Y-127394700D03*
X112130000Y-127394700D03*
X112529999Y-127394700D03*
X112930001Y-127394700D03*
D26*
X113057100Y-126620000D03*
D25*
X112930001Y-125845300D03*
X112529999Y-125845300D03*
X112130000Y-125845300D03*
X111730001Y-125845300D03*
X111329999Y-125845300D03*
D26*
X111202900Y-126620000D03*
%TD*%
D18*
%TO.C,C28*%
X105850000Y-127520000D03*
X106810000Y-127520000D03*
%TD*%
D25*
%TO.C,U7*%
X120130001Y-116545300D03*
X119729999Y-116545300D03*
X119330000Y-116545300D03*
X118930001Y-116545300D03*
X118529999Y-116545300D03*
D26*
X118402900Y-117320000D03*
D25*
X118529999Y-118094700D03*
X118930001Y-118094700D03*
X119330000Y-118094700D03*
X119729999Y-118094700D03*
X120130001Y-118094700D03*
D26*
X120257100Y-117320000D03*
%TD*%
D28*
%TO.C,J1*%
X73580000Y-121970000D03*
D29*
X77580000Y-123120000D03*
X77580000Y-124320000D03*
X77580000Y-125520000D03*
X77580000Y-126720000D03*
D28*
X73580000Y-127870000D03*
D30*
X74780000Y-121920000D03*
X74780000Y-122720000D03*
X74080000Y-122720000D03*
X73380000Y-122720000D03*
X74780000Y-127120000D03*
X74080000Y-127120000D03*
X74780000Y-127870000D03*
%TD*%
D18*
%TO.C,R6*%
X129580000Y-129520000D03*
X130540000Y-129520000D03*
%TD*%
%TO.C,C24*%
X109150000Y-121720000D03*
X110110000Y-121720000D03*
%TD*%
%TO.C,C6*%
X117410000Y-127320000D03*
X116450000Y-127320000D03*
%TD*%
D31*
%TO.C,U8*%
X100330000Y-125357500D03*
X100730000Y-125357500D03*
X101130000Y-125357500D03*
X101530000Y-125357500D03*
X101930000Y-125357500D03*
X102330000Y-125357500D03*
X102730000Y-125357500D03*
X103130000Y-125357500D03*
X103530000Y-125357500D03*
X103930000Y-125357500D03*
X104330000Y-125357500D03*
X104730000Y-125357500D03*
X105130000Y-125357500D03*
X105530000Y-125357500D03*
X105930000Y-125357500D03*
D32*
X106567500Y-124720000D03*
X106567500Y-124320000D03*
X106567500Y-123920000D03*
X106567500Y-123520000D03*
X106567500Y-123120000D03*
X106567500Y-122720000D03*
X106567500Y-122320000D03*
X106567500Y-121920000D03*
X106567500Y-121520000D03*
X106567500Y-121120000D03*
X106567500Y-120720000D03*
X106567500Y-120320000D03*
X106567500Y-119920000D03*
X106567500Y-119520000D03*
X106567500Y-119120000D03*
D31*
X105930000Y-118482500D03*
X105530000Y-118482500D03*
X105130000Y-118482500D03*
X104730000Y-118482500D03*
X104330000Y-118482500D03*
X103930000Y-118482500D03*
X103530000Y-118482500D03*
X103130000Y-118482500D03*
X102730000Y-118482500D03*
X102330000Y-118482500D03*
X101930000Y-118482500D03*
X101530000Y-118482500D03*
X101130000Y-118482500D03*
X100730000Y-118482500D03*
X100330000Y-118482500D03*
D32*
X99692500Y-119120000D03*
X99692500Y-119520000D03*
X99692500Y-119920000D03*
X99692500Y-120320000D03*
X99692500Y-120720000D03*
X99692500Y-121120000D03*
X99692500Y-121520000D03*
X99692500Y-121920000D03*
X99692500Y-122320000D03*
X99692500Y-122720000D03*
X99692500Y-123120000D03*
X99692500Y-123520000D03*
X99692500Y-123920000D03*
X99692500Y-124320000D03*
X99692500Y-124720000D03*
D30*
X102280000Y-122770000D03*
X103130000Y-122770000D03*
X103980000Y-122770000D03*
X102280000Y-121920000D03*
X103130000Y-121920000D03*
D33*
X103130000Y-121920000D03*
D30*
X103980000Y-121920000D03*
X102280000Y-121070000D03*
X103130000Y-121070000D03*
X103980000Y-121070000D03*
%TD*%
D23*
%TO.C,C15*%
X121530000Y-117840000D03*
X121530000Y-118800000D03*
%TD*%
D18*
%TO.C,R8*%
X94650000Y-122120000D03*
X95610000Y-122120000D03*
%TD*%
D23*
%TO.C,C11*%
X114330000Y-116600000D03*
X114330000Y-115640000D03*
%TD*%
D34*
%TO.C,J3*%
X142240000Y-137160000D03*
%TD*%
D18*
%TO.C,C32*%
X98010000Y-125320000D03*
X97050000Y-125320000D03*
%TD*%
D23*
%TO.C,C22*%
X97105000Y-120400000D03*
X97105000Y-119440000D03*
%TD*%
%TO.C,C31*%
X98030000Y-120400000D03*
X98030000Y-119440000D03*
%TD*%
D25*
%TO.C,U9*%
X92330001Y-116370600D03*
X91929999Y-116370600D03*
X91530000Y-116370600D03*
X91130001Y-116370600D03*
X90729999Y-116370600D03*
D26*
X90602900Y-117145300D03*
D25*
X90729999Y-117920000D03*
X91130001Y-117920000D03*
X91530000Y-117920000D03*
X91929999Y-117920000D03*
X92330001Y-117920000D03*
D26*
X92457100Y-117145300D03*
%TD*%
D18*
%TO.C,C12*%
X109910000Y-126720000D03*
X108950000Y-126720000D03*
%TD*%
D35*
%TO.C,U11*%
X82180000Y-116620000D03*
X82180000Y-118920000D03*
D36*
X88480000Y-118920000D03*
D35*
X82180000Y-121220000D03*
%TD*%
D23*
%TO.C,C7*%
X114330000Y-117640000D03*
X114330000Y-118600000D03*
%TD*%
%TO.C,C20*%
X113370000Y-123340000D03*
X113370000Y-124300000D03*
%TD*%
%TO.C,C26*%
X103930000Y-116650000D03*
X103930000Y-115690000D03*
%TD*%
D18*
%TO.C,C4*%
X93550000Y-116220000D03*
X94510000Y-116220000D03*
%TD*%
%TO.C,R1*%
X96250000Y-117420000D03*
X95290000Y-117420000D03*
%TD*%
%TO.C,C5*%
X117410000Y-126320000D03*
X116450000Y-126320000D03*
%TD*%
%TO.C,C16*%
X97190000Y-117420000D03*
X98150000Y-117420000D03*
%TD*%
D23*
%TO.C,C13*%
X94230000Y-118100000D03*
X94230000Y-117140000D03*
%TD*%
D18*
%TO.C,C14*%
X109610000Y-127720000D03*
X108650000Y-127720000D03*
%TD*%
D23*
%TO.C,C9*%
X82730000Y-126200000D03*
X82730000Y-125240000D03*
%TD*%
D18*
%TO.C,C30*%
X97510000Y-124120000D03*
X96550000Y-124120000D03*
%TD*%
%TO.C,C8*%
X83010000Y-127920000D03*
X82050000Y-127920000D03*
%TD*%
%TO.C,C27*%
X108150000Y-117820000D03*
X109110000Y-117820000D03*
%TD*%
D25*
%TO.C,U3*%
X112930001Y-116345300D03*
X112529999Y-116345300D03*
X112130000Y-116345300D03*
X111730001Y-116345300D03*
X111329999Y-116345300D03*
D26*
X111202900Y-117120000D03*
D25*
X111329999Y-117894700D03*
X111730001Y-117894700D03*
X112130000Y-117894700D03*
X112529999Y-117894700D03*
X112930001Y-117894700D03*
D26*
X113057100Y-117120000D03*
%TD*%
D37*
%TO.C,R4*%
X129840000Y-114320000D03*
X128820000Y-114320000D03*
%TD*%
D18*
%TO.C,C18*%
X108550000Y-123320000D03*
X109510000Y-123320000D03*
%TD*%
D23*
%TO.C,C2*%
X77530000Y-119240000D03*
X77530000Y-120200000D03*
%TD*%
D38*
%TO.C,J4*%
X123330000Y-122920000D03*
X123330000Y-121920000D03*
X123330000Y-120920000D03*
D39*
X127205000Y-124220000D03*
X127205000Y-119620000D03*
%TD*%
D18*
%TO.C,C29*%
X100010000Y-116820000D03*
X99050000Y-116820000D03*
%TD*%
%TO.C,C25*%
X102210000Y-127770000D03*
X101250000Y-127770000D03*
%TD*%
D25*
%TO.C,U4*%
X118929999Y-127494700D03*
X119330001Y-127494700D03*
X119730000Y-127494700D03*
X120129999Y-127494700D03*
X120530001Y-127494700D03*
D26*
X120657100Y-126720000D03*
D25*
X120530001Y-125945300D03*
X120129999Y-125945300D03*
X119730000Y-125945300D03*
X119330001Y-125945300D03*
X118929999Y-125945300D03*
D26*
X118802900Y-126720000D03*
%TD*%
D40*
%TO.C,U1*%
X76199999Y-114300000D03*
X78739999Y-114300000D03*
X81279999Y-114300000D03*
X83819999Y-114300000D03*
X86359999Y-114300000D03*
X88899999Y-114300000D03*
X91439999Y-114300000D03*
X93979999Y-114300000D03*
X96519999Y-114300000D03*
X99059999Y-114300000D03*
X101599999Y-114300000D03*
X104139999Y-114300000D03*
X106679999Y-114300000D03*
X109219999Y-114300000D03*
X111759999Y-114300000D03*
X114299999Y-114300000D03*
X116839999Y-114300000D03*
X119379999Y-114300000D03*
X121919999Y-114300000D03*
X124459999Y-114300000D03*
X124459999Y-129540000D03*
X121919999Y-129540000D03*
X119379999Y-129540000D03*
X116839999Y-129540000D03*
X114299999Y-129540000D03*
X111759999Y-129540000D03*
X109219999Y-129540000D03*
X106679999Y-129540000D03*
X104139999Y-129540000D03*
X101599999Y-129540000D03*
X99059999Y-129540000D03*
X96519999Y-129540000D03*
X93979999Y-129540000D03*
X91439999Y-129540000D03*
X88899999Y-129540000D03*
X86359999Y-129540000D03*
X83819999Y-129540000D03*
X81279999Y-129540000D03*
X78739999Y-129540000D03*
X76199999Y-129540000D03*
%TD*%
%LPD*%
M02*
