%TF.GenerationSoftware,KiCad,Pcbnew,9.0.1*%
%TF.CreationDate,2025-10-13T15:59:09-06:00*%
%TF.ProjectId,inconsole,696e636f-6e73-46f6-9c65-2e6b69636164,rev?*%
%TF.SameCoordinates,Original*%
%TF.FileFunction,Copper,L4,Bot*%
%TF.FilePolarity,Positive*%
%FSLAX46Y46*%
G04 Gerber Fmt 4.6, Leading zero omitted, Abs format (unit mm)*
G04 Created by KiCad (PCBNEW 9.0.1) date 2025-10-13 15:59:09*
%MOMM*%
%LPD*%
G01*
G04 APERTURE LIST*
G04 Aperture macros list*
%AMRoundRect*
0 Rectangle with rounded corners*
0 $1 Rounding radius*
0 $2 $3 $4 $5 $6 $7 $8 $9 X,Y pos of 4 corners*
0 Add a 4 corners polygon primitive as box body*
4,1,4,$2,$3,$4,$5,$6,$7,$8,$9,$2,$3,0*
0 Add four circle primitives for the rounded corners*
1,1,$1+$1,$2,$3*
1,1,$1+$1,$4,$5*
1,1,$1+$1,$6,$7*
1,1,$1+$1,$8,$9*
0 Add four rect primitives between the rounded corners*
20,1,$1+$1,$2,$3,$4,$5,0*
20,1,$1+$1,$4,$5,$6,$7,0*
20,1,$1+$1,$6,$7,$8,$9,0*
20,1,$1+$1,$8,$9,$2,$3,0*%
G04 Aperture macros list end*
%TA.AperFunction,HeatsinkPad*%
%ADD10C,0.600000*%
%TD*%
%TA.AperFunction,SMDPad,CuDef*%
%ADD11RoundRect,0.100000X-0.900000X0.625000X-0.900000X-0.625000X0.900000X-0.625000X0.900000X0.625000X0*%
%TD*%
%TA.AperFunction,ComponentPad*%
%ADD12C,0.600000*%
%TD*%
%TA.AperFunction,ComponentPad*%
%ADD13R,1.700000X1.700000*%
%TD*%
%TA.AperFunction,ComponentPad*%
%ADD14C,1.600000*%
%TD*%
%TA.AperFunction,ViaPad*%
%ADD15C,0.600000*%
%TD*%
%TA.AperFunction,Conductor*%
%ADD16C,0.600000*%
%TD*%
%TA.AperFunction,Conductor*%
%ADD17C,0.200000*%
%TD*%
G04 APERTURE END LIST*
D10*
%TO.P,J1,MP,MountPin*%
%TO.N,GND*%
X74780000Y-121920000D03*
D11*
X74080000Y-122345000D03*
D10*
X74780000Y-122720000D03*
X74080000Y-122720000D03*
X73380000Y-122720000D03*
X74780000Y-127120000D03*
X74080000Y-127120000D03*
D12*
X73380000Y-127120000D03*
D11*
X74080000Y-127495000D03*
D10*
X74780000Y-127870000D03*
%TD*%
%TO.P,U8,61,GND*%
%TO.N,GND*%
X102280000Y-122770000D03*
X103130000Y-122770000D03*
X103980000Y-122770000D03*
X102280000Y-121920000D03*
X103130000Y-121920000D03*
X103980000Y-121920000D03*
X102280000Y-121070000D03*
X103130000Y-121070000D03*
X103980000Y-121070000D03*
%TD*%
D13*
%TO.P,J3,1,Pin_1*%
%TO.N,GND*%
X142240000Y-137160000D03*
%TD*%
D14*
%TO.P,U1,1,AD1*%
%TO.N,AD1*%
X76199999Y-114300000D03*
%TO.P,U1,2,AD2*%
%TO.N,AD2*%
X78739999Y-114300000D03*
%TO.P,U1,3,/RST*%
%TO.N,RST*%
X81279999Y-114300000D03*
%TO.P,U1,4,A00*%
%TO.N,A0*%
X83819999Y-114300000D03*
%TO.P,U1,5,A01*%
%TO.N,A1*%
X86359999Y-114300000D03*
%TO.P,U1,6,A02*%
%TO.N,A2*%
X88899999Y-114300000D03*
%TO.P,U1,7,A03*%
%TO.N,A3*%
X91439999Y-114300000D03*
%TO.P,U1,8,A04*%
%TO.N,A4*%
X93979999Y-114300000D03*
%TO.P,U1,9,A05*%
%TO.N,A5*%
X96519999Y-114300000D03*
%TO.P,U1,10,A06*%
%TO.N,A6*%
X99059999Y-114300000D03*
%TO.P,U1,11,A07*%
%TO.N,A7*%
X101599999Y-114300000D03*
%TO.P,U1,12,A08*%
%TO.N,A8*%
X104139999Y-114300000D03*
%TO.P,U1,13,A09*%
%TO.N,A9*%
X106679999Y-114300000D03*
%TO.P,U1,14,A10*%
%TO.N,A10*%
X109219999Y-114300000D03*
%TO.P,U1,15,A11*%
%TO.N,A11*%
X111759999Y-114300000D03*
%TO.P,U1,16,A12*%
%TO.N,A12*%
X114299999Y-114300000D03*
%TO.P,U1,17,A13*%
%TO.N,A13*%
X116839999Y-114300000D03*
%TO.P,U1,18,A14*%
%TO.N,A14*%
X119379999Y-114300000D03*
%TO.P,U1,19,A15*%
%TO.N,A15*%
X121919999Y-114300000D03*
%TO.P,U1,20,GND*%
%TO.N,GND*%
X124459999Y-114300000D03*
%TO.P,U1,21,D7*%
%TO.N,D7*%
X124459999Y-129540000D03*
%TO.P,U1,22,D6*%
%TO.N,D6*%
X121919999Y-129540000D03*
%TO.P,U1,23,D5*%
%TO.N,D5*%
X119379999Y-129540000D03*
%TO.P,U1,24,D4*%
%TO.N,D4*%
X116839999Y-129540000D03*
%TO.P,U1,25,D3*%
%TO.N,D3*%
X114299999Y-129540000D03*
%TO.P,U1,26,D2*%
%TO.N,D2*%
X111759999Y-129540000D03*
%TO.P,U1,27,D1*%
%TO.N,D1*%
X109219999Y-129540000D03*
%TO.P,U1,28,D0*%
%TO.N,D0*%
X106679999Y-129540000D03*
%TO.P,U1,29,CLK*%
%TO.N,CLK*%
X104139999Y-129540000D03*
%TO.P,U1,30,TST*%
%TO.N,TST*%
X101599999Y-129540000D03*
%TO.P,U1,31,M2*%
%TO.N,M2*%
X99059999Y-129540000D03*
%TO.P,U1,32,/IRQ*%
%TO.N,{slash}IRQ*%
X96519999Y-129540000D03*
%TO.P,U1,33,/NMI*%
%TO.N,{slash}NMI*%
X93979999Y-129540000D03*
%TO.P,U1,34,R/W*%
%TO.N,R{slash}W*%
X91439999Y-129540000D03*
%TO.P,U1,35,/OE2*%
%TO.N,{slash}OE2*%
X88899999Y-129540000D03*
%TO.P,U1,36,/OE1*%
%TO.N,{slash}OE1*%
X86359999Y-129540000D03*
%TO.P,U1,37,OUT2*%
%TO.N,OUT2*%
X83819999Y-129540000D03*
%TO.P,U1,38,OUT1*%
%TO.N,OUT1*%
X81279999Y-129540000D03*
%TO.P,U1,39,OUT0*%
%TO.N,OUT0*%
X78739999Y-129540000D03*
%TO.P,U1,40,+5V*%
%TO.N,NES_5v*%
X76199999Y-129540000D03*
%TD*%
D15*
%TO.N,GND*%
X115530000Y-126320000D03*
X113370000Y-119920000D03*
X92330000Y-121320000D03*
X115370000Y-125120000D03*
X126930000Y-118320000D03*
X114230000Y-126320000D03*
X96130000Y-125320000D03*
X97770000Y-118620000D03*
X115530000Y-127320000D03*
X117320000Y-125120000D03*
X109930000Y-118320000D03*
X100630000Y-128120000D03*
X78330000Y-119920000D03*
X78430000Y-117120000D03*
X111930000Y-123520000D03*
X117330000Y-117320000D03*
X95130000Y-116320000D03*
X81930000Y-125320000D03*
X124530000Y-121920000D03*
X126930000Y-125520000D03*
X80330000Y-116720000D03*
X105168990Y-115869312D03*
X81130000Y-127920000D03*
X115357685Y-115920000D03*
X117170000Y-119920000D03*
X95730000Y-124120000D03*
X109530000Y-115920000D03*
X89929999Y-116120000D03*
X121730000Y-126720000D03*
X99130000Y-118120000D03*
X122530000Y-115920000D03*
X110330000Y-123420000D03*
X107615933Y-127895202D03*
X73930000Y-118120000D03*
X86730000Y-127520000D03*
X115130000Y-118320000D03*
X122330000Y-118920000D03*
X97070000Y-118620000D03*
X109930000Y-120720000D03*
%TO.N,+3.3V*%
X78330000Y-119120000D03*
X110030000Y-126020000D03*
X107330000Y-117920000D03*
X96230000Y-118220000D03*
X104730000Y-116440003D03*
X83600000Y-118920000D03*
X81930000Y-126320000D03*
X88530000Y-121520000D03*
X122330000Y-117720000D03*
X88530000Y-124920000D03*
X100330000Y-118020000D03*
X118330000Y-125920000D03*
X115130000Y-117520000D03*
X104930000Y-127920000D03*
%TO.N,+5V*%
X79930000Y-121720000D03*
X110460426Y-127802054D03*
X93349999Y-116900001D03*
X82930000Y-127120000D03*
X122330000Y-116920000D03*
X115130000Y-116720000D03*
X118330000Y-127520000D03*
%TO.N,A2*%
X76530000Y-116720000D03*
%TO.N,A4*%
X90330000Y-115320000D03*
%TO.N,A0*%
X75130000Y-116320000D03*
%TO.N,A7*%
X110530000Y-116320000D03*
%TO.N,M2*%
X114130000Y-127320000D03*
%TO.N,A9*%
X112930000Y-115320000D03*
%TO.N,A1*%
X76020882Y-116210882D03*
%TO.N,RST_3*%
X104570228Y-127279772D03*
X73930000Y-120920000D03*
%TO.N,A0_3*%
X74730000Y-120920000D03*
X104027124Y-127792449D03*
%TO.N,A1_3*%
X75530000Y-120920000D03*
X102930000Y-127920000D03*
%TO.N,A2_3*%
X103450000Y-127361948D03*
X76330000Y-120920000D03*
%TO.N,A4_3*%
X97730000Y-116520000D03*
X90129999Y-117920000D03*
%TO.N,A5_3*%
X101831000Y-117440003D03*
X91729999Y-118920000D03*
%TO.N,A6_3*%
X92529999Y-118920000D03*
X101930000Y-116720000D03*
%TO.N,A3_3*%
X101230000Y-116440000D03*
X90929999Y-118920000D03*
%TO.N,A13_3*%
X117530000Y-118120000D03*
X106930000Y-115920000D03*
%TO.N,D7_3*%
X106530000Y-118520000D03*
X120330000Y-119320000D03*
%TO.N,A15_3*%
X105930000Y-115840000D03*
X119530000Y-119320000D03*
%TO.N,D6_3*%
X121530000Y-125520000D03*
X106530000Y-125520000D03*
%TO.N,D3_3*%
X108578999Y-125856537D03*
X119330000Y-124320000D03*
%TO.N,D4_3*%
X108130000Y-126420000D03*
X120130000Y-124520000D03*
%TO.N,D5_3*%
X107130000Y-125920000D03*
X120930000Y-124920000D03*
%TO.N,+1.1V*%
X97670000Y-121320000D03*
X100930000Y-121320000D03*
X102130000Y-126920000D03*
X96970000Y-121320000D03*
X102330000Y-124120000D03*
X105330000Y-121920000D03*
X108330000Y-121800000D03*
X102730000Y-119720000D03*
X102930000Y-117420000D03*
%TO.N,Net-(U8-QSPI_SS)*%
X92730000Y-125400000D03*
X128530000Y-129520000D03*
%TO.N,Net-(U8-RUN)*%
X110730000Y-120520000D03*
X122730000Y-120120000D03*
X134330000Y-118920000D03*
%TO.N,/SWCLK*%
X109130000Y-120720000D03*
X121130000Y-120920000D03*
%TO.N,/SWD*%
X121930000Y-121720000D03*
X108330000Y-120720000D03*
%TD*%
D16*
%TO.N,+3.3V*%
X83600000Y-118920000D02*
X78530000Y-118920000D01*
X78530000Y-118920000D02*
X78330000Y-119120000D01*
X88530000Y-121520000D02*
X88530000Y-124920000D01*
%TO.N,+5V*%
X106530000Y-119920000D02*
X106530000Y-123220000D01*
X93349999Y-116900001D02*
X94651000Y-115599000D01*
X85130000Y-121720000D02*
X89949999Y-116900001D01*
X106530000Y-123220000D02*
X105530000Y-124220000D01*
X116330000Y-116320000D02*
X115930000Y-116720000D01*
X118330000Y-127520000D02*
X123530000Y-127520000D01*
X105530000Y-124220000D02*
X105530000Y-126141000D01*
X123530000Y-127520000D02*
X125730000Y-125320000D01*
X109799372Y-127141000D02*
X110460426Y-127802054D01*
X115930000Y-116720000D02*
X115130000Y-116720000D01*
X94651000Y-115599000D02*
X102209000Y-115599000D01*
X85130000Y-121720000D02*
X79930000Y-121720000D01*
X89949999Y-116900001D02*
X93349999Y-116900001D01*
X120930000Y-116320000D02*
X116330000Y-116320000D01*
X125730000Y-125320000D02*
X125730000Y-119210176D01*
X121530000Y-116920000D02*
X122330000Y-116920000D01*
X102209000Y-115599000D02*
X106530000Y-119920000D01*
X106530000Y-127141000D02*
X109799372Y-127141000D01*
X125730000Y-119210176D02*
X123439824Y-116920000D01*
X105530000Y-126141000D02*
X106530000Y-127141000D01*
X123439824Y-116920000D02*
X122330000Y-116920000D01*
X120930000Y-116320000D02*
X121530000Y-116920000D01*
D17*
%TO.N,A2*%
X76530000Y-116520000D02*
X76530000Y-116720000D01*
X88900000Y-114300000D02*
X87080000Y-116120000D01*
X76930000Y-116120000D02*
X76530000Y-116520000D01*
X87080000Y-116120000D02*
X76930000Y-116120000D01*
%TO.N,A4*%
X90330000Y-115320000D02*
X92959999Y-115320000D01*
X92959999Y-115320000D02*
X93979999Y-114300000D01*
%TO.N,A0*%
X75930000Y-115320000D02*
X82800000Y-115320000D01*
X75130000Y-116120000D02*
X75930000Y-115320000D01*
X82800000Y-115320000D02*
X83820000Y-114300000D01*
X75130000Y-116320000D02*
X75130000Y-116120000D01*
%TO.N,A7*%
X107130000Y-115320000D02*
X102666805Y-115320000D01*
X108251000Y-116441000D02*
X107130000Y-115320000D01*
X110530000Y-116320000D02*
X110409000Y-116441000D01*
X101646805Y-114300000D02*
X101599999Y-114300000D01*
X110409000Y-116441000D02*
X108251000Y-116441000D01*
X102666805Y-115320000D02*
X101646805Y-114300000D01*
%TO.N,M2*%
X114130000Y-127420000D02*
X113031000Y-128519000D01*
X112928000Y-128520000D02*
X101030000Y-128520000D01*
X114130000Y-127320000D02*
X114130000Y-127420000D01*
X100830000Y-128720000D02*
X99880000Y-128720000D01*
X112929000Y-128519000D02*
X112928000Y-128520000D01*
X99880000Y-128720000D02*
X99060000Y-129540000D01*
X101030000Y-128520000D02*
X100830000Y-128720000D01*
X112930000Y-128520000D02*
X112929000Y-128519000D01*
X113031000Y-128519000D02*
X112929000Y-128519000D01*
%TO.N,A9*%
X107699999Y-115320000D02*
X112930000Y-115320000D01*
X106679999Y-114300000D02*
X107699999Y-115320000D01*
%TO.N,A1*%
X76511764Y-115720000D02*
X84940000Y-115720000D01*
X76020882Y-116210882D02*
X76511764Y-115720000D01*
X84940000Y-115720000D02*
X86360000Y-114300000D01*
%TO.N,RST_3*%
X80330000Y-123520000D02*
X85730000Y-123520000D01*
X85730000Y-123520000D02*
X88130000Y-125920000D01*
X101330000Y-125520000D02*
X102930000Y-125520000D01*
X74930000Y-119920000D02*
X76730000Y-119920000D01*
X76730000Y-119920000D02*
X80330000Y-123520000D01*
X73930000Y-120920000D02*
X74930000Y-119920000D01*
X102930000Y-125520000D02*
X104570228Y-127160228D01*
X88130000Y-125920000D02*
X100930000Y-125920000D01*
X104570228Y-127160228D02*
X104570228Y-127279772D01*
X100930000Y-125920000D02*
X101330000Y-125520000D01*
%TO.N,A0_3*%
X75330000Y-120320000D02*
X76530000Y-120320000D01*
X80130000Y-123920000D02*
X85530000Y-123920000D01*
X102744858Y-125920000D02*
X104027124Y-127202266D01*
X85530000Y-123920000D02*
X87930000Y-126320000D01*
X76530000Y-120320000D02*
X80130000Y-123920000D01*
X101076038Y-126320000D02*
X101476038Y-125920000D01*
X74730000Y-120920000D02*
X75330000Y-120320000D01*
X104027124Y-127202266D02*
X104027124Y-127792449D01*
X87930000Y-126320000D02*
X101076038Y-126320000D01*
X101476038Y-125920000D02*
X102744858Y-125920000D01*
%TO.N,A1_3*%
X101330000Y-127120000D02*
X102130000Y-127920000D01*
X79330000Y-124720000D02*
X85130000Y-124720000D01*
X85130000Y-124720000D02*
X87530000Y-127120000D01*
X87530000Y-127120000D02*
X101330000Y-127120000D01*
X75530000Y-120920000D02*
X79330000Y-124720000D01*
X102130000Y-127920000D02*
X102930000Y-127920000D01*
%TO.N,A2_3*%
X76330000Y-120920000D02*
X79730000Y-124320000D01*
X79730000Y-124320000D02*
X85330000Y-124320000D01*
X101530000Y-126320000D02*
X102530000Y-126320000D01*
X101130000Y-126720000D02*
X101530000Y-126320000D01*
X103450000Y-127240000D02*
X103450000Y-127361948D01*
X87730000Y-126720000D02*
X101130000Y-126720000D01*
X102530000Y-126320000D02*
X103450000Y-127240000D01*
X85330000Y-124320000D02*
X87730000Y-126720000D01*
%TO.N,A4_3*%
X97730000Y-116520000D02*
X95930000Y-116520000D01*
X95930000Y-116520000D02*
X94530000Y-117920000D01*
X94530000Y-117920000D02*
X90129999Y-117920000D01*
%TO.N,A5_3*%
X101831000Y-117440003D02*
X101831000Y-118619000D01*
X101831000Y-118619000D02*
X100530000Y-119920000D01*
X92729999Y-119920000D02*
X91729999Y-118920000D01*
X100530000Y-119920000D02*
X92729999Y-119920000D01*
%TO.N,A6_3*%
X101310000Y-117655809D02*
X101330000Y-117675809D01*
X101330000Y-117204197D02*
X101310000Y-117224197D01*
X93129999Y-119520000D02*
X92529999Y-118920000D01*
X101310000Y-117224197D02*
X101310000Y-117655809D01*
X101730000Y-116720000D02*
X101330000Y-117120000D01*
X101330000Y-117675809D02*
X101330000Y-118520000D01*
X101330000Y-117120000D02*
X101330000Y-117204197D01*
X101930000Y-116720000D02*
X101730000Y-116720000D01*
X100330000Y-119520000D02*
X93129999Y-119520000D01*
X101330000Y-118520000D02*
X100330000Y-119520000D01*
%TO.N,A3_3*%
X100051000Y-119199000D02*
X94009000Y-119199000D01*
X101210000Y-116440000D02*
X100930000Y-116720000D01*
X100930000Y-118320000D02*
X100051000Y-119199000D01*
X101230000Y-116440000D02*
X101210000Y-116440000D01*
X100930000Y-116720000D02*
X100930000Y-118320000D01*
X94009000Y-119199000D02*
X93130000Y-118320000D01*
X91529999Y-118320000D02*
X90929999Y-118920000D01*
X93130000Y-118320000D02*
X91529999Y-118320000D01*
%TO.N,A13_3*%
X116730000Y-118920000D02*
X117530000Y-118120000D01*
X111730000Y-116920000D02*
X113730000Y-118920000D01*
X113730000Y-118920000D02*
X116730000Y-118920000D01*
X106930000Y-115920000D02*
X107930000Y-116920000D01*
X107930000Y-116920000D02*
X111730000Y-116920000D01*
%TO.N,D7_3*%
X109530000Y-119120000D02*
X111130000Y-119120000D01*
X119130000Y-120520000D02*
X120330000Y-119320000D01*
X111130000Y-119120000D02*
X112530000Y-120520000D01*
X108945806Y-118535806D02*
X109530000Y-119120000D01*
X106545806Y-118535806D02*
X108945806Y-118535806D01*
X112530000Y-120520000D02*
X119130000Y-120520000D01*
X106530000Y-118520000D02*
X106545806Y-118535806D01*
%TO.N,A15_3*%
X111530000Y-117320000D02*
X113530000Y-119320000D01*
X113530000Y-119320000D02*
X119530000Y-119320000D01*
X107330000Y-117320000D02*
X111530000Y-117320000D01*
X105930000Y-115840000D02*
X105930000Y-115920000D01*
X105930000Y-115920000D02*
X107330000Y-117320000D01*
%TO.N,D6_3*%
X119825385Y-122920000D02*
X121530000Y-124624615D01*
X121530000Y-124624615D02*
X121530000Y-125520000D01*
X112190365Y-124120000D02*
X113390365Y-122920000D01*
X113390365Y-122920000D02*
X119825385Y-122920000D01*
X106530000Y-125520000D02*
X107930000Y-124120000D01*
X107930000Y-124120000D02*
X112190365Y-124120000D01*
%TO.N,D3_3*%
X114130000Y-124120000D02*
X119130000Y-124120000D01*
X108578999Y-125821001D02*
X109080000Y-125320000D01*
X109080000Y-125320000D02*
X112930000Y-125320000D01*
X108578999Y-125856537D02*
X108578999Y-125821001D01*
X119130000Y-124120000D02*
X119330000Y-124320000D01*
X112930000Y-125320000D02*
X114130000Y-124120000D01*
%TO.N,D4_3*%
X108059000Y-126349000D02*
X108059000Y-125604194D01*
X108743194Y-124920000D02*
X112716509Y-124920000D01*
X120130000Y-124383194D02*
X120130000Y-124520000D01*
X112716509Y-124920000D02*
X113916509Y-123720000D01*
X113916509Y-123720000D02*
X119466806Y-123720000D01*
X108059000Y-125604194D02*
X108743194Y-124920000D01*
X119466806Y-123720000D02*
X120130000Y-124383194D01*
X108130000Y-126420000D02*
X108059000Y-126349000D01*
%TO.N,D5_3*%
X120930000Y-124583194D02*
X120930000Y-124920000D01*
X113689528Y-123320000D02*
X119666806Y-123320000D01*
X119666806Y-123320000D02*
X120930000Y-124583194D01*
X107130000Y-125920000D02*
X108530000Y-124520000D01*
X108530000Y-124520000D02*
X112489528Y-124520000D01*
X112489528Y-124520000D02*
X113689528Y-123320000D01*
%TO.N,Net-(U8-RUN)*%
X119530000Y-120920000D02*
X120330000Y-120120000D01*
X120330000Y-120120000D02*
X122730000Y-120120000D01*
X111130000Y-120920000D02*
X119530000Y-120920000D01*
X110730000Y-120520000D02*
X111130000Y-120920000D01*
%TO.N,/SWCLK*%
X120730000Y-121320000D02*
X121130000Y-120920000D01*
X109130000Y-120720000D02*
X109730000Y-121320000D01*
X109730000Y-121320000D02*
X120730000Y-121320000D01*
%TO.N,/SWD*%
X109330000Y-121720000D02*
X121930000Y-121720000D01*
X108330000Y-120720000D02*
X109330000Y-121720000D01*
%TD*%
M02*
