M48
; DRILL file {KiCad 9.0.1} date 2025-10-13T15:59:12-0600
; FORMAT={-:-/ absolute / metric / decimal}
; #@! TF.CreationDate,2025-10-13T15:59:12-06:00
; #@! TF.GenerationSoftware,Kicad,Pcbnew,9.0.1
; #@! TF.FileFunction,Plated,1,4,PTH
FMAT,2
METRIC
; #@! TA.AperFunction,Plated,PTH,ViaDrill
T1C0.300
; #@! TA.AperFunction,Plated,PTH,ComponentDrill
T2C0.300
; #@! TA.AperFunction,Plated,PTH,ComponentDrill
T3C0.800
; #@! TA.AperFunction,Plated,PTH,ComponentDrill
T4C1.000
%
G90
G05
T1
X73.93Y-118.12
X73.93Y-120.92
X74.73Y-120.92
X75.13Y-116.32
X75.53Y-120.92
X76.021Y-116.211
X76.33Y-120.92
X76.53Y-116.72
X78.33Y-119.12
X78.33Y-119.92
X78.43Y-117.12
X79.93Y-121.72
X80.33Y-116.72
X81.13Y-127.92
X81.93Y-125.32
X81.93Y-126.32
X82.93Y-127.12
X83.6Y-118.92
X86.73Y-127.52
X88.53Y-121.52
X88.53Y-124.92
X89.93Y-116.12
X90.13Y-117.92
X90.33Y-115.32
X90.93Y-118.92
X91.73Y-118.92
X92.33Y-121.32
X92.53Y-118.92
X92.73Y-125.4
X93.35Y-116.9
X95.13Y-116.32
X95.73Y-124.12
X96.13Y-125.32
X96.23Y-118.22
X96.97Y-121.32
X97.07Y-118.62
X97.67Y-121.32
X97.73Y-116.52
X97.77Y-118.62
X99.13Y-118.12
X100.33Y-118.02
X100.63Y-128.12
X100.93Y-121.32
X101.23Y-116.44
X101.831Y-117.44
X101.93Y-116.72
X102.13Y-126.92
X102.33Y-124.12
X102.73Y-119.72
X102.93Y-117.42
X102.93Y-127.92
X103.45Y-127.362
X104.027Y-127.792
X104.57Y-127.28
X104.73Y-116.44
X104.93Y-127.92
X105.169Y-115.869
X105.33Y-121.92
X105.93Y-115.84
X106.53Y-118.52
X106.53Y-125.52
X106.93Y-115.92
X107.13Y-125.92
X107.33Y-117.92
X107.616Y-127.895
X108.13Y-126.42
X108.33Y-120.72
X108.33Y-121.8
X108.579Y-125.857
X109.13Y-120.72
X109.53Y-115.92
X109.93Y-118.32
X109.93Y-120.72
X110.03Y-126.02
X110.33Y-123.42
X110.46Y-127.802
X110.53Y-116.32
X110.73Y-120.52
X111.93Y-123.52
X112.93Y-115.32
X113.37Y-119.92
X114.13Y-127.32
X114.23Y-126.32
X115.13Y-116.72
X115.13Y-117.52
X115.13Y-118.32
X115.358Y-115.92
X115.37Y-125.12
X115.53Y-126.32
X115.53Y-127.32
X117.17Y-119.92
X117.32Y-125.12
X117.33Y-117.32
X117.53Y-118.12
X118.33Y-125.92
X118.33Y-127.52
X119.33Y-124.32
X119.53Y-119.32
X120.13Y-124.52
X120.33Y-119.32
X120.93Y-124.92
X121.13Y-120.92
X121.53Y-125.52
X121.73Y-126.72
X121.93Y-121.72
X122.33Y-116.92
X122.33Y-117.72
X122.33Y-118.92
X122.53Y-115.92
X122.73Y-120.12
X124.53Y-121.92
X126.93Y-118.32
X126.93Y-125.52
X128.53Y-129.52
X134.33Y-118.92
T2
X73.38Y-122.72
X73.38Y-127.12
X74.08Y-122.72
X74.08Y-127.12
X74.78Y-121.92
X74.78Y-122.72
X74.78Y-127.12
X74.78Y-127.87
X102.28Y-121.07
X102.28Y-121.92
X102.28Y-122.77
X103.13Y-121.07
X103.13Y-121.92
X103.13Y-122.77
X103.98Y-121.07
X103.98Y-121.92
X103.98Y-122.77
T3
X76.2Y-114.3
X76.2Y-129.54
X78.74Y-114.3
X78.74Y-129.54
X81.28Y-114.3
X81.28Y-129.54
X83.82Y-114.3
X83.82Y-129.54
X86.36Y-114.3
X86.36Y-129.54
X88.9Y-114.3
X88.9Y-129.54
X91.44Y-114.3
X91.44Y-129.54
X93.98Y-114.3
X93.98Y-129.54
X96.52Y-114.3
X96.52Y-129.54
X99.06Y-114.3
X99.06Y-129.54
X101.6Y-114.3
X101.6Y-129.54
X104.14Y-114.3
X104.14Y-129.54
X106.68Y-114.3
X106.68Y-129.54
X109.22Y-114.3
X109.22Y-129.54
X111.76Y-114.3
X111.76Y-129.54
X114.3Y-114.3
X114.3Y-129.54
X116.84Y-114.3
X116.84Y-129.54
X119.38Y-114.3
X119.38Y-129.54
X121.92Y-114.3
X121.92Y-129.54
X124.46Y-114.3
X124.46Y-129.54
T4
X142.24Y-137.16
M30
